<svg width="696" height="59" viewBox="0 0 696 59" fill="none" xmlns="http://www.w3.org/2000/svg">
<path d="M17.3145 8.932H13.75V0.879999H11.8364V20.35H13.75V10.67H17.3145V21.098H19.25V0H17.3145V8.932ZM2.04639 1.87V3.652H8.7124V1.87H2.04639ZM0.858398 6.248V8.008H7.26025V8.074C6.18225 11 3.63 13.904 0 15.818L1.21045 17.358C3.03645 16.28 4.70824 14.938 6.09424 13.31L9.50439 17.226L10.7363 15.884L7.15039 11.924C8.29439 10.274 9.15228 8.382 9.59229 6.248H0.858398Z" fill="#FFFAEA"/>
<path d="M40.6123 12.21L41.7563 10.626L33.1104 4.862C33.6604 3.982 34.1001 3.036 34.4521 2.024L32.4722 1.54C30.9542 5.764 27.0385 8.888 22.8145 10.648L23.8701 12.408C26.8621 11.044 29.8543 9.064 32.0103 6.402L40.6123 12.21ZM33.4404 10.78H31.4604V16.786H22V18.612H42.9004V16.786H33.4404V10.78Z" fill="#FFFAEA"/>
<path d="M61.6001 5.852V0H59.6641V7.458C56.4081 8.558 50.9745 9.196 47.5645 9.196L47.52 3.652H55.9683V1.87H45.54V11C50.93 11 56.5181 10.274 59.6641 9.108V11.77H61.6001V7.612H65.23V5.852H61.6001ZM61.6001 20.9V12.87H48.4004V20.9H61.6001ZM59.6641 14.586V19.162H50.3145V14.586H59.6641Z" fill="#FFFAEA"/>
<path d="M83.3145 21.098H85.25V0H83.3145V21.098ZM75.7461 8.932C75.5041 4.972 73.7883 2.926 71.2363 2.926C68.4423 2.926 66.6602 5.346 66.6602 10.01C66.6602 14.674 68.4423 17.094 71.2363 17.094C73.8763 17.094 75.6141 14.916 75.7681 10.692H78.2764V20.35H80.1904V0.879999H78.2764V8.932H75.7461ZM71.2363 15.246C69.6303 15.246 68.6401 13.618 68.6401 10.01C68.6401 6.402 69.6303 4.774 71.2363 4.774C72.8203 4.774 73.8101 6.402 73.8101 10.01C73.8101 13.618 72.8203 15.246 71.2363 15.246Z" fill="#FFFAEA"/>
<path d="M104.72 7.502H98.6704V9.262H104.72V21.12H106.7V0H104.72V7.502ZM94.3145 2.442C94.0065 8.316 91.6744 12.958 88.4404 15.95L90.0024 17.358C91.8284 15.576 93.3682 13.376 94.4902 10.736L100.606 16.72L101.816 15.268L95.1724 8.932C95.8104 6.996 96.2064 4.84 96.3604 2.508L94.3145 2.442Z" fill="#FFFAEA"/>
<path d="M128.7 21.12V0H126.764V21.12H128.7ZM117.7 12.474C120.956 12.474 123.2 10.582 123.2 7.414C123.2 4.268 120.956 2.376 117.7 2.376C114.444 2.376 112.2 4.268 112.2 7.414C112.2 10.582 114.444 12.474 117.7 12.474ZM117.7 10.736C115.654 10.736 114.18 9.592 114.18 7.414C114.18 5.258 115.654 4.114 117.7 4.114C119.746 4.114 121.22 5.258 121.22 7.414C121.22 9.592 119.746 10.736 117.7 10.736ZM110.33 17.776C116.798 17.776 121.638 17.358 125.84 16.412L125.576 14.696C121.396 15.642 116.71 15.95 110.11 15.95L110.33 17.776Z" fill="#FFFAEA"/>
<path d="M155.315 0H153.379V12.32H155.315V8.052H158.945V6.292H155.315V0ZM151.267 10.164L146.559 7.48C147.989 5.896 149.023 4.026 149.397 1.87H139.211V3.63H147.021V3.696C145.943 6.314 142.819 9.108 137.935 10.626L138.925 12.232C141.279 11.418 143.457 10.252 145.239 8.756L150.233 11.616L151.267 10.164ZM148.561 12.672C144.161 12.672 141.587 14.278 141.587 16.94C141.587 19.624 144.161 21.23 148.561 21.23C152.961 21.23 155.535 19.624 155.535 16.94C155.535 14.278 152.961 12.672 148.561 12.672ZM152.851 18.48C152.059 19.096 150.629 19.47 148.561 19.47C146.493 19.47 145.041 19.096 144.271 18.48C143.831 18.084 143.611 17.578 143.611 16.94C143.611 16.324 143.831 15.796 144.271 15.422C145.063 14.828 146.493 14.432 148.561 14.432C150.629 14.432 152.059 14.828 152.851 15.422C153.291 15.796 153.511 16.324 153.511 16.94C153.511 17.578 153.291 18.084 152.851 18.48Z" fill="#FFFAEA"/>
<path d="M176.87 12.32H182.81V1.87H180.83V5.412H170.93V1.87H168.95V12.32H174.89V16.786H165.43V18.612H186.33V16.786H176.87V12.32ZM180.83 7.172V10.56H170.93V7.172H180.83Z" fill="#FFFAEA"/>
<path d="M206.13 21.12V0H204.15V21.12H206.13ZM189.52 17.622C195.042 15.136 199.574 10.098 200.344 3.3H189.366V5.126H197.99V5.192C197.066 9.262 193.744 13.552 188.2 15.928L189.52 17.622Z" fill="#FFFAEA"/>
<path d="M227.03 9.372V0H225.094V21.12H227.03V11.132H230.66V9.372H227.03ZM219.264 5.126V5.192C218.384 9.262 215.238 13.596 209.87 16.082L211.212 17.754C216.58 15.158 220.826 10.076 221.574 3.3H211.014V5.126H219.264Z" fill="#FFFAEA"/>
<path d="M254.745 9.372V0H252.809V21.12H254.745V11.132H258.375V9.372H254.745ZM243.327 2.442C243.041 8.206 240.401 13.002 237.255 15.708L238.839 17.16C240.731 15.4 242.381 13.112 243.547 10.384L249.333 16.346L250.631 14.894L244.273 8.47C244.867 6.644 245.285 4.642 245.417 2.508L243.327 2.442Z" fill="#FFFAEA"/>
<path d="M276.745 6.732V0H274.809V8.624C271.311 9.658 267.087 10.274 262.753 10.274V7.458H270.497V1.76H260.465V3.476H268.583V5.808H260.773V11.968C266.911 11.968 271.399 11.308 274.809 10.252V12.43H276.745V8.492H280.375V6.732H276.745ZM276.745 20.9V13.53H263.545V20.9H276.745ZM274.809 15.246V19.184H265.459V15.246H274.809Z" fill="#FFFAEA"/>
<path d="M298.855 7.15V5.434H287.041V2.53H298.415V0.769999H285.061V7.15H298.855ZM302.045 10.648V8.866H281.145V10.648H302.045ZM299.471 21.01V19.338H286.953V17.468H298.151V12.43H284.599V14.08H296.171V15.862H284.995V21.01H299.471Z" fill="#FFFAEA"/>
<path d="M320.459 21.098H322.395V0H320.459V21.098ZM312.891 8.932C312.649 4.972 310.933 2.926 308.381 2.926C305.587 2.926 303.805 5.346 303.805 10.01C303.805 14.674 305.587 17.094 308.381 17.094C311.021 17.094 312.759 14.916 312.913 10.692H315.421V20.35H317.335V0.879999H315.421V8.932H312.891ZM308.381 15.246C306.775 15.246 305.785 13.618 305.785 10.01C305.785 6.402 306.775 4.774 308.381 4.774C309.965 4.774 310.955 6.402 310.955 10.01C310.955 13.618 309.965 15.246 308.381 15.246Z" fill="#FFFAEA"/>
<path d="M342.459 21.098H344.395V0H342.459V21.098ZM333.659 9.262C334.319 7.546 334.781 5.654 334.957 3.63H326.355V5.412H332.735V5.478C332.163 9.218 329.897 13.354 325.365 16.016L326.817 17.622C329.347 16.016 331.437 13.794 332.867 11.022H337.421V20.35H339.335V0.879999H337.421V9.262H333.659Z" fill="#FFFAEA"/>
<path d="M355.038 7.766C358.052 7.524 361.088 6.93 363.596 5.984L371.625 7.678L372.308 6.094L366.082 4.862C368.04 3.762 369.403 2.354 369.733 0.659999H356.534V2.398L366.587 2.376V2.486C364.343 4.18 360.208 5.566 354.312 6.006L355.038 7.766ZM352.859 10.758H373.76V8.976H352.859V10.758ZM369.866 17.512V12.54H356.292V14.19H367.886V15.928H356.709V21.01H371.186V19.338H358.667V17.512H369.866Z" fill="#FFFAEA"/>
<path d="M391.58 5.632H385.815C386.453 4.51 386.916 3.256 387.092 1.87H376.751V3.63H384.649V3.696C383.637 6.292 380.601 9.042 375.629 10.296L376.642 12.034C379.656 11.198 382.538 9.636 384.518 7.392H391.58V11H393.56V0H391.58V5.632ZM382.208 14.85V12.21H380.25V21.01H393.56V12.21H391.602V14.85H382.208ZM382.208 19.25V16.522H391.602V19.25H382.208Z" fill="#FFFAEA"/>
<path d="M413.337 13.75C413.887 10.164 414.196 6.622 414.284 2.442H399.83V4.268H412.238C412.128 7.26 411.907 10.45 411.335 13.618L413.337 13.75ZM407.089 8.8H405.109V16.786H396.859V18.612H417.76V16.786H407.089V8.8Z" fill="#FFFAEA"/>
<path d="M436.015 12.32H441.955V1.87H439.975V5.412H430.074V1.87H428.094V12.32H434.035V16.786H424.574V18.612H445.475V16.786H436.015V12.32ZM439.975 7.172V10.56H430.074V7.172H439.975Z" fill="#FFFAEA"/>
<path d="M464.174 6.732V0H462.238V8.624C458.74 9.658 454.517 10.274 450.183 10.274V7.458H457.926V1.76H447.895V3.476H456.012V5.808H448.203V11.968C454.341 11.968 458.828 11.308 462.238 10.252V12.43H464.174V8.492H467.804V6.732H464.174ZM464.174 20.9V13.53H450.975V20.9H464.174ZM462.238 15.246V19.184H452.889V15.246H462.238Z" fill="#FFFAEA"/>
<path d="M486.174 0H484.238V15.84H486.174V9.482H489.804V7.722H486.174V0ZM471.28 1.1V2.816H479.223V1.1H471.28ZM481.818 12.144L477.418 9.746C478.804 8.382 479.838 6.754 480.322 4.862H469.895V6.578H477.792V6.644C476.23 9.13 473.194 11.22 468.904 12.518L469.851 14.102C472.051 13.354 474.228 12.32 476.032 10.934L480.851 13.552L481.818 12.144ZM473.194 14.3V20.79H487.054V19.008H475.174V14.3H473.194Z" fill="#FFFAEA"/>
<path d="M513.009 5.61V7.964H507.399V9.68H513.009V12.32H514.989V0H513.009V3.894H508.104C508.302 3.278 508.455 2.64 508.543 1.98H498.181V3.74H506.101V3.806C505.111 6.512 502.075 9.394 497.059 10.736L498.115 12.474C501.943 11.352 505.551 9.02 507.377 5.61H513.009ZM508.125 12.672C503.725 12.672 501.151 14.278 501.151 16.94C501.151 19.624 503.725 21.23 508.125 21.23C512.525 21.23 515.099 19.624 515.099 16.94C515.099 14.278 512.525 12.672 508.125 12.672ZM512.415 18.48C511.623 19.096 510.193 19.47 508.125 19.47C506.057 19.47 504.605 19.096 503.835 18.48C503.395 18.084 503.175 17.578 503.175 16.94C503.175 16.324 503.395 15.796 503.835 15.422C504.627 14.828 506.057 14.432 508.125 14.432C510.193 14.432 511.623 14.828 512.415 15.422C512.855 15.796 513.075 16.324 513.075 16.94C513.075 17.578 512.855 18.084 512.415 18.48Z" fill="#FFFAEA"/>
<path d="M535.009 7.282H530.829V9.042H535.009V12.87H536.989V0H535.009V7.282ZM521.347 0.549999V2.156H529.685V0.549999H521.347ZM518.839 3.828V5.5H531.709V3.828H518.839ZM530.301 9.768C530.301 7.92 528.431 6.71 525.505 6.71C522.579 6.71 520.709 7.92 520.709 9.768C520.709 11.616 522.579 12.804 525.505 12.804C528.431 12.804 530.301 11.616 530.301 9.768ZM522.535 9.768C522.535 8.822 523.635 8.228 525.505 8.228C527.353 8.228 528.453 8.822 528.453 9.768C528.453 10.714 527.353 11.308 525.505 11.308C523.635 11.308 522.535 10.714 522.535 9.768ZM536.989 20.9V13.97H523.679V20.9H536.989ZM535.053 15.686V19.184H525.593V15.686H535.053Z" fill="#FFFAEA"/>
<path d="M558.989 21.12V0H557.009V21.12H558.989ZM547.219 17.204C550.629 17.204 552.829 14.542 552.829 9.834C552.829 5.148 550.629 2.486 547.219 2.486C543.809 2.486 541.609 5.148 541.609 9.834C541.609 14.542 543.809 17.204 547.219 17.204ZM547.219 15.356C544.975 15.356 543.633 13.464 543.633 9.834C543.633 6.226 544.975 4.334 547.219 4.334C549.463 4.334 550.805 6.226 550.805 9.834C550.805 13.464 549.463 15.356 547.219 15.356Z" fill="#FFFAEA"/>
<path d="M584.768 0V11.77H586.704V0H584.768ZM583.294 8.888C581.27 9.262 579.114 9.526 576.672 9.68V7.7H581.138V6.072H572.382V2.904H580.764V1.21H570.534V7.7H574.736V9.79C572.734 9.856 570.556 9.9 568.114 9.9L568.334 11.682C574.692 11.682 579.466 11.33 583.514 10.56L583.294 8.888ZM575.286 17.666H586.704V12.76H572.8V14.41H584.746V16.082H573.328V21.12H587.584V19.47H575.286V17.666Z" fill="#FFFAEA"/>
<path d="M614.199 10.01L615.255 8.448L606.807 3.476C607.335 2.684 607.797 1.848 608.127 0.946L606.169 0.44C604.739 4.158 600.933 6.93 596.753 8.47L597.809 10.186C600.669 9.02 603.529 7.304 605.619 4.972L614.199 10.01ZM595.719 11.506V13.31H605.179V21.23H607.159V13.31H616.619V11.506H595.719Z" fill="#FFFAEA"/>
<path d="M640.154 0V11.77H642.134V0H640.154ZM630.144 11.154C633.312 11.154 635.534 9.438 635.534 6.314C635.534 3.212 633.312 1.496 630.144 1.496C626.976 1.496 624.754 3.212 624.754 6.314C624.754 9.438 626.976 11.154 630.144 11.154ZM630.144 3.212C632.102 3.212 633.554 4.18 633.554 6.314C633.554 8.448 632.102 9.438 630.144 9.438C628.186 9.438 626.734 8.448 626.734 6.314C626.734 4.18 628.186 3.212 630.144 3.212ZM639.67 15.356C640 14.52 640.264 13.64 640.44 12.672L638.438 12.43C637.888 15.862 636.128 18.238 633.576 20.042L634.962 21.494C636.546 20.262 637.888 18.81 638.878 17.05L642.838 20.922L643.982 19.602L639.67 15.356ZM631.882 14.916C632.146 14.234 632.366 13.53 632.52 12.804L630.518 12.54C629.946 15.444 628.142 17.886 625.656 19.58L627.13 20.988C628.692 19.844 630.056 18.326 631.068 16.588L633.488 18.942L634.654 17.512L631.882 14.916Z" fill="#FFFAEA"/>
<path d="M656.874 12.012H663.386V10.252H651.088V3.982H662.924V2.222H649.108V12.012H654.894V16.786H645.434V18.612H666.334V16.786H656.874V12.012Z" fill="#FFFAEA"/>
<path d="M678.874 9.46H685.54V7.788H673.11V5.874H684.462V0.769999H670.954V2.442H682.548V4.224H671.196V9.46H676.894V11.616H667.434V13.42H688.334V11.616H678.874V9.46ZM682.57 17.138V21.23H684.594V15.4H670.646V17.138H682.57Z" fill="#FFFAEA"/>
<path d="M691.766 24.002C693.966 22.462 695.22 19.536 695.22 17.138C695.22 15.4 694.274 14.498 693.174 14.498C692.074 14.498 691.392 15.312 691.282 16.236C692.272 16.324 693.218 17.116 693.218 18.37C693.218 20.02 692.47 21.758 690.644 23.166L691.766 24.002Z" fill="#FFFAEA"/>
<path d="M70.3994 51.19C70.9494 47.538 71.2572 43.908 71.3672 39.662H57.2876V41.488H69.3213C69.2113 44.568 68.9915 47.824 68.3975 51.036L70.3994 51.19ZM54.1191 55.612H75.0195V53.786H54.1191V55.612Z" fill="#FFFAEA"/>
<path d="M92.8394 50.618C89.0554 51.74 84.2153 52.356 79.9473 52.356V47.604H88.1973V39.97H77.6592V41.774H86.2612V45.866H77.9673V54.138C84.0393 54.138 89.1434 53.456 92.8394 52.312V58.12H94.8193V37H92.8394V50.618Z" fill="#FFFAEA"/>
<path d="M114.597 50.75C115.147 47.164 115.455 43.622 115.543 39.442H101.089V41.268H113.498C113.388 44.26 113.167 47.45 112.595 50.618L114.597 50.75ZM108.349 45.8H106.369V53.786H98.1191V55.612H119.02V53.786H108.349V45.8Z" fill="#FFFAEA"/>
<path d="M144.534 58.12V37H142.554V58.12H144.534ZM132.764 54.204C136.174 54.204 138.374 51.542 138.374 46.834C138.374 42.148 136.174 39.486 132.764 39.486C129.354 39.486 127.154 42.148 127.154 46.834C127.154 51.542 129.354 54.204 132.764 54.204ZM132.764 52.356C130.52 52.356 129.178 50.464 129.178 46.834C129.178 43.226 130.52 41.334 132.764 41.334C135.008 41.334 136.35 43.226 136.35 46.834C136.35 50.464 135.008 52.356 132.764 52.356Z" fill="#FFFAEA"/>
<path d="M170.269 42.61V44.964H164.659V46.68H170.269V49.32H172.249V37H170.269V40.894H165.363C165.561 40.278 165.715 39.64 165.803 38.98H155.441V40.74H163.361V40.806C162.371 43.512 159.335 46.394 154.319 47.736L155.375 49.474C159.203 48.352 162.811 46.02 164.637 42.61H170.269ZM165.385 49.672C160.985 49.672 158.411 51.278 158.411 53.94C158.411 56.624 160.985 58.23 165.385 58.23C169.785 58.23 172.359 56.624 172.359 53.94C172.359 51.278 169.785 49.672 165.385 49.672ZM169.675 55.48C168.883 56.096 167.453 56.47 165.385 56.47C163.317 56.47 161.865 56.096 161.095 55.48C160.655 55.084 160.435 54.578 160.435 53.94C160.435 53.324 160.655 52.796 161.095 52.422C161.887 51.828 163.317 51.432 165.385 51.432C167.453 51.432 168.883 51.828 169.675 52.422C170.115 52.796 170.335 53.324 170.335 53.94C170.335 54.578 170.115 55.084 169.675 55.48Z" fill="#FFFAEA"/>
<path d="M192.269 44.282H188.089V46.042H192.269V49.87H194.249V37H192.269V44.282ZM178.607 37.55V39.156H186.945V37.55H178.607ZM176.099 40.828V42.5H188.969V40.828H176.099ZM187.561 46.768C187.561 44.92 185.691 43.71 182.765 43.71C179.839 43.71 177.969 44.92 177.969 46.768C177.969 48.616 179.839 49.804 182.765 49.804C185.691 49.804 187.561 48.616 187.561 46.768ZM179.795 46.768C179.795 45.822 180.895 45.228 182.765 45.228C184.613 45.228 185.713 45.822 185.713 46.768C185.713 47.714 184.613 48.308 182.765 48.308C180.895 48.308 179.795 47.714 179.795 46.768ZM194.249 57.9V50.97H180.939V57.9H194.249ZM192.313 52.686V56.184H182.853V52.686H192.313Z" fill="#FFFAEA"/>
<path d="M216.249 58.12V37H214.269V58.12H216.249ZM204.479 54.204C207.889 54.204 210.089 51.542 210.089 46.834C210.089 42.148 207.889 39.486 204.479 39.486C201.069 39.486 198.869 42.148 198.869 46.834C198.869 51.542 201.069 54.204 204.479 54.204ZM204.479 52.356C202.235 52.356 200.893 50.464 200.893 46.834C200.893 43.226 202.235 41.334 204.479 41.334C206.723 41.334 208.065 43.226 208.065 46.834C208.065 50.464 206.723 52.356 204.479 52.356Z" fill="#FFFAEA"/>
<path d="M242.864 43.622V37H240.928V49.65H242.864V45.382H246.494V43.622H242.864ZM226.826 39.09V40.85H234.768V40.916C233.778 43.754 230.742 46.746 225.704 48.176L226.782 49.914C231.864 48.33 236.484 44.612 237.188 39.09H226.826ZM240.84 52.554V58.164H242.864V50.75H229.004V52.554H240.84Z" fill="#FFFAEA"/>
<path d="M264.864 46.372V37H262.928V58.12H264.864V48.132H268.494V46.372H264.864ZM248.738 40.19V41.994H256.79V42.06C255.822 45.91 252.214 50.222 247.484 52.73L248.672 54.358C251.026 52.994 253.248 51.234 255.03 49.1L259.826 53.984L261.036 52.466L256.152 47.648C257.67 45.47 258.748 42.962 259.122 40.19H248.738Z" fill="#FFFAEA"/>
<path d="M287.964 58.12V37H286.028V58.12H287.964ZM276.964 49.474C280.22 49.474 282.464 47.582 282.464 44.414C282.464 41.268 280.22 39.376 276.964 39.376C273.708 39.376 271.464 41.268 271.464 44.414C271.464 47.582 273.708 49.474 276.964 49.474ZM276.964 47.736C274.918 47.736 273.444 46.592 273.444 44.414C273.444 42.258 274.918 41.114 276.964 41.114C279.01 41.114 280.484 42.258 280.484 44.414C280.484 46.592 279.01 47.736 276.964 47.736ZM269.594 54.776C276.062 54.776 280.902 54.358 285.104 53.412L284.84 51.696C280.66 52.642 275.974 52.95 269.374 52.95L269.594 54.776Z" fill="#FFFAEA"/>
<path d="M313.699 45.822V52.84H315.679V37H313.699V44.062H307.627C308.463 42.698 309.035 41.136 309.255 39.42H298.871V41.18H306.835V41.246C305.867 44.194 302.809 47.318 297.749 48.858L298.849 50.574C301.687 49.65 304.371 48.044 306.329 45.822H313.699ZM304.458 50.75H302.479V57.79H316.559V55.986H304.458V50.75Z" fill="#FFFAEA"/>
<path d="M336.579 37H334.643V49.32H336.579V45.052H340.208V43.292H336.579V37ZM320.541 38.98V40.74H328.461V40.806C327.471 43.512 324.435 46.394 319.419 47.736L320.475 49.474C325.535 47.978 330.199 44.392 330.903 38.98H320.541ZM329.825 49.672C325.425 49.672 322.851 51.278 322.851 53.94C322.851 56.624 325.425 58.23 329.825 58.23C334.225 58.23 336.799 56.624 336.799 53.94C336.799 51.278 334.225 49.672 329.825 49.672ZM334.115 55.48C333.323 56.096 331.893 56.47 329.825 56.47C327.757 56.47 326.305 56.096 325.535 55.48C325.095 55.084 324.875 54.578 324.875 53.94C324.875 53.324 325.095 52.796 325.535 52.422C326.327 51.828 327.757 51.432 329.825 51.432C331.893 51.432 333.323 51.828 334.115 52.422C334.555 52.796 334.775 53.324 334.775 53.94C334.775 54.578 334.555 55.084 334.115 55.48Z" fill="#FFFAEA"/>
<path d="M358.579 37H356.643V52.84H358.579V47.142H362.208V45.382H358.579V37ZM343.729 37.88V39.53H352.133V37.88H343.729ZM341.199 41.488V43.204H354.179V41.488H341.199ZM352.749 48.044C352.749 46.02 350.857 44.634 347.909 44.634C344.983 44.634 343.091 46.02 343.091 48.044C343.091 50.068 344.983 51.454 347.909 51.454C350.857 51.454 352.749 50.068 352.749 48.044ZM344.983 48.044C344.983 46.922 346.061 46.218 347.909 46.218C349.779 46.218 350.857 46.922 350.857 48.044C350.857 49.166 349.779 49.87 347.909 49.87C346.061 49.87 344.983 49.166 344.983 48.044ZM345.599 52.29V57.79H359.458V56.008H347.557V52.29H345.599Z" fill="#FFFAEA"/>
<path d="M385.414 49.87H387.394V37H385.414V49.87ZM382.884 47.516L376.569 42.896C377.163 41.488 377.56 39.926 377.758 38.276L375.667 38.1C375.249 42.742 372.676 46.526 369.354 48.704L370.784 50.266C372.786 48.814 374.523 46.9 375.777 44.59L381.784 49.056L382.884 47.516ZM385.37 52.774V58.164H387.394V50.97H373.534V52.774H385.37Z" fill="#FFFAEA"/>
<path d="M408.293 46.372V37H406.357V58.12H408.293V48.132H411.923V46.372H408.293ZM396.875 39.442C396.589 45.206 393.95 50.002 390.804 52.708L392.388 54.16C394.28 52.4 395.93 50.112 397.096 47.384L402.881 53.346L404.18 51.894L397.822 45.47C398.416 43.644 398.833 41.642 398.965 39.508L396.875 39.442Z" fill="#FFFAEA"/>
<path d="M424.134 49.98H431.151V48.242H418.26V45.294H429.854V38.98H416.104V40.718H427.896V43.534H416.302V49.98H422.154V53.786H412.693V55.612H433.594V53.786H424.134V49.98Z" fill="#FFFAEA"/>
<path d="M459.108 58.12V37H457.128V58.12H459.108ZM447.338 54.204C450.748 54.204 452.948 51.542 452.948 46.834C452.948 42.148 450.748 39.486 447.338 39.486C443.928 39.486 441.729 42.148 441.729 46.834C441.729 51.542 443.928 54.204 447.338 54.204ZM447.338 52.356C445.094 52.356 443.752 50.464 443.752 46.834C443.752 43.226 445.094 41.334 447.338 41.334C449.582 41.334 450.924 43.226 450.924 46.834C450.924 50.464 449.582 52.356 447.338 52.356Z" fill="#FFFAEA"/>
<path d="M479.128 45.822H474.685C474.399 41.752 472.331 39.486 469.229 39.486C465.885 39.486 463.729 42.126 463.729 46.834C463.729 51.564 465.885 54.204 469.229 54.204C472.397 54.204 474.487 51.85 474.707 47.582H479.128V58.12H481.108V37H479.128V45.822ZM469.229 52.356C467.051 52.356 465.73 50.486 465.73 46.834C465.73 43.204 467.051 41.334 469.229 41.334C471.407 41.334 472.727 43.204 472.727 46.834C472.727 50.486 471.407 52.356 469.229 52.356Z" fill="#FFFAEA"/>
<path d="M501.128 58.12H503.108V37H501.128V58.12ZM486.015 40.19V41.994H494.375V42.06C493.363 45.932 489.6 50.244 484.738 52.708L485.904 54.358C488.346 53.016 490.656 51.234 492.504 49.1L497.521 54.006L498.73 52.466L493.648 47.67C495.232 45.47 496.355 42.962 496.729 40.19H486.015Z" fill="#FFFAEA"/>
<path d="M525.108 47.89V37H523.128V47.89H525.108ZM508.146 48.572C513.316 47.384 518.355 44.084 519.081 38.87H508.344V40.63H516.594V40.696C515.494 43.182 512.282 45.756 507.178 46.812L508.146 48.572ZM525.988 58.12V56.448H513.734V54.314H525.108V48.99H511.205V50.662H523.128V52.664H511.754V58.12H525.988Z" fill="#FFFAEA"/>
<path d="M552.823 58.12V37H550.843V58.12H552.823ZM536.213 54.622C541.735 52.136 546.267 47.098 547.037 40.3H536.059V42.126H544.683V42.192C543.759 46.262 540.437 50.552 534.893 52.928L536.213 54.622Z" fill="#FFFAEA"/>
<path d="M573.438 45.822H569.873V37.88H567.959V50.596C565.429 51.322 561.998 51.762 559.292 51.762L559.269 41.994H565.759V40.19H557.333V53.5C561.689 53.5 565.429 53.016 567.959 52.224V57.35H569.873V47.56H573.438V58.098H575.373V37H573.438V45.822Z" fill="#FFFAEA"/>
<path d="M595.723 44.282V37H593.787V49.1H595.723V46.042H599.353V44.282H595.723ZM580.873 37.44V39.046H589.277V37.44H580.873ZM578.343 40.674V42.346H591.323V40.674H578.343ZM589.893 46.57C589.893 44.744 588.023 43.556 585.053 43.556C582.105 43.556 580.235 44.744 580.235 46.57C580.235 48.396 582.105 49.584 585.053 49.584C588.023 49.584 589.893 48.396 589.893 46.57ZM582.083 46.57C582.083 45.646 583.183 45.052 585.053 45.052C586.945 45.052 588.045 45.646 588.045 46.57C588.045 47.494 586.945 48.088 585.053 48.088C583.183 48.088 582.083 47.494 582.083 46.57ZM584.481 52.444V50.53H582.523V58.01H595.723V50.31H593.765V52.444H584.481ZM584.481 56.272V54.072H593.765V56.272H584.481Z" fill="#FFFAEA"/>
<path d="M616.843 49.276C612.949 50.706 607.405 51.542 604.237 51.542V39.75H602.213V53.39C607.427 53.39 613.081 52.488 616.843 50.992V58.12H618.823V37H616.843V49.276Z" fill="#FFFAEA"/>
<path d="M639.723 46.372V37H637.787V49.958C634.355 51.124 629.185 51.784 625.797 51.784L625.753 41.774H634.201V39.97H623.773V53.61C629.141 53.61 634.465 52.906 637.787 51.674V58.12H639.723V48.132H643.353V46.372H639.723Z" fill="#FFFAEA"/>
</svg>
