<svg width="686" height="25" viewBox="0 0 686 25" fill="none" xmlns="http://www.w3.org/2000/svg">
<path d="M17.38 9.372V0H15.444V21.12H17.38V11.132H21.01V9.372H17.38ZM1.254 3.19V4.994H9.306V5.06C8.338 8.91 4.73 13.222 0 15.73L1.188 17.358C3.542 15.994 5.764 14.234 7.546 12.1L12.342 16.984L13.552 15.466L8.668 10.648C10.186 8.47 11.264 5.962 11.638 3.19H1.254Z" fill="#FFFAEA"/>
<path d="M40.48 21.12V0H38.5V21.12H40.48ZM23.87 17.622C29.392 15.136 33.924 10.098 34.694 3.3H23.716V5.126H32.34V5.192C31.416 9.262 28.094 13.552 22.55 15.928L23.87 17.622Z" fill="#FFFAEA"/>
<path d="M46.09 10.098C48.862 9.68 51.832 8.866 54.384 7.656L62.392 9.988L63.228 8.404L56.408 6.534C58.63 5.126 60.258 3.344 60.742 1.21H47.388V2.992H57.772V3.08C55.77 5.478 50.996 7.524 45.232 8.294L46.09 10.098ZM43.78 11.836V13.64H53.24V21.23H55.22V13.64H64.68V11.836H43.78Z" fill="#FFFAEA"/>
<path d="M77.22 12.012H83.732V10.252H71.434V3.982H83.27V2.222H69.454V12.012H75.24V16.786H65.78V18.612H86.68V16.786H77.22V12.012Z" fill="#FFFAEA"/>
<path d="M104.5 5.522H99.66V7.282H104.5V12.87H106.48V0H104.5V5.522ZM101.442 11L96.712 7.92C98.164 6.226 99.198 4.246 99.572 1.98H89.364V3.762H97.196V3.828C96.14 6.644 92.95 9.724 88.11 11.418L89.144 13.024C91.476 12.122 93.676 10.846 95.436 9.24L100.364 12.452L101.442 11ZM104.456 15.774V21.164H106.48V13.97H92.62V15.774H104.456Z" fill="#FFFAEA"/>
<path d="M128.48 15.84V0H126.5V15.84H128.48ZM116.49 12.034C119.68 12.034 121.88 10.23 121.88 6.974C121.88 3.74 119.68 1.936 116.49 1.936C113.3 1.936 111.1 3.74 111.1 6.974C111.1 10.23 113.3 12.034 116.49 12.034ZM116.49 10.318C114.51 10.318 113.08 9.24 113.08 6.974C113.08 4.708 114.51 3.652 116.49 3.652C118.47 3.652 119.9 4.708 119.9 6.974C119.9 9.24 118.47 10.318 116.49 10.318ZM129.36 20.79V18.986H117.26V13.75H115.28V20.79H129.36Z" fill="#FFFAEA"/>
<path d="M155.095 0H153.159V12.32H155.095V8.052H158.725V6.292H155.095V0ZM151.047 10.164L146.339 7.48C147.769 5.896 148.803 4.026 149.177 1.87H138.991V3.63H146.801V3.696C145.723 6.314 142.599 9.108 137.715 10.626L138.705 12.232C141.059 11.418 143.237 10.252 145.019 8.756L150.013 11.616L151.047 10.164ZM148.341 12.672C143.941 12.672 141.367 14.278 141.367 16.94C141.367 19.624 143.941 21.23 148.341 21.23C152.741 21.23 155.315 19.624 155.315 16.94C155.315 14.278 152.741 12.672 148.341 12.672ZM152.631 18.48C151.839 19.096 150.409 19.47 148.341 19.47C146.273 19.47 144.821 19.096 144.051 18.48C143.611 18.084 143.391 17.578 143.391 16.94C143.391 16.324 143.611 15.796 144.051 15.422C144.843 14.828 146.273 14.432 148.341 14.432C150.409 14.432 151.839 14.828 152.631 15.422C153.071 15.796 153.291 16.324 153.291 16.94C153.291 17.578 153.071 18.084 152.631 18.48Z" fill="#FFFAEA"/>
<path d="M176.65 12.32H182.59V1.87H180.61V5.412H170.71V1.87H168.73V12.32H174.67V16.786H165.21V18.612H186.11V16.786H176.65V12.32ZM180.61 7.172V10.56H170.71V7.172H180.61Z" fill="#FFFAEA"/>
<path d="M205.91 21.12V0H203.93V21.12H205.91ZM189.3 17.622C194.822 15.136 199.354 10.098 200.124 3.3H189.146V5.126H197.77V5.192C196.846 9.262 193.524 13.552 187.98 15.928L189.3 17.622Z" fill="#FFFAEA"/>
<path d="M226.81 9.372V0H224.874V21.12H226.81V11.132H230.44V9.372H226.81ZM217.108 11.946C219.638 11.572 221.31 9.878 221.31 7.194C221.31 4.158 219.132 2.376 215.986 2.376C212.818 2.376 210.64 4.158 210.64 7.194C210.64 9.988 212.444 11.704 215.172 11.99V15.796C213.434 15.906 211.498 15.95 209.32 15.95L209.54 17.776C215.612 17.776 219.99 17.336 223.95 16.28L223.664 14.564C221.64 15.092 219.528 15.444 217.108 15.664V11.946ZM212.62 7.194C212.62 5.148 214.028 4.092 215.986 4.092C217.922 4.092 219.33 5.126 219.33 7.194C219.33 9.262 217.922 10.318 215.986 10.318C214.028 10.318 212.62 9.262 212.62 7.194Z" fill="#FFFAEA"/>
<path d="M253.645 12.87H255.625V0H253.645V12.87ZM251.115 10.516L244.801 5.896C245.395 4.488 245.791 2.926 245.989 1.276L243.899 1.1C243.481 5.742 240.907 9.526 237.585 11.704L239.015 13.266C241.017 11.814 242.755 9.9 244.009 7.59L250.015 12.056L251.115 10.516ZM253.601 15.774V21.164H255.625V13.97H241.765V15.774H253.601Z" fill="#FFFAEA"/>
<path d="M276.239 5.302H272.675V0.549999H270.761V11.77H272.675V7.04H276.239V12.87H278.175V0H276.239V5.302ZM269.705 10.428L265.041 5.786C265.481 4.422 265.767 2.926 265.899 1.276L263.897 1.122C263.589 5.742 261.873 8.976 259.035 11.418L260.509 12.804C262.115 11.374 263.413 9.68 264.337 7.634L268.561 11.748L269.705 10.428ZM271.091 12.672C266.691 12.672 264.117 14.278 264.117 16.94C264.117 19.624 266.691 21.23 271.091 21.23C275.491 21.23 278.065 19.624 278.065 16.94C278.065 14.278 275.491 12.672 271.091 12.672ZM275.381 18.48C274.589 19.096 273.159 19.47 271.091 19.47C269.023 19.47 267.571 19.096 266.801 18.48C266.361 18.084 266.141 17.578 266.141 16.94C266.141 16.324 266.361 15.796 266.801 15.422C267.593 14.828 269.023 14.432 271.091 14.432C273.159 14.432 274.589 14.828 275.381 15.422C275.821 15.796 276.041 16.324 276.041 16.94C276.041 17.578 275.821 18.084 275.381 18.48Z" fill="#FFFAEA"/>
<path d="M298.525 0H296.589V12.54H298.525V8.272H302.265V6.512H298.525V0ZM284.071 0.373999V1.958H291.903V0.373999H284.071ZM281.453 2.882V4.466H294.037V2.882H281.453ZM295.181 10.076C293.223 10.516 291.177 10.802 288.823 10.978V9.988C291.155 9.812 292.563 8.998 292.563 7.612C292.563 6.072 290.803 5.236 287.921 5.236C285.039 5.236 283.301 6.072 283.301 7.612C283.301 8.976 284.621 9.79 286.887 9.966V11.088C285.149 11.176 283.213 11.22 281.035 11.22L281.233 12.936C287.261 12.936 291.617 12.562 295.423 11.682L295.181 10.076ZM285.105 7.59C285.105 6.93 286.205 6.622 287.921 6.622C289.659 6.622 290.759 6.93 290.759 7.59C290.759 8.228 289.659 8.536 287.921 8.536C286.205 8.536 285.105 8.228 285.105 7.59ZM298.525 18.018V13.53H284.709V15.136H296.567V16.478H285.215V21.12H299.405V19.492H287.151V18.018H298.525Z" fill="#FFFAEA"/>
<path d="M313.375 7.458C317.753 7.458 320.415 6.226 320.415 3.894C320.415 1.562 317.753 0.33 313.375 0.33C308.997 0.33 306.335 1.562 306.335 3.894C306.335 6.226 308.997 7.458 313.375 7.458ZM313.375 5.698C311.263 5.698 309.701 5.412 308.931 4.928C308.535 4.664 308.359 4.312 308.359 3.894C308.359 3.476 308.513 3.124 308.931 2.86C309.701 2.398 311.263 2.09 313.375 2.09C315.487 2.09 317.027 2.398 317.819 2.86C318.237 3.124 318.391 3.476 318.391 3.894C318.391 4.312 318.215 4.664 317.819 4.928C317.049 5.412 315.487 5.698 313.375 5.698ZM323.825 10.648V8.866H302.925V10.648H323.825ZM321.251 21.01V19.338H308.733V17.468H319.931V12.43H306.379V14.08H317.951V15.862H306.775V21.01H321.251Z" fill="#FFFAEA"/>
<path d="M347.359 21.12H349.339V0H347.359V21.12ZM332.245 3.19V4.994H340.605V5.06C339.593 8.932 335.831 13.244 330.969 15.708L332.135 17.358C334.577 16.016 336.887 14.234 338.735 12.1L343.751 17.006L344.961 15.466L339.879 10.67C341.463 8.47 342.585 5.962 342.959 3.19H332.245Z" fill="#FFFAEA"/>
<path d="M373.869 4.774H370.239V0H368.303V13.42H370.239V11H373.869V9.284H370.239V6.49H373.869V4.774ZM355.389 0.549999V2.178H363.793V0.549999H355.389ZM352.859 3.894V5.588H365.839V3.894H352.859ZM364.409 9.988C364.409 8.118 362.517 6.864 359.569 6.864C356.621 6.864 354.751 8.118 354.751 9.988C354.751 11.88 356.621 13.134 359.569 13.134C362.517 13.134 364.409 11.88 364.409 9.988ZM356.599 9.988C356.599 9.02 357.699 8.382 359.569 8.382C361.461 8.382 362.539 9.02 362.539 9.988C362.539 10.978 361.461 11.616 359.569 11.616C357.699 11.616 356.599 10.978 356.599 9.988ZM363.485 13.772C359.085 13.772 356.511 15.092 356.511 17.49C356.511 19.91 359.085 21.23 363.485 21.23C367.885 21.23 370.459 19.91 370.459 17.49C370.459 15.092 367.885 13.772 363.485 13.772ZM367.797 18.722C367.027 19.162 365.575 19.47 363.485 19.47C361.395 19.47 359.943 19.184 359.173 18.722C358.733 18.414 358.535 17.996 358.535 17.49C358.535 17.006 358.733 16.566 359.173 16.28C359.943 15.84 361.395 15.532 363.485 15.532C365.575 15.532 367.027 15.84 367.797 16.28C368.237 16.566 368.435 17.006 368.435 17.49C368.435 17.996 368.237 18.414 367.797 18.722Z" fill="#FFFAEA"/>
<path d="M392.239 9.152V0H390.303V21.12H392.239V10.912H395.869V9.152H392.239ZM377.433 1.54V3.3H385.881V1.54H377.433ZM387.949 7.656V5.852H374.859V7.656H387.949ZM381.635 9.526C378.709 9.526 376.773 11.33 376.773 13.75C376.773 16.17 378.709 17.974 381.635 17.974C384.561 17.974 386.475 16.17 386.475 13.75C386.475 11.33 384.561 9.526 381.635 9.526ZM381.635 16.214C379.787 16.214 378.753 15.29 378.753 13.75C378.753 12.232 379.787 11.286 381.635 11.286C383.483 11.286 384.517 12.232 384.517 13.75C384.517 15.29 383.483 16.214 381.635 16.214Z" fill="#FFFAEA"/>
<path d="M414.173 8.382V6.578H402.513V0.769999H400.533V8.382H414.173ZM417.539 12.694V10.868H396.639V12.694H417.539ZM414.371 20.79V18.986H402.689V14.41H400.709V20.79H414.371Z" fill="#FFFAEA"/>
<path d="M443.054 12.98V0H441.074V6.402H436.234V8.162H441.074V12.98H443.054ZM427.236 0.66V2.376H435.068V0.66H427.236ZM437.62 11.044L433.264 8.866C434.606 7.59 435.596 6.05 436.058 4.268H425.872V5.984H433.528V6.05C431.966 8.36 429.084 10.252 424.904 11.484L425.85 13.046C427.984 12.364 430.096 11.374 431.878 10.054L436.696 12.43L437.62 11.044ZM436.19 13.332C431.79 13.332 429.216 14.762 429.216 17.27C429.216 19.8 431.79 21.23 436.19 21.23C440.59 21.23 443.164 19.8 443.164 17.27C443.164 14.762 440.59 13.332 436.19 13.332ZM440.48 18.634C439.71 19.14 438.28 19.47 436.19 19.47C434.1 19.47 432.648 19.14 431.9 18.634C431.46 18.282 431.24 17.82 431.24 17.27C431.24 16.742 431.438 16.258 431.9 15.928C432.67 15.422 434.1 15.092 436.19 15.092C438.28 15.092 439.71 15.422 440.48 15.928C440.942 16.258 441.14 16.742 441.14 17.27C441.14 17.82 440.942 18.282 440.48 18.634Z" fill="#FFFAEA"/>
<path d="M463.954 9.372V0H462.018V21.12H463.954V11.132H467.584V9.372H463.954ZM457.772 12.716C458.366 9.746 458.63 6.512 458.63 3.08H447.674V4.906H456.694C456.694 6.996 456.452 10.054 455.792 12.518L457.772 12.716ZM453.372 8.8H451.436V15.62C449.918 15.708 448.29 15.73 446.464 15.73L446.684 17.556C452.756 17.556 457.134 17.116 461.094 16.06L460.808 14.344C458.542 14.938 456.166 15.312 453.372 15.51V8.8Z" fill="#FFFAEA"/>
<path d="M472.204 0.66V7.26H485.404V0.66H472.204ZM474.184 5.544V2.354H483.424V5.544H474.184ZM489.254 8.646H468.354V10.428H477.902V12.43H471.808V14.08H483.38V15.862H472.204V21.01H486.68V19.338H474.162V17.468H485.36V12.43H479.706V10.428H489.254V8.646Z" fill="#FFFAEA"/>
<path d="M513.669 9.372V0H511.733V21.12H513.669V11.132H517.299V9.372H513.669ZM505.903 5.126V5.192C505.023 9.262 501.877 13.596 496.509 16.082L497.851 17.754C503.219 15.158 507.465 10.076 508.213 3.3H497.653V5.126H505.903Z" fill="#FFFAEA"/>
<path d="M535.383 21.098H537.319V0H535.383V21.098ZM526.583 9.262C527.243 7.546 527.705 5.654 527.881 3.63H519.279V5.412H525.659V5.478C525.087 9.218 522.821 13.354 518.289 16.016L519.741 17.622C522.271 16.016 524.361 13.794 525.791 11.022H530.345V20.35H532.259V0.879999H530.345V9.262H526.583Z" fill="#FFFAEA"/>
<path d="M542.401 24.002C544.601 22.462 545.855 19.536 545.855 17.138C545.855 15.4 544.909 14.498 543.809 14.498C542.709 14.498 542.027 15.312 541.917 16.236C542.907 16.324 543.853 17.116 543.853 18.37C543.853 20.02 543.105 21.758 541.279 23.166L542.401 24.002Z" fill="#FFFAEA"/>
<path d="M571.906 8.932H568.343V0.879999H566.429V20.35H568.343V10.67H571.906V21.098H573.843V0H571.906V8.932ZM556.638 1.87V3.652H563.305V1.87H556.638ZM555.451 6.248V8.008H561.852V8.074C560.774 11 558.223 13.904 554.593 15.818L555.802 17.358C557.628 16.28 559.301 14.938 560.687 13.31L564.096 17.226L565.328 15.884L561.742 11.924C562.886 10.274 563.745 8.382 564.185 6.248H555.451Z" fill="#FFFAEA"/>
<path d="M595.205 12.21L596.349 10.626L587.703 4.862C588.253 3.982 588.692 3.036 589.044 2.024L587.065 1.54C585.547 5.764 581.63 8.888 577.406 10.648L578.463 12.408C581.455 11.044 584.446 9.064 586.602 6.402L595.205 12.21ZM588.032 10.78H586.052V16.786H576.593V18.612H597.492V16.786H588.032V10.78Z" fill="#FFFAEA"/>
<path d="M616.193 5.852V0H614.257V7.458C611.001 8.558 605.566 9.196 602.156 9.196L602.112 3.652H610.56V1.87H600.133V11C605.523 11 611.111 10.274 614.257 9.108V11.77H616.193V7.612H619.823V5.852H616.193ZM616.193 20.9V12.87H602.992V20.9H616.193ZM614.257 14.586V19.162H604.906V14.586H614.257Z" fill="#FFFAEA"/>
<path d="M639.292 11V0H637.312V11H639.292ZM627.302 10.934C630.47 10.934 632.693 9.24 632.693 6.16C632.693 3.08 630.47 1.386 627.302 1.386C624.134 1.386 621.912 3.08 621.912 6.16C621.912 9.24 624.134 10.934 627.302 10.934ZM627.302 9.218C625.344 9.218 623.893 8.25 623.893 6.16C623.893 4.048 625.344 3.102 627.302 3.102C629.26 3.102 630.734 4.048 630.734 6.138C630.734 8.25 629.26 9.218 627.302 9.218ZM639.292 21.01V12.21H637.334V14.85H627.94V12.21H625.982V21.01H639.292ZM627.94 16.522H637.334V19.25H627.94V16.522Z" fill="#FFFAEA"/>
<path d="M659.312 12.276C655.419 13.706 649.874 14.542 646.706 14.542V2.75H644.682V16.39C649.896 16.39 655.55 15.488 659.312 13.992V21.12H661.292V0H659.312V12.276Z" fill="#FFFAEA"/>
<path d="M682.193 9.372V0H680.257V12.958C676.825 14.124 671.654 14.784 668.266 14.784L668.222 4.774H676.67V2.97H666.242V16.61C671.61 16.61 676.935 15.906 680.257 14.674V21.12H682.193V11.132H685.823V9.372H682.193Z" fill="#FFFAEA"/>
</svg>
