<svg width="374" height="59" viewBox="0 0 374 59" fill="none" xmlns="http://www.w3.org/2000/svg">
<path d="M40.4807 9.372V0H38.5449V21.12H40.4807V11.132H44.1108V9.372H40.4807ZM29.0627 2.442C28.7767 8.206 26.1367 13.002 22.9907 15.708L24.575 17.16C26.467 15.4 28.1167 13.112 29.2827 10.384L35.0688 16.346L36.3669 14.894L30.0088 8.47C30.6028 6.644 31.0208 4.642 31.1528 2.508L29.0627 2.442Z" fill="#FFFAEA"/>
<path d="M62.4807 9.372V0H60.5449V21.12H62.4807V11.132H66.1108V9.372H62.4807ZM56.2988 12.716C56.8928 9.746 57.1567 6.512 57.1567 3.08H46.2009V4.906H55.2209C55.2209 6.996 54.9788 10.054 54.3188 12.518L56.2988 12.716ZM51.8989 8.8H49.9629V15.62C48.4449 15.708 46.8167 15.73 44.9907 15.73L45.2109 17.556C51.2829 17.556 55.6608 17.116 59.6208 16.06L59.3347 14.344C57.0687 14.938 54.6929 15.312 51.8989 15.51V8.8Z" fill="#FFFAEA"/>
<path d="M90.1956 0H88.2598V15.84H90.1956V10.142H93.8257V8.382H90.1956V0ZM75.3457 0.879999V2.53H83.7498V0.879999H75.3457ZM72.8157 4.488V6.204H85.7957V4.488H72.8157ZM84.3657 11.044C84.3657 9.02 82.4736 7.634 79.5256 7.634C76.5996 7.634 74.7078 9.02 74.7078 11.044C74.7078 13.068 76.5996 14.454 79.5256 14.454C82.4736 14.454 84.3657 13.068 84.3657 11.044ZM76.5996 11.044C76.5996 9.922 77.6776 9.218 79.5256 9.218C81.3956 9.218 82.4736 9.922 82.4736 11.044C82.4736 12.166 81.3956 12.87 79.5256 12.87C77.6776 12.87 76.5996 12.166 76.5996 11.044ZM77.2156 15.29V20.79H91.0757V19.008H79.1736V15.29H77.2156Z" fill="#FFFAEA"/>
<path d="M117.91 0H115.975V10.89H117.91V7.172H121.541V5.412H117.91V0ZM111.861 5.94C111.861 2.992 109.661 1.386 106.537 1.386C103.391 1.386 101.19 2.992 101.19 5.94C101.19 8.888 103.391 10.494 106.537 10.494C109.661 10.494 111.861 8.888 111.861 5.94ZM103.148 5.94C103.148 3.96 104.623 3.08 106.537 3.08C108.429 3.08 109.903 3.938 109.903 5.918C109.903 7.92 108.429 8.8 106.537 8.8C104.623 8.8 103.148 7.92 103.148 5.94ZM117.91 17.314V11.99H104.094V13.662H115.93V15.664H104.645V21.12H118.791V19.448H106.625V17.314H117.91Z" fill="#FFFAEA"/>
<path d="M133.75 12.012H140.262V10.252H127.965V3.982H139.801V2.222H125.985V12.012H131.771V16.786H122.311V18.612H143.21V16.786H133.75V12.012Z" fill="#FFFAEA"/>
<path d="M167.625 5.852V0H165.689V11.77H167.625V7.612H171.255V5.852H167.625ZM151.455 1.87V10.78H161.355V1.87H151.455ZM153.391 9.174V3.498H159.419V9.174H153.391ZM167.625 20.9V12.87H154.425V20.9H167.625ZM165.689 14.586V19.162H156.339V14.586H165.689Z" fill="#FFFAEA"/>
<path d="M189.339 21.098H191.275V0H189.339V21.098ZM181.771 8.932C181.529 4.972 179.813 2.926 177.261 2.926C174.467 2.926 172.685 5.346 172.685 10.01C172.685 14.674 174.467 17.094 177.261 17.094C179.901 17.094 181.639 14.916 181.793 10.692H184.301V20.35H186.215V0.879999H184.301V8.932H181.771ZM177.261 15.246C175.655 15.246 174.665 13.618 174.665 10.01C174.665 6.402 175.655 4.774 177.261 4.774C178.845 4.774 179.835 6.402 179.835 10.01C179.835 13.618 178.845 15.246 177.261 15.246Z" fill="#FFFAEA"/>
<path d="M211.18 8.206C212.236 7.216 213.094 6.094 213.754 4.84L218.44 8.778L219.43 7.392L214.48 3.278C214.832 2.442 215.074 1.54 215.272 0.616L213.358 0.395999C212.72 3.762 211.158 6.116 208.628 7.854L209.2 8.448V10.736H199.74V12.54H220.64V10.736H211.18V8.206ZM208.496 6.798L209.596 5.5L206.846 3.234C207.198 2.42 207.462 1.562 207.616 0.681999L205.746 0.483999C205.196 3.784 203.216 6.094 200.51 7.678L201.742 9.13C203.458 8.074 204.998 6.534 206.098 4.73L208.496 6.798ZM214.876 16.5V21.23H216.9V14.74H202.952V16.5H214.876Z" fill="#FFFAEA"/>
<path d="M245.407 12.32V10.56H233.109V4.18H244.945V2.42H231.129V12.32H245.407ZM248.355 18.612V16.786H227.455V18.612H248.355Z" fill="#FFFAEA"/>
<path d="M266.989 8.382V6.578H255.329V0.769999H253.349V8.382H266.989ZM270.355 12.694V10.868H249.455V12.694H270.355ZM267.187 20.79V18.986H255.505V14.41H253.525V20.79H267.187Z" fill="#FFFAEA"/>
<path d="M293.89 8.382V14.19H295.87V0H293.89V6.622H287.884C288.676 5.302 289.226 3.828 289.424 2.2H279.062V3.96H287.026V4.026C286.036 6.908 282.978 9.922 277.94 11.418L279.018 13.134C281.922 12.232 284.65 10.626 286.608 8.382H293.89ZM289.6 14.916C290.084 14.212 290.502 13.464 290.854 12.694L288.984 12.1C287.554 15.532 284.122 17.974 280.25 19.25L281.306 21.054C283.946 20.042 286.476 18.436 288.412 16.368L296.09 20.834L297.08 19.206L289.6 14.916Z" fill="#FFFAEA"/>
<path d="M309.62 12.848C314.196 12.848 316.99 10.648 316.99 7.458C316.99 4.29 314.196 2.09 309.62 2.09C305.044 2.09 302.25 4.29 302.25 7.458C302.25 10.648 305.044 12.848 309.62 12.848ZM309.62 11.088C307.398 11.088 305.792 10.516 304.978 9.504C304.516 8.932 304.274 8.25 304.274 7.458C304.274 6.688 304.494 5.984 304.978 5.434C305.792 4.422 307.398 3.85 309.62 3.85C311.842 3.85 313.404 4.444 314.262 5.434C314.746 5.984 314.966 6.688 314.966 7.458C314.966 8.25 314.724 8.932 314.262 9.504C313.448 10.516 311.842 11.088 309.62 11.088ZM320.07 18.612V16.786H299.17V18.612H320.07Z" fill="#FFFAEA"/>
<path d="M332.61 12.98H339.628V11.242H326.736V8.294H338.33V1.98H324.58V3.718H336.372V6.534H324.778V12.98H330.63V16.786H321.17V18.612H342.07V16.786H332.61V12.98Z" fill="#FFFAEA"/>
<path d="M345.502 24.002C347.702 22.462 348.956 19.536 348.956 17.138C348.956 15.4 348.01 14.498 346.91 14.498C345.81 14.498 345.128 15.312 345.018 16.236C346.008 16.324 346.954 17.116 346.954 18.37C346.954 20.02 346.206 21.758 344.38 23.166L345.502 24.002Z" fill="#FFFAEA"/>
<path d="M16.7639 44.37C17.0499 42.258 17.204 40.3 17.248 37.792H3.36597V39.596H15.2239C15.1579 41.114 15.026 42.698 14.74 44.26L16.7639 44.37ZM10.45 41.51H8.46997V45.756H0V47.538H20.8999V45.756H10.45V41.51ZM17.0059 54.468V49.43H3.45386V51.08H15.0259V52.862H3.84985V58.01H18.3259V56.338H5.80786V54.468H17.0059Z" fill="#FFFAEA"/>
<path d="M39.5999 46.152V37H37.6641V50.75C34.1001 51.784 29.6339 52.356 25.6079 52.356V47.604H33.4619V39.97H23.3201V41.774H31.5259V45.888H23.6279V54.138C29.4139 54.138 34.1661 53.5 37.6641 52.444V58.12H39.5999V47.912H43.23V46.152H39.5999Z" fill="#FFFAEA"/>
<path d="M61.5999 42.852V37H59.6641V44.458C56.4081 45.558 50.974 46.196 47.564 46.196L47.52 40.652H55.968V38.87H45.54V48C50.93 48 56.5181 47.274 59.6641 46.108V48.77H61.5999V44.612H65.23V42.852H61.5999ZM61.5999 57.9V49.87H48.3999V57.9H61.5999ZM59.6641 51.586V56.162H50.314V51.586H59.6641Z" fill="#FFFAEA"/>
<path d="M84.7 58.12V37H82.72V58.12H84.7ZM68.0901 54.622C73.6121 52.136 78.1441 47.098 78.9141 40.3H67.936V42.126H76.5601V42.192C75.6361 46.262 72.314 50.552 66.77 52.928L68.0901 54.622Z" fill="#FFFAEA"/>
<path d="M103.29 37.77V40.652H93.6099V37.77H91.6299V46.79H105.27V37.77H103.29ZM93.6099 45.052V42.39H103.29V45.052H93.6099ZM88 49.166V50.97H97.46V58.23H99.4399V50.97H108.9V49.166H88Z" fill="#FFFAEA"/>
<path d="M126.72 45.382H122.32V47.142H126.72V58.12H128.7V37H126.72V45.382ZM113.828 47.494H121.022V45.778H113.828V41.752H121.594V39.97H111.87V54.05C116.116 54.05 120.604 53.874 123.926 53.06L123.684 51.366C120.494 52.114 116.094 52.268 113.828 52.268V47.494Z" fill="#FFFAEA"/>
<path d="M155.029 58.098H156.965V37H155.029V58.098ZM146.845 43.644C147.065 42.676 147.219 41.686 147.307 40.63H138.903V42.412H145.085V42.478C144.557 46.196 142.379 50.332 137.935 53.038L139.387 54.622C142.621 52.51 145.085 49.342 146.361 45.338H150.013V49.144H146.295V50.838H150.013V57.35H151.905V37.88H150.013V43.644H146.845Z" fill="#FFFAEA"/>
<path d="M177.315 37H175.379V52.84H177.315V45.822H180.945V44.062H177.315V37ZM173.025 48.022L166.909 43.226C167.459 41.774 167.855 40.19 168.031 38.496L165.963 38.342C165.567 43.072 163.081 46.878 159.825 49.144L161.277 50.684C163.235 49.188 164.907 47.274 166.117 44.964L171.903 49.518L173.025 48.022ZM164.335 50.75V57.79H178.195V55.986H166.315V50.75H164.335Z" fill="#FFFAEA"/>
<path d="M199.315 46.372V37H197.379V58.12H199.315V48.132H202.945V46.372H199.315ZM182.287 42.016H186.401V42.082C186.137 45.558 184.487 49.254 181.385 52.026L183.035 53.28C186.269 49.98 188.117 45.91 188.491 40.212H182.287V42.016ZM192.803 42.016V42.082C192.473 46.57 191.087 51.036 187.457 54.732L189.283 55.92C192.891 51.916 194.563 46.834 194.959 40.212H189.503V42.016H192.803Z" fill="#FFFAEA"/>
<path d="M220.435 58.12H222.415V37H220.435V58.12ZM205.321 40.19V41.994H213.681V42.06C212.669 45.932 208.907 50.244 204.045 52.708L205.211 54.358C207.653 53.016 209.963 51.234 211.811 49.1L216.827 54.006L218.037 52.466L212.955 47.67C214.539 45.47 215.661 42.962 216.035 40.19H205.321Z" fill="#FFFAEA"/>
<path d="M242.87 48.99H248.81V39.2H234.95V48.99H240.89V53.786H231.43V55.612H252.33V53.786H242.87V48.99ZM246.83 40.96V47.23H236.93V40.96H246.83Z" fill="#FFFAEA"/>
<path d="M259.216 44.282V39.97H270.81V38.21H257.236V46.02H271.272V44.282H259.216ZM253.43 48.836V50.64H262.89V58.34H264.87V50.64H274.33V48.836H253.43Z" fill="#FFFAEA"/>
<path d="M298.744 46.372V37H296.809V49.958C293.377 51.124 288.207 51.784 284.819 51.784L284.774 41.774H293.222V39.97H282.794V53.61C288.162 53.61 293.487 52.906 296.809 51.674V58.12H298.744V48.132H302.375V46.372H298.744Z" fill="#FFFAEA"/>
<path d="M327.449 49.87L328.615 48.286L319.881 42.28C320.453 41.334 320.937 40.322 321.289 39.222L319.331 38.76C317.791 43.182 313.853 46.46 309.673 48.308L310.751 50.046C313.699 48.616 316.669 46.548 318.803 43.842L327.449 49.87ZM308.859 55.612H329.759V53.786H308.859V55.612Z" fill="#FFFAEA"/>
<path d="M349.449 49.87L350.615 48.286L341.881 42.28C342.453 41.334 342.937 40.322 343.289 39.222L341.331 38.76C339.791 43.182 335.853 46.46 331.673 48.308L332.751 50.046C335.699 48.616 338.669 46.548 340.803 43.842L349.449 49.87ZM330.859 55.612H351.759V53.786H330.859V55.612Z" fill="#FFFAEA"/>
<path d="M364.299 49.98H371.317V48.242H358.425V45.294H370.019V38.98H356.269V40.718H368.061V43.534H356.467V49.98H362.319V53.786H352.859V55.612H373.759V53.786H364.299V49.98Z" fill="#FFFAEA"/>
</svg>
