<svg width="103" height="44" viewBox="0 0 103 44" fill="none" xmlns="http://www.w3.org/2000/svg">
<path d="M48.2328 10.51L49.1688 9.21402L42.0948 4.49802C42.5448 3.77802 42.9048 3.00402 43.1928 2.17602L41.5728 1.78002C40.3308 5.23602 37.1268 7.79202 33.6708 9.23202L34.5348 10.672C36.9828 9.55602 39.4308 7.93602 41.1948 5.75802L48.2328 10.51ZM42.3648 9.34002H40.7448V14.254H33.0048V15.748H50.1048V14.254H42.3648V9.34002Z" fill="black"/>
<path d="M65.1708 7.91802H62.2548V1.24002H60.6888V17.17H62.2548V9.34002H65.1708V17.782H66.7548V0.52002H65.1708V7.91802ZM57.2148 4.94802V5.00202C56.7468 8.06202 54.8928 11.446 51.1848 13.624L52.3728 14.938C56.0628 12.616 58.5648 8.63802 59.0328 3.49002H51.9948V4.94802H57.2148Z" fill="black"/>
<path d="M6.12 31.998C7.362 31.548 8.172 30.576 8.172 29.118C8.172 26.976 6.39 25.878 3.42 25.878H0V39H3.978C7.47 39 9.09 37.452 9.09 35.256C9.09 32.862 7.182 32.178 6.12 32.052V31.998ZM3.276 27.408C4.842 27.408 6.21 27.93 6.21 29.55C6.21 30.882 5.22 31.512 3.15 31.512H1.836V27.408H3.276ZM1.836 37.47V33.042H2.916C5.382 33.042 7.128 33.276 7.128 35.112C7.128 36.858 5.742 37.47 3.852 37.47H1.836Z" fill="black"/>
<path d="M16.1835 28.668C15.1935 28.668 14.0775 29.352 13.2315 30.144L12.9975 28.866H11.2875L11.7015 31.278V39H13.3935V31.566C14.1495 30.972 15.0855 30.288 16.3275 30.288C16.6155 30.288 16.9035 30.306 17.2275 30.396V28.776C16.8675 28.686 16.5435 28.668 16.1835 28.668Z" fill="black"/>
<path d="M26.209 36.732V31.656C26.209 29.442 24.661 28.668 22.807 28.668C21.565 28.668 19.855 28.956 19.045 29.316V30.828C19.909 30.522 21.439 30.18 22.519 30.18C23.635 30.18 24.517 30.522 24.517 32.052V33.276H23.185C20.269 33.276 18.487 34.302 18.487 36.336C18.487 38.01 19.441 39.18 21.367 39.18C22.789 39.18 23.959 38.46 24.679 37.902L24.877 39H26.587L26.209 36.732ZM20.197 36.21C20.197 35.058 21.079 34.608 22.861 34.608H24.517V36.642C23.635 37.236 22.591 37.74 21.637 37.74C20.647 37.74 20.197 37.182 20.197 36.21Z" fill="black"/>
<path d="M34.8563 28.668C33.3263 28.668 31.8863 29.478 30.9503 30.144L30.7163 28.866H29.0063L29.4203 31.278V39H31.1123V31.368C32.0663 30.792 33.2903 30.18 34.2263 30.18C35.7743 30.18 36.1343 30.918 36.1343 32.502V39H37.8263V32.322C37.8263 29.712 36.8723 28.668 34.8563 28.668Z" fill="black"/>
<path d="M48.9607 36.732V24.312H47.2687V28.866C46.7107 28.776 45.8647 28.668 45.2887 28.668C42.5887 28.668 40.3567 30.81 40.3567 34.41C40.3567 37.902 42.4267 39.18 44.2627 39.18C45.5767 39.18 46.6027 38.604 47.4307 37.884L47.6287 39H49.3387L48.9607 36.732ZM42.1567 34.068C42.1567 31.17 43.3627 30.18 45.2527 30.18C45.9007 30.18 46.6747 30.306 47.2687 30.486V36.588C46.2067 37.272 45.5227 37.668 44.5867 37.668C43.0207 37.668 42.1567 36.516 42.1567 34.068Z" fill="black"/>
<path d="M56.5345 38.406C57.7225 38.91 58.9825 39.18 60.2785 39.18C62.7445 39.18 64.8865 37.848 64.8865 35.4C64.8865 32.862 62.6365 32.088 60.7285 31.296C59.1625 30.666 58.2625 30.198 58.2625 28.956C58.2625 27.876 59.4325 27.246 60.6565 27.246C62.0065 27.246 63.3025 27.66 64.3825 28.362V26.472C63.5185 26.022 62.2585 25.68 60.6565 25.68C58.3885 25.68 56.4445 27.066 56.4445 29.388C56.4445 31.53 58.2265 32.412 59.8825 33.042C61.5745 33.69 63.0685 34.14 63.0685 35.58C63.0685 36.822 61.8985 37.56 60.3865 37.56C59.0185 37.56 57.5065 37.092 56.5345 36.516V38.406Z" fill="black"/>
<path d="M71.6517 37.668C70.5717 37.668 69.8337 37.38 69.8157 36.012V30.378H73.1817V28.866H69.8157V26.22H68.1237V28.866H66.4317V30.378H68.1237V36.21C68.1237 38.37 69.4737 39.18 71.0217 39.18C71.9757 39.18 72.8397 39.018 73.3797 38.712V37.326C72.9117 37.488 72.2457 37.668 71.6517 37.668Z" fill="black"/>
<path d="M79.4873 39.18C82.2773 39.18 84.0953 36.696 84.0953 33.942C84.0953 30.342 82.5653 28.668 79.5773 28.668C76.8593 28.668 74.8973 31.17 74.8973 33.978C74.8973 37.596 76.7153 39.18 79.4873 39.18ZM79.5593 37.668C77.3273 37.668 76.6973 36.048 76.6973 33.906C76.6973 31.98 77.2553 30.18 79.4873 30.18C81.9353 30.18 82.2953 32.07 82.2953 33.978C82.2953 35.976 81.7553 37.668 79.5593 37.668Z" fill="black"/>
<path d="M91.2421 28.668C90.2521 28.668 89.1361 29.352 88.2901 30.144L88.0561 28.866H86.3461L86.7601 31.278V39H88.4521V31.566C89.2081 30.972 90.1441 30.288 91.3861 30.288C91.6741 30.288 91.9621 30.306 92.2861 30.396V28.776C91.9261 28.686 91.6021 28.668 91.2421 28.668Z" fill="black"/>
<path d="M98.6936 34.752L97.8836 37.038H97.7576L97.0556 34.842L95.1656 28.866H93.1856L96.7856 39H97.0556L95.1296 43.59L95.1836 43.662H96.9836L98.7656 38.73L102.618 28.866H100.746L98.6936 34.752Z" fill="black"/>
</svg>
