<svg width="107" height="40" viewBox="0 0 107 40" fill="none" xmlns="http://www.w3.org/2000/svg">
<path d="M49.8501 0.52002H48.2661V13.48H49.8501V7.55802H52.8201V6.11802H49.8501V0.52002ZM45.0801 6.22602C45.0801 3.58002 43.2621 2.10402 40.6341 2.10402C38.0061 2.10402 36.1701 3.58002 36.1701 6.22602C36.1701 8.89002 38.0061 10.366 40.6341 10.366C43.2621 10.366 45.0801 8.89002 45.0801 6.22602ZM37.7901 6.22602C37.7901 4.39002 38.9781 3.50802 40.6341 3.50802C42.2721 3.50802 43.4601 4.37202 43.4601 6.22602C43.4601 8.08002 42.2721 8.96202 40.6341 8.96202C38.9781 8.96202 37.7901 8.08002 37.7901 6.22602ZM39.2301 11.77V17.53H50.5701V16.054H40.8501V11.77H39.2301Z" fill="black"/>
<path d="M67.6161 7.64802H64.6101V1.24002H63.0441V11.086C60.6861 11.752 57.5541 12.148 56.1681 12.148V2.95002H54.5301V13.66C57.5001 13.66 60.6321 13.246 63.0441 12.544V17.17H64.6101V9.07002H67.6161V17.782H69.2001V0.52002H67.6161V7.64802Z" fill="black"/>
<path d="M6.3241 31.998C7.5661 31.548 8.3761 30.576 8.3761 29.118C8.3761 26.976 6.5941 25.878 3.6241 25.878H0.204102V39H4.1821C7.6741 39 9.2941 37.452 9.2941 35.256C9.2941 32.862 7.3861 32.178 6.3241 32.052V31.998ZM3.4801 27.408C5.0461 27.408 6.4141 27.93 6.4141 29.55C6.4141 30.882 5.4241 31.512 3.3541 31.512H2.0401V27.408H3.4801ZM2.0401 37.47V33.042H3.1201C5.5861 33.042 7.3321 33.276 7.3321 35.112C7.3321 36.858 5.9461 37.47 4.0561 37.47H2.0401Z" fill="black"/>
<path d="M16.3876 28.668C15.3976 28.668 14.2816 29.352 13.4356 30.144L13.2016 28.866H11.4916L11.9056 31.278V39H13.5976V31.566C14.3536 30.972 15.2896 30.288 16.5316 30.288C16.8196 30.288 17.1077 30.306 17.4317 30.396V28.776C17.0716 28.686 16.7477 28.668 16.3876 28.668Z" fill="black"/>
<path d="M26.4131 36.732V31.656C26.4131 29.442 24.8651 28.668 23.0111 28.668C21.7691 28.668 20.0591 28.956 19.2491 29.316V30.828C20.1131 30.522 21.6431 30.18 22.7231 30.18C23.8391 30.18 24.7211 30.522 24.7211 32.052V33.276H23.3891C20.4731 33.276 18.6911 34.302 18.6911 36.336C18.6911 38.01 19.6451 39.18 21.5711 39.18C22.9931 39.18 24.1631 38.46 24.8831 37.902L25.0811 39H26.7911L26.4131 36.732ZM20.4011 36.21C20.4011 35.058 21.2831 34.608 23.0651 34.608H24.7211V36.642C23.8391 37.236 22.7951 37.74 21.8411 37.74C20.8511 37.74 20.4011 37.182 20.4011 36.21Z" fill="black"/>
<path d="M35.0604 28.668C33.5304 28.668 32.0904 29.478 31.1544 30.144L30.9204 28.866H29.2104L29.6244 31.278V39H31.3164V31.368C32.2704 30.792 33.4944 30.18 34.4304 30.18C35.9784 30.18 36.3384 30.918 36.3384 32.502V39H38.0304V32.322C38.0304 29.712 37.0764 28.668 35.0604 28.668Z" fill="black"/>
<path d="M49.1648 36.732V24.312H47.4728V28.866C46.9148 28.776 46.0688 28.668 45.4928 28.668C42.7928 28.668 40.5608 30.81 40.5608 34.41C40.5608 37.902 42.6308 39.18 44.4668 39.18C45.7808 39.18 46.8068 38.604 47.6348 37.884L47.8328 39H49.5428L49.1648 36.732ZM42.3608 34.068C42.3608 31.17 43.5668 30.18 45.4568 30.18C46.1048 30.18 46.8788 30.306 47.4728 30.486V36.588C46.4108 37.272 45.7268 37.668 44.7908 37.668C43.2248 37.668 42.3608 36.516 42.3608 34.068Z" fill="black"/>
<path d="M65.6666 37.29C64.9646 37.488 64.2086 37.632 63.3266 37.632C60.3926 37.632 58.5386 35.832 58.5386 32.178C58.5386 29.028 60.5366 27.21 63.1826 27.21C64.6406 27.21 66.0986 27.552 67.4666 28.362V26.526C66.7826 26.256 65.5586 25.68 63.2906 25.68C59.0066 25.68 56.5766 28.812 56.5766 32.52C56.5766 36.66 58.8086 39.18 63.1106 39.18C64.8926 39.18 66.1886 38.73 67.5206 37.992V32.376H65.6666V37.29Z" fill="black"/>
<path d="M78.5927 36.552V28.866H76.9007V36.48C75.9647 37.056 74.9387 37.668 74.0207 37.668C72.4727 37.668 72.1127 36.93 72.1127 35.346V28.866H70.4207V35.526C70.4207 38.136 71.3747 39.18 73.3907 39.18C74.9027 39.18 76.1807 38.388 77.0627 37.722L77.3147 39H79.0247L78.5927 36.552Z" fill="black"/>
<path d="M83.2162 23.826C82.4962 23.826 81.9562 24.348 81.9562 25.05C81.9562 25.752 82.4962 26.292 83.2162 26.292C83.9182 26.292 84.4762 25.752 84.4762 25.05C84.4762 24.348 83.9182 23.826 83.2162 23.826ZM80.6962 28.866V30.378H82.3342V39H84.0262V28.866H80.6962Z" fill="black"/>
<path d="M95.2371 36.732V24.312H93.5451V28.866C92.9871 28.776 92.1411 28.668 91.5651 28.668C88.8651 28.668 86.6331 30.81 86.6331 34.41C86.6331 37.902 88.7031 39.18 90.5391 39.18C91.8531 39.18 92.8791 38.604 93.7071 37.884L93.9051 39H95.6151L95.2371 36.732ZM88.4331 34.068C88.4331 31.17 89.6391 30.18 91.5291 30.18C92.1771 30.18 92.9511 30.306 93.5451 30.486V36.588C92.4831 37.272 91.7991 37.668 90.8631 37.668C89.2971 37.668 88.4331 36.516 88.4331 34.068Z" fill="black"/>
<path d="M106.667 33.51C106.667 30.792 105.335 28.668 102.455 28.668C99.5751 28.668 97.8831 31.026 97.8831 34.122C97.8831 37.272 99.5391 39.18 102.653 39.18C104.309 39.18 105.515 38.892 106.415 38.352V36.912C105.479 37.38 104.057 37.668 102.905 37.668C100.943 37.668 99.7911 36.606 99.6831 34.302H106.667V33.51ZM102.383 30.18C103.985 30.18 104.687 31.368 104.777 32.952H99.7371C99.9891 30.792 101.105 30.18 102.383 30.18Z" fill="black"/>
</svg>
