<svg width="104" height="44" viewBox="0 0 104 44" fill="none" xmlns="http://www.w3.org/2000/svg">
<path d="M49.1779 10.51L50.1139 9.21402L43.0399 4.49802C43.4899 3.77802 43.8499 3.00402 44.1379 2.17602L42.5179 1.78002C41.2759 5.23602 38.0719 7.79202 34.6159 9.23202L35.4799 10.672C37.9279 9.55602 40.3759 7.93602 42.1399 5.75802L49.1779 10.51ZM43.3099 9.34002H41.6899V14.254H33.9499V15.748H51.0499V14.254H43.3099V9.34002Z" fill="black"/>
<path d="M66.1159 7.91802H63.1999V1.24002H61.6339V17.17H63.1999V9.34002H66.1159V17.782H67.6999V0.52002H66.1159V7.91802ZM58.1599 4.94802V5.00202C57.6919 8.06202 55.8379 11.446 52.1299 13.624L53.3179 14.938C57.0079 12.616 59.5099 8.63802 59.9779 3.49002H52.9399V4.94802H58.1599Z" fill="black"/>
<path d="M7.06519 31.998C8.30719 31.548 9.11719 30.576 9.11719 29.118C9.11719 26.976 7.33519 25.878 4.36519 25.878H0.94519V39H4.92319C8.41519 39 10.0352 37.452 10.0352 35.256C10.0352 32.862 8.12719 32.178 7.06519 32.052V31.998ZM4.22119 27.408C5.78719 27.408 7.15519 27.93 7.15519 29.55C7.15519 30.882 6.16519 31.512 4.09519 31.512H2.78119V27.408H4.22119ZM2.78119 37.47V33.042H3.86119C6.32719 33.042 8.07319 33.276 8.07319 35.112C8.07319 36.858 6.68719 37.47 4.79719 37.47H2.78119Z" fill="black"/>
<path d="M17.1287 28.668C16.1387 28.668 15.0227 29.352 14.1767 30.144L13.9427 28.866H12.2327L12.6467 31.278V39H14.3387V31.566C15.0947 30.972 16.0307 30.288 17.2727 30.288C17.5607 30.288 17.8487 30.306 18.1727 30.396V28.776C17.8127 28.686 17.4887 28.668 17.1287 28.668Z" fill="black"/>
<path d="M27.1542 36.732V31.656C27.1542 29.442 25.6062 28.668 23.7522 28.668C22.5102 28.668 20.8002 28.956 19.9902 29.316V30.828C20.8542 30.522 22.3842 30.18 23.4642 30.18C24.5802 30.18 25.4622 30.522 25.4622 32.052V33.276H24.1302C21.2142 33.276 19.4322 34.302 19.4322 36.336C19.4322 38.01 20.3862 39.18 22.3122 39.18C23.7342 39.18 24.9042 38.46 25.6242 37.902L25.8222 39H27.5322L27.1542 36.732ZM21.1422 36.21C21.1422 35.058 22.0242 34.608 23.8062 34.608H25.4622V36.642C24.5802 37.236 23.5362 37.74 22.5822 37.74C21.5922 37.74 21.1422 37.182 21.1422 36.21Z" fill="black"/>
<path d="M35.8015 28.668C34.2715 28.668 32.8315 29.478 31.8955 30.144L31.6615 28.866H29.9515L30.3655 31.278V39H32.0575V31.368C33.0115 30.792 34.2355 30.18 35.1715 30.18C36.7195 30.18 37.0795 30.918 37.0795 32.502V39H38.7715V32.322C38.7715 29.712 37.8175 28.668 35.8015 28.668Z" fill="black"/>
<path d="M49.9059 36.732V24.312H48.2139V28.866C47.6559 28.776 46.8099 28.668 46.2339 28.668C43.5339 28.668 41.3019 30.81 41.3019 34.41C41.3019 37.902 43.3719 39.18 45.2079 39.18C46.5219 39.18 47.5479 38.604 48.3759 37.884L48.5739 39H50.2839L49.9059 36.732ZM43.1019 34.068C43.1019 31.17 44.3079 30.18 46.1979 30.18C46.8459 30.18 47.6199 30.306 48.2139 30.486V36.588C47.1519 37.272 46.4679 37.668 45.5319 37.668C43.9659 37.668 43.1019 36.516 43.1019 34.068Z" fill="black"/>
<path d="M57.4797 38.406C58.6677 38.91 59.9277 39.18 61.2237 39.18C63.6897 39.18 65.8317 37.848 65.8317 35.4C65.8317 32.862 63.5817 32.088 61.6737 31.296C60.1077 30.666 59.2077 30.198 59.2077 28.956C59.2077 27.876 60.3777 27.246 61.6017 27.246C62.9517 27.246 64.2477 27.66 65.3277 28.362V26.472C64.4637 26.022 63.2037 25.68 61.6017 25.68C59.3337 25.68 57.3897 27.066 57.3897 29.388C57.3897 31.53 59.1717 32.412 60.8277 33.042C62.5197 33.69 64.0137 34.14 64.0137 35.58C64.0137 36.822 62.8437 37.56 61.3317 37.56C59.9637 37.56 58.4517 37.092 57.4797 36.516V38.406Z" fill="black"/>
<path d="M72.5969 37.668C71.5169 37.668 70.7789 37.38 70.7609 36.012V30.378H74.1269V28.866H70.7609V26.22H69.0689V28.866H67.3769V30.378H69.0689V36.21C69.0689 38.37 70.4189 39.18 71.9669 39.18C72.9209 39.18 73.7849 39.018 74.3249 38.712V37.326C73.8569 37.488 73.1909 37.668 72.5969 37.668Z" fill="black"/>
<path d="M80.4325 39.18C83.2225 39.18 85.0405 36.696 85.0405 33.942C85.0405 30.342 83.5105 28.668 80.5225 28.668C77.8045 28.668 75.8425 31.17 75.8425 33.978C75.8425 37.596 77.6605 39.18 80.4325 39.18ZM80.5045 37.668C78.2725 37.668 77.6425 36.048 77.6425 33.906C77.6425 31.98 78.2005 30.18 80.4325 30.18C82.8805 30.18 83.2405 32.07 83.2405 33.978C83.2405 35.976 82.7005 37.668 80.5045 37.668Z" fill="black"/>
<path d="M92.1873 28.668C91.1973 28.668 90.0813 29.352 89.2353 30.144L89.0013 28.866H87.2913L87.7053 31.278V39H89.3973V31.566C90.1533 30.972 91.0893 30.288 92.3313 30.288C92.6193 30.288 92.9073 30.306 93.2313 30.396V28.776C92.8713 28.686 92.5473 28.668 92.1873 28.668Z" fill="black"/>
<path d="M99.6388 34.752L98.8288 37.038H98.7028L98.0008 34.842L96.1108 28.866H94.1308L97.7308 39H98.0008L96.0748 43.59L96.1288 43.662H97.9288L99.7108 38.73L103.563 28.866H101.691L99.6388 34.752Z" fill="black"/>
</svg>
