<svg width="81" height="84" viewBox="0 0 81 84" fill="none" xmlns="http://www.w3.org/2000/svg">
<path d="M15.0552 23.312C15.3355 21.5787 15.5223 19.7934 15.5223 17.8732V16.7004H25.1855V10.8827H3.33177V16.7004H12.9949V18.1535C12.9897 25.0921 7.31743 30.2506 0 33.6758L4.03237 38.6942C9.1442 36.3485 12.8029 31.8957 14.4896 25.8446C17.3024 28.5172 19.5547 32.5963 21.6669 38.0403L26.5919 34.994C23.3587 28.5639 19.2277 25.3256 15.0552 23.312Z" fill="#235B4E"/>
<path d="M21.7655 1.73334H6.94377V7.41084H21.7655V1.73334Z" fill="#235B4E"/>
<path d="M62.0529 33.3488V23.0266H59.5203V33.3436H40.6662V0H38.2271V17.3543H31.2833V0.46707H28.8442V42.5813H25.1855V62.795H34.0027C41.2734 62.795 47.5581 61.9958 52.2029 59.183L50.4695 54.8185C47.2312 55.9914 40.9465 56.884 35.0874 56.884H27.5312V48.4923H46.9976V42.5864H40.6662V39.2599H80.9069V33.3488H62.0529ZM31.2833 42.5864V24.1112H38.2271V42.5864H31.2833Z" fill="#235B4E"/>
<path d="M60.7399 15.5223C66.5575 18.195 71.3372 22.7463 74.5288 26.732L79.4538 22.0872C75.0893 17.4425 67.1647 14.3027 61.4924 13.1766C61.866 11.6768 62.0529 10.0368 62.0529 8.20487V1.73334H59.5203V7.45755C59.5203 14.256 52.0628 18.5738 41.5589 21.013L44.7038 27.0174C52.343 25.0921 58.2073 21.6669 60.7399 15.5223Z" fill="#235B4E"/>
<path d="M28.0502 84H56.8944V66.4589H28.0502V84ZM30.3907 72.3699H54.5434V78.089H30.3907V72.3699Z" fill="#235B4E"/>
<path d="M56.8943 41.8807H54.5486V63.5008H56.8943V56.5155L64.0249 56.6089V50.6045L56.8943 50.6979V41.8807Z" fill="#235B4E"/>
</svg>
