<svg width="72" height="74" viewBox="0 0 72 74" fill="none" xmlns="http://www.w3.org/2000/svg">
<path d="M13.2629 20.5368C13.5098 19.0098 13.6744 17.437 13.6744 15.7455V14.7122H22.1872V9.58718H2.93513V14.7122H11.4479V15.9923C11.4433 22.1049 6.44631 26.6493 0 29.6668L3.55233 34.0877C8.0556 32.0213 11.2788 28.0986 12.7646 22.7678C15.2426 25.1223 17.2267 28.7158 19.0875 33.5117L23.4262 30.828C20.5779 25.1635 16.9387 22.3106 13.2629 20.5368Z" fill="#235B4E"/>
<path d="M19.1743 1.52699H6.11713V6.5286H19.1743V1.52699Z" fill="#235B4E"/>
<path d="M54.6656 29.3787V20.2853H52.4346V29.3742H35.825V0H33.6763V15.2883H27.5591V0.411467H25.4103V37.5121H22.1872V55.3194H29.9548C36.3599 55.3194 41.8964 54.6154 45.9883 52.1374L44.4613 48.2925C41.6084 49.3257 36.0719 50.1121 30.9103 50.1121H24.2537V42.7194H41.4027V37.5166H35.825V34.5861H71.2752V29.3787H54.6656ZM27.5591 37.5166V21.2408H33.6763V37.5166H27.5591Z" fill="#235B4E"/>
<path d="M53.509 13.6744C58.634 16.0289 62.8447 20.0384 65.6564 23.5496L69.995 19.4578C66.1501 15.366 59.1689 12.6 54.1719 11.6079C54.501 10.2867 54.6656 8.84196 54.6656 7.2281V1.52699H52.4346V6.56975C52.4346 12.5589 45.8648 16.3627 36.6114 18.5114L39.3819 23.8011C46.1117 22.1049 51.2779 19.0875 53.509 13.6744Z" fill="#235B4E"/>
<path d="M24.7109 74H50.1212V58.5471H24.7109V74ZM26.7728 63.7545H48.0502V68.7927H26.7728V63.7545Z" fill="#235B4E"/>
<path d="M50.1212 36.8949H48.0547V55.9412H50.1212V49.7875L56.4029 49.8698V44.5802L50.1212 44.6624V36.8949Z" fill="#235B4E"/>
</svg>
