<svg width="124" height="18" viewBox="0 0 124 18" fill="none" xmlns="http://www.w3.org/2000/svg">
<path d="M7.66142 16.27C11.4234 16.27 14.4834 13.21 14.4834 9.46602C14.4834 5.70402 11.4234 2.68002 7.66142 2.68002C3.91742 2.68002 0.857422 5.70402 0.857422 9.46602C0.857422 13.21 3.91742 16.27 7.66142 16.27ZM7.66142 15.712C4.29542 15.712 1.43342 12.904 1.43342 9.46602C1.43342 5.97402 4.29542 3.23802 7.66142 3.23802C11.0454 3.23802 13.9074 5.97402 13.9074 9.46602C13.9074 12.904 11.0454 15.712 7.66142 15.712ZM7.87742 13.534C8.92142 13.534 9.80342 13.282 10.2174 13.048V12.022C9.46142 12.4 8.83142 12.544 7.94942 12.544C6.07742 12.544 4.97942 11.59 4.97942 9.39402C4.97942 7.50402 6.04142 6.31602 7.80542 6.31602C8.63342 6.31602 9.33542 6.42402 10.2174 6.87402V5.75802C9.74942 5.57802 9.13742 5.32602 7.85942 5.32602C5.12342 5.32602 3.75542 7.18002 3.75542 9.46602C3.75542 12.202 5.26742 13.534 7.87742 13.534Z" fill="#235B4E"/>
<path d="M23.2401 15.352C26.2821 12.922 29.9181 8.98002 29.9181 6.13602C29.9181 3.45402 28.0461 2.21202 25.6881 2.21202C24.3381 2.21202 22.8801 2.62602 21.8361 3.45402V4.73202C23.3121 3.61602 24.4101 3.40002 25.5261 3.40002C27.3081 3.40002 28.5681 4.42602 28.5681 6.20802C28.5681 8.98002 24.8421 12.724 21.3861 15.532V16.468H30.4761V15.352H23.2401Z" fill="#235B4E"/>
<path d="M37.0821 16.648C40.2321 16.648 42.0141 13.642 42.0141 9.25002C42.0141 5.54202 40.8981 2.21202 37.2621 2.21202C34.0401 2.21202 32.3841 5.34402 32.3841 9.64602C32.3841 13.84 33.7341 16.648 37.0821 16.648ZM37.1721 15.55C35.0121 15.55 33.6981 13.48 33.6981 9.57402C33.6981 5.86602 34.9761 3.32802 37.1181 3.32802C39.3501 3.32802 40.7001 5.72202 40.7001 9.30402C40.7001 13.138 39.4401 15.55 37.1721 15.55Z" fill="#235B4E"/>
<path d="M45.7401 15.352C48.7821 12.922 52.4181 8.98002 52.4181 6.13602C52.4181 3.45402 50.5461 2.21202 48.1881 2.21202C46.8381 2.21202 45.3801 2.62602 44.3361 3.45402V4.73202C45.8121 3.61602 46.9101 3.40002 48.0261 3.40002C49.8081 3.40002 51.0681 4.42602 51.0681 6.20802C51.0681 8.98002 47.3421 12.724 43.8861 15.532V16.468H52.9761V15.352H45.7401Z" fill="#235B4E"/>
<path d="M60.7341 2.35602H59.9421L55.8561 3.81402V4.91202L59.4021 3.90402V15.352H55.5861V16.468H64.3341V15.352H60.7341V2.35602Z" fill="#235B4E"/>
<path d="M84.8679 8.00802H81.5199V1.24002H80.3139V17.152H81.5199V9.08802H84.8679V17.818H86.0739V0.52002H84.8679V8.00802ZM72.1959 2.23002V3.32802H77.5239V2.23002H72.1959ZM71.2059 5.81202V6.91002H76.7499V6.96402C75.8139 9.53802 73.5459 12.076 70.5579 13.624L71.3139 14.596C72.8439 13.732 74.2659 12.58 75.4539 11.194L78.4419 14.488L79.2159 13.642L76.1379 10.33C77.0919 8.99802 77.8299 7.48602 78.2259 5.81202H71.2059Z" fill="#235B4E"/>
<path d="M103.786 10.438L104.488 9.44802L97.3059 4.58802C97.7739 3.83202 98.1879 3.02202 98.4759 2.17602L97.2519 1.87002C95.9739 5.36202 92.7879 7.97202 89.3139 9.50202L89.9799 10.6C92.4279 9.44802 94.8759 7.75602 96.6219 5.54202L103.786 10.438ZM97.6119 9.30402H96.3879V14.47H88.4499V15.604H105.55V14.47H97.6119V9.30402Z" fill="#235B4E"/>
<path d="M120.67 5.48802V0.52002H119.464V6.76602C116.638 7.73802 112.156 8.26002 109.042 8.26002L109.024 3.27402H116.152V2.15802H107.8V9.37602C112.174 9.37602 116.728 8.81802 119.464 7.79202V10.15H120.67V6.58602H123.82V5.48802H120.67ZM120.67 17.566V11.158H110.212V17.566H120.67ZM119.464 12.238V16.486H111.4V12.238H119.464Z" fill="#235B4E"/>
</svg>
