<svg width="124" height="18" viewBox="0 0 124 18" fill="none" xmlns="http://www.w3.org/2000/svg">
<path d="M7.73057 16.306C11.4926 16.306 14.5526 13.246 14.5526 9.50202C14.5526 5.74002 11.4926 2.68002 7.73057 2.68002C3.96857 2.68002 0.908569 5.74002 0.908569 9.50202C0.908569 13.246 3.96857 16.306 7.73057 16.306ZM7.73057 15.64C4.36457 15.64 1.59257 12.868 1.59257 9.50202C1.59257 6.11802 4.36457 3.34602 7.73057 3.34602C11.1146 3.34602 13.8686 6.11802 13.8686 9.50202C13.8686 12.868 11.1146 15.64 7.73057 15.64ZM7.96457 13.588C9.13457 13.588 10.1246 13.318 10.5206 13.066V11.752C9.76457 12.166 9.04457 12.328 8.09057 12.328C6.29057 12.328 5.19257 11.356 5.19257 9.41202C5.19257 7.73802 6.20057 6.56802 7.83857 6.56802C8.81057 6.56802 9.60257 6.71202 10.5206 7.19802V5.75802C10.0526 5.59602 9.44057 5.30802 7.91057 5.30802C5.10257 5.30802 3.59057 7.21602 3.59057 9.50202C3.59057 12.292 5.35457 13.588 7.96457 13.588Z" fill="black"/>
<path d="M23.7442 15.01C26.8582 12.454 30.0082 8.83602 30.0082 6.19002C30.0082 3.50802 28.0282 2.21202 25.6702 2.21202C24.2842 2.21202 22.7182 2.62602 21.7282 3.45402V5.14602C23.1682 3.95802 24.3382 3.76002 25.4362 3.76002C26.9122 3.76002 28.2082 4.71402 28.2082 6.29802C28.2082 8.94402 24.7162 12.4 21.2782 15.28V16.468H30.5842V15.01H23.7442Z" fill="black"/>
<path d="M37.0822 16.648C40.1782 16.648 42.0682 13.786 42.0682 9.25002C42.0682 5.39802 40.8262 2.21202 37.2622 2.21202C34.0942 2.21202 32.3302 5.20002 32.3302 9.64602C32.3302 13.984 33.8062 16.648 37.0822 16.648ZM37.2082 15.208C35.1202 15.208 34.0582 12.976 34.0582 9.55602C34.0582 6.37002 34.9582 3.68802 37.0642 3.68802C39.2242 3.68802 40.3402 6.31602 40.3402 9.34002C40.3402 12.724 39.4222 15.208 37.2082 15.208Z" fill="black"/>
<path d="M46.2442 15.01C49.3582 12.454 52.5082 8.83602 52.5082 6.19002C52.5082 3.50802 50.5282 2.21202 48.1702 2.21202C46.7842 2.21202 45.2182 2.62602 44.2282 3.45402V5.14602C45.6682 3.95802 46.8382 3.76002 47.9362 3.76002C49.4122 3.76002 50.7082 4.71402 50.7082 6.29802C50.7082 8.94402 47.2162 12.4 43.7782 15.28V16.468H53.0842V15.01H46.2442Z" fill="black"/>
<path d="M60.9862 2.41002H60.0142L55.8742 3.67002V5.07402L59.2222 4.48002V15.01H55.5682V16.468H64.3162V15.01H60.9862V2.41002Z" fill="black"/>
<path d="M84.616 7.82802H81.7V1.24002H80.134V17.17H81.7V9.25002H84.616V17.782H86.2V0.52002H84.616V7.82802ZM72.124 2.05002V3.50802H77.578V2.05002H72.124ZM71.152 5.63202V7.07202H76.39V7.12602C75.508 9.52002 73.42 11.896 70.45 13.462L71.44 14.722C72.934 13.84 74.302 12.742 75.436 11.41L78.226 14.614L79.234 13.516L76.3 10.276C77.236 8.92602 77.938 7.37802 78.298 5.63202H71.152Z" fill="black"/>
<path d="M103.678 10.51L104.614 9.21402L97.54 4.49802C97.99 3.77802 98.35 3.00402 98.638 2.17602L97.018 1.78002C95.776 5.23602 92.572 7.79202 89.116 9.23202L89.98 10.672C92.428 9.55602 94.876 7.93602 96.64 5.75802L103.678 10.51ZM97.81 9.34002H96.19V14.254H88.45V15.748H105.55V14.254H97.81V9.34002Z" fill="black"/>
<path d="M120.85 5.30802V0.52002H119.266V6.62202C116.602 7.52202 112.156 8.04402 109.366 8.04402L109.33 3.50802H116.242V2.05002H107.71V9.52002C112.12 9.52002 116.692 8.92602 119.266 7.97202V10.15H120.85V6.74802H123.82V5.30802H120.85ZM120.85 17.62V11.05H110.05V17.62H120.85ZM119.266 12.454V16.198H111.616V12.454H119.266Z" fill="black"/>
</svg>
