<svg width="285" height="35" viewBox="0 0 285 35" fill="none" xmlns="http://www.w3.org/2000/svg">
<path d="M26.88 0.47998H23.008V18.432H26.88V12.576H31.68V9.02398H26.88V0.47998ZM20.544 15.008L14.016 11.296C16 8.95998 17.376 6.17598 17.856 2.97598H2.81596V6.30398H13.216V6.43198C11.552 9.95198 7.48796 13.504 0.959961 15.584L2.84796 18.656C6.11196 17.472 9.11996 15.84 11.584 13.76L18.624 17.76L20.544 15.008ZM16.64 18.848C9.98396 18.848 6.04796 21.248 6.04796 25.152C6.04796 29.152 9.98396 31.456 16.64 31.456C23.296 31.456 27.232 29.152 27.232 25.152C27.232 21.248 23.296 18.848 16.64 18.848ZM22.272 26.976C21.152 27.744 19.296 28.192 16.64 28.192C13.984 28.192 12.096 27.744 11.008 26.976C10.464 26.496 10.176 25.888 10.176 25.12C10.176 24.384 10.464 23.712 11.008 23.264C12.128 22.528 13.984 22.08 16.64 22.08C19.296 22.08 21.152 22.528 22.272 23.264C22.848 23.712 23.104 24.384 23.104 25.12C23.104 25.888 22.848 26.496 22.272 26.976Z" fill="black"/>
<path d="M58.88 13.216V0.47998H55.008V31.2H58.88V16.992H63.68V13.216H58.88ZM38.496 11.36V4.09598H34.784V25.28H49.984V4.09598H46.272V11.36H38.496ZM38.496 21.728V14.816H46.272V21.728H38.496Z" fill="black"/>
<path d="M88.128 15.328C89.024 11.712 89.664 7.48798 89.856 2.36798H69.024V5.85598H85.76C85.568 9.24798 85.152 12.352 84.512 15.328H64.8V18.88H77.984V31.264H82.016V18.88H95.2V15.328H88.128Z" fill="black"/>
<path d="M120.416 18.112C115.104 19.904 107.456 20.96 103.424 20.96V4.25598H99.456V24.608C107.328 24.608 115.2 23.456 120.416 21.504V31.2H124.384V0.47998H120.416V18.112Z" fill="black"/>
<path d="M149.296 25.24C148.6 25.408 147.856 25.504 147.04 25.504C143.368 25.504 141.232 23.224 141.232 19C141.232 15.064 143.824 13 146.944 13C148.816 13 150.952 13.408 152.728 14.488V11.296C151.672 10.888 149.752 10.216 146.968 10.216C141.112 10.216 137.56 14.128 137.56 19.48C137.56 25.216 140.968 28.288 146.56 28.288C148.912 28.288 150.88 27.688 152.8 26.656V18.976H149.296V25.24Z" fill="black"/>
<path d="M163.262 14.176C161.966 14.176 160.502 15.064 159.374 16.096L159.062 14.416H155.846L156.398 17.704V28H159.614V18.592C160.598 17.848 161.846 17.128 163.454 17.128C163.838 17.128 164.222 17.152 164.654 17.272V14.32C164.174 14.2 163.742 14.176 163.262 14.176Z" fill="black"/>
<path d="M172.278 28.24C176.406 28.24 178.974 25.048 178.974 21.112C178.974 16.312 176.766 14.128 172.542 14.128C168.558 14.128 165.894 17.368 165.894 21.352C165.894 26.032 168.246 28.24 172.278 28.24ZM172.47 25.672C169.998 25.672 169.23 23.728 169.23 21.16C169.23 18.832 169.926 16.744 172.422 16.744C175.158 16.744 175.638 18.904 175.638 21.232C175.638 23.632 174.99 25.672 172.47 25.672Z" fill="black"/>
<path d="M187.749 28.24C189.501 28.24 190.989 27.952 191.949 27.376V24.832C190.893 25.288 189.813 25.504 188.829 25.504C186.261 25.504 184.629 24.184 184.629 21.16C184.629 17.824 186.429 16.888 188.517 16.888C189.645 16.888 190.797 17.08 191.973 17.752V14.752C190.965 14.272 189.693 14.128 188.157 14.128C183.741 14.128 181.293 17.344 181.293 21.472C181.293 25.672 183.453 28.24 187.749 28.24Z" fill="black"/>
<path d="M206.614 20.776C206.614 16.84 204.67 14.128 200.566 14.128C196.654 14.128 194.23 17.152 194.23 21.496C194.23 25.912 196.606 28.24 200.926 28.24C203.11 28.24 204.958 27.928 206.254 27.208V24.832C204.91 25.36 203.086 25.672 201.598 25.672C199.198 25.672 197.734 24.544 197.494 21.952H206.614V20.776ZM200.518 16.72C202.342 16.72 203.134 18.064 203.254 20.032H197.542C197.806 17.56 198.982 16.72 200.518 16.72Z" fill="black"/>
<path d="M216.605 14.176C215.309 14.176 213.845 15.064 212.717 16.096L212.405 14.416H209.189L209.741 17.704V28H212.957V18.592C213.941 17.848 215.189 17.128 216.797 17.128C217.181 17.128 217.565 17.152 217.997 17.272V14.32C217.517 14.2 217.085 14.176 216.605 14.176Z" fill="black"/>
<path d="M226.837 21.52L225.805 24.568H225.637L224.773 21.616L222.589 14.416H218.989L223.741 28H224.389L221.773 34.12L221.845 34.216H225.181L227.605 27.448L232.645 14.416H229.213L226.837 21.52Z" fill="black"/>
<path d="M250.042 18.664C251.77 18.088 252.922 16.768 252.922 14.824C252.922 11.968 250.546 10.504 246.586 10.504H240.826V28H247.21C251.842 28 254.002 25.936 254.002 23.008C254.002 19.816 251.554 18.928 250.042 18.736V18.664ZM245.77 13.144C247.762 13.144 249.274 13.792 249.274 15.592C249.274 17.104 248.122 17.848 245.602 17.848H244.306V13.144H245.77ZM244.306 25.36V20.32H245.506C248.506 20.32 250.378 20.68 250.378 22.696C250.378 24.616 248.842 25.36 246.466 25.36H244.306Z" fill="black"/>
<path d="M267.357 24.832V18.496C267.357 15.16 265.149 14.128 262.125 14.128C260.397 14.128 258.093 14.536 256.917 15.016V17.728C258.189 17.32 260.109 16.936 261.549 16.936C263.037 16.936 264.141 17.368 264.141 19.168V20.392H262.509C258.621 20.392 256.101 21.76 256.101 24.496C256.101 26.752 257.589 28.24 260.013 28.24C261.861 28.24 263.445 27.376 264.405 26.656L264.645 28H267.861L267.357 24.832ZM259.317 24.088C259.317 22.72 260.397 22.24 262.413 22.24H264.141V24.952C263.229 25.504 262.173 25.936 261.213 25.936C259.989 25.936 259.317 25.288 259.317 24.088Z" fill="black"/>
<path d="M279.907 14.92C278.947 14.392 277.723 14.128 276.355 14.128C273.139 14.128 270.571 16.24 270.571 18.712C270.571 20.704 271.723 21.904 273.379 22.504L270.955 24.808V26.704L272.683 26.896C271.195 27.76 269.875 28.96 269.875 30.448C269.875 32.848 272.155 34.408 275.947 34.408C280.315 34.408 283.459 31.816 283.459 28.84C283.459 26.512 281.995 25.144 278.275 24.808L274.003 24.424L275.323 22.936C275.659 22.96 276.043 22.984 276.403 22.984C279.331 22.984 282.067 20.968 282.067 18.592C282.067 17.8 281.899 17.104 281.563 16.528H284.035V14.272L279.907 14.92ZM276.379 20.92C274.891 20.92 273.811 20.104 273.811 18.52C273.811 17.128 274.699 16.264 276.211 16.264C277.771 16.264 278.779 17.104 278.779 18.616C278.779 19.984 277.771 20.92 276.379 20.92ZM280.243 29.44C280.243 30.76 278.755 32.104 276.451 32.104C274.051 32.104 273.091 31.048 273.091 29.92C273.091 28.96 273.955 27.976 275.227 27.16L277.099 27.376C279.715 27.688 280.243 28.288 280.243 29.44Z" fill="black"/>
</svg>
