<svg width="748" height="52" viewBox="0 0 748 52" fill="none" xmlns="http://www.w3.org/2000/svg">
<path d="M14.8501 8.00802V0.52002H13.2661V17.8H14.8501V9.44802H17.8201V8.00802H14.8501ZM9.90006 14.29V2.95002H1.71006V14.29H9.90006ZM8.29806 4.42602V12.814H3.31206V4.42602H8.29806Z" fill="black"/>
<path d="M27.0001 7.16202C30.5821 7.16202 32.7601 6.08202 32.7601 4.10202C32.7601 2.14002 30.5821 1.06002 27.0001 1.06002C23.4181 1.06002 21.2401 2.14002 21.2401 4.10202C21.2401 6.08202 23.4181 7.16202 27.0001 7.16202ZM27.0001 5.72202C25.2721 5.72202 23.9941 5.47002 23.3641 5.02002C23.0401 4.78602 22.8961 4.48002 22.8961 4.10202C22.8961 3.74202 23.0401 3.41802 23.3641 3.20202C23.9941 2.77002 25.2721 2.50002 27.0001 2.50002C28.7281 2.50002 29.9881 2.77002 30.6361 3.20202C30.9601 3.41802 31.1041 3.74202 31.1041 4.10202C31.1041 4.48002 30.9601 4.78602 30.6361 5.02002C30.0061 5.47002 28.7281 5.72202 27.0001 5.72202ZM35.5501 10.006V8.53002H18.4501V10.006H35.5501ZM32.4001 17.62V11.77H21.6001V17.62H32.4001ZM23.1661 13.138H30.8161V16.216H23.1661V13.138Z" fill="black"/>
<path d="M42.4441 11.77C43.9921 10.546 45.2161 9.10602 46.0621 7.37802H50.1301V12.13H51.7501V0.52002H50.1301V5.93802H46.6561C47.0341 4.82202 47.2861 3.59802 47.3761 2.24802H42.9301V3.70602H45.6301V3.76002C45.2701 6.28002 43.8481 8.76402 41.2201 10.708L42.4441 11.77ZM37.1881 2.24802V3.70602H40.5361V3.76002C40.2661 5.74002 38.8621 7.91802 36.4501 9.44802L37.6021 10.546C40.3381 8.63802 41.9401 5.90202 42.2101 2.24802H37.1881ZM46.6201 13.048C47.0161 12.526 47.3581 11.968 47.6461 11.374L46.1161 10.87C44.9461 13.48 42.1201 15.316 38.8801 16.27L39.7261 17.746C41.9221 16.99 43.9921 15.802 45.5761 14.236L51.9661 17.566L52.7401 16.234L46.6201 13.048Z" fill="black"/>
<path d="M72.8058 8.09802H68.3238C69.0078 6.64002 69.4578 5.00202 69.6558 3.13002H60.8538V4.60602H67.8378V4.66002C67.6398 5.61402 67.3338 6.53202 66.9378 7.39602L60.0978 7.66602L60.1698 9.17802L66.1098 8.83602C64.7598 10.87 62.6718 12.526 59.7558 13.678L60.7458 15.1C63.6618 13.768 65.9658 11.986 67.5318 9.53802H72.8058V17.8H74.4258V0.52002H72.8058V8.09802Z" fill="black"/>
<path d="M92.3358 11.05L93.2898 9.75402L86.1438 4.84002C86.6118 4.06602 87.0078 3.23802 87.2958 2.33802L85.6938 1.96002C84.4338 5.57802 81.2118 8.26002 77.7918 9.77202L78.6738 11.194C81.0858 10.024 83.5158 8.33202 85.2618 6.11802L92.3358 11.05ZM77.1258 15.748H94.2258V14.254H77.1258V15.748Z" fill="black"/>
<path d="M108.806 4.85802H104.846V6.29802H108.806V10.69H110.426V0.52002H108.806V4.85802ZM106.196 8.29602C103.622 8.89002 100.4 9.01602 98.2578 9.01602V6.64002H104.072V5.30802H98.2578V3.36402H104.54V1.96002H96.6558V10.42C100.418 10.42 103.712 10.276 106.376 9.62802L106.196 8.29602ZM110.426 17.62V11.59H99.5358V17.62H110.426ZM108.842 12.994V16.216H101.102V12.994H108.842Z" fill="black"/>
<path d="M132.202 0.52002H130.618V10.33H132.202V7.55802H135.172V6.11802H132.202V0.52002ZM120.052 0.880019V2.17602H126.928V0.880019H120.052ZM117.982 3.41802V4.76802H128.602V3.41802H117.982ZM127.432 8.02602C127.432 6.58602 125.902 5.68602 123.472 5.68602C121.06 5.68602 119.53 6.58602 119.53 8.02602C119.53 9.46602 121.06 10.366 123.472 10.366C125.902 10.366 127.432 9.46602 127.432 8.02602ZM121.024 8.02602C121.024 7.32402 121.942 6.89202 123.472 6.89202C125.02 6.89202 125.938 7.32402 125.938 8.02602C125.938 8.72802 125.02 9.16002 123.472 9.16002C121.942 9.16002 121.024 8.72802 121.024 8.02602ZM132.202 15.1V11.23H120.898V12.562H130.6V13.822H121.33V17.8H132.922V16.45H122.914V15.1H132.202Z" fill="black"/>
<path d="M155.597 8.71002L156.461 7.43202L149.549 3.36402C149.981 2.71602 150.359 2.03202 150.629 1.29402L149.027 0.880019C147.857 3.92202 144.743 6.19002 141.323 7.45002L142.187 8.85402C144.527 7.90002 146.867 6.49602 148.577 4.58802L155.597 8.71002ZM140.477 9.93402V11.41H148.217V17.89H149.837V11.41H157.577V9.93402H140.477Z" fill="black"/>
<path d="M176.833 0.52002V10.15H178.453V0.52002H176.833ZM168.643 9.64602C171.235 9.64602 173.053 8.24202 173.053 5.68602C173.053 3.14802 171.235 1.74402 168.643 1.74402C166.051 1.74402 164.233 3.14802 164.233 5.68602C164.233 8.24202 166.051 9.64602 168.643 9.64602ZM168.643 3.14802C170.245 3.14802 171.433 3.94002 171.433 5.68602C171.433 7.43202 170.245 8.24202 168.643 8.24202C167.041 8.24202 165.853 7.43202 165.853 5.68602C165.853 3.94002 167.041 3.14802 168.643 3.14802ZM176.437 13.084C176.707 12.4 176.923 11.68 177.067 10.888L175.429 10.69C174.979 13.498 173.539 15.442 171.451 16.918L172.585 18.106C173.881 17.098 174.979 15.91 175.789 14.47L179.029 17.638L179.965 16.558L176.437 13.084ZM170.065 12.724C170.281 12.166 170.461 11.59 170.587 10.996L168.949 10.78C168.481 13.156 167.005 15.154 164.971 16.54L166.177 17.692C167.455 16.756 168.571 15.514 169.399 14.092L171.379 16.018L172.333 14.848L170.065 12.724Z" fill="black"/>
<path d="M195.499 7.37802V5.90202H185.959V1.15002H184.339V7.37802H195.499ZM198.253 10.906V9.41202H181.153V10.906H198.253ZM195.661 17.53V16.054H186.103V12.31H184.483V17.53H195.661Z" fill="black"/>
<path d="M217.995 7.82802H215.079V1.24002H213.513V17.17H215.079V9.25002H217.995V17.782H219.579V0.52002H217.995V7.82802ZM205.503 2.05002V3.50802H210.957V2.05002H205.503ZM204.531 5.63202V7.07202H209.769V7.12602C208.887 9.52002 206.799 11.896 203.829 13.462L204.819 14.722C206.313 13.84 207.681 12.742 208.815 11.41L211.605 14.614L212.613 13.516L209.679 10.276C210.615 8.92602 211.317 7.37802 211.677 5.63202H204.531Z" fill="black"/>
<path d="M237.057 10.51L237.993 9.21402L230.919 4.49802C231.369 3.77802 231.729 3.00402 232.017 2.17602L230.397 1.78002C229.155 5.23602 225.951 7.79202 222.495 9.23202L223.359 10.672C225.807 9.55602 228.255 7.93602 230.019 5.75802L237.057 10.51ZM231.189 9.34002H229.569V14.254H221.829V15.748H238.929V14.254H231.189V9.34002Z" fill="black"/>
<path d="M254.229 5.30802V0.52002H252.645V6.62202C249.981 7.52202 245.535 8.04402 242.745 8.04402L242.709 3.50802H249.621V2.05002H241.089V9.52002C245.499 9.52002 250.071 8.92602 252.645 7.97202V10.15H254.229V6.74802H257.199V5.30802H254.229ZM254.229 17.62V11.05H243.429V17.62H254.229ZM252.645 12.454V16.198H244.995V12.454H252.645Z" fill="black"/>
<path d="M273.129 17.8V0.52002H271.545V17.8H273.129ZM264.129 10.726C266.793 10.726 268.629 9.17802 268.629 6.58602C268.629 4.01202 266.793 2.46402 264.129 2.46402C261.465 2.46402 259.629 4.01202 259.629 6.58602C259.629 9.17802 261.465 10.726 264.129 10.726ZM264.129 9.30402C262.455 9.30402 261.249 8.36802 261.249 6.58602C261.249 4.82202 262.455 3.88602 264.129 3.88602C265.803 3.88602 267.009 4.82202 267.009 6.58602C267.009 8.36802 265.803 9.30402 264.129 9.30402ZM258.099 15.064C263.391 15.064 267.351 14.722 270.789 13.948L270.573 12.544C267.153 13.318 263.319 13.57 257.919 13.57L258.099 15.064Z" fill="black"/>
<path d="M297.605 7.77402H293.627C294.077 5.92002 294.383 3.94002 294.509 1.43802H283.241V2.91402H292.817C292.727 4.69602 292.493 6.24402 292.133 7.77402H280.505V9.26802H288.299V12.112H288.587C287.507 14.128 285.041 15.676 281.927 16.432L282.683 17.872C284.969 17.26 287.021 16.216 288.533 14.794L295.139 17.764L295.913 16.468L289.577 13.606C290.009 13.03 290.351 12.418 290.603 11.752L289.829 11.608V9.26802H297.605V7.77402Z" fill="black"/>
<path d="M300.539 11.554C302.537 11.068 304.913 10.168 307.037 8.87202L313.571 11.464L314.417 10.204L308.405 7.95402C310.367 6.51402 311.951 4.67802 312.491 2.50002H301.403V3.99402H308.405L310.205 4.01202V4.06602C308.855 6.73002 304.301 9.10602 299.693 10.078L300.539 11.554ZM298.505 15.748H315.605V14.254H298.505V15.748Z" fill="black"/>
<path d="M318.413 20.158C320.213 18.898 321.239 16.504 321.239 14.542C321.239 13.12 320.465 12.382 319.565 12.382C318.665 12.382 318.107 13.048 318.017 13.804C318.827 13.876 319.601 14.524 319.601 15.55C319.601 16.9 318.989 18.322 317.495 19.474L318.413 20.158Z" fill="black"/>
<path d="M342.788 0.52002H341.204V10.6H342.788V7.10802H345.758V5.66802H342.788V0.52002ZM339.476 8.83602L335.624 6.64002C336.794 5.34402 337.64 3.81402 337.946 2.05002H329.612V3.49002H336.002V3.54402C335.12 5.68602 332.564 7.97202 328.568 9.21402L329.378 10.528C331.304 9.86202 333.086 8.90802 334.544 7.68402L338.63 10.024L339.476 8.83602ZM337.262 10.888C333.662 10.888 331.556 12.202 331.556 14.38C331.556 16.576 333.662 17.89 337.262 17.89C340.862 17.89 342.968 16.576 342.968 14.38C342.968 12.202 340.862 10.888 337.262 10.888ZM340.772 15.64C340.124 16.144 338.954 16.45 337.262 16.45C335.57 16.45 334.382 16.144 333.752 15.64C333.392 15.316 333.212 14.902 333.212 14.38C333.212 13.876 333.392 13.444 333.752 13.138C334.4 12.652 335.57 12.328 337.262 12.328C338.954 12.328 340.124 12.652 340.772 13.138C341.132 13.444 341.312 13.876 341.312 14.38C341.312 14.902 341.132 15.316 340.772 15.64Z" fill="black"/>
<path d="M360.788 8.00802V0.52002H359.204V17.8H360.788V9.44802H363.758V8.00802H360.788ZM349.232 7.01802V2.68002H347.648V14.2H355.928V2.68002H354.344V7.01802H349.232ZM349.232 12.742V8.45802H354.344V12.742H349.232Z" fill="black"/>
<path d="M377.24 9.03402C377.744 6.87402 378.086 4.55202 378.212 1.70802H366.944V3.20202H376.52C376.412 5.30802 376.16 7.18002 375.746 9.03402H364.388V10.528H372.128V17.89H373.748V10.528H381.488V9.03402H377.24Z" fill="black"/>
<path d="M396.068 10.564C392.882 11.734 388.346 12.418 385.754 12.418V2.77002H384.098V13.93C388.364 13.93 392.99 13.192 396.068 11.968V17.8H397.688V0.52002H396.068V10.564Z" fill="black"/>
<path d="M415.688 9.52002V0.52002H414.068V9.52002H415.688ZM405.878 9.46602C408.47 9.46602 410.288 8.08002 410.288 5.56002C410.288 3.04002 408.47 1.65402 405.878 1.65402C403.286 1.65402 401.468 3.04002 401.468 5.56002C401.468 8.08002 403.286 9.46602 405.878 9.46602ZM405.878 8.06202C404.276 8.06202 403.088 7.27002 403.088 5.56002C403.088 3.83202 404.276 3.05802 405.878 3.05802C407.48 3.05802 408.686 3.83202 408.686 5.54202C408.686 7.27002 407.48 8.06202 405.878 8.06202ZM415.688 17.71V10.51H414.086V12.67H406.4V10.51H404.798V17.71H415.688ZM406.4 14.038H414.086V16.27H406.4V14.038Z" fill="black"/>
<path d="M432.068 10.564C428.882 11.734 424.346 12.418 421.754 12.418V2.77002H420.098V13.93C424.364 13.93 428.99 13.192 432.068 11.968V17.8H433.688V0.52002H432.068V10.564Z" fill="black"/>
<path d="M450.788 8.18802V0.52002H449.204V11.122C446.396 12.076 442.166 12.616 439.394 12.616L439.358 4.42602H446.27V2.95002H437.738V14.11C442.13 14.11 446.486 13.534 449.204 12.526V17.8H450.788V9.62802H453.758V8.18802H450.788Z" fill="black"/>
<path d="M457.538 16C458.312 16 458.978 15.352 458.978 14.578C458.978 13.786 458.312 13.12 457.538 13.12C456.746 13.12 456.098 13.786 456.098 14.578C456.098 15.352 456.746 16 457.538 16Z" fill="black"/>
<path d="M14.8501 39.188V31.52H13.2661V48.8H14.8501V40.628H17.8201V39.188H14.8501ZM8.49606 35.714V35.768C7.77606 39.098 5.20206 42.644 0.810059 44.678L1.90806 46.046C6.30006 43.922 9.77406 39.764 10.3861 34.22H1.74606V35.714H8.49606Z" fill="black"/>
<path d="M32.6161 48.782H34.2001V31.52H32.6161V48.782ZM25.4161 39.098C25.9561 37.694 26.3341 36.146 26.4781 34.49H19.4401V35.948H24.6601V36.002C24.1921 39.062 22.3381 42.446 18.6301 44.624L19.8181 45.938C21.8881 44.624 23.5981 42.806 24.7681 40.538H28.4941V48.17H30.0601V32.24H28.4941V39.098H25.4161Z" fill="black"/>
<path d="M50.6161 48.782H52.2001V31.52H50.6161V48.782ZM44.4241 38.828C44.2261 35.588 42.8221 33.914 40.7341 33.914C38.4481 33.914 36.9901 35.894 36.9901 39.71C36.9901 43.526 38.4481 45.506 40.7341 45.506C42.8941 45.506 44.3161 43.724 44.4421 40.268H46.4941V48.17H48.0601V32.24H46.4941V38.828H44.4241ZM40.7341 43.994C39.4201 43.994 38.6101 42.662 38.6101 39.71C38.6101 36.758 39.4201 35.426 40.7341 35.426C42.0301 35.426 42.8401 36.758 42.8401 39.71C42.8401 42.662 42.0301 43.994 40.7341 43.994Z" fill="black"/>
<path d="M68.1301 37.658H63.1801V39.098H68.1301V48.8H69.7501V31.52H68.1301V37.658ZM59.6161 33.518C59.3641 38.324 57.4561 42.122 54.8101 44.57L56.0881 45.722C57.5821 44.264 58.8421 42.464 59.7601 40.304L64.7641 45.2L65.7541 44.012L60.3181 38.828C60.8401 37.244 61.1641 35.48 61.2901 33.572L59.6161 33.518Z" fill="black"/>
<path d="M91.2918 38.828H88.3758V32.24H86.8098V48.17H88.3758V40.25H91.2918V48.782H92.8758V31.52H91.2918V38.828ZM78.7998 33.05V34.508H84.2538V33.05H78.7998ZM77.8278 36.632V38.072H83.0658V38.126C82.1838 40.52 80.0958 42.896 77.1258 44.462L78.1158 45.722C79.6098 44.84 80.9778 43.742 82.1118 42.41L84.9018 45.614L85.9098 44.516L82.9758 41.276C83.9118 39.926 84.6138 38.378 84.9738 36.632H77.8278Z" fill="black"/>
<path d="M110.354 41.51L111.29 40.214L104.216 35.498C104.666 34.778 105.026 34.004 105.314 33.176L103.694 32.78C102.452 36.236 99.2478 38.792 95.7918 40.232L96.6558 41.672C99.1038 40.556 101.552 38.936 103.316 36.758L110.354 41.51ZM104.486 40.34H102.866V45.254H95.1258V46.748H112.226V45.254H104.486V40.34Z" fill="black"/>
<path d="M127.526 39.188V31.52H125.942V48.8H127.526V40.628H130.496V39.188H127.526ZM119.588 41.294C121.658 40.988 123.026 39.602 123.026 37.406C123.026 34.922 121.244 33.464 118.67 33.464C116.078 33.464 114.296 34.922 114.296 37.406C114.296 39.692 115.772 41.096 118.004 41.33V44.444C116.582 44.534 114.998 44.57 113.216 44.57L113.396 46.064C118.364 46.064 121.946 45.704 125.186 44.84L124.952 43.436C123.296 43.868 121.568 44.156 119.588 44.336V41.294ZM115.916 37.406C115.916 35.732 117.068 34.868 118.67 34.868C120.254 34.868 121.406 35.714 121.406 37.406C121.406 39.098 120.254 39.962 118.67 39.962C117.068 39.962 115.916 39.098 115.916 37.406Z" fill="black"/>
<path d="M150.202 39.188V31.52H148.618V48.8H150.202V40.628H153.172V39.188H150.202ZM145.144 41.924C145.63 39.494 145.846 36.848 145.846 34.04H136.882V35.534H144.262C144.262 37.244 144.064 39.746 143.524 41.762L145.144 41.924ZM141.544 38.72H139.96V44.3C138.718 44.372 137.386 44.39 135.892 44.39L136.072 45.884C141.04 45.884 144.622 45.524 147.862 44.66L147.628 43.256C145.774 43.742 143.83 44.048 141.544 44.21V38.72Z" fill="black"/>
<path d="M169.102 40.43V31.52H167.482V40.43H169.102ZM159.292 40.106C161.884 40.106 163.702 38.792 163.702 36.38C163.702 33.968 161.884 32.654 159.292 32.654C156.7 32.654 154.882 33.968 154.882 36.38C154.882 38.792 156.7 40.106 159.292 40.106ZM159.292 38.72C157.708 38.72 156.484 37.982 156.484 36.38C156.484 34.76 157.708 34.04 159.292 34.04C160.876 34.04 162.1 34.76 162.1 36.362C162.1 37.982 160.876 38.72 159.292 38.72ZM169.822 48.8V47.432H159.796V45.686H169.102V41.33H157.726V42.698H167.482V44.336H158.176V48.8H169.822Z" fill="black"/>
<path d="M185.837 41.33H190.697V33.32H179.357V41.33H184.217V45.254H176.477V46.748H193.577V45.254H185.837V41.33ZM189.077 34.76V39.89H180.977V34.76H189.077Z" fill="black"/>
<path d="M211.847 34.346H208.877V31.52H207.293V41.6H208.877V39.44H211.847V38.036H208.877V35.75H211.847V34.346ZM204.017 36.686C204.017 34.148 202.199 32.744 199.607 32.744C197.015 32.744 195.197 34.148 195.197 36.686C195.197 39.242 197.015 40.646 199.607 40.646C202.199 40.646 204.017 39.242 204.017 36.686ZM196.817 36.686C196.817 34.94 198.005 34.148 199.607 34.148C201.209 34.148 202.397 34.94 202.397 36.686C202.397 38.432 201.209 39.242 199.607 39.242C198.005 39.242 196.817 38.432 196.817 36.686ZM203.351 41.888C199.751 41.888 197.645 43.202 197.645 45.38C197.645 47.576 199.751 48.89 203.351 48.89C206.951 48.89 209.057 47.576 209.057 45.38C209.057 43.202 206.951 41.888 203.351 41.888ZM206.861 46.64C206.213 47.144 205.043 47.45 203.351 47.45C201.659 47.45 200.471 47.144 199.841 46.64C199.481 46.316 199.301 45.902 199.301 45.38C199.301 44.876 199.481 44.444 199.841 44.138C200.489 43.652 201.659 43.328 203.351 43.328C205.043 43.328 206.213 43.652 206.861 44.138C207.221 44.444 207.401 44.876 207.401 45.38C207.401 45.902 207.221 46.316 206.861 46.64Z" fill="black"/>
<path d="M227.777 48.8V31.52H226.193V48.8H227.777ZM218.777 41.726C221.441 41.726 223.277 40.178 223.277 37.586C223.277 35.012 221.441 33.464 218.777 33.464C216.113 33.464 214.277 35.012 214.277 37.586C214.277 40.178 216.113 41.726 218.777 41.726ZM218.777 40.304C217.103 40.304 215.897 39.368 215.897 37.586C215.897 35.822 217.103 34.886 218.777 34.886C220.451 34.886 221.657 35.822 221.657 37.586C221.657 39.368 220.451 40.304 218.777 40.304ZM212.747 46.064C218.039 46.064 221.999 45.722 225.437 44.948L225.221 43.544C221.801 44.318 217.967 44.57 212.567 44.57L212.747 46.064Z" fill="black"/>
<path d="M248.473 43.13C248.923 40.142 249.175 37.172 249.265 33.698H237.745V35.192H247.591C247.501 37.712 247.321 40.376 246.835 43.004L248.473 43.13ZM235.153 46.748H252.253V45.254H235.153V46.748Z" fill="black"/>
<path d="M266.833 38.504C263.773 39.422 260.011 39.926 256.285 39.926V37.604H263.035V32.96H254.413V34.364H261.451V36.254H254.665V41.312C259.867 41.312 263.827 40.754 266.833 39.818V41.69H268.453V31.52H266.833V38.504ZM268.453 48.62V42.59H257.563V48.62H268.453ZM266.869 43.994V47.216H259.129V43.994H266.869Z" fill="black"/>
<path d="M279.703 37.622C283.285 37.622 285.463 36.614 285.463 34.706C285.463 32.798 283.285 31.79 279.703 31.79C276.121 31.79 273.943 32.798 273.943 34.706C273.943 36.614 276.121 37.622 279.703 37.622ZM279.703 36.182C277.975 36.182 276.697 35.948 276.067 35.552C275.743 35.336 275.599 35.048 275.599 34.706C275.599 34.364 275.725 34.076 276.067 33.86C276.697 33.482 277.975 33.23 279.703 33.23C281.431 33.23 282.691 33.482 283.339 33.86C283.681 34.076 283.807 34.364 283.807 34.706C283.807 35.048 283.663 35.336 283.339 35.552C282.709 35.948 281.431 36.182 279.703 36.182ZM288.253 40.232V38.774H271.153V40.232H288.253ZM286.147 48.71V47.342H275.905V45.812H285.067V41.69H273.979V43.04H283.447V44.498H274.303V48.71H286.147Z" fill="black"/>
<path d="M295.827 41.924C297.897 41.474 300.291 40.628 302.415 39.422L308.931 41.834L309.741 40.574L303.819 38.504C305.763 37.136 307.293 35.39 307.797 33.32H296.745V34.814H305.457V34.886C304.035 37.37 299.643 39.566 295.017 40.466L295.827 41.924ZM303.189 41.24H301.569V45.254H293.829V46.748H310.929V45.254H303.189V41.24Z" fill="black"/>
<path d="M326.229 37.478V31.52H324.645V41.42H326.229V38.918H329.199V37.478H326.229ZM314.079 31.88V33.194H320.955V31.88H314.079ZM312.009 34.526V35.894H322.629V34.526H312.009ZM321.459 39.35C321.459 37.856 319.929 36.884 317.499 36.884C315.087 36.884 313.557 37.856 313.557 39.35C313.557 40.844 315.087 41.816 317.499 41.816C319.929 41.816 321.459 40.844 321.459 39.35ZM315.069 39.35C315.069 38.594 315.969 38.108 317.499 38.108C319.047 38.108 319.947 38.594 319.947 39.35C319.947 40.106 319.047 40.592 317.499 40.592C315.969 40.592 315.069 40.106 315.069 39.35ZM317.031 44.156V42.59H315.429V48.71H326.229V42.41H324.627V44.156H317.031ZM317.031 47.288V45.488H324.627V47.288H317.031Z" fill="black"/>
<path d="M344.229 39.008V31.52H342.645V48.8H344.229V40.448H347.199V39.008H344.229ZM332.115 32.78V34.22H339.027V32.78H332.115ZM340.719 37.784V36.308H330.009V37.784H340.719ZM335.553 39.314C333.159 39.314 331.575 40.79 331.575 42.77C331.575 44.75 333.159 46.226 335.553 46.226C337.947 46.226 339.513 44.75 339.513 42.77C339.513 40.79 337.947 39.314 335.553 39.314ZM335.553 44.786C334.041 44.786 333.195 44.03 333.195 42.77C333.195 41.528 334.041 40.754 335.553 40.754C337.065 40.754 337.911 41.528 337.911 42.77C337.911 44.03 337.065 44.786 335.553 44.786Z" fill="black"/>
<path d="M361.509 35.786H356.955C356.199 34.328 354.921 33.554 353.319 33.554C350.637 33.554 348.909 35.714 348.909 39.566C348.909 43.436 350.637 45.596 353.319 45.596C354.939 45.596 356.217 44.804 356.973 43.31H361.509V48.8H363.129V31.52H361.509V35.786ZM353.319 44.084C351.591 44.084 350.547 42.572 350.547 39.566C350.547 36.578 351.591 35.066 353.319 35.066C355.047 35.066 356.091 36.578 356.091 39.566C356.091 42.572 355.047 44.084 353.319 44.084ZM357.477 41.906C357.639 41.222 357.729 40.43 357.729 39.566C357.729 38.684 357.639 37.892 357.459 37.19H361.509V41.906H357.477Z" fill="black"/>
<path d="M372.395 39.782C374.663 39.44 377.093 38.774 379.181 37.784L385.733 39.692L386.417 38.396L380.837 36.866C382.655 35.714 383.987 34.256 384.383 32.51H373.457V33.968H381.953V34.04C380.315 36.002 376.409 37.676 371.693 38.306L372.395 39.782ZM370.505 41.204V42.68H378.245V48.89H379.865V42.68H387.605V41.204H370.505Z" fill="black"/>
<path d="M391.655 32.33V38.45H402.455V32.33H391.655ZM393.275 37.046V33.734H400.835V37.046H393.275ZM388.505 41.51H396.479V45.452H398.009V41.51H405.605V40.034H388.505V41.51ZM391.601 43.13V48.53H403.049V47.054H393.113V43.13H391.601Z" fill="black"/>
<path d="M420.905 39.008V31.52H419.321V48.8H420.905V40.448H423.875V39.008H420.905ZM408.791 32.78V34.22H415.703V32.78H408.791ZM417.395 37.784V36.308H406.685V37.784H417.395ZM412.229 39.314C409.835 39.314 408.251 40.79 408.251 42.77C408.251 44.75 409.835 46.226 412.229 46.226C414.623 46.226 416.189 44.75 416.189 42.77C416.189 40.79 414.623 39.314 412.229 39.314ZM412.229 44.786C410.717 44.786 409.871 44.03 409.871 42.77C409.871 41.528 410.717 40.754 412.229 40.754C413.741 40.754 414.587 41.528 414.587 42.77C414.587 44.03 413.741 44.786 412.229 44.786Z" fill="black"/>
<path d="M438.185 39.89V44.48H439.805V31.52H438.185V34.706H434.135V33.41H426.035V41.15H434.135V39.89H438.185ZM427.619 39.818V34.76H432.551V39.818H427.619ZM438.185 38.486H434.135V36.11H438.185V38.486ZM430.625 42.77H429.005V48.53H440.525V47.054H430.625V42.77Z" fill="black"/>
<path d="M444.413 51.158C446.213 49.898 447.239 47.504 447.239 45.542C447.239 44.12 446.465 43.382 445.565 43.382C444.665 43.382 444.107 44.048 444.017 44.804C444.827 44.876 445.601 45.524 445.601 46.55C445.601 47.9 444.989 49.322 443.495 50.474L444.413 51.158Z" fill="black"/>
<path d="M468.788 39.008V31.52H467.204V48.8H468.788V40.448H471.758V39.008H468.788ZM456.674 32.78V34.22H463.586V32.78H456.674ZM465.278 37.784V36.308H454.568V37.784H465.278ZM460.112 39.314C457.718 39.314 456.134 40.79 456.134 42.77C456.134 44.75 457.718 46.226 460.112 46.226C462.506 46.226 464.072 44.75 464.072 42.77C464.072 40.79 462.506 39.314 460.112 39.314ZM460.112 44.786C458.6 44.786 457.754 44.03 457.754 42.77C457.754 41.528 458.6 40.754 460.112 40.754C461.624 40.754 462.47 41.528 462.47 42.77C462.47 44.03 461.624 44.786 460.112 44.786Z" fill="black"/>
<path d="M486.788 39.188V31.52H485.204V41.834C482.072 42.878 477.878 43.418 475.394 43.418V33.77H473.738V44.93C477.86 44.93 482.198 44.336 485.204 43.274V48.8H486.788V40.628H489.758V39.188H486.788Z" fill="black"/>
<path d="M496.868 32.15V34.292H494.204V32.15H492.728V38.918H498.272V32.15H496.868ZM503.69 32.15V34.292H501.008V32.15H499.604V38.918H505.148V32.15H503.69ZM494.204 37.622V35.624H496.868V37.622H494.204ZM501.008 37.622V35.624H503.69V37.622H501.008ZM490.388 41.87H498.362V45.542H499.892V41.87H507.488V40.394H490.388V41.87ZM493.484 43.22V48.53H504.932V47.054H494.996V43.22H493.484Z" fill="black"/>
<path d="M523.688 44.48V31.52H522.068V44.48H523.688ZM513.878 41.366C516.488 41.366 518.288 39.89 518.288 37.226C518.288 34.58 516.488 33.104 513.878 33.104C511.268 33.104 509.468 34.58 509.468 37.226C509.468 39.89 511.268 41.366 513.878 41.366ZM513.878 39.962C512.258 39.962 511.088 39.08 511.088 37.226C511.088 35.372 512.258 34.508 513.878 34.508C515.498 34.508 516.668 35.372 516.668 37.226C516.668 39.08 515.498 39.962 513.878 39.962ZM524.408 48.53V47.054H514.508V42.77H512.888V48.53H524.408Z" fill="black"/>
<path d="M545.463 31.52H543.879V41.6H545.463V38.108H548.433V36.668H545.463V31.52ZM542.151 39.836L538.299 37.64C539.469 36.344 540.315 34.814 540.621 33.05H532.287V34.49H538.677V34.544C537.795 36.686 535.239 38.972 531.243 40.214L532.053 41.528C533.979 40.862 535.761 39.908 537.219 38.684L541.305 41.024L542.151 39.836ZM539.937 41.888C536.337 41.888 534.231 43.202 534.231 45.38C534.231 47.576 536.337 48.89 539.937 48.89C543.537 48.89 545.643 47.576 545.643 45.38C545.643 43.202 543.537 41.888 539.937 41.888ZM543.447 46.64C542.799 47.144 541.629 47.45 539.937 47.45C538.245 47.45 537.057 47.144 536.427 46.64C536.067 46.316 535.887 45.902 535.887 45.38C535.887 44.876 536.067 44.444 536.427 44.138C537.075 43.652 538.245 43.328 539.937 43.328C541.629 43.328 542.799 43.652 543.447 44.138C543.807 44.444 543.987 44.876 543.987 45.38C543.987 45.902 543.807 46.316 543.447 46.64Z" fill="black"/>
<path d="M563.463 39.008V31.52H561.879V48.8H563.463V40.448H566.433V39.008H563.463ZM551.907 38.018V33.68H550.323V45.2H558.603V33.68H557.019V38.018H551.907ZM551.907 43.742V39.458H557.019V43.742H551.907Z" fill="black"/>
<path d="M579.915 40.034C580.419 37.874 580.761 35.552 580.887 32.708H569.619V34.202H579.195C579.087 36.308 578.835 38.18 578.421 40.034H567.063V41.528H574.803V48.89H576.423V41.528H584.163V40.034H579.915Z" fill="black"/>
<path d="M598.743 41.564C595.557 42.734 591.021 43.418 588.429 43.418V33.77H586.773V44.93C591.039 44.93 595.665 44.192 598.743 42.968V48.8H600.363V31.52H598.743V41.564Z" fill="black"/>
<path d="M617.805 38.36V37.028H607.725V35.822H616.977V32.06H605.943V33.41H615.429V34.508H606.159V38.36H617.805ZM620.163 41.006V39.584H603.063V41.006H620.163ZM618.057 48.71V47.36H607.833V46.064H616.977V42.23H605.871V43.562H615.357V44.786H606.231V48.71H618.057Z" fill="black"/>
<path d="M640.139 39.188V31.52H638.555V48.8H640.139V40.628H643.109V39.188H640.139ZM633.785 35.714V35.768C633.065 39.098 630.491 42.644 626.099 44.678L627.197 46.046C631.589 43.922 635.063 39.764 635.675 34.22H627.035V35.714H633.785Z" fill="black"/>
<path d="M657.419 31.52V40.43H659.039V31.52H657.419ZM655.367 39.17L651.353 37.28C652.577 36.074 653.423 34.616 653.747 32.96H645.089V34.4H651.767V34.454C650.831 36.434 648.149 38.504 644.009 39.53L644.765 40.88C646.781 40.304 648.653 39.44 650.183 38.288L654.557 40.358L655.367 39.17ZM649.733 45.686H659.039V41.33H647.663V42.698H657.419V44.336H648.113V48.8H659.759V47.432H649.733V45.686Z" fill="black"/>
<path d="M681.535 39.71L682.399 38.432L675.487 34.364C675.919 33.716 676.297 33.032 676.567 32.294L674.965 31.88C673.795 34.922 670.681 37.19 667.261 38.45L668.125 39.854C670.465 38.9 672.805 37.496 674.515 35.588L681.535 39.71ZM666.415 40.934V42.41H674.155V48.89H675.775V42.41H683.515V40.934H666.415Z" fill="black"/>
<path d="M702.771 31.52V41.15H704.391V31.52H702.771ZM694.581 40.646C697.173 40.646 698.991 39.242 698.991 36.686C698.991 34.148 697.173 32.744 694.581 32.744C691.989 32.744 690.171 34.148 690.171 36.686C690.171 39.242 691.989 40.646 694.581 40.646ZM694.581 34.148C696.183 34.148 697.371 34.94 697.371 36.686C697.371 38.432 696.183 39.242 694.581 39.242C692.979 39.242 691.791 38.432 691.791 36.686C691.791 34.94 692.979 34.148 694.581 34.148ZM702.375 44.084C702.645 43.4 702.861 42.68 703.005 41.888L701.367 41.69C700.917 44.498 699.477 46.442 697.389 47.918L698.523 49.106C699.819 48.098 700.917 46.91 701.727 45.47L704.967 48.638L705.903 47.558L702.375 44.084ZM696.003 43.724C696.219 43.166 696.399 42.59 696.525 41.996L694.887 41.78C694.419 44.156 692.943 46.154 690.909 47.54L692.115 48.692C693.393 47.756 694.509 46.514 695.337 45.092L697.317 47.018L698.271 45.848L696.003 43.724Z" fill="black"/>
<path d="M720.771 38.738H717.135C716.901 35.408 715.209 33.554 712.671 33.554C709.935 33.554 708.171 35.714 708.171 39.566C708.171 43.436 709.935 45.596 712.671 45.596C715.263 45.596 716.973 43.67 717.153 40.178H720.771V48.8H722.391V31.52H720.771V38.738ZM712.671 44.084C710.889 44.084 709.809 42.554 709.809 39.566C709.809 36.596 710.889 35.066 712.671 35.066C714.453 35.066 715.533 36.596 715.533 39.566C715.533 42.554 714.453 44.084 712.671 44.084Z" fill="black"/>
<path d="M733.641 41.546C737.385 41.546 739.671 39.8 739.671 37.244C739.671 34.706 737.385 32.96 733.641 32.96C729.897 32.96 727.611 34.706 727.611 37.244C727.611 39.8 729.897 41.546 733.641 41.546ZM729.843 35.66C730.509 34.85 731.823 34.4 733.641 34.4C735.459 34.4 736.737 34.868 737.439 35.66C737.835 36.092 738.015 36.65 738.015 37.262C738.015 37.892 737.817 38.432 737.439 38.882C736.773 39.692 735.459 40.142 733.641 40.142C731.823 40.142 730.509 39.692 729.843 38.882C729.465 38.432 729.267 37.892 729.267 37.262C729.267 36.65 729.447 36.092 729.843 35.66ZM737.655 41.69H736.125V45.254H731.175V41.69H729.645V45.254H725.091V46.748H742.191V45.254H737.655V41.69Z" fill="black"/>
<path d="M746.241 47C747.015 47 747.681 46.352 747.681 45.578C747.681 44.786 747.015 44.12 746.241 44.12C745.449 44.12 744.801 44.786 744.801 45.578C744.801 46.352 745.449 47 746.241 47Z" fill="black"/>
</svg>
