<svg width="107" height="44" viewBox="0 0 107 44" fill="none" xmlns="http://www.w3.org/2000/svg">
<path d="M31.85 0.52002H30.266V10.6H31.85V7.10802H34.82V5.66802H31.85V0.52002ZM28.538 8.83602L24.686 6.64002C25.856 5.34402 26.702 3.81402 27.008 2.05002H18.674V3.49002H25.064V3.54402C24.182 5.68602 21.626 7.97202 17.63 9.21402L18.44 10.528C20.366 9.86202 22.148 8.90802 23.606 7.68402L27.692 10.024L28.538 8.83602ZM26.324 10.888C22.724 10.888 20.618 12.202 20.618 14.38C20.618 16.576 22.724 17.89 26.324 17.89C29.924 17.89 32.03 16.576 32.03 14.38C32.03 12.202 29.924 10.888 26.324 10.888ZM29.834 15.64C29.186 16.144 28.016 16.45 26.324 16.45C24.632 16.45 23.444 16.144 22.814 15.64C22.454 15.316 22.274 14.902 22.274 14.38C22.274 13.876 22.454 13.444 22.814 13.138C23.462 12.652 24.632 12.328 26.324 12.328C28.016 12.328 29.186 12.652 29.834 13.138C30.194 13.444 30.374 13.876 30.374 14.38C30.374 14.902 30.194 15.316 29.834 15.64Z" fill="black"/>
<path d="M49.85 8.00802V0.52002H48.266V17.8H49.85V9.44802H52.82V8.00802H49.85ZM38.294 7.01802V2.68002H36.71V14.2H44.99V2.68002H43.406V7.01802H38.294ZM38.294 12.742V8.45802H43.406V12.742H38.294Z" fill="black"/>
<path d="M66.302 9.03402C66.806 6.87402 67.148 4.55202 67.274 1.70802H56.006V3.20202H65.582C65.474 5.30802 65.222 7.18002 64.808 9.03402H53.45V10.528H61.19V17.89H62.81V10.528H70.55V9.03402H66.302Z" fill="black"/>
<path d="M85.13 10.564C81.944 11.734 77.408 12.418 74.816 12.418V2.77002H73.16V13.93C77.426 13.93 82.052 13.192 85.13 11.968V17.8H86.75V0.52002H85.13V10.564Z" fill="black"/>
<path d="M9.65384 37.29C8.95184 37.488 8.19584 37.632 7.31384 37.632C4.37984 37.632 2.52584 35.832 2.52584 32.178C2.52584 29.028 4.52384 27.21 7.16984 27.21C8.62784 27.21 10.0858 27.552 11.4538 28.362V26.526C10.7698 26.256 9.54584 25.68 7.27784 25.68C2.99384 25.68 0.563843 28.812 0.563843 32.52C0.563843 36.66 2.79584 39.18 7.09784 39.18C8.87984 39.18 10.1758 38.73 11.5078 37.992V32.376H9.65384V37.29Z" fill="black"/>
<path d="M18.998 28.668C18.008 28.668 16.892 29.352 16.046 30.144L15.812 28.866H14.102L14.516 31.278V39H16.208V31.566C16.964 30.972 17.9 30.288 19.142 30.288C19.43 30.288 19.718 30.306 20.042 30.396V28.776C19.682 28.686 19.358 28.668 18.998 28.668Z" fill="black"/>
<path d="M25.7001 39.18C28.4901 39.18 30.3081 36.696 30.3081 33.942C30.3081 30.342 28.7781 28.668 25.7901 28.668C23.0721 28.668 21.1101 31.17 21.1101 33.978C21.1101 37.596 22.9281 39.18 25.7001 39.18ZM25.7721 37.668C23.5401 37.668 22.9101 36.048 22.9101 33.906C22.9101 31.98 23.4681 30.18 25.7001 30.18C28.1481 30.18 28.5081 32.07 28.5081 33.978C28.5081 35.976 27.9681 37.668 25.7721 37.668Z" fill="black"/>
<path d="M37.023 39.18C38.193 39.18 39.219 38.946 39.993 38.478V37.038C39.147 37.47 38.229 37.668 37.437 37.668C35.385 37.668 34.143 36.498 34.143 33.96C34.143 30.972 35.583 30.18 37.185 30.18C38.103 30.18 39.039 30.36 39.993 30.99V29.19C39.237 28.776 38.229 28.668 37.257 28.668C34.107 28.668 32.343 31.008 32.343 34.086C32.343 37.236 33.909 39.18 37.023 39.18Z" fill="black"/>
<path d="M50.7071 33.51C50.7071 30.792 49.3751 28.668 46.4951 28.668C43.6151 28.668 41.9231 31.026 41.9231 34.122C41.9231 37.272 43.5791 39.18 46.6931 39.18C48.3491 39.18 49.5551 38.892 50.4551 38.352V36.912C49.5191 37.38 48.0971 37.668 46.9451 37.668C44.9831 37.668 43.8311 36.606 43.7231 34.302H50.7071V33.51ZM46.4231 30.18C48.0251 30.18 48.7271 31.368 48.8171 32.952H43.7771C44.0291 30.792 45.1451 30.18 46.4231 30.18Z" fill="black"/>
<path d="M57.828 28.668C56.838 28.668 55.722 29.352 54.876 30.144L54.642 28.866H52.932L53.346 31.278V39H55.038V31.566C55.794 30.972 56.73 30.288 57.972 30.288C58.26 30.288 58.548 30.306 58.872 30.396V28.776C58.512 28.686 58.188 28.668 57.828 28.668Z" fill="black"/>
<path d="M65.2795 34.752L64.4695 37.038H64.3435L63.6415 34.842L61.7515 28.866H59.7715L63.3715 39H63.6415L61.7155 43.59L61.7695 43.662H63.5695L65.3515 38.73L69.2035 28.866H67.3315L65.2795 34.752Z" fill="black"/>
<path d="M81.7957 31.998C83.0377 31.548 83.8477 30.576 83.8477 29.118C83.8477 26.976 82.0657 25.878 79.0957 25.878H75.6757V39H79.6537C83.1457 39 84.7657 37.452 84.7657 35.256C84.7657 32.862 82.8577 32.178 81.7957 32.052V31.998ZM78.9517 27.408C80.5177 27.408 81.8857 27.93 81.8857 29.55C81.8857 30.882 80.8957 31.512 78.8257 31.512H77.5117V27.408H78.9517ZM77.5117 37.47V33.042H78.5917C81.0577 33.042 82.8037 33.276 82.8037 35.112C82.8037 36.858 81.4177 37.47 79.5277 37.47H77.5117Z" fill="black"/>
<path d="M94.3613 36.732V31.656C94.3613 29.442 92.8133 28.668 90.9593 28.668C89.7173 28.668 88.0073 28.956 87.1973 29.316V30.828C88.0613 30.522 89.5913 30.18 90.6713 30.18C91.7873 30.18 92.6693 30.522 92.6693 32.052V33.276H91.3373C88.4213 33.276 86.6393 34.302 86.6393 36.336C86.6393 38.01 87.5933 39.18 89.5193 39.18C90.9413 39.18 92.1113 38.46 92.8313 37.902L93.0293 39H94.7393L94.3613 36.732ZM88.3493 36.21C88.3493 35.058 89.2313 34.608 91.0133 34.608H92.6693V36.642C91.7873 37.236 90.7433 37.74 89.7893 37.74C88.7993 37.74 88.3493 37.182 88.3493 36.21Z" fill="black"/>
<path d="M103.279 29.19C102.667 28.848 101.893 28.668 100.993 28.668C98.6166 28.668 97.1226 30.54 97.1226 32.088C97.1226 33.51 97.8246 34.446 99.0126 34.914L97.3386 36.588V37.902L98.6346 38.046C97.5186 38.694 96.5286 39.594 96.5286 40.782C96.5286 42.6 98.1486 43.806 100.777 43.806C103.909 43.806 105.835 41.79 105.835 39.738C105.835 38.226 105.007 37.128 102.289 36.822L99.0666 36.462L100.219 35.22C100.471 35.238 100.723 35.256 100.993 35.256C103.063 35.256 104.737 33.51 104.737 31.962C104.737 31.26 104.593 30.684 104.305 30.198H106.249V28.812L103.279 29.19ZM100.993 33.96C99.7866 33.96 98.8686 33.276 98.8686 31.926C98.8686 30.756 99.6066 30.036 100.867 30.036C102.199 30.036 103.009 30.792 103.009 31.998C103.009 33.15 102.163 33.96 100.993 33.96ZM104.179 40.08C104.179 41.232 102.955 42.402 101.029 42.402C98.9946 42.402 98.1846 41.466 98.1846 40.53C98.1846 39.702 99.0126 38.856 100.201 38.226L101.587 38.388C103.765 38.658 104.179 39.126 104.179 40.08Z" fill="black"/>
</svg>
