<svg width="283" height="314" viewBox="0 0 283 314" fill="none" xmlns="http://www.w3.org/2000/svg">
<path d="M221.38 0.299316H217.896V20.4233C209.68 23.2833 196.784 24.7913 187.788 24.7913L187.736 9.29531H208.328V6.07132H184.2V28.0673C196.836 28.0673 209.94 26.4033 217.896 23.3873V37.8953H221.38V20.0593H230.48V16.8873H221.38V0.299316ZM191.688 32.8513V49.2313H223.668V45.9553H195.224V32.8513H191.688Z" fill="#FFFAEA"/>
<path d="M273.38 15.6913V0.299316H269.896V28.1193H273.38V18.8633H282.48V15.6913H273.38ZM236.096 5.34332V8.51532H255.7V8.72332C253.308 15.5353 245.768 22.7633 233.6 25.9353L235.472 29.0553C247.744 25.6233 258.196 17.1473 260.068 5.34332H236.096ZM273.38 49.5433V31.0313H243.168V49.5433H273.38ZM269.896 34.1513V46.4233H246.6V34.1513H269.896Z" fill="#FFFAEA"/>
<path d="M155.872 88.2993H152.388V125.895H155.872V111.699H164.972V108.527H155.872V88.2993ZM121.396 90.6913V93.6553H141.104V90.6913H121.396ZM115.416 99.2193V102.339H145.992V99.2193H115.416ZM142.248 114.299C142.248 109.671 138.036 106.447 131.224 106.447C124.464 106.447 120.2 109.671 120.2 114.299C120.2 118.979 124.464 122.203 131.224 122.203C138.036 122.203 142.248 118.979 142.248 114.299ZM123.58 114.299C123.58 111.283 126.388 109.359 131.224 109.359C136.06 109.359 138.868 111.283 138.868 114.299C138.868 117.367 136.06 119.291 131.224 119.291C126.388 119.291 123.58 117.367 123.58 114.299ZM126.18 124.335V137.231H158.16V134.007H129.716V124.335H126.18Z" fill="#FFFAEA"/>
<path d="M221.38 88.2993H217.896V114.039H221.38V104.783H230.48V101.611H221.38V88.2993ZM207.288 102.339C207.288 95.5793 202.192 91.7833 195.12 91.7833C187.944 91.7833 182.848 95.5793 182.848 102.339C182.848 109.099 187.944 112.843 195.12 112.843C202.192 112.843 207.288 109.099 207.288 102.339ZM186.384 102.339C186.384 97.3473 190.128 94.9033 195.12 94.9033C200.008 94.9033 203.752 97.2953 203.752 102.287C203.752 107.331 200.008 109.775 195.12 109.775C190.128 109.775 186.384 107.331 186.384 102.339ZM221.38 128.703V116.951H189.504V119.967H217.792V125.739H191.012V138.011H223.72V134.943H194.548V128.703H221.38Z" fill="#FFFAEA"/>
<path d="M258.768 116.275H274.576V113.103H245.04V97.0873H273.484V93.9153H241.504V116.275H255.232V128.599H232.3V131.875H281.7V128.599H258.768V116.275Z" fill="#FFFAEA"/>
<path d="M38.3643 190.651V176.299H34.8803V204.119H38.3643V193.823H47.4643V190.651H38.3643ZM0.976318 181.031V201.467H23.5963V181.031H0.976318ZM4.46032 198.555V183.995H20.1123V198.555H4.46032ZM38.3643 225.543V207.031H8.15232V225.543H38.3643ZM34.8803 210.151V222.423H11.5843V210.151H34.8803Z" fill="#FFFAEA"/>
<path d="M90.9363 226.271H94.4203V176.299H90.9363V226.271ZM72.1643 197.983C71.6443 188.571 67.5883 183.579 61.7123 183.579C55.3163 183.579 51.1563 189.299 51.1563 200.011C51.1563 210.671 55.3163 216.391 61.7123 216.391C67.7963 216.391 71.9043 211.087 72.2163 201.155H78.9243V224.347H82.3563V178.379H78.9243V197.983H72.1643ZM61.7123 213.011C57.4483 213.011 54.6923 208.747 54.6923 200.011C54.6923 191.223 57.4483 186.959 61.7123 186.959C65.9243 186.959 68.6283 191.223 68.6283 200.011C68.6283 208.747 65.9243 213.011 61.7123 213.011Z" fill="#FFFAEA"/>
<path d="M141.26 195.955C143.964 193.459 146.096 190.599 147.76 187.375L158.94 196.943L160.76 194.499L149.06 184.515C149.892 182.435 150.568 180.199 150.984 177.859L147.5 177.443C146.148 185.503 142.352 191.327 136.112 195.695L137.724 197.359V202.143H114.792V205.367H164.192V202.143H141.26V195.955ZM136.06 192.471L138.036 190.131L131.12 184.255C131.952 182.279 132.628 180.147 132.992 177.963L129.612 177.599C128.26 185.503 123.632 191.067 117.184 195.123L119.368 197.775C123.58 195.071 127.22 191.327 129.768 186.959L136.06 192.471ZM151.348 214.727V226.479H154.988V211.503H122.488V214.727H151.348Z" fill="#FFFAEA"/>
<path d="M222.576 205.003V201.831H193.04V185.607H221.484V182.383H189.504V205.003H222.576ZM229.7 219.875V216.599H180.3V219.875H229.7Z" fill="#FFFAEA"/>
<path d="M273.484 195.903V192.679H245.664V178.223H242.076V195.903H273.484ZM281.7 205.887V202.611H232.3V205.887H281.7ZM274.056 225.231V221.955H245.924V210.203H242.388V225.231H274.056Z" fill="#FFFAEA"/>
<path d="M168.392 283.695V298.047H171.98V264.299H168.392V280.523H152.896C154.976 277.351 156.38 273.763 157.004 269.863H132.876V273.035H152.636V273.243C150.296 280.627 142.652 288.427 130.432 292.067L132.356 295.187C139.48 292.951 145.928 288.999 150.504 283.695H168.392ZM156.952 299.607C158.2 297.839 159.24 296.019 160.02 294.043L156.64 292.951C153.416 301.219 145.304 307.251 135.996 310.527L137.868 313.803C144.316 311.255 150.4 307.303 154.872 302.259L173.28 313.283L175.048 310.319L156.952 299.607Z" fill="#FFFAEA"/>
<path d="M205 294.407C215.608 294.407 221.952 289.311 221.952 281.979C221.952 274.699 215.608 269.603 205 269.603C194.444 269.603 188.048 274.699 188.048 281.979C188.048 289.311 194.444 294.407 205 294.407ZM205 291.183C199.54 291.183 195.588 289.727 193.508 287.231C192.312 285.775 191.688 284.007 191.688 281.979C191.688 280.003 192.26 278.235 193.508 276.831C195.588 274.283 199.54 272.827 205 272.827C210.46 272.827 214.36 274.335 216.492 276.831C217.74 278.235 218.312 280.003 218.312 281.979C218.312 284.007 217.688 285.775 216.492 287.231C214.412 289.727 210.46 291.183 205 291.183ZM229.7 307.875V304.599H180.3V307.875H229.7Z" fill="#FFFAEA"/>
<path d="M258.768 294.511H275.72V291.391H244.676V283.279H272.548V269.343H240.464V272.515H269.064V280.107H241.14V294.511H255.232V304.599H232.3V307.875H281.7V304.599H258.768V294.511Z" fill="#FFFAEA"/>
</svg>
