<svg width="376" height="315" viewBox="0 0 376 315" fill="none" xmlns="http://www.w3.org/2000/svg">
<path d="M41.9521 21.9314H32.2801V2.37944H28.7961V48.3474H32.2801V25.0514H41.9521V50.2714H45.4361V0.299438H41.9521V21.9314ZM5.34405 5.23944V8.41144H20.736V5.23944H5.34405ZM2.48405 15.5874V18.7594H18.5001V18.9154C15.7961 26.3514 9.24405 33.6834 0.612049 38.1554L2.79605 40.9634C7.21605 38.4674 11.324 35.1394 14.756 31.1354L23.3881 40.6514L25.6241 38.2074L16.732 28.6394C19.4881 24.7914 21.6201 20.4234 22.764 15.5874H2.48405Z" fill="#FFFAEA"/>
<path d="M96.604 28.9514L98.632 26.0914L77.884 12.0514C79.2361 9.86744 80.432 7.52744 81.264 5.08344L77.728 4.19944C74.036 14.2874 64.8321 21.8274 54.7961 26.2474L56.7201 29.4194C63.792 26.0914 70.8641 21.2034 75.9081 14.8074L96.604 28.9514ZM78.7681 25.6754H75.232V40.5994H52.3V43.8754H101.7V40.5994H78.7681V25.6754Z" fill="#FFFAEA"/>
<path d="M145.38 14.6514V0.299438H141.896V18.3434C133.732 21.1514 120.784 22.6594 111.788 22.6594L111.736 8.25544H132.328V5.03144H108.2V25.8834C120.836 25.8834 133.992 24.2714 141.896 21.3074V28.1194H145.38V17.8234H154.48V14.6514H145.38ZM145.38 49.5434V31.0314H115.168V49.5434H145.38ZM141.896 34.1514V46.4234H118.6V34.1514H141.896Z" fill="#FFFAEA"/>
<path d="M197.952 50.2714H201.436V0.299438H197.952V50.2714ZM179.18 21.9834C178.66 12.5714 174.604 7.57944 168.728 7.57944C162.332 7.57944 158.172 13.2994 158.172 24.0114C158.172 34.6714 162.332 40.3914 168.728 40.3914C174.812 40.3914 178.92 35.0874 179.232 25.1554H185.94V48.3474H189.372V2.37944H185.94V21.9834H179.18ZM168.728 37.0114C164.464 37.0114 161.708 32.7474 161.708 24.0114C161.708 15.2234 164.464 10.9594 168.728 10.9594C172.94 10.9594 175.644 15.2234 175.644 24.0114C175.644 32.7474 172.94 37.0114 168.728 37.0114Z" fill="#FFFAEA"/>
<path d="M248.392 18.5514H233.52V21.7234H248.392V50.2194H251.98V0.299438H248.392V18.5514ZM224.056 5.96744C223.276 20.1634 217.764 31.0314 209.808 38.2594L212.616 40.8074C217.192 36.4914 220.988 31.1874 223.588 24.7394L238.772 39.4034L240.956 36.8034L224.836 21.5154C226.344 16.8874 227.332 11.7394 227.696 6.12344L224.056 5.96744Z" fill="#FFFAEA"/>
<path d="M5.65605 106.135C12.5201 105.511 19.6441 104.107 25.5721 101.871L44.396 105.927L45.6441 103.015L30.1481 99.8434C35.0361 97.3474 38.572 94.1234 39.6641 90.1714H9.29605V93.2914H33.9961V93.4994C28.9001 98.2314 17.98 101.819 4.35605 102.963L5.65605 106.135ZM0.300049 113.103H49.7001V109.879H0.300049V113.103ZM40.0801 129.275V118.147H8.72405V121.163H36.5441V126.363H9.92005V137.907H43.3561V134.839H13.456V129.275H40.0801Z" fill="#FFFAEA"/>
<path d="M92.3921 102.131H77.468C79.2361 99.4274 80.4321 96.3594 80.952 93.0834H56.876V96.2554H76.48V96.4634C74.0881 103.171 66.548 110.295 54.3801 113.363L56.2001 116.535C63.688 114.507 70.5 110.607 75.076 105.303H92.3921V114.299H95.98V88.2994H92.3921V102.131ZM68.94 124.127V117.419H65.456V137.803H95.98V117.367H92.444V124.127H68.94ZM68.94 134.631V127.143H92.444V134.631H68.94Z" fill="#FFFAEA"/>
<path d="M142.728 120.851C144.08 112.687 144.86 104.055 145.12 94.5914H111.528V97.8674H141.428C141.168 105.303 140.492 113.207 139.14 120.591L142.728 120.851ZM127.908 109.151H124.372V128.599H104.3V131.875H153.7V128.599H127.908V109.151Z" fill="#FFFAEA"/>
<path d="M182.768 116.275H198.576V113.103H169.04V97.0874H197.484V93.9154H165.504V116.275H179.232V128.599H156.3V131.875H205.7V128.599H182.768V116.275Z" fill="#FFFAEA"/>
<path d="M248.276 117.003H262.42V92.9274H258.884V101.663H234.132V92.9274H230.596V117.003H244.74V128.599H221.808V131.875H271.208V128.599H248.276V117.003ZM258.884 104.835V113.831H234.132V104.835H258.884Z" fill="#FFFAEA"/>
<path d="M314.888 104.731V88.2994H311.404V109.151C302.98 111.803 292.372 113.207 281.452 113.207V105.407H300.484V92.6674H277.084V95.7874H297V102.443H277.916V116.275C292.216 116.275 303.136 114.767 311.404 112.115V117.679H314.888V107.903H323.988V104.731H314.888ZM314.888 137.543V120.591H284.676V137.543H314.888ZM311.404 123.711V134.423H288.108V123.711H311.404Z" fill="#FFFAEA"/>
<path d="M366.888 88.2994H363.404V125.895H366.888V110.139H375.988V106.967H366.888V88.2994ZM332.412 91.1594V94.2794H350.768V91.1594H332.412ZM356.904 117.523L345.88 111.491C349.312 108.267 351.912 104.471 353.212 100.103H329.084V103.223H348.584V103.379C344.892 109.671 337.248 115.183 326.9 118.355L328.616 121.215C333.92 119.447 339.12 116.899 343.436 113.571L355.136 120.071L356.904 117.523ZM337.196 122.099V137.231H369.176V134.007H340.732V122.099H337.196Z" fill="#FFFAEA"/>
<path d="M41.3801 176.299H37.896V205.471H41.3801V194.863H50.4801V191.691H41.3801V176.299ZM32.0201 200.947L20.3721 194.135C23.9081 190.391 26.456 186.023 27.548 181.031H3.88805V184.203H23.232V184.359C20.372 191.483 12.416 198.347 0.976049 202.195L2.79605 205.107C8.41205 203.027 13.6641 200.167 17.9281 196.423L30.0961 203.547L32.0201 200.947ZM25.9361 206.511C15.7441 206.511 9.92005 210.255 9.92005 216.339C9.92005 222.475 15.7441 226.271 25.9361 226.271C36.1281 226.271 41.9521 222.475 41.9521 216.339C41.9521 210.255 36.1281 206.511 25.9361 206.511ZM36.6481 220.343C34.6201 222.007 31.0321 223.047 25.9361 223.047C20.84 223.047 17.2001 222.059 15.276 220.343C14.132 219.303 13.56 217.951 13.56 216.339C13.56 214.779 14.132 213.427 15.276 212.387C17.252 210.775 20.84 209.683 25.9361 209.683C31.0321 209.683 34.6201 210.775 36.6481 212.387C37.7401 213.427 38.3121 214.779 38.3121 216.339C38.3121 217.951 37.7401 219.303 36.6481 220.343Z" fill="#FFFAEA"/>
<path d="M92.2759 205.003H106.42V180.927H102.884V189.663H78.1319V180.927H74.5959V205.003H88.7399V216.599H65.8079V219.875H115.208V216.599H92.2759V205.003ZM102.884 192.835V201.831H78.1319V192.835H102.884Z" fill="#FFFAEA"/>
<path d="M161.488 226.219V176.299H157.9V226.219H161.488ZM122.28 217.587C135.488 211.711 146.044 199.751 148.072 184.463H122.488V187.739H143.808V187.947C141.52 198.191 133.148 208.903 119.94 214.519L122.28 217.587Z" fill="#FFFAEA"/>
<path d="M212.084 195.799V192.887H182.704V188.259H209.536V178.067H178.388V181.083H206.104V185.295H179.272V195.799H212.084ZM219.208 203.183V200.063H169.808V203.183H219.208ZM212.864 225.803V222.787H183.016V217.847H209.588V207.447H178.232V210.411H206.052V214.987H179.48V225.803H212.864Z" fill="#FFFAEA"/>
<path d="M40.3921 277.143V283.591H26.5601V286.711H40.3921V293.471H43.9801V264.299H40.3921V274.023H27.6C28.12 272.515 28.5361 270.955 28.7961 269.343H4.87605V272.515H24.3761V272.723C22.0361 279.691 14.548 287.127 2.38005 290.455L4.30405 293.575C13.716 290.819 22.036 285.099 26.196 277.143H40.3921ZM28.2761 294.511C18.084 294.511 12.26 298.255 12.26 304.339C12.26 310.475 18.084 314.271 28.2761 314.271C38.4681 314.271 44.2921 310.475 44.2921 304.339C44.2921 298.255 38.4681 294.511 28.2761 294.511ZM38.9881 308.343C36.9601 310.007 33.3721 311.047 28.2761 311.047C23.18 311.047 19.5401 310.059 17.5641 308.343C16.4721 307.303 15.9001 305.951 15.9001 304.339C15.9001 302.779 16.4721 301.427 17.5641 300.387C19.5921 298.775 23.18 297.683 28.2761 297.683C33.3721 297.683 36.9601 298.775 38.9881 300.387C40.0801 301.427 40.6521 302.779 40.6521 304.339C40.6521 305.951 40.0801 307.303 38.9881 308.343Z" fill="#FFFAEA"/>
<path d="M92.3921 282.031H81.784V285.203H92.3921V294.719H95.98V264.299H92.3921V282.031ZM59.6841 265.963V268.875H79.1841V265.963H59.6841ZM53.7561 273.711V276.779H84.0201V273.711H53.7561ZM80.38 287.439C80.38 283.175 76.22 280.367 69.408 280.367C62.648 280.367 58.488 283.175 58.488 287.439C58.488 291.651 62.648 294.459 69.408 294.459C76.22 294.459 80.38 291.651 80.38 287.439ZM61.764 287.439C61.764 284.787 64.572 283.123 69.408 283.123C74.244 283.123 77.052 284.787 77.052 287.439C77.052 290.039 74.244 291.703 69.408 291.703C64.572 291.703 61.764 290.039 61.764 287.439ZM95.98 313.543V297.631H65.456V313.543H95.98ZM92.496 300.751V310.423H68.888V300.751H92.496Z" fill="#FFFAEA"/>
<path d="M145.38 286.815V264.299H141.896V314.219H145.38V289.987H154.48V286.815H145.38ZM111.008 268.459V271.631H130.872V268.459H111.008ZM135.864 281.875V278.651H104.924V281.875H135.864ZM120.94 287.127C114.18 287.127 109.76 291.235 109.76 296.799C109.76 302.363 114.18 306.523 120.94 306.523C127.648 306.523 132.016 302.363 132.016 296.799C132.016 291.235 127.648 287.127 120.94 287.127ZM120.94 303.299C116.104 303.299 113.348 300.803 113.348 296.799C113.348 292.847 116.104 290.299 120.94 290.299C125.672 290.299 128.48 292.847 128.48 296.799C128.48 300.803 125.672 303.299 120.94 303.299Z" fill="#FFFAEA"/>
<path d="M197.952 314.271H201.436V264.299H197.952V314.271ZM175.02 282.811V285.983H185.94V312.347H189.372V266.379H185.94V282.811H175.02ZM167.584 270.123C167.116 284.215 163.164 294.303 156.456 301.999L159.368 304.339C163.008 300.023 165.868 295.031 167.896 289.155L179.232 303.195L181.52 300.907L168.988 285.515C170.236 280.939 170.964 275.895 171.12 270.227L167.584 270.123Z" fill="#FFFAEA"/>
<path d="M233 293.003C243.608 293.003 249.952 288.115 249.952 280.939C249.952 273.867 243.608 268.927 233 268.927C222.392 268.927 216.048 273.867 216.048 280.939C216.048 288.115 222.392 293.003 233 293.003ZM221.508 275.999C223.588 273.503 227.54 272.099 233 272.099C238.46 272.099 242.36 273.555 244.492 275.999C245.74 277.351 246.312 279.067 246.312 280.991C246.312 282.915 245.688 284.631 244.492 286.035C242.412 288.479 238.46 289.883 233 289.883C227.54 289.883 223.588 288.531 221.508 286.035C220.312 284.631 219.688 282.915 219.688 280.991C219.688 279.067 220.26 277.351 221.508 275.999ZM244.076 293.679H240.696V304.599H225.356V293.679H221.976V304.599H208.3V307.875H257.7V304.599H244.076V293.679Z" fill="#FFFAEA"/>
</svg>
