<svg width="337" height="227" viewBox="0 0 337 227" fill="none" xmlns="http://www.w3.org/2000/svg">
<path d="M39.2481 17.7196C39.924 12.9356 40.3401 8.15156 40.4441 2.53556H8.51605V5.75956H36.8561C36.6481 9.65956 36.284 13.7156 35.6081 17.5116L39.2481 17.7196ZM24.5321 10.9596H20.944V21.3076H0.300049V24.5316H49.7001V21.3076H24.5321V10.9596ZM40.0801 41.0676V29.8356H8.77605V32.8516H36.5441V38.1556H9.97205V49.8036H43.3561V46.7876H13.456V41.0676H40.0801Z" fill="#FFFAEA"/>
<path d="M93.3801 22.6596V0.299561H89.896V33.1116C81.368 35.7636 70.396 37.1156 59.944 37.1156V24.8436H79.132V7.68356H55.576V10.9596H75.648V21.7236H56.4081V40.3396C70.1361 40.3396 81.524 38.8836 89.896 36.1796V50.2196H93.3801V25.8316H102.48V22.6596H93.3801Z" fill="#FFFAEA"/>
<path d="M158.888 14.6516V0.299561H155.404V18.3436C147.24 21.1516 134.292 22.6596 125.296 22.6596L125.244 8.25556H145.836V5.03156H121.708V25.8836C134.344 25.8836 147.5 24.2716 155.404 21.3076V28.1196H158.888V17.8236H167.988V14.6516H158.888ZM158.888 49.5436V31.0316H128.676V49.5436H158.888ZM155.404 34.1516V46.4236H132.108V34.1516H155.404Z" fill="#FFFAEA"/>
<path d="M213.488 50.2196V0.299561H209.9V50.2196H213.488ZM174.28 41.5876C187.488 35.7116 198.044 23.7516 200.072 8.46356H174.488V11.7396H195.808V11.9476C193.52 22.1916 185.148 32.9036 171.94 38.5196L174.28 41.5876Z" fill="#FFFAEA"/>
<path d="M258.676 2.32756V9.60756H234.34V2.32756H230.804V23.1276H262.264V2.32756H258.676ZM234.34 20.0076V12.7276H258.676V20.0076H234.34ZM221.808 29.2636V32.5396H244.74V50.4796H248.276V32.5396H271.208V29.2636H221.808Z" fill="#FFFAEA"/>
<path d="M313.9 20.6836H302.772V23.9076H313.9V50.2196H317.488V0.299561H313.9V20.6836ZM282.076 24.6356H299.86V21.5156H282.076V10.9076H301.264V7.68356H278.54V40.1836C288.472 40.1836 298.924 39.7156 306.88 37.7916L306.412 34.7236C298.872 36.4916 288.368 37.0116 282.076 37.0116V24.6356Z" fill="#FFFAEA"/>
<path d="M41.9521 138.272H45.4361V88.2996H41.9521V138.272ZM21.6201 104.472C22.192 102.132 22.6081 99.7396 22.8681 97.2436H3.16005V100.468H18.8641V100.624C17.4601 110.088 11.74 120.332 1.08005 126.624L3.62805 129.484C11.584 124.544 17.5641 116.952 20.6841 107.592H29.9401V117.472H20.5281V120.592H29.9401V136.348H33.3721V90.3796H29.9401V104.472H21.6201Z" fill="#FFFAEA"/>
<path d="M93.3801 88.2996H89.896V125.896H93.3801V108.58H102.48V105.408H93.3801V88.2996ZM83.5 115.028L68.68 103.38C70.032 99.8956 70.968 96.0476 71.384 91.8876L67.692 91.5756C66.7561 103.12 60.8801 111.96 52.9761 117.524L55.5241 120.332C60.4121 116.692 64.468 112.064 67.276 106.448L81.472 117.732L83.5 115.028ZM63.6881 120.852V137.232H95.668V133.956H67.224V120.852H63.6881Z" fill="#FFFAEA"/>
<path d="M145.38 110.868V88.2996H141.896V138.22H145.38V114.04H154.48V110.868H145.38ZM105.756 99.4276H116.312V99.5836C115.532 108.216 111.268 117.42 103.676 124.024L106.64 126.26C114.44 118.772 119.12 108.944 120.108 96.2036H105.756V99.4276ZM131.288 99.4276V99.5836C130.404 110.868 126.764 121.528 118.132 130.264L121.356 132.448C129.988 123.14 134.2 111.388 135.188 96.2036H122.5V99.4276H131.288Z" fill="#FFFAEA"/>
<path d="M196.392 138.22H199.98V88.2996H196.392V138.22ZM160.304 96.0476V99.3236H180.948V99.4796C178.14 109.568 168.78 119.864 157.34 125.74L159.42 128.704C165.244 125.532 170.86 121.216 175.384 116.016L187.812 127.82L189.996 125.064L177.464 113.416C181.26 108.372 184.068 102.496 185.212 96.0476H160.304Z" fill="#FFFAEA"/>
<path d="M26.7681 204.224H40.9121V181.864H9.08805V204.224H23.232V216.6H0.300049V219.876H49.7001V216.6H26.7681V204.224ZM37.3761 185.088V201.052H12.6241V185.088H37.3761Z" fill="#FFFAEA"/>
<path d="M65.3521 194.24V182.592H93.12V179.368H61.8161V197.36H94.212V194.24H65.3521ZM52.3 204.588V207.812H75.232V226.688H78.7681V207.812H101.7V204.588H52.3Z" fill="#FFFAEA"/>
<path d="M158.888 198.868V176.3H155.404V207.24C146.876 210.204 134.448 211.816 125.504 211.816L125.4 186.96H145.992V183.684H121.864V215.092C134.448 215.092 147.136 213.376 155.404 210.308V226.22H158.888V202.04H167.988V198.868H158.888Z" fill="#FFFAEA"/>
<path d="M227.568 206.2L229.648 203.34L208.692 189.04C210.148 186.752 211.344 184.256 212.228 181.604L208.744 180.72C205 191.276 195.796 198.972 185.812 203.496L187.788 206.616C194.86 203.236 201.828 198.296 206.768 191.848L227.568 206.2ZM183.316 219.876H232.716V216.6H183.316V219.876Z" fill="#FFFAEA"/>
<path d="M279.568 206.2L281.648 203.34L260.692 189.04C262.148 186.752 263.344 184.256 264.228 181.604L260.744 180.72C257 191.276 247.796 198.972 237.812 203.496L239.788 206.616C246.86 203.236 253.828 198.296 258.768 191.848L279.568 206.2ZM235.316 219.876H284.716V216.6H235.316V219.876Z" fill="#FFFAEA"/>
<path d="M313.784 206.512H330.736V203.392H299.692V195.28H327.564V181.344H295.48V184.516H324.08V192.108H296.156V206.512H310.248V216.6H287.316V219.876H336.716V216.6H313.784V206.512Z" fill="#FFFAEA"/>
</svg>
