<svg width="606" height="49" viewBox="0 0 606 49" fill="none" xmlns="http://www.w3.org/2000/svg">
<path d="M14.6162 7.82802H11.7002V1.24002H10.1342V17.17H11.7002V9.25002H14.6162V17.782H16.2002V0.52002H14.6162V7.82802ZM2.1242 2.05002V3.50802H7.5782V2.05002H2.1242ZM1.1522 5.63202V7.07202H6.3902V7.12602C5.5082 9.52002 3.4202 11.896 0.450195 13.462L1.4402 14.722C2.9342 13.84 4.3022 12.742 5.4362 11.41L8.2262 14.614L9.2342 13.516L6.3002 10.276C7.2362 8.92602 7.9382 7.37802 8.2982 5.63202H1.1522Z" fill="black"/>
<path d="M33.6782 10.51L34.6142 9.21402L27.5402 4.49802C27.9902 3.77802 28.3502 3.00402 28.6382 2.17602L27.0182 1.78002C25.7762 5.23602 22.5722 7.79202 19.1162 9.23202L19.9802 10.672C22.4282 9.55602 24.8762 7.93602 26.6402 5.75802L33.6782 10.51ZM27.8102 9.34002H26.1902V14.254H18.4502V15.748H35.5502V14.254H27.8102V9.34002Z" fill="black"/>
<path d="M50.8502 5.30802V0.52002H49.2662V6.62202C46.6022 7.52202 42.1562 8.04402 39.3662 8.04402L39.3302 3.50802H46.2422V2.05002H37.7102V9.52002C42.1202 9.52002 46.6922 8.92602 49.2662 7.97202V10.15H50.8502V6.74802H53.8202V5.30802H50.8502ZM50.8502 17.62V11.05H40.0502V17.62H50.8502ZM49.2662 12.454V16.198H41.6162V12.454H49.2662Z" fill="black"/>
<path d="M63.0002 7.97202C66.5822 7.97202 68.7602 6.67602 68.7602 4.51602C68.7602 2.35602 66.5822 1.06002 63.0002 1.06002C59.4182 1.06002 57.2402 2.35602 57.2402 4.51602C57.2402 6.67602 59.4182 7.97202 63.0002 7.97202ZM63.0002 6.53202C61.2902 6.53202 60.0122 6.20802 59.3822 5.65002C59.0582 5.36202 58.8962 4.96602 58.8962 4.51602C58.8962 4.04802 59.0402 3.67002 59.3822 3.38202C60.0302 2.82402 61.2902 2.50002 63.0002 2.50002C64.7102 2.50002 65.9522 2.82402 66.6182 3.38202C66.9602 3.67002 67.1042 4.04802 67.1042 4.51602C67.1042 4.96602 66.9422 5.36202 66.6182 5.65002C65.9702 6.20802 64.7102 6.53202 63.0002 6.53202ZM71.5502 10.888V9.39402H54.4502V10.888H71.5502ZM69.0302 17.53V16.054H59.3102V12.13H57.6902V17.53H69.0302Z" fill="black"/>
<path d="M91.526 8.18802V0.52002H89.942V17.8H91.526V9.62802H94.496V8.18802H91.526ZM85.172 4.71402V4.76802C84.452 8.09802 81.878 11.644 77.486 13.678L78.584 15.046C82.976 12.922 86.45 8.76402 87.062 3.22002H78.422V4.71402H85.172Z" fill="black"/>
<path d="M109.526 0.52002H107.942V10.6H109.526V7.10802H112.496V5.66802H109.526V0.52002ZM106.214 8.83602L102.362 6.64002C103.532 5.34402 104.378 3.81402 104.684 2.05002H96.35V3.49002H102.74V3.54402C101.858 5.68602 99.302 7.97202 95.306 9.21402L96.116 10.528C98.042 9.86202 99.824 8.90802 101.282 7.68402L105.368 10.024L106.214 8.83602ZM104 10.888C100.4 10.888 98.294 12.202 98.294 14.38C98.294 16.576 100.4 17.89 104 17.89C107.6 17.89 109.706 16.576 109.706 14.38C109.706 12.202 107.6 10.888 104 10.888ZM107.51 15.64C106.862 16.144 105.692 16.45 104 16.45C102.308 16.45 101.12 16.144 100.49 15.64C100.13 15.316 99.95 14.902 99.95 14.38C99.95 13.876 100.13 13.444 100.49 13.138C101.138 12.652 102.308 12.328 104 12.328C105.692 12.328 106.862 12.652 107.51 13.138C107.87 13.444 108.05 13.876 108.05 14.38C108.05 14.902 107.87 15.316 107.51 15.64Z" fill="black"/>
<path d="M131.482 0.52002V13.48H133.102V0.52002H131.482ZM129.412 9.48402L124.246 5.59602C124.714 4.40802 125.038 3.13002 125.2 1.74402L123.49 1.61802C123.166 5.47002 121.042 8.62002 118.342 10.438L119.53 11.698C121.168 10.492 122.572 8.90802 123.598 7.00002L128.494 10.744L129.412 9.48402ZM123.922 11.77H122.302V17.53H133.822V16.054H123.922V11.77Z" fill="black"/>
<path d="M151.102 13.48V0.52002H149.482V4.67802H144.532V6.11802H149.482V13.48H151.102ZM146.962 9.84402L141.706 5.95602C142.192 4.67802 142.534 3.27402 142.678 1.74402L141.022 1.61802C140.662 5.57802 138.88 8.58402 136.162 10.672L137.35 11.878C138.88 10.636 140.158 9.14202 141.094 7.32402L146.116 11.05L146.962 9.84402ZM141.922 11.77H140.302V17.53H151.822V16.054H141.922V11.77Z" fill="black"/>
<path d="M168.202 8.00802V0.52002H166.618V17.8H168.202V9.44802H171.172V8.00802H168.202ZM156.088 1.78002V3.22002H163V1.78002H156.088ZM164.692 6.78402V5.30802H153.982V6.78402H164.692ZM159.526 8.31402C157.132 8.31402 155.548 9.79002 155.548 11.77C155.548 13.75 157.132 15.226 159.526 15.226C161.92 15.226 163.486 13.75 163.486 11.77C163.486 9.79002 161.92 8.31402 159.526 8.31402ZM159.526 13.786C158.014 13.786 157.168 13.03 157.168 11.77C157.168 10.528 158.014 9.75402 159.526 9.75402C161.038 9.75402 161.884 10.528 161.884 11.77C161.884 13.03 161.038 13.786 159.526 13.786Z" fill="black"/>
<path d="M185.284 11.77C185.734 8.83602 185.986 5.93802 186.058 2.51802H174.232V4.01202H184.384C184.294 6.46002 184.114 9.07002 183.646 11.662L185.284 11.77ZM180.172 7.72002H178.552V14.254H171.802V15.748H188.902V14.254H180.172V7.72002Z" fill="black"/>
<path d="M208.878 0.52002H207.294V12.13H208.878V7.28802H211.848V5.84802H208.878V0.52002ZM195.648 2.23002V9.88002H203.748V2.23002H195.648ZM197.232 8.54802V3.58002H202.164V8.54802H197.232ZM203.658 10.87C202.524 13.462 199.734 15.316 196.548 16.27L197.412 17.746C199.572 16.99 201.588 15.802 203.136 14.236L209.436 17.566L210.228 16.234L204.162 13.048C204.558 12.508 204.9 11.95 205.188 11.356L203.658 10.87Z" fill="black"/>
<path d="M226.158 0.52002V10.15H227.778V0.52002H226.158ZM217.968 9.64602C220.56 9.64602 222.378 8.24202 222.378 5.68602C222.378 3.14802 220.56 1.74402 217.968 1.74402C215.376 1.74402 213.558 3.14802 213.558 5.68602C213.558 8.24202 215.376 9.64602 217.968 9.64602ZM217.968 3.14802C219.57 3.14802 220.758 3.94002 220.758 5.68602C220.758 7.43202 219.57 8.24202 217.968 8.24202C216.366 8.24202 215.178 7.43202 215.178 5.68602C215.178 3.94002 216.366 3.14802 217.968 3.14802ZM225.762 13.084C226.032 12.4 226.248 11.68 226.392 10.888L224.754 10.69C224.304 13.498 222.864 15.442 220.776 16.918L221.91 18.106C223.206 17.098 224.304 15.91 225.114 14.47L228.354 17.638L229.29 16.558L225.762 13.084ZM219.39 12.724C219.606 12.166 219.786 11.59 219.912 10.996L218.274 10.78C217.806 13.156 216.33 15.154 214.296 16.54L215.502 17.692C216.78 16.756 217.896 15.514 218.724 14.092L220.704 16.018L221.658 14.848L219.39 12.724Z" fill="black"/>
<path d="M244.824 7.37802V5.90202H235.284V1.15002H233.664V7.37802H244.824ZM247.578 10.906V9.41202H230.478V10.906H247.578ZM244.986 17.53V16.054H235.428V12.31H233.808V17.53H244.986Z" fill="black"/>
<path d="M262.513 6.46002H267.445V5.00202H257.905V0.970019H256.285V6.46002H260.893V8.67402H253.153V10.15H270.253V8.67402H262.513V6.46002ZM261.703 11.518C258.103 11.518 255.997 12.67 255.997 14.704C255.997 16.738 258.103 17.89 261.703 17.89C265.303 17.89 267.409 16.738 267.409 14.704C267.409 12.67 265.303 11.518 261.703 11.518ZM265.231 15.784C264.583 16.18 263.413 16.45 261.703 16.45C259.993 16.45 258.805 16.198 258.175 15.784C257.833 15.514 257.653 15.136 257.653 14.704C257.653 14.272 257.815 13.894 258.175 13.624C258.805 13.21 259.993 12.958 261.703 12.958C263.413 12.958 264.583 13.228 265.231 13.624C265.591 13.894 265.753 14.272 265.753 14.704C265.753 15.136 265.591 15.514 265.231 15.784Z" fill="black"/>
<path d="M285.553 0.52002H283.969V13.48H285.553V7.73802H288.523V6.29802H285.553V0.52002ZM282.043 9.53802L277.039 5.61402C277.489 4.42602 277.813 3.13002 277.957 1.74402L276.265 1.61802C275.941 5.48802 273.907 8.60202 271.243 10.456L272.431 11.716C274.033 10.492 275.401 8.92602 276.391 7.03602L281.125 10.762L282.043 9.53802ZM274.933 11.77V17.53H286.273V16.054H276.553V11.77H274.933Z" fill="black"/>
<path d="M292.303 1.06002V6.46002H303.103V1.06002H292.303ZM293.923 5.05602V2.44602H301.483V5.05602H293.923ZM306.253 7.59402H289.153V9.05202H296.965V10.69H291.979V12.04H301.447V13.498H292.303V17.71H304.147V16.342H293.905V14.812H303.067V10.69H298.441V9.05202H306.253V7.59402Z" fill="black"/>
<path d="M315.703 6.62202C319.285 6.62202 321.463 5.61402 321.463 3.70602C321.463 1.79802 319.285 0.79002 315.703 0.79002C312.121 0.79002 309.943 1.79802 309.943 3.70602C309.943 5.61402 312.121 6.62202 315.703 6.62202ZM315.703 5.18202C313.975 5.18202 312.697 4.94802 312.067 4.55202C311.743 4.33602 311.599 4.04802 311.599 3.70602C311.599 3.36402 311.725 3.07602 312.067 2.86002C312.697 2.48202 313.975 2.23002 315.703 2.23002C317.431 2.23002 318.691 2.48202 319.339 2.86002C319.681 3.07602 319.807 3.36402 319.807 3.70602C319.807 4.04802 319.663 4.33602 319.339 4.55202C318.709 4.94802 317.431 5.18202 315.703 5.18202ZM324.253 9.23202V7.77402H307.153V9.23202H324.253ZM322.147 17.71V16.342H311.905V14.812H321.067V10.69H309.979V12.04H319.447V13.498H310.303V17.71H322.147Z" fill="black"/>
<path d="M344.229 8.18802V0.52002H342.645V17.8H344.229V9.62802H347.199V8.18802H344.229ZM337.875 4.71402V4.76802C337.155 8.09802 334.581 11.644 330.189 13.678L331.287 15.046C335.679 12.922 339.153 8.76402 339.765 3.22002H331.125V4.71402H337.875Z" fill="black"/>
<path d="M361.995 17.782H363.579V0.52002H361.995V17.782ZM354.795 8.09802C355.335 6.69402 355.713 5.14602 355.857 3.49002H348.819V4.94802H354.039V5.00202C353.571 8.06202 351.717 11.446 348.009 13.624L349.197 14.938C351.267 13.624 352.977 11.806 354.147 9.53802H357.873V17.17H359.439V1.24002H357.873V8.09802H354.795Z" fill="black"/>
<path d="M379.995 17.782H381.579V0.52002H379.995V17.782ZM373.803 7.82802C373.605 4.58802 372.201 2.91402 370.113 2.91402C367.827 2.91402 366.369 4.89402 366.369 8.71002C366.369 12.526 367.827 14.506 370.113 14.506C372.273 14.506 373.695 12.724 373.821 9.26802H375.873V17.17H377.439V1.24002H375.873V7.82802H373.803ZM370.113 12.994C368.799 12.994 367.989 11.662 367.989 8.71002C367.989 5.75802 368.799 4.42602 370.113 4.42602C371.409 4.42602 372.219 5.75802 372.219 8.71002C372.219 11.662 371.409 12.994 370.113 12.994Z" fill="black"/>
<path d="M402.995 6.37002V4.96602H393.329V2.59002H402.635V1.15002H391.709V6.37002H402.995ZM405.605 9.23202V7.77402H388.505V9.23202H405.605ZM403.499 17.71V16.342H393.257V14.812H402.419V10.69H391.331V12.04H400.799V13.498H391.655V17.71H403.499Z" fill="black"/>
<path d="M421.805 17.8V0.52002H420.185V17.8H421.805ZM412.175 14.596C414.965 14.596 416.765 12.418 416.765 8.56602C416.765 4.73202 414.965 2.55402 412.175 2.55402C409.385 2.55402 407.585 4.73202 407.585 8.56602C407.585 12.418 409.385 14.596 412.175 14.596ZM412.175 13.084C410.339 13.084 409.241 11.536 409.241 8.56602C409.241 5.61402 410.339 4.06602 412.175 4.06602C414.011 4.06602 415.109 5.61402 415.109 8.56602C415.109 11.536 414.011 13.084 412.175 13.084Z" fill="black"/>
<path d="M439.805 17.8V0.52002H438.185V17.8H439.805ZM426.215 14.938C430.733 12.904 434.441 8.78202 435.071 3.22002H426.089V4.71402H433.145V4.76802C432.389 8.09802 429.671 11.608 425.135 13.552L426.215 14.938Z" fill="black"/>
<path d="M460.897 17.8H462.481V0.52002H460.897V17.8ZM453.535 9.28602C456.145 9.28602 457.981 7.88202 457.981 5.50602C457.981 3.14802 456.145 1.74402 453.535 1.74402C450.907 1.74402 449.071 3.14802 449.071 5.50602C449.071 7.88202 450.907 9.28602 453.535 9.28602ZM453.535 3.14802C455.155 3.14802 456.361 3.94002 456.361 5.50602C456.361 7.07202 455.155 7.88202 453.535 7.88202C451.897 7.88202 450.691 7.07202 450.691 5.50602C450.691 3.95802 451.897 3.14802 453.535 3.14802ZM459.925 10.024C456.505 10.798 452.671 11.05 447.271 11.05L447.451 12.526C449.413 12.526 451.213 12.472 452.851 12.382V17.71H454.471V12.256C456.559 12.076 458.413 11.806 460.141 11.41L459.925 10.024Z" fill="black"/>
<path d="M479.347 7.82802H476.431V1.24002H474.865V17.17H476.431V9.25002H479.347V17.782H480.931V0.52002H479.347V7.82802ZM466.927 2.14002V3.54402H472.597V2.14002H466.927ZM473.911 7.01802V5.57802H465.361V7.01802H473.911ZM469.807 8.58402C467.791 8.58402 466.387 9.88002 466.387 11.86C466.387 13.84 467.791 15.136 469.807 15.136C471.823 15.136 473.227 13.84 473.227 11.86C473.227 9.88002 471.823 8.58402 469.807 8.58402ZM469.807 13.75C468.655 13.75 467.899 13.102 467.899 11.86C467.899 10.618 468.655 9.98802 469.807 9.98802C470.959 9.98802 471.715 10.618 471.715 11.86C471.715 13.102 470.959 13.75 469.807 13.75Z" fill="black"/>
<path d="M502.148 6.28002V4.82202H492.608V0.880019H490.988V6.28002H502.148ZM504.956 9.23202V7.77402H487.856V9.23202H504.956ZM502.85 17.71V16.342H492.608V14.812H501.77V10.69H490.682V12.04H500.15V13.498H491.006V17.71H502.85Z" fill="black"/>
<path d="M519.892 10.24H525.22V8.76402H515.194V2.14002H513.574V10.24H518.272V14.254H510.532V15.748H527.632V14.254H519.892V10.24Z" fill="black"/>
<path d="M542.212 3.52602H538.252V4.93002H542.212V6.76602H538.252V8.17002H542.212V11.41H543.832V0.52002H542.212V3.52602ZM530.044 10.96C533.77 10.96 536.902 10.816 539.512 10.222L539.35 8.89002C536.83 9.44802 533.788 9.55602 531.646 9.55602V7.00002H537.334V2.05002H529.792V3.47202H535.786V5.65002H530.044V10.96ZM542.176 13.786V17.836H543.832V12.31H532.492V13.786H542.176Z" fill="black"/>
<path d="M560.932 6.47802V0.52002H559.348V10.42H560.932V7.91802H563.902V6.47802H560.932ZM548.782 0.880019V2.19402H555.658V0.880019H548.782ZM546.712 3.52602V4.89402H557.332V3.52602H546.712ZM556.162 8.35002C556.162 6.85602 554.632 5.88402 552.202 5.88402C549.79 5.88402 548.26 6.85602 548.26 8.35002C548.26 9.84402 549.79 10.816 552.202 10.816C554.632 10.816 556.162 9.84402 556.162 8.35002ZM549.772 8.35002C549.772 7.59402 550.672 7.10802 552.202 7.10802C553.75 7.10802 554.65 7.59402 554.65 8.35002C554.65 9.10602 553.75 9.59202 552.202 9.59202C550.672 9.59202 549.772 9.10602 549.772 8.35002ZM551.734 13.156V11.59H550.132V17.71H560.932V11.41H559.33V13.156H551.734ZM551.734 16.288V14.488H559.33V16.288H551.734Z" fill="black"/>
<path d="M578.212 10.564C575.026 11.734 570.49 12.418 567.898 12.418V2.77002H566.242V13.93C570.508 13.93 575.134 13.192 578.212 11.968V17.8H579.832V0.52002H578.212V10.564Z" fill="black"/>
<path d="M596.932 8.18802V0.52002H595.348V11.122C592.54 12.076 588.31 12.616 585.538 12.616L585.502 4.42602H592.414V2.95002H583.882V14.11C588.274 14.11 592.63 13.534 595.348 12.526V17.8H596.932V9.62802H599.902V8.18802H596.932Z" fill="black"/>
<path d="M603.682 16C604.456 16 605.122 15.352 605.122 14.578C605.122 13.786 604.456 13.12 603.682 13.12C602.89 13.12 602.242 13.786 602.242 14.578C602.242 15.352 602.89 16 603.682 16Z" fill="black"/>
<path d="M14.6162 38.738H11.7902V32.24H10.2242V48.17H11.7902V40.16H14.6162V48.782H16.2002V31.52H14.6162V38.738ZM8.1902 45.29V34.13H1.4402V45.29H8.1902ZM6.6422 35.588V43.832H2.9882V35.588H6.6422Z" fill="black"/>
<path d="M20.3402 39.782C22.6082 39.44 25.0382 38.774 27.1262 37.784L33.6782 39.692L34.3622 38.396L28.7822 36.866C30.6002 35.714 31.9322 34.256 32.3282 32.51H21.4022V33.968H29.8982V34.04C28.2602 36.002 24.3542 37.676 19.6382 38.306L20.3402 39.782ZM18.4502 41.204V42.68H26.1902V48.89H27.8102V42.68H35.5502V41.204H18.4502Z" fill="black"/>
<path d="M54.806 35.768H50.864C50.522 33.752 48.848 32.654 46.58 32.654C44.006 32.654 42.206 34.04 42.206 36.56C42.206 39.08 44.006 40.466 46.58 40.466C48.902 40.466 50.612 39.314 50.9 37.208H54.806V40.52H56.426V31.52H54.806V35.768ZM46.58 39.062C44.996 39.062 43.808 38.288 43.808 36.56C43.808 34.832 44.996 34.058 46.58 34.058C48.146 34.058 49.334 34.814 49.334 36.542C49.334 38.288 48.146 39.062 46.58 39.062ZM47.138 43.67V41.51H45.536V48.71H56.426V41.51H54.824V43.67H47.138ZM47.138 47.27V45.038H54.824V47.27H47.138Z" fill="black"/>
<path d="M73.292 48.782H74.876V31.52H73.292V48.782ZM65.066 38.558V39.998H69.17V48.17H70.736V32.24H69.17V38.558H65.066ZM61.718 35.606H66.794V34.13H60.116V45.2C62.726 45.2 65.75 45.074 68 44.624L67.838 43.22C65.516 43.652 62.672 43.76 61.718 43.76V35.606Z" fill="black"/>
<path d="M92.426 48.8V31.52H90.806V48.8H92.426ZM82.796 45.596C85.586 45.596 87.386 43.418 87.386 39.566C87.386 35.732 85.586 33.554 82.796 33.554C80.006 33.554 78.206 35.732 78.206 39.566C78.206 43.418 80.006 45.596 82.796 45.596ZM82.796 44.084C80.96 44.084 79.862 42.536 79.862 39.566C79.862 36.614 80.96 35.066 82.796 35.066C84.632 35.066 85.73 36.614 85.73 39.566C85.73 42.536 84.632 44.084 82.796 44.084Z" fill="black"/>
<path d="M110.03 42.41V40.988H99.68V38.468H109.112V37.082H99.68V34.652H109.49V33.23H98.096V42.41H110.03ZM112.226 46.748V45.254H95.126V46.748H112.226Z" fill="black"/>
<path d="M126.842 48.8H128.426V31.52H126.842V48.8ZM120.308 40.79H124.07V39.422H116.726V35.3H123.746V33.86H115.196V40.79H118.724V44.444C117.068 44.534 115.25 44.57 113.216 44.57L113.396 46.064C118.688 46.064 122.648 45.722 126.086 44.948L125.87 43.544C124.16 43.922 122.36 44.192 120.308 44.354V40.79Z" fill="black"/>
<path d="M145.472 38.378V36.902H135.932V32.15H134.312V38.378H145.472ZM148.226 41.906V40.412H131.126V41.906H148.226ZM145.634 48.53V47.054H136.076V43.31H134.456V48.53H145.634Z" fill="black"/>
<path d="M169.102 42.14V31.52H167.482V36.758H163.522V38.198H167.482V42.14H169.102ZM156.16 32.06V33.464H162.568V32.06H156.16ZM164.656 40.556L161.092 38.774C162.19 37.73 163 36.47 163.378 35.012H155.044V36.416H161.308V36.47C160.03 38.36 157.672 39.908 154.252 40.916L155.026 42.194C156.772 41.636 158.5 40.826 159.958 39.746L163.9 41.69L164.656 40.556ZM163.486 42.428C159.886 42.428 157.78 43.598 157.78 45.65C157.78 47.72 159.886 48.89 163.486 48.89C167.086 48.89 169.192 47.72 169.192 45.65C169.192 43.598 167.086 42.428 163.486 42.428ZM166.996 46.766C166.366 47.18 165.196 47.45 163.486 47.45C161.776 47.45 160.588 47.18 159.976 46.766C159.616 46.478 159.436 46.1 159.436 45.65C159.436 45.218 159.598 44.822 159.976 44.552C160.606 44.138 161.776 43.868 163.486 43.868C165.196 43.868 166.366 44.138 166.996 44.552C167.374 44.822 167.536 45.218 167.536 45.65C167.536 46.1 167.374 46.478 166.996 46.766Z" fill="black"/>
<path d="M186.202 39.188V31.52H184.618V48.8H186.202V40.628H189.172V39.188H186.202ZM181.144 41.924C181.63 39.494 181.846 36.848 181.846 34.04H172.882V35.534H180.262C180.262 37.244 180.064 39.746 179.524 41.762L181.144 41.924ZM177.544 38.72H175.96V44.3C174.718 44.372 173.386 44.39 171.892 44.39L172.072 45.884C177.04 45.884 180.622 45.524 183.862 44.66L183.628 43.256C181.774 43.742 179.83 44.048 177.544 44.21V38.72Z" fill="black"/>
<path d="M203.838 38.09H208.428V32.24H197.628V38.09H202.218V40.124H194.478V41.618H211.578V40.124H203.838V38.09ZM206.808 33.644V36.686H199.248V33.644H206.808ZM206.862 44.93V48.89H208.518V43.49H197.106V44.93H206.862Z" fill="black"/>
<path d="M221.838 39.26H227.292V37.892H217.122V36.326H226.41V32.15H215.358V33.518H224.844V34.976H215.556V39.26H220.218V41.024H212.478V42.5H229.578V41.024H221.838V39.26ZM224.862 45.542V48.89H226.518V44.12H215.106V45.542H224.862Z" fill="black"/>
<path d="M239.028 37.622C242.61 37.622 244.788 36.614 244.788 34.706C244.788 32.798 242.61 31.79 239.028 31.79C235.446 31.79 233.268 32.798 233.268 34.706C233.268 36.614 235.446 37.622 239.028 37.622ZM239.028 36.182C237.3 36.182 236.022 35.948 235.392 35.552C235.068 35.336 234.924 35.048 234.924 34.706C234.924 34.364 235.05 34.076 235.392 33.86C236.022 33.482 237.3 33.23 239.028 33.23C240.756 33.23 242.016 33.482 242.664 33.86C243.006 34.076 243.132 34.364 243.132 34.706C243.132 35.048 242.988 35.336 242.664 35.552C242.034 35.948 240.756 36.182 239.028 36.182ZM247.578 40.232V38.774H230.478V40.232H247.578ZM245.472 48.71V47.342H235.23V45.812H244.392V41.69H233.304V43.04H242.772V44.498H233.628V48.71H245.472Z" fill="black"/>
<path d="M267.553 37.928V31.52H265.969V43.31H267.553V39.368H270.613V37.928H267.553ZM255.727 32.006V33.32H262.135V32.006H255.727ZM253.585 34.202V35.498H263.881V34.202H253.585ZM264.853 40.844C263.251 41.132 261.577 41.33 259.615 41.456V40.412C261.541 40.25 262.693 39.512 262.693 38.324C262.693 36.992 261.253 36.218 258.877 36.218C256.519 36.218 255.079 36.992 255.079 38.324C255.079 39.494 256.177 40.232 258.031 40.394V41.528C256.591 41.582 255.025 41.6 253.243 41.6L253.405 43.022C258.355 43.022 261.955 42.752 265.033 42.176L264.853 40.844ZM256.573 38.306C256.573 37.694 257.473 37.406 258.877 37.406C260.299 37.406 261.199 37.694 261.199 38.306C261.199 38.918 260.299 39.206 258.877 39.206C257.473 39.206 256.573 38.918 256.573 38.306ZM265.897 45.578V48.836H267.553V44.12H256.213V45.578H265.897Z" fill="black"/>
<path d="M286.453 44.48V31.52H284.833V44.48H286.453ZM276.643 41.366C279.253 41.366 281.053 39.89 281.053 37.226C281.053 34.58 279.253 33.104 276.643 33.104C274.033 33.104 272.233 34.58 272.233 37.226C272.233 39.89 274.033 41.366 276.643 41.366ZM276.643 39.962C275.023 39.962 273.853 39.08 273.853 37.226C273.853 35.372 275.023 34.508 276.643 34.508C278.263 34.508 279.433 35.372 279.433 37.226C279.433 39.08 278.263 39.962 276.643 39.962ZM287.173 48.53V47.054H277.273V42.77H275.653V48.53H287.173Z" fill="black"/>
<path d="M303.553 39.008V31.52H301.969V48.8H303.553V40.448H306.523V39.008H303.553ZM291.439 32.78V34.22H298.351V32.78H291.439ZM300.043 37.784V36.308H289.333V37.784H300.043ZM294.877 39.314C292.483 39.314 290.899 40.79 290.899 42.77C290.899 44.75 292.483 46.226 294.877 46.226C297.271 46.226 298.837 44.75 298.837 42.77C298.837 40.79 297.271 39.314 294.877 39.314ZM294.877 44.786C293.365 44.786 292.519 44.03 292.519 42.77C292.519 41.528 293.365 40.754 294.877 40.754C296.389 40.754 297.235 41.528 297.235 42.77C297.235 44.03 296.389 44.786 294.877 44.786Z" fill="black"/>
<path d="M320.635 42.77C321.085 39.836 321.337 36.938 321.409 33.518H309.583V35.012H319.735C319.645 37.46 319.465 40.07 318.997 42.662L320.635 42.77ZM315.523 38.72H313.903V45.254H307.153V46.748H324.253V45.254H315.523V38.72Z" fill="black"/>
<path d="M344.229 31.52H342.645V41.6H344.229V38.108H347.199V36.668H344.229V31.52ZM340.917 39.836L337.065 37.64C338.235 36.344 339.081 34.814 339.387 33.05H331.053V34.49H337.443V34.544C336.561 36.686 334.005 38.972 330.009 40.214L330.819 41.528C332.745 40.862 334.527 39.908 335.985 38.684L340.071 41.024L340.917 39.836ZM338.703 41.888C335.103 41.888 332.997 43.202 332.997 45.38C332.997 47.576 335.103 48.89 338.703 48.89C342.303 48.89 344.409 47.576 344.409 45.38C344.409 43.202 342.303 41.888 338.703 41.888ZM342.213 46.64C341.565 47.144 340.395 47.45 338.703 47.45C337.011 47.45 335.823 47.144 335.193 46.64C334.833 46.316 334.653 45.902 334.653 45.38C334.653 44.876 334.833 44.444 335.193 44.138C335.841 43.652 337.011 43.328 338.703 43.328C340.395 43.328 341.565 43.652 342.213 44.138C342.573 44.444 342.753 44.876 342.753 45.38C342.753 45.902 342.573 46.316 342.213 46.64Z" fill="black"/>
<path d="M361.865 41.6H366.725V33.05H365.105V35.948H357.005V33.05H355.385V41.6H360.245V45.254H352.505V46.748H369.605V45.254H361.865V41.6ZM365.105 37.388V40.16H357.005V37.388H365.105Z" fill="black"/>
<path d="M384.185 38.198H380.585V39.638H384.185V48.8H385.805V31.52H384.185V38.198ZM373.619 40.178H379.541V33.95H371.765V35.426H377.993V38.774H372.017V45.47C375.635 45.47 379.163 45.326 381.899 44.696L381.719 43.292C379.073 43.886 375.653 44.012 373.619 44.012V40.178Z" fill="black"/>
<path d="M402.541 41.546C405.817 41.312 407.761 39.638 407.761 37.262C407.761 34.706 405.493 32.96 401.731 32.96C397.987 32.96 395.701 34.706 395.701 37.262C395.701 39.638 397.663 41.312 400.921 41.546V45.254H393.181V46.748H410.281V45.254H402.541V41.546ZM397.933 38.9C397.555 38.432 397.357 37.892 397.357 37.262C397.357 36.65 397.537 36.092 397.933 35.642C398.599 34.85 399.913 34.4 401.731 34.4C403.549 34.4 404.827 34.868 405.529 35.642C405.925 36.092 406.105 36.65 406.105 37.262C406.105 37.892 405.907 38.432 405.529 38.9C404.863 39.692 403.549 40.142 401.731 40.142C399.913 40.142 398.599 39.692 397.933 38.9Z" fill="black"/>
<path d="M425.347 48.782H426.931V31.52H425.347V48.782ZM417.661 37.748V39.188H421.225V48.17H422.791V32.24H421.225V37.748H417.661ZM414.889 33.536C414.727 38.414 413.467 41.888 411.181 44.552L412.495 45.596C413.683 44.174 414.637 42.518 415.303 40.574L418.921 45.2L419.965 44.174L415.807 38.9C416.203 37.298 416.437 35.534 416.491 33.59L414.889 33.536Z" fill="black"/>
<path d="M437.731 41.546C441.475 41.546 443.761 39.8 443.761 37.244C443.761 34.706 441.475 32.96 437.731 32.96C433.987 32.96 431.701 34.706 431.701 37.244C431.701 39.8 433.987 41.546 437.731 41.546ZM433.933 35.66C434.599 34.85 435.913 34.4 437.731 34.4C439.549 34.4 440.827 34.868 441.529 35.66C441.925 36.092 442.105 36.65 442.105 37.262C442.105 37.892 441.907 38.432 441.529 38.882C440.863 39.692 439.549 40.142 437.731 40.142C435.913 40.142 434.599 39.692 433.933 38.882C433.555 38.432 433.357 37.892 433.357 37.262C433.357 36.65 433.537 36.092 433.933 35.66ZM441.745 41.69H440.215V45.254H435.265V41.69H433.735V45.254H429.181V46.748H446.281V45.254H441.745V41.69Z" fill="black"/>
<path d="M450.331 47C451.105 47 451.771 46.352 451.771 45.578C451.771 44.786 451.105 44.12 450.331 44.12C449.539 44.12 448.891 44.786 448.891 45.578C448.891 46.352 449.539 47 450.331 47Z" fill="black"/>
</svg>
