<svg width="171" height="44" viewBox="0 0 171 44" fill="none" xmlns="http://www.w3.org/2000/svg">
<path d="M40.2364 17.8V0.52002H38.6164V17.8H40.2364ZM30.6064 14.596C33.3964 14.596 35.1964 12.418 35.1964 8.56602C35.1964 4.73202 33.3964 2.55402 30.6064 2.55402C27.8164 2.55402 26.0164 4.73202 26.0164 8.56602C26.0164 12.418 27.8164 14.596 30.6064 14.596ZM30.6064 13.084C28.7704 13.084 27.6724 11.536 27.6724 8.56602C27.6724 5.61402 28.7704 4.06602 30.6064 4.06602C32.4424 4.06602 33.5404 5.61402 33.5404 8.56602C33.5404 11.536 32.4424 13.084 30.6064 13.084Z" fill="black"/>
<path d="M49.5021 8.78202C51.7701 8.44002 54.2001 7.77402 56.2881 6.78402L62.8401 8.69202L63.5241 7.39602L57.9441 5.86602C59.7621 4.71402 61.0942 3.25602 61.4902 1.51002H50.5641V2.96802H59.0601V3.04002C57.4221 5.00202 53.5161 6.67602 48.8001 7.30602L49.5021 8.78202ZM47.6121 10.204V11.68H55.3521V17.89H56.9721V11.68H64.7122V10.204H47.6121Z" fill="black"/>
<path d="M80.9121 17.8V0.52002H79.3281V17.8H80.9121ZM71.9121 10.726C74.5761 10.726 76.4121 9.17802 76.4121 6.58602C76.4121 4.01202 74.5761 2.46402 71.9121 2.46402C69.2481 2.46402 67.4121 4.01202 67.4121 6.58602C67.4121 9.17802 69.2481 10.726 71.9121 10.726ZM71.9121 9.30402C70.2381 9.30402 69.0322 8.36802 69.0322 6.58602C69.0322 4.82202 70.2381 3.88602 71.9121 3.88602C73.5862 3.88602 74.7921 4.82202 74.7921 6.58602C74.7921 8.36802 73.5862 9.30402 71.9121 9.30402ZM65.8821 15.064C71.1741 15.064 75.1341 14.722 78.5722 13.948L78.3561 12.544C74.9361 13.318 71.1021 13.57 65.7021 13.57L65.8821 15.064Z" fill="black"/>
<path d="M102.454 7.82802H99.5379V1.24002H97.9719V17.17H99.5379V9.25002H102.454V17.782H104.038V0.52002H102.454V7.82802ZM89.9619 2.05002V3.50802H95.4159V2.05002H89.9619ZM88.9899 5.63202V7.07202H94.2279V7.12602C93.3459 9.52002 91.2579 11.896 88.2879 13.462L89.2779 14.722C90.7719 13.84 92.1399 12.742 93.2739 11.41L96.0639 14.614L97.0719 13.516L94.1379 10.276C95.0739 8.92602 95.7759 7.37802 96.1359 5.63202H88.9899Z" fill="black"/>
<path d="M121.516 10.51L122.452 9.21402L115.378 4.49802C115.828 3.77802 116.188 3.00402 116.476 2.17602L114.856 1.78002C113.614 5.23602 110.41 7.79202 106.954 9.23202L107.818 10.672C110.266 9.55602 112.714 7.93602 114.478 5.75802L121.516 10.51ZM115.648 9.34002H114.028V14.254H106.288V15.748H123.388V14.254H115.648V9.34002Z" fill="black"/>
<path d="M138.688 5.30802V0.52002H137.104V6.62202C134.44 7.52202 129.994 8.04402 127.204 8.04402L127.168 3.50802H134.08V2.05002H125.548V9.52002C129.958 9.52002 134.53 8.92602 137.104 7.97202V10.15H138.688V6.74802H141.658V5.30802H138.688ZM138.688 17.62V11.05H127.888V17.62H138.688ZM137.104 12.454V16.198H129.454V12.454H137.104Z" fill="black"/>
<path d="M17.6178 25.878L15.3498 33.132L14.2338 36.606H14.1258L13.1538 33.042L11.2098 25.878H9.08582L6.85382 33.132L5.77382 36.66H5.66582L4.76582 33.06L2.94782 25.878H0.913818L4.60382 39H6.65582L8.86982 32.052L9.96782 28.578H10.0938L11.0658 32.07L12.9738 39H14.9898L19.4898 25.878H17.6178Z" fill="black"/>
<path d="M29.0049 33.51C29.0049 30.792 27.6729 28.668 24.7929 28.668C21.9129 28.668 20.2209 31.026 20.2209 34.122C20.2209 37.272 21.8769 39.18 24.9909 39.18C26.6469 39.18 27.8529 38.892 28.7529 38.352V36.912C27.8169 37.38 26.3949 37.668 25.2429 37.668C23.2809 37.668 22.1289 36.606 22.0209 34.302H29.0049V33.51ZM24.7209 30.18C26.3229 30.18 27.0249 31.368 27.1149 32.952H22.0749C22.3269 30.792 23.4429 30.18 24.7209 30.18Z" fill="black"/>
<path d="M39.7979 33.51C39.7979 30.792 38.4659 28.668 35.5859 28.668C32.7059 28.668 31.0139 31.026 31.0139 34.122C31.0139 37.272 32.6699 39.18 35.7839 39.18C37.4399 39.18 38.6459 38.892 39.5459 38.352V36.912C38.6099 37.38 37.1879 37.668 36.0359 37.668C34.0739 37.668 32.9219 36.606 32.8139 34.302H39.7979V33.51ZM35.5139 30.18C37.1159 30.18 37.8179 31.368 37.9079 32.952H32.8679C33.1199 30.792 34.2359 30.18 35.5139 30.18Z" fill="black"/>
<path d="M44.0929 39V24.312H42.4009V39H44.0929ZM50.5009 39L46.5589 33.222L50.6629 28.866H48.6109L44.7409 33.132V33.6L48.3769 39H50.5009Z" fill="black"/>
<path d="M54.3786 39V24.312H52.6866V39H54.3786Z" fill="black"/>
<path d="M62.1398 34.752L61.3298 37.038H61.2038L60.5018 34.842L58.6118 28.866H56.6318L60.2318 39H60.5018L58.5758 43.59L58.6298 43.662H60.4298L62.2118 38.73L66.0638 28.866H64.1918L62.1398 34.752Z" fill="black"/>
<path d="M80.4381 25.878H72.5361V39H74.3721V33.6H79.3941V32.07H74.3721V27.408H80.4381V25.878Z" fill="black"/>
<path d="M87.1025 28.668C86.1125 28.668 84.9965 29.352 84.1505 30.144L83.9165 28.866H82.2065L82.6205 31.278V39H84.3125V31.566C85.0685 30.972 86.0045 30.288 87.2465 30.288C87.5345 30.288 87.8225 30.306 88.1465 30.396V28.776C87.7865 28.686 87.4625 28.668 87.1025 28.668Z" fill="black"/>
<path d="M98.2079 36.552V28.866H96.5159V36.48C95.5799 37.056 94.5539 37.668 93.6359 37.668C92.0879 37.668 91.7279 36.93 91.7279 35.346V28.866H90.0359V35.526C90.0359 38.136 90.9899 39.18 93.0059 39.18C94.5179 39.18 95.7959 38.388 96.6779 37.722L96.9299 39H98.6399L98.2079 36.552Z" fill="black"/>
<path d="M102.831 23.826C102.111 23.826 101.571 24.348 101.571 25.05C101.571 25.752 102.111 26.292 102.831 26.292C103.533 26.292 104.091 25.752 104.091 25.05C104.091 24.348 103.533 23.826 102.831 23.826ZM100.311 28.866V30.378H101.949V39H103.641V28.866H100.311Z" fill="black"/>
<path d="M111 37.668C109.92 37.668 109.182 37.38 109.164 36.012V30.378H112.53V28.866H109.164V26.22H107.472V28.866H105.78V30.378H107.472V36.21C107.472 38.37 108.822 39.18 110.37 39.18C111.324 39.18 112.188 39.018 112.728 38.712V37.326C112.26 37.488 111.594 37.668 111 37.668Z" fill="black"/>
<path d="M129.326 36.48C130.748 34.824 131.684 32.772 132.224 30.99H130.334C129.902 32.592 129.164 34.266 128.084 35.598C127.328 35.04 126.518 34.464 125.69 33.834C125.114 33.402 124.538 32.97 123.998 32.52C125.87 31.728 127.562 30.45 127.562 28.65C127.562 27.066 126.356 25.302 123.782 25.302C121.046 25.302 119.552 27.192 119.552 29.064C119.552 30.072 120.092 30.99 120.956 31.926C119.21 32.934 118.382 34.212 118.382 35.886C118.382 38.046 120.272 39.558 123.008 39.558C125.096 39.558 126.788 38.802 128.138 37.668C129.092 38.352 129.992 38.946 130.73 39.378H133.142V39C132.08 38.352 130.784 37.506 129.326 36.48ZM123.62 26.742C124.898 26.742 125.744 27.534 125.744 28.776C125.744 30.054 124.61 30.918 123.044 31.674C122.036 30.738 121.316 29.784 121.316 28.884C121.316 27.48 122.126 26.742 123.62 26.742ZM123.278 38.082C121.172 38.082 120.128 36.822 120.128 35.436C120.128 34.59 120.74 33.51 121.874 32.808C122.468 33.348 123.152 33.888 123.854 34.464C124.844 35.256 125.888 36.048 126.896 36.786C125.906 37.578 124.7 38.082 123.278 38.082Z" fill="black"/>
<path d="M148.041 25.878L145.143 33.582L143.973 36.66H143.883L142.767 33.492L140.139 25.878H138.159L142.929 39H144.549L149.967 25.878H148.041Z" fill="black"/>
<path d="M159.224 33.51C159.224 30.792 157.892 28.668 155.012 28.668C152.132 28.668 150.44 31.026 150.44 34.122C150.44 37.272 152.096 39.18 155.21 39.18C156.866 39.18 158.072 38.892 158.972 38.352V36.912C158.036 37.38 156.614 37.668 155.462 37.668C153.5 37.668 152.348 36.606 152.24 34.302H159.224V33.51ZM154.94 30.18C156.542 30.18 157.244 31.368 157.334 32.952H152.294C152.546 30.792 153.662 30.18 154.94 30.18Z" fill="black"/>
<path d="M167.569 29.19C166.957 28.848 166.183 28.668 165.283 28.668C162.907 28.668 161.413 30.54 161.413 32.088C161.413 33.51 162.115 34.446 163.303 34.914L161.629 36.588V37.902L162.925 38.046C161.809 38.694 160.819 39.594 160.819 40.782C160.819 42.6 162.439 43.806 165.067 43.806C168.199 43.806 170.125 41.79 170.125 39.738C170.125 38.226 169.297 37.128 166.579 36.822L163.357 36.462L164.509 35.22C164.761 35.238 165.013 35.256 165.283 35.256C167.353 35.256 169.027 33.51 169.027 31.962C169.027 31.26 168.883 30.684 168.595 30.198H170.539V28.812L167.569 29.19ZM165.283 33.96C164.077 33.96 163.159 33.276 163.159 31.926C163.159 30.756 163.897 30.036 165.157 30.036C166.489 30.036 167.299 30.792 167.299 31.998C167.299 33.15 166.453 33.96 165.283 33.96ZM168.469 40.08C168.469 41.232 167.245 42.402 165.319 42.402C163.285 42.402 162.475 41.466 162.475 40.53C162.475 39.702 163.303 38.856 164.491 38.226L165.877 38.388C168.055 38.658 168.469 39.126 168.469 40.08Z" fill="black"/>
</svg>