<svg width="299" height="32" viewBox="0 0 299 32" fill="none" xmlns="http://www.w3.org/2000/svg">
<path d="M17.624 28.832V25.248H6.55203L6.61603 25.184C11.96 20.992 16.856 15.008 16.856 10.528C16.856 5.66398 13.08 3.45598 8.72803 3.45598C6.13603 3.45598 3.28803 4.12798 1.27203 5.69598V9.47198C3.86403 7.51998 5.94403 7.16798 7.83203 7.16798C10.296 7.16798 12.344 8.63998 12.344 11.136C12.344 15.52 6.68003 21.088 0.728027 25.92V28.832H17.624Z" fill="black"/>
<path d="M29.359 29.152C35.247 29.152 38.575 24 38.575 16C38.575 8.92798 36.367 3.45598 29.679 3.45598C23.727 3.45598 20.559 8.57598 20.559 16.704C20.559 24.416 23.183 29.152 29.359 29.152ZM29.615 25.696C26.415 25.696 24.783 22.208 24.783 16.448C24.783 11.104 26.223 6.94398 29.423 6.94398C32.655 6.94398 34.319 11.104 34.319 16.128C34.319 21.76 32.847 25.696 29.615 25.696Z" fill="black"/>
<path d="M58.374 28.832V25.248H47.302L47.366 25.184C52.71 20.992 57.606 15.008 57.606 10.528C57.606 5.66398 53.83 3.45598 49.478 3.45598C46.886 3.45598 44.038 4.12798 42.022 5.69598V9.47198C44.614 7.51998 46.694 7.16798 48.582 7.16798C51.046 7.16798 53.094 8.63998 53.094 11.136C53.094 15.52 47.43 21.088 41.478 25.92V28.832H58.374Z" fill="black"/>
<path d="M73.341 3.83998H70.717L63.037 6.14398V9.37598L68.797 8.41598V25.248H62.589V28.832H78.909V25.248H73.341V3.83998Z" fill="black"/>
<path d="M110.101 24.616V7.35998H107.125V10.792H99.7325V13.12H107.125V15.16H99.7325V17.464H107.125V24.616H110.101ZM103.549 17.968C100.309 18.592 96.4685 18.832 94.3565 18.832V9.68798H91.4045V21.472C96.0365 21.472 100.429 21.184 103.813 20.512L103.549 17.968ZM97.9325 22.768H94.9565V30.136H110.965V27.52H97.9325V22.768Z" fill="black"/>
<path d="M134.341 3.83998H131.717L124.037 6.14398V9.37598L129.797 8.41598V25.248H123.589V28.832H139.909V25.248H134.341V3.83998Z" fill="black"/>
<path d="M160.124 28.832V25.248H149.052L149.116 25.184C154.46 20.992 159.356 15.008 159.356 10.528C159.356 5.66398 155.58 3.45598 151.228 3.45598C148.636 3.45598 145.788 4.12798 143.772 5.69598V9.47198C146.364 7.51998 148.444 7.16798 150.332 7.16798C152.796 7.16798 154.844 8.63998 154.844 11.136C154.844 15.52 149.18 21.088 143.228 25.92V28.832H160.124Z" fill="black"/>
<path d="M183.58 20.176H188.62V20.776H191.476V7.35998H188.62V18.136H183.58V20.176ZM179.02 15.28C182.476 15.28 185.02 13.96 185.02 11.632C185.02 9.35198 182.476 8.00798 179.02 8.00798C175.516 8.00798 172.996 9.35198 172.996 11.632C172.996 13.96 175.516 15.28 179.02 15.28ZM179.02 10.144C180.892 10.144 182.26 10.6 182.26 11.632C182.26 12.664 180.892 13.144 179.02 13.144C177.124 13.144 175.756 12.664 175.756 11.632C175.756 10.624 177.124 10.144 179.02 10.144ZM180.244 20.776V18.28C182.62 18.064 184.78 17.728 186.796 17.296L186.508 15.04C182.26 15.952 177.508 16.264 170.884 16.264L171.148 18.64C173.38 18.64 175.42 18.592 177.34 18.496V20.776H180.244ZM179.14 26.896H191.476V21.64H175.684V23.656H188.5V25H176.164V30.424H192.364V28.36H179.14V26.896Z" fill="black"/>
<path d="M227.908 0.47998V21.088H231.588V0.47998H227.908ZM224.228 18.016V1.18398H220.612V7.10398H215.268V10.528H220.612V18.016H224.228ZM218.788 16.32L212.132 9.98398C212.772 7.80798 213.188 5.37598 213.38 2.65598L209.636 2.43198C209.188 9.34398 207.3 13.568 203.236 17.376L205.956 20.064C207.972 18.112 209.604 15.936 210.82 13.408L216.772 19.008L218.788 16.32ZM222.244 22.752C222.916 21.856 223.492 20.864 223.94 19.84L220.004 18.88C218.18 23.264 213.508 26.24 207.46 27.872L209.412 31.264C213.412 30.016 217.028 28.096 219.812 25.504L231.076 30.944L232.868 27.808L222.244 22.752Z" fill="black"/>
<path d="M260.068 12.8H256.548V1.72798H253.124V30.08H256.548V16.448H260.068V31.168H263.588V0.47998H260.068V12.8ZM243.94 18.304L241.988 13.856C242.596 11.168 243.012 8.15998 243.204 4.70398H235.94V8.09598H239.78V8.19198C239.364 13.472 237.572 18.464 234.564 22.368L237.284 24.736C238.724 22.688 239.908 20.448 240.836 17.888L242.18 21.056L243.94 18.304ZM244.196 4.70398V8.09598H247.14V8.19198C246.724 14.24 244.964 19.712 241.444 24.448L244.132 26.912C245.764 24.64 247.044 22.208 248.036 19.52L250.34 25.056L252.452 22.4L249.316 15.168C250.052 12.064 250.5 8.63998 250.692 4.70398H244.196Z" fill="black"/>
<path d="M277.957 18.616C281.125 18.184 284.365 17.344 287.101 16.072L295.621 18.496L296.821 16.192L290.029 14.392C292.237 12.856 293.773 10.888 294.181 8.51198H279.037V11.08H287.485L289.933 11.032V11.128C287.869 13.36 282.829 15.304 276.757 16.048L277.957 18.616ZM275.413 20.176V22.792H285.301V30.448H288.325V22.792H298.213V20.176H275.413Z" fill="black"/>
</svg>
