<svg width="107" height="40" viewBox="0 0 107 40" fill="none" xmlns="http://www.w3.org/2000/svg">
<path d="M49.646 0.52002H48.062V13.48H49.646V7.55802H52.616V6.11802H49.646V0.52002ZM44.876 6.22602C44.876 3.58002 43.058 2.10402 40.43 2.10402C37.802 2.10402 35.966 3.58002 35.966 6.22602C35.966 8.89002 37.802 10.366 40.43 10.366C43.058 10.366 44.876 8.89002 44.876 6.22602ZM37.586 6.22602C37.586 4.39002 38.774 3.50802 40.43 3.50802C42.068 3.50802 43.256 4.37202 43.256 6.22602C43.256 8.08002 42.068 8.96202 40.43 8.96202C38.774 8.96202 37.586 8.08002 37.586 6.22602ZM39.026 11.77V17.53H50.366V16.054H40.646V11.77H39.026Z" fill="black"/>
<path d="M67.412 7.64802H64.406V1.24002H62.84V11.086C60.482 11.752 57.35 12.148 55.964 12.148V2.95002H54.326V13.66C57.296 13.66 60.428 13.246 62.84 12.544V17.17H64.406V9.07002H67.412V17.782H68.996V0.52002H67.412V7.64802Z" fill="black"/>
<path d="M6.12 31.998C7.362 31.548 8.172 30.576 8.172 29.118C8.172 26.976 6.39 25.878 3.42 25.878H0V39H3.978C7.47 39 9.09 37.452 9.09 35.256C9.09 32.862 7.182 32.178 6.12 32.052V31.998ZM3.276 27.408C4.842 27.408 6.21 27.93 6.21 29.55C6.21 30.882 5.22 31.512 3.15 31.512H1.836V27.408H3.276ZM1.836 37.47V33.042H2.916C5.382 33.042 7.128 33.276 7.128 35.112C7.128 36.858 5.742 37.47 3.852 37.47H1.836Z" fill="black"/>
<path d="M16.1835 28.668C15.1935 28.668 14.0775 29.352 13.2315 30.144L12.9975 28.866H11.2875L11.7015 31.278V39H13.3935V31.566C14.1495 30.972 15.0855 30.288 16.3275 30.288C16.6155 30.288 16.9035 30.306 17.2275 30.396V28.776C16.8675 28.686 16.5435 28.668 16.1835 28.668Z" fill="black"/>
<path d="M26.209 36.732V31.656C26.209 29.442 24.661 28.668 22.807 28.668C21.565 28.668 19.855 28.956 19.045 29.316V30.828C19.909 30.522 21.439 30.18 22.519 30.18C23.635 30.18 24.517 30.522 24.517 32.052V33.276H23.185C20.269 33.276 18.487 34.302 18.487 36.336C18.487 38.01 19.441 39.18 21.367 39.18C22.789 39.18 23.959 38.46 24.679 37.902L24.877 39H26.587L26.209 36.732ZM20.197 36.21C20.197 35.058 21.079 34.608 22.861 34.608H24.517V36.642C23.635 37.236 22.591 37.74 21.637 37.74C20.647 37.74 20.197 37.182 20.197 36.21Z" fill="black"/>
<path d="M34.8563 28.668C33.3263 28.668 31.8863 29.478 30.9503 30.144L30.7163 28.866H29.0063L29.4203 31.278V39H31.1123V31.368C32.0663 30.792 33.2903 30.18 34.2263 30.18C35.7743 30.18 36.1343 30.918 36.1343 32.502V39H37.8263V32.322C37.8263 29.712 36.8723 28.668 34.8563 28.668Z" fill="black"/>
<path d="M48.9607 36.732V24.312H47.2687V28.866C46.7107 28.776 45.8647 28.668 45.2887 28.668C42.5887 28.668 40.3567 30.81 40.3567 34.41C40.3567 37.902 42.4267 39.18 44.2627 39.18C45.5767 39.18 46.6027 38.604 47.4307 37.884L47.6287 39H49.3387L48.9607 36.732ZM42.1567 34.068C42.1567 31.17 43.3627 30.18 45.2527 30.18C45.9007 30.18 46.6747 30.306 47.2687 30.486V36.588C46.2067 37.272 45.5227 37.668 44.5867 37.668C43.0207 37.668 42.1567 36.516 42.1567 34.068Z" fill="black"/>
<path d="M65.4625 37.29C64.7605 37.488 64.0045 37.632 63.1225 37.632C60.1885 37.632 58.3345 35.832 58.3345 32.178C58.3345 29.028 60.3325 27.21 62.9785 27.21C64.4365 27.21 65.8945 27.552 67.2625 28.362V26.526C66.5785 26.256 65.3545 25.68 63.0865 25.68C58.8025 25.68 56.3725 28.812 56.3725 32.52C56.3725 36.66 58.6045 39.18 62.9065 39.18C64.6885 39.18 65.9845 38.73 67.3165 37.992V32.376H65.4625V37.29Z" fill="black"/>
<path d="M78.3886 36.552V28.866H76.6966V36.48C75.7606 37.056 74.7346 37.668 73.8166 37.668C72.2686 37.668 71.9086 36.93 71.9086 35.346V28.866H70.2166V35.526C70.2166 38.136 71.1706 39.18 73.1866 39.18C74.6986 39.18 75.9766 38.388 76.8586 37.722L77.1106 39H78.8206L78.3886 36.552Z" fill="black"/>
<path d="M83.0121 23.826C82.2921 23.826 81.7521 24.348 81.7521 25.05C81.7521 25.752 82.2921 26.292 83.0121 26.292C83.7141 26.292 84.2721 25.752 84.2721 25.05C84.2721 24.348 83.7141 23.826 83.0121 23.826ZM80.4921 28.866V30.378H82.1301V39H83.8221V28.866H80.4921Z" fill="black"/>
<path d="M95.033 36.732V24.312H93.341V28.866C92.783 28.776 91.937 28.668 91.361 28.668C88.661 28.668 86.429 30.81 86.429 34.41C86.429 37.902 88.499 39.18 90.335 39.18C91.649 39.18 92.675 38.604 93.503 37.884L93.701 39H95.411L95.033 36.732ZM88.229 34.068C88.229 31.17 89.435 30.18 91.325 30.18C91.973 30.18 92.747 30.306 93.341 30.486V36.588C92.279 37.272 91.595 37.668 90.659 37.668C89.093 37.668 88.229 36.516 88.229 34.068Z" fill="black"/>
<path d="M106.463 33.51C106.463 30.792 105.131 28.668 102.251 28.668C99.371 28.668 97.679 31.026 97.679 34.122C97.679 37.272 99.335 39.18 102.449 39.18C104.105 39.18 105.311 38.892 106.211 38.352V36.912C105.275 37.38 103.853 37.668 102.701 37.668C100.739 37.668 99.587 36.606 99.479 34.302H106.463V33.51ZM102.179 30.18C103.781 30.18 104.483 31.368 104.573 32.952H99.533C99.785 30.792 100.901 30.18 102.179 30.18Z" fill="black"/>
</svg>
