<svg width="106" height="44" viewBox="0 0 106 44" fill="none" xmlns="http://www.w3.org/2000/svg">
<path d="M31.2862 0.52002H29.7022V10.6H31.2862V7.10802H34.2562V5.66802H31.2862V0.52002ZM27.9742 8.83602L24.1222 6.64002C25.2922 5.34402 26.1382 3.81402 26.4442 2.05002H18.1102V3.49002H24.5002V3.54402C23.6182 5.68602 21.0622 7.97202 17.0662 9.21402L17.8762 10.528C19.8022 9.86202 21.5842 8.90802 23.0422 7.68402L27.1282 10.024L27.9742 8.83602ZM25.7602 10.888C22.1602 10.888 20.0542 12.202 20.0542 14.38C20.0542 16.576 22.1602 17.89 25.7602 17.89C29.3602 17.89 31.4662 16.576 31.4662 14.38C31.4662 12.202 29.3602 10.888 25.7602 10.888ZM29.2702 15.64C28.6222 16.144 27.4522 16.45 25.7602 16.45C24.0682 16.45 22.8802 16.144 22.2502 15.64C21.8902 15.316 21.7102 14.902 21.7102 14.38C21.7102 13.876 21.8902 13.444 22.2502 13.138C22.8982 12.652 24.0682 12.328 25.7602 12.328C27.4522 12.328 28.6222 12.652 29.2702 13.138C29.6302 13.444 29.8102 13.876 29.8102 14.38C29.8102 14.902 29.6302 15.316 29.2702 15.64Z" fill="black"/>
<path d="M49.2862 8.00802V0.52002H47.7022V17.8H49.2862V9.44802H52.2562V8.00802H49.2862ZM37.7302 7.01802V2.68002H36.1462V14.2H44.4262V2.68002H42.8422V7.01802H37.7302ZM37.7302 12.742V8.45802H42.8422V12.742H37.7302Z" fill="black"/>
<path d="M65.7382 9.03402C66.2422 6.87402 66.5842 4.55202 66.7102 1.70802H55.4422V3.20202H65.0182C64.9102 5.30802 64.6582 7.18002 64.2442 9.03402H52.8862V10.528H60.6262V17.89H62.2462V10.528H69.9862V9.03402H65.7382Z" fill="black"/>
<path d="M84.5662 10.564C81.3802 11.734 76.8442 12.418 74.2522 12.418V2.77002H72.5962V13.93C76.8622 13.93 81.4882 13.192 84.5662 11.968V17.8H86.1862V0.52002H84.5662V10.564Z" fill="black"/>
<path d="M9.09 37.29C8.388 37.488 7.632 37.632 6.75 37.632C3.816 37.632 1.962 35.832 1.962 32.178C1.962 29.028 3.96 27.21 6.606 27.21C8.064 27.21 9.522 27.552 10.89 28.362V26.526C10.206 26.256 8.982 25.68 6.714 25.68C2.43 25.68 0 28.812 0 32.52C0 36.66 2.232 39.18 6.534 39.18C8.316 39.18 9.612 38.73 10.944 37.992V32.376H9.09V37.29Z" fill="black"/>
<path d="M18.4341 28.668C17.4441 28.668 16.3281 29.352 15.4821 30.144L15.2481 28.866H13.5381L13.9521 31.278V39H15.6441V31.566C16.4001 30.972 17.3361 30.288 18.5781 30.288C18.8661 30.288 19.1541 30.306 19.4781 30.396V28.776C19.1181 28.686 18.7941 28.668 18.4341 28.668Z" fill="black"/>
<path d="M25.1363 39.18C27.9263 39.18 29.7443 36.696 29.7443 33.942C29.7443 30.342 28.2143 28.668 25.2263 28.668C22.5083 28.668 20.5463 31.17 20.5463 33.978C20.5463 37.596 22.3643 39.18 25.1363 39.18ZM25.2083 37.668C22.9763 37.668 22.3463 36.048 22.3463 33.906C22.3463 31.98 22.9043 30.18 25.1363 30.18C27.5843 30.18 27.9443 32.07 27.9443 33.978C27.9443 35.976 27.4043 37.668 25.2083 37.668Z" fill="black"/>
<path d="M36.4591 39.18C37.6291 39.18 38.6551 38.946 39.4291 38.478V37.038C38.5831 37.47 37.6651 37.668 36.8731 37.668C34.8211 37.668 33.5791 36.498 33.5791 33.96C33.5791 30.972 35.0191 30.18 36.6211 30.18C37.5391 30.18 38.4751 30.36 39.4291 30.99V29.19C38.6731 28.776 37.6651 28.668 36.6931 28.668C33.5431 28.668 31.7791 31.008 31.7791 34.086C31.7791 37.236 33.3451 39.18 36.4591 39.18Z" fill="black"/>
<path d="M50.1432 33.51C50.1432 30.792 48.8112 28.668 45.9312 28.668C43.0512 28.668 41.3592 31.026 41.3592 34.122C41.3592 37.272 43.0152 39.18 46.1292 39.18C47.7852 39.18 48.9912 38.892 49.8912 38.352V36.912C48.9552 37.38 47.5332 37.668 46.3812 37.668C44.4192 37.668 43.2672 36.606 43.1592 34.302H50.1432V33.51ZM45.8592 30.18C47.4612 30.18 48.1632 31.368 48.2532 32.952H43.2132C43.4652 30.792 44.5812 30.18 45.8592 30.18Z" fill="black"/>
<path d="M57.2642 28.668C56.2742 28.668 55.1582 29.352 54.3122 30.144L54.0782 28.866H52.3682L52.7822 31.278V39H54.4742V31.566C55.2302 30.972 56.1662 30.288 57.4082 30.288C57.6962 30.288 57.9842 30.306 58.3082 30.396V28.776C57.9482 28.686 57.6242 28.668 57.2642 28.668Z" fill="black"/>
<path d="M64.7156 34.752L63.9056 37.038H63.7796L63.0776 34.842L61.1876 28.866H59.2076L62.8076 39H63.0776L61.1516 43.59L61.2056 43.662H63.0056L64.7876 38.73L68.6396 28.866H66.7676L64.7156 34.752Z" fill="black"/>
<path d="M81.2319 31.998C82.4739 31.548 83.2839 30.576 83.2839 29.118C83.2839 26.976 81.5019 25.878 78.5319 25.878H75.1119V39H79.0899C82.5819 39 84.2019 37.452 84.2019 35.256C84.2019 32.862 82.2939 32.178 81.2319 32.052V31.998ZM78.3879 27.408C79.9539 27.408 81.3219 27.93 81.3219 29.55C81.3219 30.882 80.3319 31.512 78.2619 31.512H76.9479V27.408H78.3879ZM76.9479 37.47V33.042H78.0279C80.4939 33.042 82.2399 33.276 82.2399 35.112C82.2399 36.858 80.8539 37.47 78.9639 37.47H76.9479Z" fill="black"/>
<path d="M93.7974 36.732V31.656C93.7974 29.442 92.2494 28.668 90.3954 28.668C89.1534 28.668 87.4434 28.956 86.6334 29.316V30.828C87.4974 30.522 89.0274 30.18 90.1074 30.18C91.2234 30.18 92.1054 30.522 92.1054 32.052V33.276H90.7734C87.8574 33.276 86.0754 34.302 86.0754 36.336C86.0754 38.01 87.0294 39.18 88.9554 39.18C90.3774 39.18 91.5474 38.46 92.2674 37.902L92.4654 39H94.1754L93.7974 36.732ZM87.7854 36.21C87.7854 35.058 88.6674 34.608 90.4494 34.608H92.1054V36.642C91.2234 37.236 90.1794 37.74 89.2254 37.74C88.2354 37.74 87.7854 37.182 87.7854 36.21Z" fill="black"/>
<path d="M102.715 29.19C102.103 28.848 101.329 28.668 100.429 28.668C98.0527 28.668 96.5588 30.54 96.5588 32.088C96.5588 33.51 97.2607 34.446 98.4488 34.914L96.7747 36.588V37.902L98.0707 38.046C96.9548 38.694 95.9648 39.594 95.9648 40.782C95.9648 42.6 97.5848 43.806 100.213 43.806C103.345 43.806 105.271 41.79 105.271 39.738C105.271 38.226 104.443 37.128 101.725 36.822L98.5028 36.462L99.6547 35.22C99.9067 35.238 100.159 35.256 100.429 35.256C102.499 35.256 104.173 33.51 104.173 31.962C104.173 31.26 104.029 30.684 103.741 30.198H105.685V28.812L102.715 29.19ZM100.429 33.96C99.2227 33.96 98.3047 33.276 98.3047 31.926C98.3047 30.756 99.0427 30.036 100.303 30.036C101.635 30.036 102.445 30.792 102.445 31.998C102.445 33.15 101.599 33.96 100.429 33.96ZM103.615 40.08C103.615 41.232 102.391 42.402 100.465 42.402C98.4308 42.402 97.6208 41.466 97.6208 40.53C97.6208 39.702 98.4487 38.856 99.6367 38.226L101.023 38.388C103.201 38.658 103.615 39.126 103.615 40.08Z" fill="black"/>
</svg>
