<svg width="171" height="44" viewBox="0 0 171 44" fill="none" xmlns="http://www.w3.org/2000/svg">
<path d="M39.7024 17.8V0.52002H38.0824V17.8H39.7024ZM30.0724 14.596C32.8624 14.596 34.6624 12.418 34.6624 8.56602C34.6624 4.73202 32.8624 2.55402 30.0724 2.55402C27.2824 2.55402 25.4824 4.73202 25.4824 8.56602C25.4824 12.418 27.2824 14.596 30.0724 14.596ZM30.0724 13.084C28.2364 13.084 27.1384 11.536 27.1384 8.56602C27.1384 5.61402 28.2364 4.06602 30.0724 4.06602C31.9084 4.06602 33.0064 5.61402 33.0064 8.56602C33.0064 11.536 31.9084 13.084 30.0724 13.084Z" fill="black"/>
<path d="M48.9682 8.78202C51.2362 8.44002 53.6662 7.77402 55.7542 6.78402L62.3062 8.69202L62.9902 7.39602L57.4102 5.86602C59.2282 4.71402 60.5602 3.25602 60.9562 1.51002H50.0302V2.96802H58.5262V3.04002C56.8882 5.00202 52.9822 6.67602 48.2662 7.30602L48.9682 8.78202ZM47.0782 10.204V11.68H54.8182V17.89H56.4382V11.68H64.1782V10.204H47.0782Z" fill="black"/>
<path d="M80.3782 17.8V0.52002H78.7942V17.8H80.3782ZM71.3782 10.726C74.0422 10.726 75.8782 9.17802 75.8782 6.58602C75.8782 4.01202 74.0422 2.46402 71.3782 2.46402C68.7142 2.46402 66.8782 4.01202 66.8782 6.58602C66.8782 9.17802 68.7142 10.726 71.3782 10.726ZM71.3782 9.30402C69.7042 9.30402 68.4982 8.36802 68.4982 6.58602C68.4982 4.82202 69.7042 3.88602 71.3782 3.88602C73.0522 3.88602 74.2582 4.82202 74.2582 6.58602C74.2582 8.36802 73.0522 9.30402 71.3782 9.30402ZM65.3482 15.064C70.6402 15.064 74.6002 14.722 78.0382 13.948L77.8222 12.544C74.4022 13.318 70.5682 13.57 65.1682 13.57L65.3482 15.064Z" fill="black"/>
<path d="M101.92 7.82802H99.004V1.24002H97.438V17.17H99.004V9.25002H101.92V17.782H103.504V0.52002H101.92V7.82802ZM89.428 2.05002V3.50802H94.882V2.05002H89.428ZM88.456 5.63202V7.07202H93.694V7.12602C92.812 9.52002 90.724 11.896 87.754 13.462L88.744 14.722C90.238 13.84 91.606 12.742 92.74 11.41L95.53 14.614L96.538 13.516L93.604 10.276C94.54 8.92602 95.242 7.37802 95.602 5.63202H88.456Z" fill="black"/>
<path d="M120.982 10.51L121.918 9.21402L114.844 4.49802C115.294 3.77802 115.654 3.00402 115.942 2.17602L114.322 1.78002C113.08 5.23602 109.876 7.79202 106.42 9.23202L107.284 10.672C109.732 9.55602 112.18 7.93602 113.944 5.75802L120.982 10.51ZM115.114 9.34002H113.494V14.254H105.754V15.748H122.854V14.254H115.114V9.34002Z" fill="black"/>
<path d="M138.154 5.30802V0.52002H136.57V6.62202C133.906 7.52202 129.46 8.04402 126.67 8.04402L126.634 3.50802H133.546V2.05002H125.014V9.52002C129.424 9.52002 133.996 8.92602 136.57 7.97202V10.15H138.154V6.74802H141.124V5.30802H138.154ZM138.154 17.62V11.05H127.354V17.62H138.154ZM136.57 12.454V16.198H128.92V12.454H136.57Z" fill="black"/>
<path d="M17.0839 25.878L14.8159 33.132L13.6999 36.606H13.5919L12.6199 33.042L10.6759 25.878H8.55188L6.31988 33.132L5.23988 36.66H5.13188L4.23188 33.06L2.41388 25.878H0.379883L4.06988 39H6.12188L8.33588 32.052L9.43388 28.578H9.55988L10.5319 32.07L12.4399 39H14.4559L18.9559 25.878H17.0839Z" fill="black"/>
<path d="M28.471 33.51C28.471 30.792 27.139 28.668 24.259 28.668C21.379 28.668 19.687 31.026 19.687 34.122C19.687 37.272 21.343 39.18 24.457 39.18C26.113 39.18 27.319 38.892 28.219 38.352V36.912C27.283 37.38 25.861 37.668 24.709 37.668C22.747 37.668 21.595 36.606 21.487 34.302H28.471V33.51ZM24.187 30.18C25.789 30.18 26.491 31.368 26.581 32.952H21.541C21.793 30.792 22.909 30.18 24.187 30.18Z" fill="black"/>
<path d="M39.264 33.51C39.264 30.792 37.932 28.668 35.052 28.668C32.172 28.668 30.48 31.026 30.48 34.122C30.48 37.272 32.136 39.18 35.25 39.18C36.906 39.18 38.112 38.892 39.012 38.352V36.912C38.076 37.38 36.654 37.668 35.502 37.668C33.54 37.668 32.388 36.606 32.28 34.302H39.264V33.51ZM34.98 30.18C36.582 30.18 37.284 31.368 37.374 32.952H32.334C32.586 30.792 33.702 30.18 34.98 30.18Z" fill="black"/>
<path d="M43.5589 39V24.312H41.8669V39H43.5589ZM49.9669 39L46.0249 33.222L50.1289 28.866H48.0769L44.2069 33.132V33.6L47.8429 39H49.9669Z" fill="black"/>
<path d="M53.8447 39V24.312H52.1527V39H53.8447Z" fill="black"/>
<path d="M61.6059 34.752L60.7959 37.038H60.6699L59.9679 34.842L58.0779 28.866H56.0979L59.6979 39H59.9679L58.0419 43.59L58.0959 43.662H59.8959L61.6779 38.73L65.5299 28.866H63.6579L61.6059 34.752Z" fill="black"/>
<path d="M79.9042 25.878H72.0022V39H73.8382V33.6H78.8602V32.07H73.8382V27.408H79.9042V25.878Z" fill="black"/>
<path d="M86.5685 28.668C85.5785 28.668 84.4625 29.352 83.6165 30.144L83.3825 28.866H81.6725L82.0865 31.278V39H83.7785V31.566C84.5345 30.972 85.4705 30.288 86.7125 30.288C87.0005 30.288 87.2885 30.306 87.6125 30.396V28.776C87.2525 28.686 86.9285 28.668 86.5685 28.668Z" fill="black"/>
<path d="M97.674 36.552V28.866H95.982V36.48C95.046 37.056 94.02 37.668 93.102 37.668C91.554 37.668 91.194 36.93 91.194 35.346V28.866H89.502V35.526C89.502 38.136 90.456 39.18 92.472 39.18C93.984 39.18 95.262 38.388 96.144 37.722L96.396 39H98.106L97.674 36.552Z" fill="black"/>
<path d="M102.297 23.826C101.577 23.826 101.037 24.348 101.037 25.05C101.037 25.752 101.577 26.292 102.297 26.292C102.999 26.292 103.557 25.752 103.557 25.05C103.557 24.348 102.999 23.826 102.297 23.826ZM99.7774 28.866V30.378H101.415V39H103.107V28.866H99.7774Z" fill="black"/>
<path d="M110.466 37.668C109.386 37.668 108.648 37.38 108.63 36.012V30.378H111.996V28.866H108.63V26.22H106.938V28.866H105.246V30.378H106.938V36.21C106.938 38.37 108.288 39.18 109.836 39.18C110.79 39.18 111.654 39.018 112.194 38.712V37.326C111.726 37.488 111.06 37.668 110.466 37.668Z" fill="black"/>
<path d="M128.792 36.48C130.214 34.824 131.15 32.772 131.69 30.99H129.8C129.368 32.592 128.63 34.266 127.55 35.598C126.794 35.04 125.984 34.464 125.156 33.834C124.58 33.402 124.004 32.97 123.464 32.52C125.336 31.728 127.028 30.45 127.028 28.65C127.028 27.066 125.822 25.302 123.248 25.302C120.512 25.302 119.018 27.192 119.018 29.064C119.018 30.072 119.558 30.99 120.422 31.926C118.676 32.934 117.848 34.212 117.848 35.886C117.848 38.046 119.738 39.558 122.474 39.558C124.562 39.558 126.254 38.802 127.604 37.668C128.558 38.352 129.458 38.946 130.196 39.378H132.608V39C131.546 38.352 130.25 37.506 128.792 36.48ZM123.086 26.742C124.364 26.742 125.21 27.534 125.21 28.776C125.21 30.054 124.076 30.918 122.51 31.674C121.502 30.738 120.782 29.784 120.782 28.884C120.782 27.48 121.592 26.742 123.086 26.742ZM122.744 38.082C120.638 38.082 119.594 36.822 119.594 35.436C119.594 34.59 120.206 33.51 121.34 32.808C121.934 33.348 122.618 33.888 123.32 34.464C124.31 35.256 125.354 36.048 126.362 36.786C125.372 37.578 124.166 38.082 122.744 38.082Z" fill="black"/>
<path d="M147.507 25.878L144.609 33.582L143.439 36.66H143.349L142.233 33.492L139.605 25.878H137.625L142.395 39H144.015L149.433 25.878H147.507Z" fill="black"/>
<path d="M158.69 33.51C158.69 30.792 157.358 28.668 154.478 28.668C151.598 28.668 149.906 31.026 149.906 34.122C149.906 37.272 151.562 39.18 154.676 39.18C156.332 39.18 157.538 38.892 158.438 38.352V36.912C157.502 37.38 156.08 37.668 154.928 37.668C152.966 37.668 151.814 36.606 151.706 34.302H158.69V33.51ZM154.406 30.18C156.008 30.18 156.71 31.368 156.8 32.952H151.76C152.012 30.792 153.128 30.18 154.406 30.18Z" fill="black"/>
<path d="M167.035 29.19C166.423 28.848 165.649 28.668 164.749 28.668C162.373 28.668 160.879 30.54 160.879 32.088C160.879 33.51 161.581 34.446 162.769 34.914L161.095 36.588V37.902L162.391 38.046C161.275 38.694 160.285 39.594 160.285 40.782C160.285 42.6 161.905 43.806 164.533 43.806C167.665 43.806 169.591 41.79 169.591 39.738C169.591 38.226 168.763 37.128 166.045 36.822L162.823 36.462L163.975 35.22C164.227 35.238 164.479 35.256 164.749 35.256C166.819 35.256 168.493 33.51 168.493 31.962C168.493 31.26 168.349 30.684 168.061 30.198H170.005V28.812L167.035 29.19ZM164.749 33.96C163.543 33.96 162.625 33.276 162.625 31.926C162.625 30.756 163.363 30.036 164.623 30.036C165.955 30.036 166.765 30.792 166.765 31.998C166.765 33.15 165.919 33.96 164.749 33.96ZM167.935 40.08C167.935 41.232 166.711 42.402 164.785 42.402C162.751 42.402 161.941 41.466 161.941 40.53C161.941 39.702 162.769 38.856 163.957 38.226L165.343 38.388C167.521 38.658 167.935 39.126 167.935 40.08Z" fill="black"/>
</svg>
