<svg width="831" height="125" viewBox="0 0 831 125" fill="none" xmlns="http://www.w3.org/2000/svg">
<path d="M74.85 13.008V5.52002H73.266V16.77C70.35 17.616 66.696 18.084 63.402 18.084V14.196H69.828V7.95002H61.53V9.42602H68.244V12.792H61.782V19.542C66.516 19.542 70.404 19.02 73.266 18.156V22.8H74.85V14.448H77.82V13.008H74.85Z" fill="black"/>
<path d="M92.616 5.52002V14.61H94.2V5.52002H92.616ZM88.4939 11.208V14.61H90.0599V5.97002H88.4939V9.76802H86.28V6.87002H84.804V9.31802H81.024V6.87002H79.53V14.16H86.28V11.208H88.4939ZM81.024 12.828V10.632H84.804V12.828H81.024ZM84.804 19.758H94.2V15.51H82.734V16.878H92.58V18.444H83.202V22.8H94.92V21.432H84.804V19.758Z" fill="black"/>
<path d="M105 11.622C108.582 11.622 110.76 10.614 110.76 8.70602C110.76 6.79802 108.582 5.79002 105 5.79002C101.418 5.79002 99.24 6.79802 99.24 8.70602C99.24 10.614 101.418 11.622 105 11.622ZM105 10.182C103.272 10.182 101.994 9.94802 101.364 9.55202C101.04 9.33602 100.896 9.04802 100.896 8.70602C100.896 8.36402 101.022 8.07602 101.364 7.86002C101.994 7.48202 103.272 7.23002 105 7.23002C106.728 7.23002 107.988 7.48202 108.636 7.86002C108.978 8.07602 109.104 8.36402 109.104 8.70602C109.104 9.04802 108.96 9.33602 108.636 9.55202C108.006 9.94802 106.728 10.182 105 10.182ZM113.55 14.232V12.774H96.45V14.232H113.55ZM111.444 22.71V21.342H101.202V19.812H110.364V15.69H99.276V17.04H108.744V18.498H99.5999V22.71H111.444Z" fill="black"/>
<path d="M132.806 22.8H134.426V5.52002H132.806V22.8ZM128.09 9.60602V9.66002C127.874 10.614 127.568 11.514 127.172 12.36L120.116 12.666L120.188 14.178L126.326 13.8C124.922 15.87 122.78 17.526 119.756 18.678L120.728 20.1C125.858 17.832 129.26 14.178 129.926 8.13002H120.89V9.60602H128.09Z" fill="black"/>
<path d="M146.486 15.546C149.762 15.312 151.706 13.638 151.706 11.262C151.706 8.70602 149.438 6.96002 145.676 6.96002C141.932 6.96002 139.646 8.70602 139.646 11.262C139.646 13.638 141.608 15.312 144.866 15.546V19.254H137.126V20.748H154.226V19.254H146.486V15.546ZM141.878 12.9C141.5 12.432 141.302 11.892 141.302 11.262C141.302 10.65 141.482 10.092 141.878 9.64202C142.544 8.85002 143.858 8.40002 145.676 8.40002C147.494 8.40002 148.772 8.86802 149.474 9.64202C149.87 10.092 150.05 10.65 150.05 11.262C150.05 11.892 149.852 12.432 149.474 12.9C148.808 13.692 147.494 14.142 145.676 14.142C143.858 14.142 142.544 13.692 141.878 12.9Z" fill="black"/>
<path d="M170.336 16.05L171.29 14.754L164.144 9.84002C164.612 9.06602 165.008 8.23802 165.296 7.33802L163.694 6.96002C162.434 10.578 159.212 13.26 155.792 14.772L156.674 16.194C159.086 15.024 161.516 13.332 163.262 11.118L170.336 16.05ZM155.126 20.748H172.226V19.254H155.126V20.748Z" fill="black"/>
<path d="M175.268 14.034L185.6 13.422C185.456 14.736 185.276 16.032 185.006 17.274L186.644 17.364C187.13 14.664 187.436 11.55 187.508 7.50002H175.646V8.97602H185.852C185.834 9.98402 185.798 11.01 185.726 12.036L175.16 12.522L175.268 14.034ZM173.126 20.748H190.226V19.254H173.126V20.748Z" fill="black"/>
<path d="M200.486 16.14H206.228V14.718H195.68V12.306H205.166V7.14002H193.916V8.56202H203.564V10.866H194.078V16.14H198.866V19.254H191.126V20.748H208.226V19.254H200.486V16.14Z" fill="black"/>
<path d="M228.202 13.188V5.52002H226.618V22.8H228.202V14.628H231.172V13.188H228.202ZM221.848 9.71402V9.76802C221.128 13.098 218.554 16.644 214.162 18.678L215.26 20.046C219.652 17.922 223.126 13.764 223.738 8.22002H215.098V9.71402H221.848Z" fill="black"/>
<path d="M245.482 10.506H241.702V11.91H245.482V14.376H241.702V15.78H245.482V22.8H247.102V5.52002H245.482V10.506ZM233.08 8.13002V9.60602H239.488V9.66002C238.714 12.792 235.87 16.32 232.072 18.408L233.062 19.722C234.934 18.606 236.698 17.166 238.12 15.42L241.882 19.416L242.89 18.174L239.02 14.214C240.226 12.432 241.09 10.398 241.396 8.13002H233.08Z" fill="black"/>
<path d="M264.202 13.188V5.52002H262.618V22.8H264.202V14.628H267.172V13.188H264.202ZM257.848 9.71402V9.76802C257.128 13.098 254.554 16.644 250.162 18.678L251.26 20.046C255.652 17.922 259.126 13.764 259.738 8.22002H251.098V9.71402H257.848Z" fill="black"/>
<path d="M286.643 22.782H288.227V5.52002H286.643V22.782ZM279.947 10.956C280.127 10.164 280.253 9.35402 280.325 8.49002H273.449V9.94802H278.507V10.002C278.075 13.044 276.293 16.428 272.657 18.642L273.845 19.938C276.491 18.21 278.507 15.618 279.551 12.342H282.539V15.456H279.497V16.842H282.539V22.17H284.087V6.24002H282.539V10.956H279.947Z" fill="black"/>
<path d="M304.877 5.52002H303.293V18.48H304.877V12.738H307.847V11.298H304.877V5.52002ZM301.367 14.538L296.363 10.614C296.813 9.42602 297.137 8.13002 297.281 6.74402L295.589 6.61802C295.265 10.488 293.231 13.602 290.567 15.456L291.755 16.716C293.357 15.492 294.725 13.926 295.715 12.036L300.449 15.762L301.367 14.538ZM294.257 16.77V22.53H305.597V21.054H295.877V16.77H294.257Z" fill="black"/>
<path d="M322.877 11.478V5.52002H321.293V15.42H322.877V12.918H325.847V11.478H322.877ZM310.727 5.88002V7.19402H317.603V5.88002H310.727ZM308.657 8.52602V9.89402H319.277V8.52602H308.657ZM318.107 13.35C318.107 11.856 316.577 10.884 314.147 10.884C311.735 10.884 310.205 11.856 310.205 13.35C310.205 14.844 311.735 15.816 314.147 15.816C316.577 15.816 318.107 14.844 318.107 13.35ZM311.717 13.35C311.717 12.594 312.617 12.108 314.147 12.108C315.695 12.108 316.595 12.594 316.595 13.35C316.595 14.106 315.695 14.592 314.147 14.592C312.617 14.592 311.717 14.106 311.717 13.35ZM313.679 18.156V16.59H312.077V22.71H322.877V16.41H321.275V18.156H313.679ZM313.679 21.288V19.488H321.275V21.288H313.679Z" fill="black"/>
<path d="M340.157 15.564C336.971 16.734 332.435 17.418 329.843 17.418V7.77002H328.187V18.93C332.453 18.93 337.079 18.192 340.157 16.968V22.8H341.777V5.52002H340.157V15.564Z" fill="black"/>
<path d="M358.877 13.188V5.52002H357.293V16.122C354.485 17.076 350.255 17.616 347.483 17.616L347.447 9.42602H354.359V7.95002H345.827V19.11C350.219 19.11 354.575 18.534 357.293 17.526V22.8H358.877V14.628H361.847V13.188H358.877Z" fill="black"/>
<path d="M365.627 21C366.401 21 367.067 20.352 367.067 19.578C367.067 18.786 366.401 18.12 365.627 18.12C364.835 18.12 364.187 18.786 364.187 19.578C364.187 20.352 364.835 21 365.627 21Z" fill="black"/>
<path d="M74.616 43.828H71.7V37.24H70.134V53.17H71.7V45.25H74.616V53.782H76.2V36.52H74.616V43.828ZM62.124 38.05V39.508H67.578V38.05H62.124ZM61.152 41.632V43.072H66.39V43.126C65.508 45.52 63.42 47.896 60.45 49.462L61.44 50.722C62.934 49.84 64.302 48.742 65.436 47.41L68.226 50.614L69.234 49.516L66.3 46.276C67.236 44.926 67.938 43.378 68.298 41.632H61.152Z" fill="black"/>
<path d="M93.678 46.51L94.614 45.214L87.54 40.498C87.99 39.778 88.35 39.004 88.638 38.176L87.018 37.78C85.776 41.236 82.5719 43.792 79.1159 45.232L79.9799 46.672C82.4279 45.556 84.8759 43.936 86.6399 41.758L93.678 46.51ZM87.8099 45.34H86.19V50.254H78.45V51.748H95.5499V50.254H87.8099V45.34Z" fill="black"/>
<path d="M110.85 41.308V36.52H109.266V42.622C106.602 43.522 102.156 44.044 99.366 44.044L99.33 39.508H106.242V38.05H97.7099V45.52C102.12 45.52 106.692 44.926 109.266 43.972V46.15H110.85V42.748H113.82V41.308H110.85ZM110.85 53.62V47.05H100.05V53.62H110.85ZM109.266 48.454V52.198H101.616V48.454H109.266Z" fill="black"/>
<path d="M123 43.972C126.582 43.972 128.76 42.676 128.76 40.516C128.76 38.356 126.582 37.06 123 37.06C119.418 37.06 117.24 38.356 117.24 40.516C117.24 42.676 119.418 43.972 123 43.972ZM123 42.532C121.29 42.532 120.012 42.208 119.382 41.65C119.058 41.362 118.896 40.966 118.896 40.516C118.896 40.048 119.04 39.67 119.382 39.382C120.03 38.824 121.29 38.5 123 38.5C124.71 38.5 125.952 38.824 126.618 39.382C126.96 39.67 127.104 40.048 127.104 40.516C127.104 40.966 126.942 41.362 126.618 41.65C125.97 42.208 124.71 42.532 123 42.532ZM131.55 46.888V45.394H114.45V46.888H131.55ZM129.03 53.53V52.054H119.31V48.13H117.69V53.53H129.03Z" fill="black"/>
<path d="M150.806 43.72V45.61H152.426V36.52H150.806V39.076H146.846V37.69H145.316V40.246H140.204V37.69H138.656V45.25H146.846V43.72H150.806ZM150.806 42.316H146.846V40.48H150.806V42.316ZM140.204 43.918V41.578H145.316V43.918H140.204ZM143.102 50.758H152.426V46.51H141.05V47.878H150.806V49.444H141.5V53.8H153.146V52.432H143.102V50.758Z" fill="black"/>
<path d="M164.486 46.348H169.814V44.908H159.752V39.778H169.436V38.338H158.132V46.348H162.866V50.254H155.126V51.748H172.226V50.254H164.486V46.348Z" fill="black"/>
<path d="M188.426 53.8V36.52H186.842V53.8H188.426ZM179.426 46.726C182.09 46.726 183.926 45.178 183.926 42.586C183.926 40.012 182.09 38.464 179.426 38.464C176.762 38.464 174.926 40.012 174.926 42.586C174.926 45.178 176.762 46.726 179.426 46.726ZM179.426 45.304C177.752 45.304 176.546 44.368 176.546 42.586C176.546 40.822 177.752 39.886 179.426 39.886C181.1 39.886 182.306 40.822 182.306 42.586C182.306 44.368 181.1 45.304 179.426 45.304ZM173.396 51.064C178.688 51.064 182.648 50.722 186.086 49.948L185.87 48.544C182.45 49.318 178.616 49.57 173.216 49.57L173.396 51.064Z" fill="black"/>
<path d="M208.96 45.304C209.59 43.036 209.95 39.814 210.022 37.42H198.646V38.842H208.366C208.366 39.436 208.312 40.282 208.222 41.2L198.16 41.524L198.232 43L208.078 42.55C207.952 43.504 207.808 44.476 207.61 45.304H195.802V46.798H212.902V45.304H208.96ZM199.042 48.13V53.53H210.382V52.054H200.662V48.13H199.042Z" fill="black"/>
<path d="M227.837 43.36H232.427V36.97H230.807V38.878H223.247V36.97H221.627V43.36H226.217V45.124H218.477V46.6H235.577V45.124H227.837V43.36ZM230.807 40.282V41.956H223.247V40.282H230.807ZM227.027 47.788C223.427 47.788 221.321 48.868 221.321 50.848C221.321 52.81 223.427 53.89 227.027 53.89C230.627 53.89 232.733 52.81 232.733 50.848C232.733 48.868 230.627 47.788 227.027 47.788ZM230.555 51.838C229.925 52.198 228.737 52.45 227.027 52.45C225.317 52.45 224.129 52.216 223.499 51.838C223.139 51.586 222.977 51.244 222.977 50.848C222.977 50.434 223.139 50.074 223.499 49.84C224.129 49.462 225.317 49.228 227.027 49.228C228.737 49.228 229.925 49.48 230.555 49.84C230.915 50.074 231.077 50.434 231.077 50.848C231.077 51.244 230.915 51.586 230.555 51.838Z" fill="black"/>
<path d="M241.085 43.594V41.848H250.319V40.498H241.085V38.806H250.697V37.42H239.501V44.98H251.219V43.594H241.085ZM236.477 46.834V48.31H244.217V53.89H245.837V48.31H253.577V46.834H236.477Z" fill="black"/>
<path d="M269.219 43.36V42.028H259.139V40.822H268.391V37.06H257.357V38.41H266.843V39.508H257.573V43.36H269.219ZM271.577 46.006V44.584H254.477V46.006H271.577ZM269.471 53.71V52.36H259.247V51.064H268.391V47.23H257.285V48.562H266.771V49.786H257.645V53.71H269.471Z" fill="black"/>
<path d="M291.553 36.52H289.969V44.386C288.727 44.728 287.323 45.016 285.721 45.232L286.117 40.858L284.479 40.75L284.137 45.412C283.273 45.502 282.355 45.556 281.365 45.61L281.005 40.75L279.367 40.858L279.817 45.664C279.025 45.682 278.197 45.7 277.333 45.7L277.513 47.14C283.075 47.14 287.071 46.618 289.969 45.718V49.48H291.553V44.098H294.523V42.658H291.553V36.52ZM277.693 38.41V39.85H287.701V38.41H277.693ZM280.933 48.22V53.53H292.273V52.072H282.553V48.22H280.933Z" fill="black"/>
<path d="M309.319 43.738H306.493V37.24H304.927V53.17H306.493V45.16H309.319V53.782H310.903V36.52H309.319V43.738ZM302.893 50.29V39.13H296.143V50.29H302.893ZM301.345 40.588V48.832H297.691V40.588H301.345Z" fill="black"/>
<path d="M327.553 44.008V36.52H325.969V53.8H327.553V45.448H330.523V44.008H327.553ZM315.439 37.78V39.22H322.351V37.78H315.439ZM324.043 42.784V41.308H313.333V42.784H324.043ZM318.877 44.314C316.483 44.314 314.899 45.79 314.899 47.77C314.899 49.75 316.483 51.226 318.877 51.226C321.271 51.226 322.837 49.75 322.837 47.77C322.837 45.79 321.271 44.314 318.877 44.314ZM318.877 49.786C317.365 49.786 316.519 49.03 316.519 47.77C316.519 46.528 317.365 45.754 318.877 45.754C320.389 45.754 321.235 46.528 321.235 47.77C321.235 49.03 320.389 49.786 318.877 49.786Z" fill="black"/>
<path d="M344.833 53.8H346.453V36.52H344.833V53.8ZM332.467 39.13V40.606H339.307V40.66C338.479 43.828 335.401 47.356 331.423 49.372L332.377 50.722C334.375 49.624 336.265 48.166 337.777 46.42L341.881 50.434L342.871 49.174L338.713 45.25C340.009 43.45 340.927 41.398 341.233 39.13H332.467Z" fill="black"/>
<path d="M368.229 36.52H366.645V45.79H368.229V42.748H371.199V41.308H368.229V36.52ZM363.369 41.686C363.369 39.148 361.551 37.744 358.959 37.744C356.367 37.744 354.549 39.148 354.549 41.686C354.549 44.242 356.367 45.646 358.959 45.646C361.551 45.646 363.369 44.242 363.369 41.686ZM356.169 41.686C356.169 39.94 357.357 39.148 358.959 39.148C360.561 39.148 361.749 39.94 361.749 41.686C361.749 43.432 360.561 44.242 358.959 44.242C357.357 44.242 356.169 43.432 356.169 41.686ZM368.067 46.69H362.739V47.878H368.067V46.69ZM358.059 47.464H356.529V53.53C358.383 53.53 360.039 53.44 361.587 53.188L361.443 51.82C360.291 52.018 359.121 52.126 358.059 52.144V47.464ZM369.489 49.858V48.598H361.119V49.858H369.489ZM365.457 50.416C363.513 50.416 362.253 51.064 362.253 52.234C362.253 53.422 363.513 54.07 365.457 54.07C367.455 54.07 368.625 53.422 368.625 52.234C368.625 51.064 367.455 50.416 365.457 50.416ZM365.457 52.918C364.395 52.918 363.639 52.72 363.639 52.198C363.639 51.712 364.395 51.496 365.457 51.496C366.537 51.496 367.257 51.712 367.257 52.198C367.257 52.72 366.537 52.918 365.457 52.918Z" fill="black"/>
<path d="M380.379 47.032C384.123 47.032 386.409 45.232 386.409 42.622C386.409 40.03 384.123 38.23 380.379 38.23C376.635 38.23 374.349 40.03 374.349 42.622C374.349 45.232 376.635 47.032 380.379 47.032ZM380.379 45.592C378.561 45.592 377.247 45.124 376.581 44.296C376.203 43.828 376.005 43.27 376.005 42.622C376.005 41.992 376.185 41.416 376.581 40.966C377.247 40.138 378.561 39.67 380.379 39.67C382.197 39.67 383.475 40.156 384.177 40.966C384.573 41.416 384.753 41.992 384.753 42.622C384.753 43.27 384.555 43.828 384.177 44.296C383.511 45.124 382.197 45.592 380.379 45.592ZM388.929 51.748V50.254H371.829V51.748H388.929Z" fill="black"/>
<path d="M403.509 46.564C400.323 47.734 395.787 48.418 393.195 48.418V38.77H391.539V49.93C395.805 49.93 400.431 49.192 403.509 47.968V53.8H405.129V36.52H403.509V46.564Z" fill="black"/>
<path d="M409.737 56.158C411.537 54.898 412.563 52.504 412.563 50.542C412.563 49.12 411.789 48.382 410.889 48.382C409.989 48.382 409.431 49.048 409.341 49.804C410.151 49.876 410.925 50.524 410.925 51.55C410.925 52.9 410.313 54.322 408.819 55.474L409.737 56.158Z" fill="black"/>
<path d="M434.112 36.52H432.528V45.79H434.112V42.748H437.082V41.308H434.112V36.52ZM420.882 38.05V45.34H428.982V38.05H420.882ZM422.466 44.026V39.382H427.398V44.026H422.466ZM433.95 47.878V46.69H428.622V47.878H433.95ZM423.942 47.464H422.412V53.53C424.266 53.53 425.922 53.44 427.47 53.188L427.326 51.82C426.174 52.018 425.004 52.126 423.942 52.144V47.464ZM435.372 49.858V48.598H427.002V49.858H435.372ZM431.34 50.416C429.396 50.416 428.136 51.064 428.136 52.234C428.136 53.422 429.396 54.07 431.34 54.07C433.338 54.07 434.508 53.422 434.508 52.234C434.508 51.064 433.338 50.416 431.34 50.416ZM431.34 52.918C430.278 52.918 429.522 52.72 429.522 52.198C429.522 51.712 430.278 51.496 431.34 51.496C432.42 51.496 433.14 51.712 433.14 52.198C433.14 52.72 432.42 52.918 431.34 52.918Z" fill="black"/>
<path d="M453.012 53.8V36.52H451.392V53.8H453.012ZM443.382 50.596C446.172 50.596 447.972 48.418 447.972 44.566C447.972 40.732 446.172 38.554 443.382 38.554C440.592 38.554 438.792 40.732 438.792 44.566C438.792 48.418 440.592 50.596 443.382 50.596ZM443.382 49.084C441.546 49.084 440.448 47.536 440.448 44.566C440.448 41.614 441.546 40.066 443.382 40.066C445.218 40.066 446.316 41.614 446.316 44.566C446.316 47.536 445.218 49.084 443.382 49.084Z" fill="black"/>
<path d="M474.787 41.308V36.52H473.203V42.622C470.539 43.522 466.093 44.044 463.303 44.044L463.267 39.508H470.179V38.05H461.647V45.52C466.057 45.52 470.629 44.926 473.203 43.972V46.15H474.787V42.748H477.757V41.308H474.787ZM474.787 53.62V47.05H463.987V53.62H474.787ZM473.203 48.454V52.198H465.553V48.454H473.203Z" fill="black"/>
<path d="M492.787 44.008V36.52H491.203V53.8H492.787V45.448H495.757V44.008H492.787ZM483.751 38.554C481.033 38.554 479.287 40.714 479.287 44.566C479.287 48.436 481.033 50.596 483.751 50.596C486.451 50.596 488.197 48.436 488.197 44.566C488.197 40.714 486.451 38.554 483.751 38.554ZM483.751 49.084C481.987 49.084 480.925 47.554 480.925 44.566C480.925 41.596 481.987 40.066 483.751 40.066C485.497 40.066 486.559 41.596 486.559 44.566C486.559 47.554 485.497 49.084 483.751 49.084Z" fill="black"/>
<path d="M515.463 44.188V36.52H513.879V53.8H515.463V45.628H518.433V44.188H515.463ZM509.109 40.714V40.768C508.389 44.098 505.815 47.644 501.423 49.678L502.521 51.046C506.913 48.922 510.387 44.764 510.999 39.22H502.359V40.714H509.109Z" fill="black"/>
<path d="M533.409 43.378V41.902H523.869V37.15H522.249V43.378H533.409ZM536.163 46.906V45.412H519.063V46.906H536.163ZM533.571 53.53V52.054H524.013V48.31H522.393V53.53H533.571Z" fill="black"/>
<path d="M556.139 36.52H554.555V41.884C551.423 42.856 547.139 43.378 544.745 43.378V37.87H543.089V44.89C547.157 44.89 551.549 44.314 554.555 43.324V45.43H556.139V42.388H559.109V40.948H556.139V36.52ZM556.139 50.686V46.33H544.835V47.698H554.519V49.336H545.285V53.8H556.859V52.432H546.905V50.686H556.139Z" fill="black"/>
<path d="M573.905 53.782H575.489V36.52H573.905V53.782ZM567.713 43.828C567.515 40.588 566.111 38.914 564.023 38.914C561.737 38.914 560.279 40.894 560.279 44.71C560.279 48.526 561.737 50.506 564.023 50.506C566.183 50.506 567.605 48.724 567.731 45.268H569.783V53.17H571.349V37.24H569.783V43.828H567.713ZM564.023 48.994C562.709 48.994 561.899 47.662 561.899 44.71C561.899 41.758 562.709 40.426 564.023 40.426C565.319 40.426 566.129 41.758 566.129 44.71C566.129 47.662 565.319 48.994 564.023 48.994Z" fill="black"/>
<path d="M592.085 43.378V41.902H582.545V37.15H580.925V43.378H592.085ZM594.839 46.906V45.412H577.739V46.906H594.839ZM592.247 53.53V52.054H582.689V48.31H581.069V53.53H592.247Z" fill="black"/>
<path d="M614.581 43.918H611.665V37.24H610.099V53.17H611.665V45.34H614.581V53.782H616.165V36.52H614.581V43.918ZM606.625 40.948V41.002C606.157 44.062 604.303 47.446 600.595 49.624L601.783 50.938C605.473 48.616 607.975 44.638 608.443 39.49H601.405V40.948H606.625Z" fill="black"/>
<path d="M633.715 49.48V36.52H632.095V49.48H633.715ZM623.905 46.366C626.515 46.366 628.315 44.89 628.315 42.226C628.315 39.58 626.515 38.104 623.905 38.104C621.295 38.104 619.495 39.58 619.495 42.226C619.495 44.89 621.295 46.366 623.905 46.366ZM623.905 44.962C622.285 44.962 621.115 44.08 621.115 42.226C621.115 40.372 622.285 39.508 623.905 39.508C625.525 39.508 626.695 40.372 626.695 42.226C626.695 44.08 625.525 44.962 623.905 44.962ZM634.435 53.53V52.054H624.535V47.77H622.915V53.53H634.435Z" fill="black"/>
<path d="M655.491 36.52H653.907V46.6H655.491V43.108H658.461V41.668H655.491V36.52ZM652.179 44.836L648.327 42.64C649.497 41.344 650.343 39.814 650.649 38.05H642.315V39.49H648.705V39.544C647.823 41.686 645.267 43.972 641.271 45.214L642.081 46.528C644.007 45.862 645.789 44.908 647.247 43.684L651.333 46.024L652.179 44.836ZM649.965 46.888C646.365 46.888 644.259 48.202 644.259 50.38C644.259 52.576 646.365 53.89 649.965 53.89C653.565 53.89 655.671 52.576 655.671 50.38C655.671 48.202 653.565 46.888 649.965 46.888ZM653.475 51.64C652.827 52.144 651.657 52.45 649.965 52.45C648.273 52.45 647.085 52.144 646.455 51.64C646.095 51.316 645.915 50.902 645.915 50.38C645.915 49.876 646.095 49.444 646.455 49.138C647.103 48.652 648.273 48.328 649.965 48.328C651.657 48.328 652.827 48.652 653.475 49.138C653.835 49.444 654.015 49.876 654.015 50.38C654.015 50.902 653.835 51.316 653.475 51.64Z" fill="black"/>
<path d="M673.491 44.008V36.52H671.907V53.8H673.491V45.448H676.461V44.008H673.491ZM661.935 43.018V38.68H660.351V50.2H668.631V38.68H667.047V43.018H661.935ZM661.935 48.742V44.458H667.047V48.742H661.935Z" fill="black"/>
<path d="M689.943 45.034C690.447 42.874 690.789 40.552 690.915 37.708H679.647V39.202H689.223C689.115 41.308 688.863 43.18 688.449 45.034H677.091V46.528H684.831V53.89H686.451V46.528H694.191V45.034H689.943Z" fill="black"/>
<path d="M708.771 46.564C705.585 47.734 701.049 48.418 698.457 48.418V38.77H696.801V49.93C701.067 49.93 705.693 49.192 708.771 47.968V53.8H710.391V36.52H708.771V46.564Z" fill="black"/>
<path d="M727.833 43.36V42.028H717.753V40.822H727.005V37.06H715.971V38.41H725.457V39.508H716.187V43.36H727.833ZM730.191 46.006V44.584H713.091V46.006H730.191ZM728.085 53.71V52.36H717.861V51.064H727.005V47.23H715.899V48.562H725.385V49.786H716.259V53.71H728.085Z" fill="black"/>
<path d="M749.446 53.8H751.066V36.52H749.446V53.8ZM737.08 39.13V40.606H743.92V40.66C743.092 43.828 740.014 47.356 736.036 49.372L736.99 50.722C738.988 49.624 740.878 48.166 742.39 46.42L746.494 50.434L747.484 49.174L743.326 45.25C744.622 43.45 745.54 41.398 745.846 39.13H737.08Z" fill="black"/>
<path d="M768.166 42.028V36.52H766.582V46.69H768.166V43.468H771.136V42.028H768.166ZM755.98 37.06V38.464H762.478V37.06H755.98ZM764.62 45.304L761.056 43.702C762.19 42.676 763.018 41.434 763.396 39.976H754.846V41.362H761.308V41.416C760.012 43.252 757.618 44.764 754.036 45.736L754.792 47.032C756.592 46.474 758.374 45.7 759.85 44.656L763.882 46.456L764.62 45.304ZM768.166 53.62V47.59H757.366V53.62H768.166ZM766.582 48.994V52.216H758.932V48.994H766.582Z" fill="black"/>
<path d="M786.166 42.478V36.52H784.582V46.42H786.166V43.918H789.136V42.478H786.166ZM774.016 36.88V38.194H780.892V36.88H774.016ZM771.946 39.526V40.894H782.566V39.526H771.946ZM781.396 44.35C781.396 42.856 779.866 41.884 777.436 41.884C775.024 41.884 773.494 42.856 773.494 44.35C773.494 45.844 775.024 46.816 777.436 46.816C779.866 46.816 781.396 45.844 781.396 44.35ZM775.006 44.35C775.006 43.594 775.906 43.108 777.436 43.108C778.984 43.108 779.884 43.594 779.884 44.35C779.884 45.106 778.984 45.592 777.436 45.592C775.906 45.592 775.006 45.106 775.006 44.35ZM776.968 49.156V47.59H775.366V53.71H786.166V47.41H784.564V49.156H776.968ZM776.968 52.288V50.488H784.564V52.288H776.968Z" fill="black"/>
<path d="M803.446 46.564C800.26 47.734 795.724 48.418 793.132 48.418V38.77H791.476V49.93C795.742 49.93 800.368 49.192 803.446 47.968V53.8H805.066V36.52H803.446V46.564Z" fill="black"/>
<path d="M822.166 44.188V36.52H820.582V47.122C817.774 48.076 813.544 48.616 810.772 48.616L810.736 40.426H817.648V38.95H809.116V50.11C813.508 50.11 817.864 49.534 820.582 48.526V53.8H822.166V45.628H825.136V44.188H822.166Z" fill="black"/>
<path d="M828.916 52C829.69 52 830.356 51.352 830.356 50.578C830.356 49.786 829.69 49.12 828.916 49.12C828.124 49.12 827.476 49.786 827.476 50.578C827.476 51.352 828.124 52 828.916 52Z" fill="black"/>
<path d="M71.754 75.8782H60.432V77.4082H65.13V89.0002H66.984V77.4082H71.754V75.8782Z" fill="#505050"/>
<path d="M79.4677 86.7322V81.6562C79.4677 79.4422 77.9197 78.6682 76.0657 78.6682C74.8237 78.6682 73.1137 78.9562 72.3037 79.3162V80.8282C73.1677 80.5222 74.6977 80.1802 75.7777 80.1802C76.8937 80.1802 77.7757 80.5222 77.7757 82.0522V83.2762H76.4437C73.5277 83.2762 71.7457 84.3022 71.7457 86.3362C71.7457 88.0102 72.6997 89.1802 74.6257 89.1802C76.0477 89.1802 77.2177 88.4602 77.9377 87.9022L78.1357 89.0002H79.8457L79.4677 86.7322ZM73.4557 86.2102C73.4557 85.0582 74.3377 84.6082 76.1197 84.6082H77.7757V86.6422C76.8937 87.2362 75.8497 87.7402 74.8957 87.7402C73.9057 87.7402 73.4557 87.1822 73.4557 86.2102Z" fill="#505050"/>
<path d="M84.335 89.0002V74.3122H82.643V89.0002H84.335ZM90.743 89.0002L86.801 83.2222L90.905 78.8662H88.853L84.983 83.1322V83.6002L88.619 89.0002H90.743Z" fill="#505050"/>
<path d="M100.659 83.5102C100.659 80.7922 99.3272 78.6682 96.4472 78.6682C93.5672 78.6682 91.8752 81.0262 91.8752 84.1222C91.8752 87.2722 93.5312 89.1802 96.6452 89.1802C98.3012 89.1802 99.5072 88.8922 100.407 88.3522V86.9122C99.4712 87.3802 98.0492 87.6682 96.8972 87.6682C94.9352 87.6682 93.7832 86.6062 93.6752 84.3022H100.659V83.5102ZM96.3752 80.1802C97.9772 80.1802 98.6792 81.3682 98.7692 82.9522H93.7292C93.9812 80.7922 95.0972 80.1802 96.3752 80.1802Z" fill="#505050"/>
<path d="M112.096 87.6682C111.016 87.6682 110.278 87.3802 110.26 86.0122V80.3782H113.626V78.8662H110.26V76.2202H108.568V78.8662H106.876V80.3782H108.568V86.2102C108.568 88.3702 109.918 89.1802 111.466 89.1802C112.42 89.1802 113.284 89.0182 113.824 88.7122V87.3262C113.356 87.4882 112.69 87.6682 112.096 87.6682Z" fill="#505050"/>
<path d="M121.372 78.6682C119.932 78.6682 118.582 79.3882 117.646 80.0182V74.3122H115.954V89.0002H117.646V81.3682C118.6 80.7922 119.824 80.1802 120.742 80.1802C122.29 80.1802 122.65 80.9182 122.65 82.5022V89.0002H124.342V82.3222C124.342 79.7122 123.406 78.6682 121.372 78.6682Z" fill="#505050"/>
<path d="M135.657 83.5102C135.657 80.7922 134.325 78.6682 131.445 78.6682C128.565 78.6682 126.873 81.0262 126.873 84.1222C126.873 87.2722 128.529 89.1802 131.643 89.1802C133.299 89.1802 134.505 88.8922 135.405 88.3522V86.9122C134.469 87.3802 133.047 87.6682 131.895 87.6682C129.933 87.6682 128.781 86.6062 128.673 84.3022H135.657V83.5102ZM131.373 80.1802C132.975 80.1802 133.677 81.3682 133.767 82.9522H128.727C128.979 80.7922 130.095 80.1802 131.373 80.1802Z" fill="#505050"/>
<path d="M144.736 89.0002V74.3122H143.044V89.0002H144.736Z" fill="#505050"/>
<path d="M155.071 86.7322V81.6562C155.071 79.4422 153.523 78.6682 151.669 78.6682C150.427 78.6682 148.717 78.9562 147.907 79.3162V80.8282C148.771 80.5222 150.301 80.1802 151.381 80.1802C152.497 80.1802 153.379 80.5222 153.379 82.0522V83.2762H152.047C149.131 83.2762 147.349 84.3022 147.349 86.3362C147.349 88.0102 148.303 89.1802 150.229 89.1802C151.651 89.1802 152.821 88.4602 153.541 87.9022L153.739 89.0002H155.449L155.071 86.7322ZM149.059 86.2102C149.059 85.0582 149.941 84.6082 151.723 84.6082H153.379V86.6422C152.497 87.2362 151.453 87.7402 150.499 87.7402C149.509 87.7402 149.059 87.1822 149.059 86.2102Z" fill="#505050"/>
<path d="M162.945 78.6682C161.811 78.6682 160.785 79.0822 159.867 79.6222V74.3122H158.175V88.6402C159.615 89.0182 160.605 89.1802 161.703 89.1802C164.565 89.1802 166.635 87.2902 166.635 83.4562C166.635 80.5402 165.357 78.6682 162.945 78.6682ZM161.919 87.6682C161.289 87.6682 160.515 87.5782 159.867 87.4702V80.9362C160.623 80.5762 161.523 80.1802 162.387 80.1802C164.097 80.1802 164.835 81.3682 164.835 83.7802C164.835 85.8322 164.295 87.6682 161.919 87.6682Z" fill="#505050"/>
<path d="M177.476 83.5102C177.476 80.7922 176.144 78.6682 173.264 78.6682C170.384 78.6682 168.692 81.0262 168.692 84.1222C168.692 87.2722 170.348 89.1802 173.462 89.1802C175.118 89.1802 176.324 88.8922 177.224 88.3522V86.9122C176.288 87.3802 174.866 87.6682 173.714 87.6682C171.752 87.6682 170.6 86.6062 170.492 84.3022H177.476V83.5102ZM173.192 80.1802C174.794 80.1802 175.496 81.3682 175.586 82.9522H170.546C170.798 80.7922 171.914 80.1802 173.192 80.1802Z" fill="#505050"/>
<path d="M181.879 89.0002V74.3122H180.187V89.0002H181.879Z" fill="#505050"/>
<path d="M194.028 87.6682C192.948 87.6682 192.21 87.3802 192.192 86.0122V80.3782H195.558V78.8662H192.192V76.2202H190.5V78.8662H188.808V80.3782H190.5V86.2102C190.5 88.3702 191.85 89.1802 193.398 89.1802C194.352 89.1802 195.216 89.0182 195.756 88.7122V87.3262C195.288 87.4882 194.622 87.6682 194.028 87.6682Z" fill="#505050"/>
<path d="M201.863 89.1802C204.653 89.1802 206.471 86.6962 206.471 83.9422C206.471 80.3422 204.941 78.6682 201.953 78.6682C199.235 78.6682 197.273 81.1702 197.273 83.9782C197.273 87.5962 199.091 89.1802 201.863 89.1802ZM201.935 87.6682C199.703 87.6682 199.073 86.0482 199.073 83.9062C199.073 81.9802 199.631 80.1802 201.863 80.1802C204.311 80.1802 204.671 82.0702 204.671 83.9782C204.671 85.9762 204.131 87.6682 201.935 87.6682Z" fill="#505050"/>
<path d="M217.934 87.6682C216.854 87.6682 216.116 87.3802 216.098 86.0122V80.3782H219.464V78.8662H216.098V76.2202H214.406V78.8662H212.714V80.3782H214.406V86.2102C214.406 88.3702 215.756 89.1802 217.304 89.1802C218.258 89.1802 219.122 89.0182 219.662 88.7122V87.3262C219.194 87.4882 218.528 87.6682 217.934 87.6682Z" fill="#505050"/>
<path d="M227.209 78.6682C225.769 78.6682 224.419 79.3882 223.483 80.0182V74.3122H221.791V89.0002H223.483V81.3682C224.437 80.7922 225.661 80.1802 226.579 80.1802C228.127 80.1802 228.487 80.9182 228.487 82.5022V89.0002H230.179V82.3222C230.179 79.7122 229.243 78.6682 227.209 78.6682Z" fill="#505050"/>
<path d="M241.495 83.5102C241.495 80.7922 240.163 78.6682 237.283 78.6682C234.403 78.6682 232.711 81.0262 232.711 84.1222C232.711 87.2722 234.367 89.1802 237.481 89.1802C239.137 89.1802 240.343 88.8922 241.243 88.3522V86.9122C240.307 87.3802 238.885 87.6682 237.733 87.6682C235.771 87.6682 234.619 86.6062 234.511 84.3022H241.495V83.5102ZM237.211 80.1802C238.813 80.1802 239.515 81.3682 239.605 82.9522H234.565C234.817 80.7922 235.933 80.1802 237.211 80.1802Z" fill="#505050"/>
<path d="M250.88 89.0002V75.8782H249.044V89.0002H250.88ZM258.71 89.0002L253.04 82.1062L258.926 75.8782H256.784L251.276 82.0162V82.4122L256.46 89.0002H258.71Z" fill="#505050"/>
<path d="M262.113 73.8262C261.393 73.8262 260.853 74.3482 260.853 75.0502C260.853 75.7522 261.393 76.2922 262.113 76.2922C262.815 76.2922 263.373 75.7522 263.373 75.0502C263.373 74.3482 262.815 73.8262 262.113 73.8262ZM259.593 78.8662V80.3782H261.231V89.0002H262.923V78.8662H259.593Z" fill="#505050"/>
<path d="M270.101 89.1802C272.891 89.1802 274.709 86.6962 274.709 83.9422C274.709 80.3422 273.179 78.6682 270.191 78.6682C267.473 78.6682 265.511 81.1702 265.511 83.9782C265.511 87.5962 267.329 89.1802 270.101 89.1802ZM270.173 87.6682C267.941 87.6682 267.311 86.0482 267.311 83.9062C267.311 81.9802 267.869 80.1802 270.101 80.1802C272.549 80.1802 272.909 82.0702 272.909 83.9782C272.909 85.9762 272.369 87.6682 270.173 87.6682Z" fill="#505050"/>
<path d="M280.164 89.1802C282.126 89.1802 284.088 88.2982 284.088 86.0122C284.088 83.7982 282.198 83.3482 280.596 82.9882C279.408 82.7362 278.364 82.4662 278.364 81.4582C278.364 80.7022 279.246 80.1802 280.326 80.1802C281.424 80.1802 282.18 80.3422 283.728 80.9722V79.3162C282.846 78.8662 281.55 78.6682 280.56 78.6682C278.544 78.6682 276.78 79.7482 276.78 81.7102C276.78 83.6182 278.49 84.1402 280.038 84.5362C281.37 84.8782 282.576 85.1482 282.576 86.1382C282.576 87.1282 281.604 87.6682 280.488 87.6682C279.264 87.6682 278.274 87.3982 276.888 86.8582V88.4962C277.734 88.8562 278.814 89.1802 280.164 89.1802Z" fill="#505050"/>
<path d="M288.312 89.0002V74.3122H286.62V89.0002H288.312ZM294.72 89.0002L290.778 83.2222L294.882 78.8662H292.83L288.96 83.1322V83.6002L292.596 89.0002H294.72Z" fill="#505050"/>
<path d="M305.631 87.6682C304.551 87.6682 303.813 87.3802 303.795 86.0122V80.3782H307.161V78.8662H303.795V76.2202H302.103V78.8662H300.411V80.3782H302.103V86.2102C302.103 88.3702 303.453 89.1802 305.001 89.1802C305.955 89.1802 306.819 89.0182 307.359 88.7122V87.3262C306.891 87.4882 306.225 87.6682 305.631 87.6682Z" fill="#505050"/>
<path d="M313.467 89.1802C316.257 89.1802 318.075 86.6962 318.075 83.9422C318.075 80.3422 316.545 78.6682 313.557 78.6682C310.839 78.6682 308.877 81.1702 308.877 83.9782C308.877 87.5962 310.695 89.1802 313.467 89.1802ZM313.539 87.6682C311.307 87.6682 310.677 86.0482 310.677 83.9062C310.677 81.9802 311.235 80.1802 313.467 80.1802C315.915 80.1802 316.275 82.0702 316.275 83.9782C316.275 85.9762 315.735 87.6682 313.539 87.6682Z" fill="#505050"/>
<path d="M330.185 78.6682C328.961 78.6682 327.845 79.1542 326.873 79.7662L326.711 78.8662H325.001L325.415 81.2782V93.6622H327.107V88.9822C327.629 89.0902 328.295 89.1802 328.961 89.1802C331.805 89.1802 333.875 87.2902 333.875 83.4562C333.875 80.5402 332.597 78.6682 330.185 78.6682ZM329.159 87.6682C328.565 87.6682 327.719 87.5782 327.107 87.4342V80.9362C327.845 80.5762 328.763 80.1802 329.627 80.1802C331.337 80.1802 332.075 81.3682 332.075 83.7802C332.075 85.8322 331.535 87.6682 329.159 87.6682Z" fill="#505050"/>
<path d="M343.544 86.7322V81.6562C343.544 79.4422 341.996 78.6682 340.142 78.6682C338.9 78.6682 337.19 78.9562 336.38 79.3162V80.8282C337.244 80.5222 338.774 80.1802 339.854 80.1802C340.97 80.1802 341.852 80.5222 341.852 82.0522V83.2762H340.52C337.604 83.2762 335.822 84.3022 335.822 86.3362C335.822 88.0102 336.776 89.1802 338.702 89.1802C340.124 89.1802 341.294 88.4602 342.014 87.9022L342.212 89.0002H343.922L343.544 86.7322ZM337.532 86.2102C337.532 85.0582 338.414 84.6082 340.196 84.6082H341.852V86.6422C340.97 87.2362 339.926 87.7402 338.972 87.7402C337.982 87.7402 337.532 87.1822 337.532 86.2102Z" fill="#505050"/>
<path d="M351.025 84.7522L350.215 87.0382H350.089L349.387 84.8422L347.497 78.8662H345.517L349.117 89.0002H349.387L347.461 93.5902L347.515 93.6622H349.315L351.097 88.7302L354.949 78.8662H353.077L351.025 84.7522Z" fill="#505050"/>
<path d="M358.192 89.0002C358.966 89.0002 359.632 88.3522 359.632 87.5782C359.632 86.7862 358.966 86.1202 358.192 86.1202C357.4 86.1202 356.752 86.7862 356.752 87.5782C356.752 88.3522 357.4 89.0002 358.192 89.0002Z" fill="#505050"/>
<path d="M67.992 112.998C69.234 112.548 70.044 111.576 70.044 110.118C70.044 107.976 68.262 106.878 65.292 106.878H61.872V120H65.85C69.342 120 70.962 118.452 70.962 116.256C70.962 113.862 69.054 113.178 67.992 113.052V112.998ZM65.148 108.408C66.714 108.408 68.082 108.93 68.082 110.55C68.082 111.882 67.092 112.512 65.022 112.512H63.708V108.408H65.148ZM63.708 118.47V114.042H64.788C67.254 114.042 69 114.276 69 116.112C69 117.858 67.614 118.47 65.724 118.47H63.708Z" fill="#505050"/>
<path d="M78.0556 109.668C77.0656 109.668 75.9496 110.352 75.1036 111.144L74.8696 109.866H73.1596L73.5736 112.278V120H75.2656V112.566C76.0216 111.972 76.9576 111.288 78.1996 111.288C78.4876 111.288 78.7756 111.306 79.0996 111.396V109.776C78.7396 109.686 78.4156 109.668 78.0556 109.668Z" fill="#505050"/>
<path d="M82.429 104.826C81.709 104.826 81.169 105.348 81.169 106.05C81.169 106.752 81.709 107.292 82.429 107.292C83.131 107.292 83.689 106.752 83.689 106.05C83.689 105.348 83.131 104.826 82.429 104.826ZM79.909 109.866V111.378H81.547V120H83.239V109.866H79.909Z" fill="#505050"/>
<path d="M91.9119 109.668C90.3819 109.668 88.9419 110.478 88.0059 111.144L87.7719 109.866H86.0619L86.4759 112.278V120H88.1679V112.368C89.1219 111.792 90.3459 111.18 91.2819 111.18C92.8299 111.18 93.1899 111.918 93.1899 113.502V120H94.8819V113.322C94.8819 110.712 93.9279 109.668 91.9119 109.668Z" fill="#505050"/>
<path d="M103.748 110.19C103.136 109.848 102.362 109.668 101.462 109.668C99.0863 109.668 97.5923 111.54 97.5923 113.088C97.5923 114.51 98.2943 115.446 99.4823 115.914L97.8083 117.588V118.902L99.1043 119.046C97.9883 119.694 96.9983 120.594 96.9983 121.782C96.9983 123.6 98.6183 124.806 101.246 124.806C104.378 124.806 106.304 122.79 106.304 120.738C106.304 119.226 105.476 118.128 102.758 117.822L99.5363 117.462L100.688 116.22C100.94 116.238 101.192 116.256 101.462 116.256C103.532 116.256 105.206 114.51 105.206 112.962C105.206 112.26 105.062 111.684 104.774 111.198H106.718V109.812L103.748 110.19ZM101.462 114.96C100.256 114.96 99.3383 114.276 99.3383 112.926C99.3383 111.756 100.076 111.036 101.336 111.036C102.668 111.036 103.478 111.792 103.478 112.998C103.478 114.15 102.632 114.96 101.462 114.96ZM104.648 121.08C104.648 122.232 103.424 123.402 101.498 123.402C99.4643 123.402 98.6543 122.466 98.6543 121.53C98.6543 120.702 99.4823 119.856 100.67 119.226L102.056 119.388C104.234 119.658 104.648 120.126 104.648 121.08Z" fill="#505050"/>
<path d="M117.323 115.752L116.513 118.038H116.387L115.685 115.842L113.795 109.866H111.815L115.415 120H115.685L113.759 124.59L113.813 124.662H115.613L117.395 119.73L121.247 109.866H119.375L117.323 115.752Z" fill="#505050"/>
<path d="M126.945 120.18C129.735 120.18 131.553 117.696 131.553 114.942C131.553 111.342 130.023 109.668 127.035 109.668C124.317 109.668 122.355 112.17 122.355 114.978C122.355 118.596 124.173 120.18 126.945 120.18ZM127.017 118.668C124.785 118.668 124.155 117.048 124.155 114.906C124.155 112.98 124.713 111.18 126.945 111.18C129.393 111.18 129.753 113.07 129.753 114.978C129.753 116.976 129.213 118.668 127.017 118.668Z" fill="#505050"/>
<path d="M142.282 117.552V109.866H140.59V117.48C139.654 118.056 138.628 118.668 137.71 118.668C136.162 118.668 135.802 117.93 135.802 116.346V109.866H134.11V116.526C134.11 119.136 135.064 120.18 137.08 120.18C138.592 120.18 139.87 119.388 140.752 118.722L141.004 120H142.714L142.282 117.552Z" fill="#505050"/>
<path d="M150.056 109.668C149.066 109.668 147.95 110.352 147.104 111.144L146.87 109.866H145.16L145.574 112.278V120H147.266V112.566C148.022 111.972 148.958 111.288 150.2 111.288C150.488 111.288 150.776 111.306 151.1 111.396V109.776C150.74 109.686 150.416 109.668 150.056 109.668Z" fill="#505050"/>
<path d="M161.363 120.18C164.153 120.18 165.971 117.696 165.971 114.942C165.971 111.342 164.441 109.668 161.453 109.668C158.735 109.668 156.773 112.17 156.773 114.978C156.773 118.596 158.591 120.18 161.363 120.18ZM161.435 118.668C159.203 118.668 158.573 117.048 158.573 114.906C158.573 112.98 159.131 111.18 161.363 111.18C163.811 111.18 164.171 113.07 164.171 114.978C164.171 116.976 163.631 118.668 161.435 118.668Z" fill="#505050"/>
<path d="M180.934 109.866L178.468 118.11H178.378L177.55 115.068L176.11 109.866H174.328L172.6 115.248L171.682 118.092H171.574L170.818 115.23L169.45 109.866H167.434L170.584 120H172.492L174.292 114.492L174.994 112.332H175.12L175.804 114.582L177.388 120H179.422L182.788 109.866H180.934Z" fill="#505050"/>
<path d="M190.349 109.668C188.819 109.668 187.379 110.478 186.443 111.144L186.209 109.866H184.499L184.913 112.278V120H186.605V112.368C187.559 111.792 188.783 111.18 189.719 111.18C191.267 111.18 191.627 111.918 191.627 113.502V120H193.319V113.322C193.319 110.712 192.365 109.668 190.349 109.668Z" fill="#505050"/>
<path d="M206.862 110.19C206.25 109.848 205.476 109.668 204.576 109.668C202.2 109.668 200.706 111.54 200.706 113.088C200.706 114.51 201.408 115.446 202.596 115.914L200.922 117.588V118.902L202.218 119.046C201.102 119.694 200.112 120.594 200.112 121.782C200.112 123.6 201.732 124.806 204.36 124.806C207.492 124.806 209.418 122.79 209.418 120.738C209.418 119.226 208.59 118.128 205.872 117.822L202.65 117.462L203.802 116.22C204.054 116.238 204.306 116.256 204.576 116.256C206.646 116.256 208.32 114.51 208.32 112.962C208.32 112.26 208.176 111.684 207.888 111.198H209.832V109.812L206.862 110.19ZM204.576 114.96C203.37 114.96 202.452 114.276 202.452 112.926C202.452 111.756 203.19 111.036 204.45 111.036C205.782 111.036 206.592 111.792 206.592 112.998C206.592 114.15 205.746 114.96 204.576 114.96ZM207.762 121.08C207.762 122.232 206.538 123.402 204.612 123.402C202.578 123.402 201.768 122.466 201.768 121.53C201.768 120.702 202.596 119.856 203.784 119.226L205.17 119.388C207.348 119.658 207.762 120.126 207.762 121.08Z" fill="#505050"/>
<path d="M216.237 109.668C215.247 109.668 214.131 110.352 213.285 111.144L213.051 109.866H211.341L211.755 112.278V120H213.447V112.566C214.203 111.972 215.139 111.288 216.381 111.288C216.669 111.288 216.957 111.306 217.281 111.396V109.776C216.921 109.686 216.597 109.668 216.237 109.668Z" fill="#505050"/>
<path d="M222.939 120.18C225.729 120.18 227.547 117.696 227.547 114.942C227.547 111.342 226.017 109.668 223.029 109.668C220.311 109.668 218.349 112.17 218.349 114.978C218.349 118.596 220.167 120.18 222.939 120.18ZM223.011 118.668C220.779 118.668 220.149 117.048 220.149 114.906C220.149 112.98 220.707 111.18 222.939 111.18C225.387 111.18 225.747 113.07 225.747 114.978C225.747 116.976 225.207 118.668 223.011 118.668Z" fill="#505050"/>
<path d="M234.262 120.18C235.432 120.18 236.458 119.946 237.232 119.478V118.038C236.386 118.47 235.468 118.668 234.676 118.668C232.624 118.668 231.382 117.498 231.382 114.96C231.382 111.972 232.822 111.18 234.424 111.18C235.342 111.18 236.278 111.36 237.232 111.99V110.19C236.476 109.776 235.468 109.668 234.496 109.668C231.346 109.668 229.582 112.008 229.582 115.086C229.582 118.236 231.148 120.18 234.262 120.18Z" fill="#505050"/>
<path d="M247.946 114.51C247.946 111.792 246.614 109.668 243.734 109.668C240.854 109.668 239.162 112.026 239.162 115.122C239.162 118.272 240.818 120.18 243.932 120.18C245.588 120.18 246.794 119.892 247.694 119.352V117.912C246.758 118.38 245.336 118.668 244.184 118.668C242.222 118.668 241.07 117.606 240.962 115.302H247.946V114.51ZM243.662 111.18C245.264 111.18 245.966 112.368 246.056 113.952H241.016C241.268 111.792 242.384 111.18 243.662 111.18Z" fill="#505050"/>
<path d="M255.067 109.668C254.077 109.668 252.961 110.352 252.115 111.144L251.881 109.866H250.171L250.585 112.278V120H252.277V112.566C253.033 111.972 253.969 111.288 255.211 111.288C255.499 111.288 255.787 111.306 256.111 111.396V109.776C255.751 109.686 255.427 109.668 255.067 109.668Z" fill="#505050"/>
<path d="M262.519 115.752L261.709 118.038H261.583L260.881 115.842L258.991 109.866H257.011L260.611 120H260.881L258.955 124.59L259.009 124.662H260.809L262.591 119.73L266.443 109.866H264.571L262.519 115.752Z" fill="#505050"/>
<path d="M277.343 109.668C276.209 109.668 275.183 110.082 274.265 110.622V105.312H272.573V119.64C274.013 120.018 275.003 120.18 276.101 120.18C278.963 120.18 281.033 118.29 281.033 114.456C281.033 111.54 279.755 109.668 277.343 109.668ZM276.317 118.668C275.687 118.668 274.913 118.578 274.265 118.47V111.936C275.021 111.576 275.921 111.18 276.785 111.18C278.495 111.18 279.233 112.368 279.233 114.78C279.233 116.832 278.693 118.668 276.317 118.668Z" fill="#505050"/>
<path d="M290.704 117.732V112.656C290.704 110.442 289.156 109.668 287.302 109.668C286.06 109.668 284.35 109.956 283.54 110.316V111.828C284.404 111.522 285.934 111.18 287.014 111.18C288.13 111.18 289.012 111.522 289.012 113.052V114.276H287.68C284.764 114.276 282.982 115.302 282.982 117.336C282.982 119.01 283.936 120.18 285.862 120.18C287.284 120.18 288.454 119.46 289.174 118.902L289.372 120H291.082L290.704 117.732ZM284.692 117.21C284.692 116.058 285.574 115.608 287.356 115.608H289.012V117.642C288.13 118.236 287.086 118.74 286.132 118.74C285.142 118.74 284.692 118.182 284.692 117.21Z" fill="#505050"/>
<path d="M299.621 110.19C299.009 109.848 298.235 109.668 297.335 109.668C294.959 109.668 293.465 111.54 293.465 113.088C293.465 114.51 294.167 115.446 295.355 115.914L293.681 117.588V118.902L294.977 119.046C293.861 119.694 292.871 120.594 292.871 121.782C292.871 123.6 294.491 124.806 297.119 124.806C300.251 124.806 302.177 122.79 302.177 120.738C302.177 119.226 301.349 118.128 298.631 117.822L295.409 117.462L296.561 116.22C296.813 116.238 297.065 116.256 297.335 116.256C299.405 116.256 301.079 114.51 301.079 112.962C301.079 112.26 300.935 111.684 300.647 111.198H302.591V109.812L299.621 110.19ZM297.335 114.96C296.129 114.96 295.211 114.276 295.211 112.926C295.211 111.756 295.949 111.036 297.209 111.036C298.541 111.036 299.351 111.792 299.351 112.998C299.351 114.15 298.505 114.96 297.335 114.96ZM300.521 121.08C300.521 122.232 299.297 123.402 297.371 123.402C295.337 123.402 294.527 122.466 294.527 121.53C294.527 120.702 295.355 119.856 296.543 119.226L297.929 119.388C300.107 119.658 300.521 120.126 300.521 121.08Z" fill="#505050"/>
<path d="M306.477 120C307.251 120 307.917 119.352 307.917 118.578C307.917 117.786 307.251 117.12 306.477 117.12C305.685 117.12 305.037 117.786 305.037 118.578C305.037 119.352 305.685 120 306.477 120Z" fill="#505050"/>
<path d="M331.78 106.878L329.512 114.132L328.396 117.606H328.288L327.316 114.042L325.372 106.878H323.248L321.016 114.132L319.936 117.66H319.828L318.928 114.06L317.11 106.878H315.076L318.766 120H320.818L323.032 113.052L324.13 109.578H324.256L325.228 113.07L327.136 120H329.152L333.652 106.878H331.78Z" fill="#505050"/>
<path d="M343.167 114.51C343.167 111.792 341.835 109.668 338.955 109.668C336.075 109.668 334.383 112.026 334.383 115.122C334.383 118.272 336.039 120.18 339.153 120.18C340.809 120.18 342.015 119.892 342.915 119.352V117.912C341.979 118.38 340.557 118.668 339.405 118.668C337.443 118.668 336.291 117.606 336.183 115.302H343.167V114.51ZM338.883 111.18C340.485 111.18 341.187 112.368 341.277 113.952H336.237C336.489 111.792 337.605 111.18 338.883 111.18Z" fill="#505050"/>
<path d="M358.456 117.732V105.312H356.764V109.866C356.206 109.776 355.36 109.668 354.784 109.668C352.084 109.668 349.852 111.81 349.852 115.41C349.852 118.902 351.922 120.18 353.758 120.18C355.072 120.18 356.098 119.604 356.926 118.884L357.124 120H358.834L358.456 117.732ZM351.652 115.068C351.652 112.17 352.858 111.18 354.748 111.18C355.396 111.18 356.17 111.306 356.764 111.486V117.588C355.702 118.272 355.018 118.668 354.082 118.668C352.516 118.668 351.652 117.516 351.652 115.068Z" fill="#505050"/>
<path d="M365.674 120.18C368.464 120.18 370.282 117.696 370.282 114.942C370.282 111.342 368.752 109.668 365.764 109.668C363.046 109.668 361.084 112.17 361.084 114.978C361.084 118.596 362.902 120.18 365.674 120.18ZM365.746 118.668C363.514 118.668 362.884 117.048 362.884 114.906C362.884 112.98 363.442 111.18 365.674 111.18C368.122 111.18 368.482 113.07 368.482 114.978C368.482 116.976 367.942 118.668 365.746 118.668Z" fill="#505050"/>
<path d="M383.058 109.668C381.528 109.668 380.088 110.478 379.152 111.144L378.918 109.866H377.208L377.622 112.278V120H379.314V112.368C380.268 111.792 381.492 111.18 382.428 111.18C383.976 111.18 384.336 111.918 384.336 113.502V120H386.028V113.322C386.028 110.712 385.074 109.668 383.058 109.668Z" fill="#505050"/>
<path d="M393.131 120.18C395.921 120.18 397.739 117.696 397.739 114.942C397.739 111.342 396.209 109.668 393.221 109.668C390.503 109.668 388.541 112.17 388.541 114.978C388.541 118.596 390.359 120.18 393.131 120.18ZM393.203 118.668C390.971 118.668 390.341 117.048 390.341 114.906C390.341 112.98 390.899 111.18 393.131 111.18C395.579 111.18 395.939 113.07 395.939 114.978C395.939 116.976 395.399 118.668 393.203 118.668Z" fill="#505050"/>
<path d="M404.455 118.668C403.375 118.668 402.637 118.38 402.619 117.012V111.378H405.985V109.866H402.619V107.22H400.927V109.866H399.235V111.378H400.927V117.21C400.927 119.37 402.277 120.18 403.825 120.18C404.779 120.18 405.643 120.018 406.183 119.712V118.326C405.715 118.488 405.049 118.668 404.455 118.668Z" fill="#505050"/>
<path d="M417.795 109.668C416.571 109.668 415.455 110.154 414.483 110.766L414.321 109.866H412.611L413.025 112.278V124.662H414.717V119.982C415.239 120.09 415.905 120.18 416.571 120.18C419.415 120.18 421.485 118.29 421.485 114.456C421.485 111.54 420.207 109.668 417.795 109.668ZM416.769 118.668C416.175 118.668 415.329 118.578 414.717 118.434V111.936C415.455 111.576 416.373 111.18 417.237 111.18C418.947 111.18 419.685 112.368 419.685 114.78C419.685 116.832 419.145 118.668 416.769 118.668Z" fill="#505050"/>
<path d="M428.651 109.668C427.661 109.668 426.545 110.352 425.699 111.144L425.465 109.866H423.755L424.169 112.278V120H425.861V112.566C426.617 111.972 427.553 111.288 428.795 111.288C429.083 111.288 429.371 111.306 429.695 111.396V109.776C429.335 109.686 429.011 109.668 428.651 109.668Z" fill="#505050"/>
<path d="M435.353 120.18C438.143 120.18 439.961 117.696 439.961 114.942C439.961 111.342 438.431 109.668 435.443 109.668C432.725 109.668 430.763 112.17 430.763 114.978C430.763 118.596 432.581 120.18 435.353 120.18ZM435.425 118.668C433.193 118.668 432.563 117.048 432.563 114.906C432.563 112.98 433.121 111.18 435.353 111.18C437.801 111.18 438.161 113.07 438.161 114.978C438.161 116.976 437.621 118.668 435.425 118.668Z" fill="#505050"/>
<path d="M446.789 120L450.749 109.866H448.877L446.879 115.59L446.015 118.038H445.889L445.115 115.626L443.297 109.866H441.317L444.917 120H446.789Z" fill="#505050"/>
<path d="M454.083 104.826C453.363 104.826 452.823 105.348 452.823 106.05C452.823 106.752 453.363 107.292 454.083 107.292C454.785 107.292 455.343 106.752 455.343 106.05C455.343 105.348 454.785 104.826 454.083 104.826ZM451.563 109.866V111.378H453.201V120H454.893V109.866H451.563Z" fill="#505050"/>
<path d="M466.104 117.732V105.312H464.412V109.866C463.854 109.776 463.008 109.668 462.432 109.668C459.732 109.668 457.5 111.81 457.5 115.41C457.5 118.902 459.57 120.18 461.406 120.18C462.72 120.18 463.746 119.604 464.574 118.884L464.772 120H466.482L466.104 117.732ZM459.3 115.068C459.3 112.17 460.506 111.18 462.396 111.18C463.044 111.18 463.818 111.306 464.412 111.486V117.588C463.35 118.272 462.666 118.668 461.73 118.668C460.164 118.668 459.3 117.516 459.3 115.068Z" fill="#505050"/>
<path d="M477.534 114.51C477.534 111.792 476.202 109.668 473.322 109.668C470.442 109.668 468.75 112.026 468.75 115.122C468.75 118.272 470.406 120.18 473.52 120.18C475.176 120.18 476.382 119.892 477.282 119.352V117.912C476.346 118.38 474.924 118.668 473.772 118.668C471.81 118.668 470.658 117.606 470.55 115.302H477.534V114.51ZM473.25 111.18C474.852 111.18 475.554 112.368 475.644 113.952H470.604C470.856 111.792 471.972 111.18 473.25 111.18Z" fill="#505050"/>
<path d="M491.833 117.732V112.656C491.833 110.442 490.285 109.668 488.431 109.668C487.189 109.668 485.479 109.956 484.669 110.316V111.828C485.533 111.522 487.063 111.18 488.143 111.18C489.259 111.18 490.141 111.522 490.141 113.052V114.276H488.809C485.893 114.276 484.111 115.302 484.111 117.336C484.111 119.01 485.065 120.18 486.991 120.18C488.413 120.18 489.583 119.46 490.303 118.902L490.501 120H492.211L491.833 117.732ZM485.821 117.21C485.821 116.058 486.703 115.608 488.485 115.608H490.141V117.642C489.259 118.236 488.215 118.74 487.261 118.74C486.271 118.74 485.821 118.182 485.821 117.21Z" fill="#505050"/>
<path d="M502.51 120.18C504.472 120.18 506.434 119.298 506.434 117.012C506.434 114.798 504.544 114.348 502.942 113.988C501.754 113.736 500.71 113.466 500.71 112.458C500.71 111.702 501.592 111.18 502.672 111.18C503.77 111.18 504.526 111.342 506.074 111.972V110.316C505.192 109.866 503.896 109.668 502.906 109.668C500.89 109.668 499.126 110.748 499.126 112.71C499.126 114.618 500.836 115.14 502.384 115.536C503.716 115.878 504.922 116.148 504.922 117.138C504.922 118.128 503.95 118.668 502.834 118.668C501.61 118.668 500.62 118.398 499.234 117.858V119.496C500.08 119.856 501.16 120.18 502.51 120.18Z" fill="#505050"/>
<path d="M514.383 109.668C512.943 109.668 511.593 110.388 510.657 111.018V105.312H508.965V120H510.657V112.368C511.611 111.792 512.835 111.18 513.753 111.18C515.301 111.18 515.661 111.918 515.661 113.502V120H517.353V113.322C517.353 110.712 516.417 109.668 514.383 109.668Z" fill="#505050"/>
<path d="M524.457 120.18C527.247 120.18 529.065 117.696 529.065 114.942C529.065 111.342 527.535 109.668 524.547 109.668C521.829 109.668 519.867 112.17 519.867 114.978C519.867 118.596 521.685 120.18 524.457 120.18ZM524.529 118.668C522.297 118.668 521.667 117.048 521.667 114.906C521.667 112.98 522.225 111.18 524.457 111.18C526.905 111.18 527.265 113.07 527.265 114.978C527.265 116.976 526.725 118.668 524.529 118.668Z" fill="#505050"/>
<path d="M536.5 109.668C535.276 109.668 534.16 110.154 533.188 110.766L533.026 109.866H531.316L531.73 112.278V124.662H533.422V119.982C533.944 120.09 534.61 120.18 535.276 120.18C538.12 120.18 540.19 118.29 540.19 114.456C540.19 111.54 538.912 109.668 536.5 109.668ZM535.474 118.668C534.88 118.668 534.034 118.578 533.422 118.434V111.936C534.16 111.576 535.078 111.18 535.942 111.18C537.652 111.18 538.39 112.368 538.39 114.78C538.39 116.832 537.85 118.668 535.474 118.668Z" fill="#505050"/>
<path d="M547.644 109.668C546.42 109.668 545.304 110.154 544.332 110.766L544.17 109.866H542.46L542.874 112.278V124.662H544.566V119.982C545.088 120.09 545.754 120.18 546.42 120.18C549.264 120.18 551.334 118.29 551.334 114.456C551.334 111.54 550.056 109.668 547.644 109.668ZM546.618 118.668C546.024 118.668 545.178 118.578 544.566 118.434V111.936C545.304 111.576 546.222 111.18 547.086 111.18C548.796 111.18 549.534 112.368 549.534 114.78C549.534 116.832 548.994 118.668 546.618 118.668Z" fill="#505050"/>
<path d="M555.351 104.826C554.631 104.826 554.091 105.348 554.091 106.05C554.091 106.752 554.631 107.292 555.351 107.292C556.053 107.292 556.611 106.752 556.611 106.05C556.611 105.348 556.053 104.826 555.351 104.826ZM552.831 109.866V111.378H554.469V120H556.161V109.866H552.831Z" fill="#505050"/>
<path d="M564.834 109.668C563.304 109.668 561.864 110.478 560.928 111.144L560.694 109.866H558.984L559.398 112.278V120H561.09V112.368C562.044 111.792 563.268 111.18 564.204 111.18C565.752 111.18 566.112 111.918 566.112 113.502V120H567.804V113.322C567.804 110.712 566.85 109.668 564.834 109.668Z" fill="#505050"/>
<path d="M576.67 110.19C576.058 109.848 575.284 109.668 574.384 109.668C572.008 109.668 570.514 111.54 570.514 113.088C570.514 114.51 571.216 115.446 572.404 115.914L570.73 117.588V118.902L572.026 119.046C570.91 119.694 569.92 120.594 569.92 121.782C569.92 123.6 571.54 124.806 574.168 124.806C577.3 124.806 579.226 122.79 579.226 120.738C579.226 119.226 578.398 118.128 575.68 117.822L572.458 117.462L573.61 116.22C573.862 116.238 574.114 116.256 574.384 116.256C576.454 116.256 578.128 114.51 578.128 112.962C578.128 112.26 577.984 111.684 577.696 111.198H579.64V109.812L576.67 110.19ZM574.384 114.96C573.178 114.96 572.26 114.276 572.26 112.926C572.26 111.756 572.998 111.036 574.258 111.036C575.59 111.036 576.4 111.792 576.4 112.998C576.4 114.15 575.554 114.96 574.384 114.96ZM577.57 121.08C577.57 122.232 576.346 123.402 574.42 123.402C572.386 123.402 571.576 122.466 571.576 121.53C571.576 120.702 572.404 119.856 573.592 119.226L574.978 119.388C577.156 119.658 577.57 120.126 577.57 121.08Z" fill="#505050"/>
<path d="M590.902 109.668C589.768 109.668 588.742 110.082 587.824 110.622V105.312H586.132V119.64C587.572 120.018 588.562 120.18 589.66 120.18C592.522 120.18 594.592 118.29 594.592 114.456C594.592 111.54 593.314 109.668 590.902 109.668ZM589.876 118.668C589.246 118.668 588.472 118.578 587.824 118.47V111.936C588.58 111.576 589.48 111.18 590.344 111.18C592.054 111.18 592.792 112.368 592.792 114.78C592.792 116.832 592.252 118.668 589.876 118.668Z" fill="#505050"/>
<path d="M604.263 117.732V112.656C604.263 110.442 602.715 109.668 600.861 109.668C599.619 109.668 597.909 109.956 597.099 110.316V111.828C597.963 111.522 599.493 111.18 600.573 111.18C601.689 111.18 602.571 111.522 602.571 113.052V114.276H601.239C598.323 114.276 596.541 115.302 596.541 117.336C596.541 119.01 597.495 120.18 599.421 120.18C600.843 120.18 602.013 119.46 602.733 118.902L602.931 120H604.641L604.263 117.732ZM598.251 117.21C598.251 116.058 599.133 115.608 600.915 115.608H602.571V117.642C601.689 118.236 600.645 118.74 599.691 118.74C598.701 118.74 598.251 118.182 598.251 117.21Z" fill="#505050"/>
<path d="M613.18 110.19C612.568 109.848 611.794 109.668 610.894 109.668C608.518 109.668 607.024 111.54 607.024 113.088C607.024 114.51 607.726 115.446 608.914 115.914L607.24 117.588V118.902L608.536 119.046C607.42 119.694 606.43 120.594 606.43 121.782C606.43 123.6 608.05 124.806 610.678 124.806C613.81 124.806 615.736 122.79 615.736 120.738C615.736 119.226 614.908 118.128 612.19 117.822L608.968 117.462L610.12 116.22C610.372 116.238 610.624 116.256 610.894 116.256C612.964 116.256 614.638 114.51 614.638 112.962C614.638 112.26 614.494 111.684 614.206 111.198H616.15V109.812L613.18 110.19ZM610.894 114.96C609.688 114.96 608.77 114.276 608.77 112.926C608.77 111.756 609.508 111.036 610.768 111.036C612.1 111.036 612.91 111.792 612.91 112.998C612.91 114.15 612.064 114.96 610.894 114.96ZM614.08 121.08C614.08 122.232 612.856 123.402 610.93 123.402C608.896 123.402 608.086 122.466 608.086 121.53C608.086 120.702 608.914 119.856 610.102 119.226L611.488 119.388C613.666 119.658 614.08 120.126 614.08 121.08Z" fill="#505050"/>
<path d="M620.036 120C620.81 120 621.476 119.352 621.476 118.578C621.476 117.786 620.81 117.12 620.036 117.12C619.244 117.12 618.596 117.786 618.596 118.578C618.596 119.352 619.244 120 620.036 120Z" fill="#505050"/>
<path d="M0 20.043C0 8.77419 8.77419 0 20 0C31.2258 0 40 8.77419 40 20.043C40 31.3118 31.2258 40.086 20 40.086C8.77419 40.086 0 31.3118 0 20.043ZM19.4839 35.0108C24.8172 35.0108 28.6452 30.4946 28.6452 24.3871C28.6452 19.871 24.8602 16.3441 20.043 16.3441C18.4086 16.3441 16.2151 17.0753 14.8817 18.1075V11.914H27.3548V6.36559H12.7312V21.2043H14.2366C15.2688 19.7849 17.8065 18.7527 19.871 18.7527C23.6129 18.7527 26.4946 21.2043 26.4946 24.4301C26.4946 27.2258 23.4839 29.5484 19.7849 29.5484C17.0753 29.5484 14.6667 28.129 13.7634 27.3118L11.0108 30.9677C13.2903 33.7204 16.043 35.0108 19.4839 35.0108Z" fill="#235B4E"/>
</svg>
