<svg width="408" height="63" viewBox="0 0 408 63" fill="none" xmlns="http://www.w3.org/2000/svg">
<path d="M74.85 5.52002H73.266V15.6H74.85V11.928H77.82V10.488H74.85V5.52002ZM71.34 13.62L66.354 10.056C66.804 8.95802 67.128 7.77002 67.272 6.47402L65.58 6.31202C65.238 9.96602 63.222 12.864 60.54 14.628L61.71 15.888C63.312 14.736 64.698 13.242 65.688 11.442L70.44 14.862L71.34 13.62ZM69.324 15.888C65.724 15.888 63.618 17.202 63.618 19.38C63.618 21.576 65.724 22.89 69.324 22.89C72.924 22.89 75.03 21.576 75.03 19.38C75.03 17.202 72.924 15.888 69.324 15.888ZM72.834 20.64C72.186 21.144 71.016 21.45 69.324 21.45C67.632 21.45 66.444 21.144 65.814 20.64C65.454 20.316 65.274 19.902 65.274 19.38C65.274 18.876 65.454 18.444 65.814 18.138C66.462 17.652 67.632 17.328 69.324 17.328C71.016 17.328 72.186 17.652 72.834 18.138C73.194 18.444 73.374 18.876 73.374 19.38C73.374 19.902 73.194 20.316 72.834 20.64Z" fill="black"/>
<path d="M80.79 6.24002V7.68002H93.21V6.24002H80.79ZM93.138 12.27V10.866H90.492L90.834 8.52602L89.196 8.40002L88.89 10.866H85.074L84.768 8.40002L83.13 8.52602L83.472 10.866H80.88V12.27H93.138ZM95.55 13.674H78.45V15.15H86.262V17.13H81.6V22.62H92.4V17.13H87.756V15.15H95.55V13.674ZM83.148 21.216V18.498H90.834V21.216H83.148Z" fill="black"/>
<path d="M110.13 13.08V15.6H111.75V5.52002H110.13V8.34602H106.08V7.05002H97.98V14.34H106.08V13.08H110.13ZM99.564 13.026V8.38202H104.496V13.026H99.564ZM110.13 11.676H106.08V9.75002H110.13V11.676ZM106.134 15.888C102.534 15.888 100.428 17.202 100.428 19.38C100.428 21.576 102.534 22.89 106.134 22.89C109.734 22.89 111.84 21.576 111.84 19.38C111.84 17.202 109.734 15.888 106.134 15.888ZM109.644 20.64C108.996 21.144 107.826 21.45 106.134 21.45C104.442 21.45 103.254 21.144 102.624 20.64C102.264 20.316 102.084 19.902 102.084 19.38C102.084 18.876 102.264 18.444 102.624 18.138C103.272 17.652 104.442 17.328 106.134 17.328C107.826 17.328 108.996 17.652 109.644 18.138C110.004 18.444 110.184 18.876 110.184 19.38C110.184 19.902 110.004 20.316 109.644 20.64Z" fill="black"/>
<path d="M123 11.622C126.582 11.622 128.76 10.614 128.76 8.70602C128.76 6.79802 126.582 5.79002 123 5.79002C119.418 5.79002 117.24 6.79802 117.24 8.70602C117.24 10.614 119.418 11.622 123 11.622ZM123 10.182C121.272 10.182 119.994 9.94802 119.364 9.55202C119.04 9.33602 118.896 9.04802 118.896 8.70602C118.896 8.36402 119.022 8.07602 119.364 7.86002C119.994 7.48202 121.272 7.23002 123 7.23002C124.728 7.23002 125.988 7.48202 126.636 7.86002C126.978 8.07602 127.104 8.36402 127.104 8.70602C127.104 9.04802 126.96 9.33602 126.636 9.55202C126.006 9.94802 124.728 10.182 123 10.182ZM131.55 14.232V12.774H114.45V14.232H131.55ZM129.444 22.71V21.342H119.202V19.812H128.364V15.69H117.276V17.04H126.744V18.498H117.6V22.71H129.444Z" fill="black"/>
<path d="M152.426 18.48V5.52002H150.806V9.67802H145.856V11.118H150.806V18.48H152.426ZM148.286 14.844L143.03 10.956C143.516 9.67802 143.858 8.27402 144.002 6.74402L142.346 6.61802C141.986 10.578 140.204 13.584 137.486 15.672L138.674 16.878C140.204 15.636 141.482 14.142 142.418 12.324L147.44 16.05L148.286 14.844ZM143.246 16.77H141.626V22.53H153.146V21.054H143.246V16.77Z" fill="black"/>
<path d="M169.292 10.668H166.376V5.97002H164.81V13.458C162.794 14.07 160.328 14.376 157.808 14.376V11.964H162.326V10.614H157.808V8.63402H162.794V7.23002H156.206V15.78C160.112 15.78 162.83 15.42 164.81 14.808V16.41H166.376V12.09H169.292V16.41H170.876V5.52002H169.292V10.668ZM169.22 18.786V22.836H170.876V17.31H159.356V18.786H169.22Z" fill="black"/>
<path d="M187.526 13.008V5.52002H185.942V22.8H187.526V14.448H190.496V13.008H187.526ZM175.412 6.78002V8.22002H182.324V6.78002H175.412ZM184.016 11.784V10.308H173.306V11.784H184.016ZM178.85 13.314C176.456 13.314 174.872 14.79 174.872 16.77C174.872 18.75 176.456 20.226 178.85 20.226C181.244 20.226 182.81 18.75 182.81 16.77C182.81 14.79 181.244 13.314 178.85 13.314ZM178.85 18.786C177.338 18.786 176.492 18.03 176.492 16.77C176.492 15.528 177.338 14.754 178.85 14.754C180.362 14.754 181.208 15.528 181.208 16.77C181.208 18.03 180.362 18.786 178.85 18.786Z" fill="black"/>
<path d="M204.806 13.89V18.48H206.426V5.52002H204.806V8.70602H200.756V7.41002H192.656V15.15H200.756V13.89H204.806ZM194.24 13.818V8.76002H199.172V13.818H194.24ZM204.806 12.486H200.756V10.11H204.806V12.486ZM197.246 16.77H195.626V22.53H207.146V21.054H197.246V16.77Z" fill="black"/>
<path d="M228.202 13.188V5.52002H226.618V22.8H228.202V14.628H231.172V13.188H228.202ZM221.848 9.71402V9.76802C221.128 13.098 218.554 16.644 214.162 18.678L215.26 20.046C219.652 17.922 223.126 13.764 223.738 8.22002H215.098V9.71402H221.848Z" fill="black"/>
<path d="M245.482 9.15602H241.36C241.576 8.54402 241.738 7.91402 241.828 7.23002H233.35V8.67002H239.848V8.72402C239.038 11.046 236.554 13.494 232.432 14.664L233.314 16.086C236.356 15.132 239.182 13.26 240.712 10.56H245.482V12.486H240.892V13.89H245.482V15.87H247.102V5.52002H245.482V9.15602ZM245.446 18.246V22.836H247.102V16.77H235.762V18.246H245.446Z" fill="black"/>
<path d="M268.877 13.008V5.52002H267.293V16.77C264.377 17.616 260.723 18.084 257.429 18.084V14.196H263.855V7.95002H255.557V9.42602H262.271V12.792H255.809V19.542C260.543 19.542 264.431 19.02 267.293 18.156V22.8H268.877V14.448H271.847V13.008H268.877Z" fill="black"/>
<path d="M286.643 5.52002V14.61H288.227V5.52002H286.643ZM282.521 11.208V14.61H284.087V5.97002H282.521V9.76802H280.307V6.87002H278.831V9.31802H275.051V6.87002H273.557V14.16H280.307V11.208H282.521ZM275.051 12.828V10.632H278.831V12.828H275.051ZM278.831 19.758H288.227V15.51H276.761V16.878H286.607V18.444H277.229V22.8H288.947V21.432H278.831V19.758Z" fill="black"/>
<path d="M305.777 22.8V5.52002H304.157V22.8H305.777ZM296.147 19.596C298.937 19.596 300.737 17.418 300.737 13.566C300.737 9.73202 298.937 7.55402 296.147 7.55402C293.357 7.55402 291.557 9.73202 291.557 13.566C291.557 17.418 293.357 19.596 296.147 19.596ZM296.147 18.084C294.311 18.084 293.213 16.536 293.213 13.566C293.213 10.614 294.311 9.06602 296.147 9.06602C297.983 9.06602 299.081 10.614 299.081 13.566C299.081 16.536 297.983 18.084 296.147 18.084Z" fill="black"/>
<path d="M328.453 18.48V5.52002H326.833V18.48H328.453ZM318.643 15.366C321.253 15.366 323.053 13.89 323.053 11.226C323.053 8.58002 321.253 7.10402 318.643 7.10402C316.033 7.10402 314.233 8.58002 314.233 11.226C314.233 13.89 316.033 15.366 318.643 15.366ZM318.643 13.962C317.023 13.962 315.853 13.08 315.853 11.226C315.853 9.37202 317.023 8.50802 318.643 8.50802C320.263 8.50802 321.433 9.37202 321.433 11.226C321.433 13.08 320.263 13.962 318.643 13.962ZM329.173 22.53V21.054H319.273V16.77H317.653V22.53H329.173Z" fill="black"/>
<path d="M345.319 13.278H342.853V6.24002H341.287V22.44H342.853V14.628H345.319V22.782H346.903V5.52002H345.319V13.278ZM339.253 14.844L340.135 13.692L336.517 10.362C336.859 9.48002 337.093 8.54402 337.219 7.50002L335.707 7.30202C335.365 10.506 333.619 12.918 331.423 14.628L332.629 15.654C333.907 14.556 335.041 13.296 335.869 11.748L339.253 14.844ZM336.877 14.52H335.347V18.3C334.177 18.354 332.845 18.39 331.243 18.39L331.405 19.83C335.527 19.83 338.173 19.596 340.603 19.038L340.387 17.67C339.271 17.904 338.173 18.066 336.877 18.192V14.52Z" fill="black"/>
<path d="M362.869 15.78H364.453V5.52002H362.869V15.78ZM361.663 13.332C360.007 13.638 358.243 13.854 356.245 13.98V12.09H359.899V10.758H352.735V7.98602H359.593V6.60002H351.223V12.09H354.661V14.07C353.023 14.124 351.241 14.16 349.243 14.16L349.423 15.618C354.625 15.618 358.531 15.33 361.843 14.7L361.663 13.332ZM355.165 18.156V16.5H353.563V22.62H364.453V16.5H362.851V18.156H355.165ZM355.165 21.198V19.488H362.851V21.198H355.165Z" fill="black"/>
<path d="M380.833 15.564C377.647 16.734 373.111 17.418 370.519 17.418V7.77002H368.863V18.93C373.129 18.93 377.755 18.192 380.833 16.968V22.8H382.453V5.52002H380.833V15.564Z" fill="black"/>
<path d="M399.553 13.188V5.52002H397.969V16.122C395.161 17.076 390.931 17.616 388.159 17.616L388.123 9.42602H395.035V7.95002H386.503V19.11C390.895 19.11 395.251 18.534 397.969 17.526V22.8H399.553V14.628H402.523V13.188H399.553Z" fill="black"/>
<path d="M406.303 21C407.077 21 407.743 20.352 407.743 19.578C407.743 18.786 407.077 18.12 406.303 18.12C405.511 18.12 404.863 18.786 404.863 19.578C404.863 20.352 405.511 21 406.303 21Z" fill="black"/>
<path d="M61.26 57.4062C62.448 57.9102 63.708 58.1802 65.004 58.1802C67.47 58.1802 69.612 56.8482 69.612 54.4002C69.612 51.8622 67.362 51.0882 65.454 50.2962C63.888 49.6662 62.988 49.1982 62.988 47.9562C62.988 46.8762 64.158 46.2462 65.382 46.2462C66.732 46.2462 68.028 46.6602 69.108 47.3622V45.4722C68.244 45.0222 66.984 44.6802 65.382 44.6802C63.114 44.6802 61.17 46.0662 61.17 48.3882C61.17 50.5302 62.952 51.4122 64.608 52.0422C66.3 52.6902 67.794 53.1402 67.794 54.5802C67.794 55.8222 66.624 56.5602 65.112 56.5602C63.744 56.5602 62.232 56.0922 61.26 55.5162V57.4062Z" fill="#505050"/>
<path d="M80.4092 52.5102C80.4092 49.7922 79.0772 47.6682 76.1972 47.6682C73.3172 47.6682 71.6252 50.0262 71.6252 53.1222C71.6252 56.2722 73.2812 58.1802 76.3952 58.1802C78.0512 58.1802 79.2572 57.8922 80.1572 57.3522V55.9122C79.2212 56.3802 77.7992 56.6682 76.6472 56.6682C74.6852 56.6682 73.5332 55.6062 73.4252 53.3022H80.4092V52.5102ZM76.1252 49.1802C77.7272 49.1802 78.4292 50.3682 78.5192 51.9522H73.4792C73.7312 49.7922 74.8472 49.1802 76.1252 49.1802Z" fill="#505050"/>
<path d="M84.8122 58.0002V43.3122H83.1202V58.0002H84.8122Z" fill="#505050"/>
<path d="M96.3174 52.5102C96.3174 49.7922 94.9854 47.6682 92.1054 47.6682C89.2254 47.6682 87.5334 50.0262 87.5334 53.1222C87.5334 56.2722 89.1894 58.1802 92.3034 58.1802C93.9594 58.1802 95.1654 57.8922 96.0654 57.3522V55.9122C95.1294 56.3802 93.7074 56.6682 92.5554 56.6682C90.5934 56.6682 89.4414 55.6062 89.3334 53.3022H96.3174V52.5102ZM92.0334 49.1802C93.6354 49.1802 94.3374 50.3682 94.4274 51.9522H89.3874C89.6394 49.7922 90.7554 49.1802 92.0334 49.1802Z" fill="#505050"/>
<path d="M103.006 58.1802C104.176 58.1802 105.202 57.9462 105.976 57.4782V56.0382C105.13 56.4702 104.212 56.6682 103.42 56.6682C101.368 56.6682 100.126 55.4982 100.126 52.9602C100.126 49.9722 101.566 49.1802 103.168 49.1802C104.086 49.1802 105.022 49.3602 105.976 49.9902V48.1902C105.22 47.7762 104.212 47.6682 103.24 47.6682C100.09 47.6682 98.3264 50.0082 98.3264 53.0862C98.3264 56.2362 99.8924 58.1802 103.006 58.1802Z" fill="#505050"/>
<path d="M112.729 56.6682C111.649 56.6682 110.911 56.3802 110.893 55.0122V49.3782H114.259V47.8662H110.893V45.2202H109.201V47.8662H107.509V49.3782H109.201V55.2102C109.201 57.3702 110.551 58.1802 112.099 58.1802C113.053 58.1802 113.917 58.0182 114.457 57.7122V56.3262C113.989 56.4882 113.323 56.6682 112.729 56.6682Z" fill="#505050"/>
<path d="M125.42 56.6682C124.34 56.6682 123.602 56.3802 123.584 55.0122V49.3782H126.95V47.8662H123.584V45.2202H121.892V47.8662H120.2V49.3782H121.892V55.2102C121.892 57.3702 123.242 58.1802 124.79 58.1802C125.744 58.1802 126.608 58.0182 127.148 57.7122V56.3262C126.68 56.4882 126.014 56.6682 125.42 56.6682Z" fill="#505050"/>
<path d="M134.696 47.6682C133.256 47.6682 131.906 48.3882 130.97 49.0182V43.3122H129.278V58.0002H130.97V50.3682C131.924 49.7922 133.148 49.1802 134.066 49.1802C135.614 49.1802 135.974 49.9182 135.974 51.5022V58.0002H137.666V51.3222C137.666 48.7122 136.73 47.6682 134.696 47.6682Z" fill="#505050"/>
<path d="M148.981 52.5102C148.981 49.7922 147.649 47.6682 144.77 47.6682C141.89 47.6682 140.198 50.0262 140.198 53.1222C140.198 56.2722 141.854 58.1802 144.967 58.1802C146.623 58.1802 147.829 57.8922 148.729 57.3522V55.9122C147.794 56.3802 146.371 56.6682 145.219 56.6682C143.257 56.6682 142.105 55.6062 141.997 53.3022H148.981V52.5102ZM144.698 49.1802C146.299 49.1802 147.002 50.3682 147.091 51.9522H142.051C142.303 49.7922 143.42 49.1802 144.698 49.1802Z" fill="#505050"/>
<path d="M161.066 47.6682C159.842 47.6682 158.726 48.1542 157.754 48.7662L157.592 47.8662H155.882L156.296 50.2782V62.6622H157.988V57.9822C158.51 58.0902 159.176 58.1802 159.842 58.1802C162.686 58.1802 164.756 56.2902 164.756 52.4562C164.756 49.5402 163.478 47.6682 161.066 47.6682ZM160.04 56.6682C159.446 56.6682 158.6 56.5782 157.988 56.4342V49.9362C158.726 49.5762 159.644 49.1802 160.508 49.1802C162.218 49.1802 162.956 50.3682 162.956 52.7802C162.956 54.8322 162.416 56.6682 160.04 56.6682Z" fill="#505050"/>
<path d="M171.923 47.6682C170.933 47.6682 169.817 48.3522 168.971 49.1442L168.737 47.8662H167.027L167.441 50.2782V58.0002H169.133V50.5662C169.889 49.9722 170.825 49.2882 172.067 49.2882C172.355 49.2882 172.643 49.3062 172.967 49.3962V47.7762C172.607 47.6862 172.283 47.6682 171.923 47.6682Z" fill="#505050"/>
<path d="M178.625 58.1802C181.415 58.1802 183.233 55.6962 183.233 52.9422C183.233 49.3422 181.703 47.6682 178.715 47.6682C175.997 47.6682 174.035 50.1702 174.035 52.9782C174.035 56.5962 175.853 58.1802 178.625 58.1802ZM178.697 56.6682C176.465 56.6682 175.835 55.0482 175.835 52.9062C175.835 50.9802 176.393 49.1802 178.625 49.1802C181.073 49.1802 181.433 51.0702 181.433 52.9782C181.433 54.9762 180.893 56.6682 178.697 56.6682Z" fill="#505050"/>
<path d="M193.872 55.7322V43.3122H192.18V47.8662C191.622 47.7762 190.776 47.6682 190.2 47.6682C187.5 47.6682 185.268 49.8102 185.268 53.4102C185.268 56.9022 187.338 58.1802 189.174 58.1802C190.488 58.1802 191.514 57.6042 192.342 56.8842L192.54 58.0002H194.25L193.872 55.7322ZM187.068 53.0682C187.068 50.1702 188.274 49.1802 190.164 49.1802C190.812 49.1802 191.586 49.3062 192.18 49.4862V55.5882C191.118 56.2722 190.434 56.6682 189.498 56.6682C187.932 56.6682 187.068 55.5162 187.068 53.0682Z" fill="#505050"/>
<path d="M205.212 55.5522V47.8662H203.52V55.4802C202.584 56.0562 201.558 56.6682 200.64 56.6682C199.092 56.6682 198.732 55.9302 198.732 54.3462V47.8662H197.04V54.5262C197.04 57.1362 197.994 58.1802 200.01 58.1802C201.522 58.1802 202.8 57.3882 203.682 56.7222L203.934 58.0002H205.644L205.212 55.5522Z" fill="#505050"/>
<path d="M212.553 58.1802C213.723 58.1802 214.749 57.9462 215.523 57.4782V56.0382C214.677 56.4702 213.759 56.6682 212.967 56.6682C210.915 56.6682 209.673 55.4982 209.673 52.9602C209.673 49.9722 211.113 49.1802 212.715 49.1802C213.633 49.1802 214.569 49.3602 215.523 49.9902V48.1902C214.767 47.7762 213.759 47.6682 212.787 47.6682C209.637 47.6682 207.873 50.0082 207.873 53.0862C207.873 56.2362 209.439 58.1802 212.553 58.1802Z" fill="#505050"/>
<path d="M222.276 56.6682C221.196 56.6682 220.458 56.3802 220.44 55.0122V49.3782H223.806V47.8662H220.44V45.2202H218.748V47.8662H217.056V49.3782H218.748V55.2102C218.748 57.3702 220.098 58.1802 221.646 58.1802C222.6 58.1802 223.464 58.0182 224.004 57.7122V56.3262C223.536 56.4882 222.87 56.6682 222.276 56.6682Z" fill="#505050"/>
<path d="M234.967 56.6682C233.887 56.6682 233.149 56.3802 233.131 55.0122V49.3782H236.497V47.8662H233.131V45.2202H231.439V47.8662H229.747V49.3782H231.439V55.2102C231.439 57.3702 232.789 58.1802 234.337 58.1802C235.291 58.1802 236.155 58.0182 236.695 57.7122V56.3262C236.227 56.4882 235.561 56.6682 234.967 56.6682Z" fill="#505050"/>
<path d="M242.803 58.1802C245.593 58.1802 247.411 55.6962 247.411 52.9422C247.411 49.3422 245.881 47.6682 242.893 47.6682C240.175 47.6682 238.213 50.1702 238.213 52.9782C238.213 56.5962 240.031 58.1802 242.803 58.1802ZM242.875 56.6682C240.643 56.6682 240.013 55.0482 240.013 52.9062C240.013 50.9802 240.571 49.1802 242.803 49.1802C245.251 49.1802 245.611 51.0702 245.611 52.9782C245.611 54.9762 245.071 56.6682 242.875 56.6682Z" fill="#505050"/>
<path d="M259.521 47.6682C258.297 47.6682 257.181 48.1542 256.209 48.7662L256.047 47.8662H254.337L254.751 50.2782V62.6622H256.443V57.9822C256.965 58.0902 257.631 58.1802 258.297 58.1802C261.141 58.1802 263.211 56.2902 263.211 52.4562C263.211 49.5402 261.933 47.6682 259.521 47.6682ZM258.495 56.6682C257.901 56.6682 257.055 56.5782 256.443 56.4342V49.9362C257.181 49.5762 258.099 49.1802 258.963 49.1802C260.673 49.1802 261.411 50.3682 261.411 52.7802C261.411 54.8322 260.871 56.6682 258.495 56.6682Z" fill="#505050"/>
<path d="M270.378 47.6682C269.388 47.6682 268.272 48.3522 267.426 49.1442L267.192 47.8662H265.482L265.896 50.2782V58.0002H267.588V50.5662C268.344 49.9722 269.28 49.2882 270.522 49.2882C270.81 49.2882 271.098 49.3062 271.422 49.3962V47.7762C271.062 47.6862 270.738 47.6682 270.378 47.6682Z" fill="#505050"/>
<path d="M274.751 42.8262C274.031 42.8262 273.491 43.3482 273.491 44.0502C273.491 44.7522 274.031 45.2922 274.751 45.2922C275.453 45.2922 276.011 44.7522 276.011 44.0502C276.011 43.3482 275.453 42.8262 274.751 42.8262ZM272.231 47.8662V49.3782H273.869V58.0002H275.561V47.8662H272.231Z" fill="#505050"/>
<path d="M284.234 47.6682C282.704 47.6682 281.264 48.4782 280.328 49.1442L280.094 47.8662H278.384L278.798 50.2782V58.0002H280.49V50.3682C281.444 49.7922 282.668 49.1802 283.604 49.1802C285.152 49.1802 285.512 49.9182 285.512 51.5022V58.0002H287.204V51.3222C287.204 48.7122 286.25 47.6682 284.234 47.6682Z" fill="#505050"/>
<path d="M294.487 56.6682C293.407 56.6682 292.669 56.3802 292.651 55.0122V49.3782H296.017V47.8662H292.651V45.2202H290.959V47.8662H289.267V49.3782H290.959V55.2102C290.959 57.3702 292.309 58.1802 293.857 58.1802C294.811 58.1802 295.675 58.0182 296.215 57.7122V56.3262C295.747 56.4882 295.081 56.6682 294.487 56.6682Z" fill="#505050"/>
<path d="M307.178 56.6682C306.098 56.6682 305.36 56.3802 305.342 55.0122V49.3782H308.708V47.8662H305.342V45.2202H303.65V47.8662H301.958V49.3782H303.65V55.2102C303.65 57.3702 305 58.1802 306.548 58.1802C307.502 58.1802 308.366 58.0182 308.906 57.7122V56.3262C308.438 56.4882 307.772 56.6682 307.178 56.6682Z" fill="#505050"/>
<path d="M316.454 47.6682C315.014 47.6682 313.664 48.3882 312.728 49.0182V43.3122H311.036V58.0002H312.728V50.3682C313.682 49.7922 314.906 49.1802 315.824 49.1802C317.372 49.1802 317.732 49.9182 317.732 51.5022V58.0002H319.424V51.3222C319.424 48.7122 318.488 47.6682 316.454 47.6682Z" fill="#505050"/>
<path d="M330.739 52.5102C330.739 49.7922 329.407 47.6682 326.527 47.6682C323.647 47.6682 321.955 50.0262 321.955 53.1222C321.955 56.2722 323.611 58.1802 326.725 58.1802C328.381 58.1802 329.587 57.8922 330.487 57.3522V55.9122C329.551 56.3802 328.129 56.6682 326.977 56.6682C325.015 56.6682 323.863 55.6062 323.755 53.3022H330.739V52.5102ZM326.455 49.1802C328.057 49.1802 328.759 50.3682 328.849 51.9522H323.809C324.061 49.7922 325.177 49.1802 326.455 49.1802Z" fill="#505050"/>
<path d="M339.818 58.0002V43.3122H338.126V58.0002H339.818Z" fill="#505050"/>
<path d="M350.153 55.7322V50.6562C350.153 48.4422 348.605 47.6682 346.751 47.6682C345.509 47.6682 343.799 47.9562 342.989 48.3162V49.8282C343.853 49.5222 345.383 49.1802 346.463 49.1802C347.579 49.1802 348.461 49.5222 348.461 51.0522V52.2762H347.129C344.213 52.2762 342.431 53.3022 342.431 55.3362C342.431 57.0102 343.385 58.1802 345.311 58.1802C346.733 58.1802 347.903 57.4602 348.623 56.9022L348.821 58.0002H350.531L350.153 55.7322ZM344.141 55.2102C344.141 54.0582 345.023 53.6082 346.805 53.6082H348.461V55.6422C347.579 56.2362 346.535 56.7402 345.581 56.7402C344.591 56.7402 344.141 56.1822 344.141 55.2102Z" fill="#505050"/>
<path d="M358.027 47.6682C356.893 47.6682 355.867 48.0822 354.949 48.6222V43.3122H353.257V57.6402C354.697 58.0182 355.687 58.1802 356.785 58.1802C359.647 58.1802 361.717 56.2902 361.717 52.4562C361.717 49.5402 360.439 47.6682 358.027 47.6682ZM357.001 56.6682C356.371 56.6682 355.597 56.5782 354.949 56.4702V49.9362C355.705 49.5762 356.605 49.1802 357.469 49.1802C359.179 49.1802 359.917 50.3682 359.917 52.7802C359.917 54.8322 359.377 56.6682 357.001 56.6682Z" fill="#505050"/>
<path d="M372.558 52.5102C372.558 49.7922 371.226 47.6682 368.346 47.6682C365.466 47.6682 363.774 50.0262 363.774 53.1222C363.774 56.2722 365.43 58.1802 368.544 58.1802C370.2 58.1802 371.406 57.8922 372.306 57.3522V55.9122C371.37 56.3802 369.948 56.6682 368.796 56.6682C366.834 56.6682 365.682 55.6062 365.574 53.3022H372.558V52.5102ZM368.274 49.1802C369.876 49.1802 370.578 50.3682 370.668 51.9522H365.628C365.88 49.7922 366.996 49.1802 368.274 49.1802Z" fill="#505050"/>
<path d="M376.961 58.0002V43.3122H375.269V58.0002H376.961Z" fill="#505050"/>
<path d="M382.274 58.0002C383.048 58.0002 383.714 57.3522 383.714 56.5782C383.714 55.7862 383.048 55.1202 382.274 55.1202C381.482 55.1202 380.834 55.7862 380.834 56.5782C380.834 57.3522 381.482 58.0002 382.274 58.0002Z" fill="#505050"/>
<path d="M0 20.043C0 8.77419 8.77419 0 20 0C31.2258 0 40 8.77419 40 20.043C40 31.3118 31.2258 40.086 20 40.086C8.77419 40.086 0 31.3118 0 20.043ZM22.8387 28V33.7204H24.9893V28H28.5591V22.4516H24.9893V9.46237H22.8387V22.4516H14.6237L23.0108 5.46237H20.5591L9.16129 28H22.8387Z" fill="#235B4E"/>
</svg>
