<svg width="600" height="686" viewBox="0 0 600 686" fill="none" xmlns="http://www.w3.org/2000/svg">
<g clip-path="url(#clip0_157_88)">
<path d="M571.088 527.956L515.732 373.033L485.727 297.245L462.714 227.231L445.01 178.542L443.387 182.062L439.883 180.409L438.26 183.93L434.755 182.276L433.132 185.797L429.627 184.143L428.004 187.664L424.5 186.011L422.877 189.531L419.372 187.878L417.749 191.398L414.245 189.745L412.622 193.265L409.117 191.612L407.494 195.132L403.99 193.479L402.367 197L398.862 195.346L397.239 198.867L393.734 197.213L392.111 200.734L388.607 199.08L386.984 202.601L383.479 200.948L381.856 204.468L378.352 202.815L376.729 206.335L373.224 204.682L371.601 208.202L368.096 206.549L366.474 210.069L362.969 208.416L361.346 211.937L357.841 210.283L356.218 213.804L352.714 212.15L351.091 215.671L347.586 214.018L345.963 217.538L342.459 215.885L340.836 219.405L337.331 217.752L336.23 220.137C338.675 223.822 339.439 229.354 339.644 231.373C339.706 231.998 339.792 232.623 339.878 233.244C342.849 253.725 333.013 264.27 330.038 266.943C329.438 267.482 328.834 268.012 328.247 268.559C309.931 285.66 290.526 278.882 290.526 278.882C268.364 273.688 262.081 256.633 260.352 245.882L258.774 249.304L255.269 247.651L253.646 251.171L250.142 249.518L248.519 253.038L245.014 251.385L243.391 254.905L239.887 253.252L238.264 256.773L234.759 255.119L233.136 258.64L229.631 256.986L228.009 260.507L224.504 258.854L248.087 315.633L293.336 440.813L318.148 518.669L359.464 624.623L379.81 685.959L600.041 604.743L571.088 527.956Z" fill="#CFAE8D"/>
<path d="M484.876 519.866C484.876 519.866 481.215 514.141 474.395 508.865C471.305 512.891 468.228 520.364 469.033 533.985C469.033 533.985 469.933 552.537 485.402 564.579C490.645 555.481 496.06 539.224 484.876 519.866Z" fill="#CFAE8D"/>
<path d="M428.686 384.811C428.686 384.811 412.946 375.476 393.048 384.963C393.685 390.532 395.517 396.59 399.158 402.997C399.158 402.997 418.127 433.155 450.573 419.349C450.573 419.349 451.272 419.135 452.438 418.625C451.604 407.538 446.707 393.069 428.686 384.811Z" fill="#CFAE8D"/>
<path d="M388.516 412.292C388.516 412.292 391.77 400.472 387.995 387.735C387.387 388.101 386.774 388.459 386.162 388.817C382.596 390.918 370.463 399.596 369.28 420.978C369.243 421.628 369.202 422.277 369.136 422.923C368.91 425.234 368.495 432.028 370.911 436.301C377.879 431.736 384.605 424.33 388.516 412.292Z" fill="#CFAE8D"/>
<path d="M290.497 278.911C290.497 278.911 309.902 285.688 328.218 268.588C328.806 268.041 329.414 267.51 330.009 266.972C332.988 264.298 342.82 253.754 339.85 233.273C339.759 232.652 339.677 232.026 339.615 231.401C339.41 229.378 338.646 223.851 336.201 220.166L335.679 221.301L332.175 219.647L330.552 223.168L327.047 221.515L325.424 225.035L321.919 223.382L320.297 226.902L316.792 225.249L315.169 228.769L311.664 227.116L310.041 230.636L306.537 228.983L304.914 232.504L301.409 230.85L299.786 234.371L296.282 232.717L294.659 236.238L291.154 234.585L289.531 238.105L286.026 236.452L284.404 239.972L280.899 238.319L279.276 241.839L275.771 240.186L274.148 243.706L270.644 242.053L269.021 245.574L265.516 243.92L263.893 247.441L260.389 245.787L260.343 245.886C262.053 256.661 268.335 273.716 290.497 278.911Z" fill="#E4007F"/>
<path d="M544.061 505.776C543.556 505.114 543.071 504.435 542.582 503.765C540.133 500.425 530.285 489.218 508.912 490.201C508.262 490.23 507.613 490.255 506.964 490.255C504.413 490.263 496.446 490.592 492.74 494.302C492.74 494.302 480.693 496.572 479.942 504.423C479.942 504.423 477.164 505.258 474.395 508.864C481.215 514.141 484.876 519.866 484.876 519.866C496.06 539.224 490.641 555.481 485.398 564.578C490.193 568.313 496.384 571.418 504.388 573.153C504.388 573.153 539.488 579.116 550.848 545.71C550.848 545.71 559.793 526.392 544.061 505.776Z" fill="#E4007F"/>
<path d="M469.033 533.984C468.228 520.363 471.305 512.891 474.395 508.864C465.598 502.058 451.555 495.992 433.337 503.909C433.337 503.909 413.041 510.275 408.382 535.794C408.234 536.612 408.057 537.427 407.889 538.245C407.067 542.304 405.403 557.139 420.506 572.31C420.962 572.771 421.418 573.235 421.854 573.717C423.575 575.604 429.179 581.28 434.41 581.531C434.41 581.531 444.188 588.929 450.499 584.204C450.499 584.204 461.621 590.903 479.691 572.401C479.691 572.401 482.518 569.567 485.394 564.578C469.933 552.536 469.033 533.984 469.033 533.984Z" fill="#E4007F"/>
<path d="M416.997 492.286C416.997 492.286 417.552 480.027 410.087 477.497C410.087 477.497 409.306 464.526 383.841 460.093C383.841 460.093 352.529 454.298 337.647 485.566C337.647 485.566 323.805 518.398 353.687 537.126C353.687 537.126 370.422 550.266 394.075 539.664C394.835 539.323 395.608 539.006 396.372 538.681C400.181 537.061 413.337 530.032 417.281 508.984C417.4 508.346 417.527 507.705 417.675 507.075C418.25 504.583 419.754 496.749 416.997 492.286Z" fill="#E4007F"/>
<path d="M450.573 419.349C418.127 433.155 399.158 402.997 399.158 402.997C395.517 396.59 393.685 390.532 393.048 384.963C391.491 385.703 389.909 386.559 388.311 387.542C388.204 387.608 388.097 387.669 387.995 387.731C391.77 400.468 388.516 412.287 388.516 412.287C384.605 424.321 377.879 431.732 370.915 436.293C371.157 436.721 371.424 437.12 371.724 437.49C371.724 437.49 372.764 449.717 380.492 451.255C380.492 451.255 382.949 464.012 408.772 465.102C408.772 465.102 440.573 466.78 451.272 433.846C451.272 433.846 453.088 427.257 452.438 418.621C451.272 419.135 450.573 419.349 450.573 419.349Z" fill="#E4007F"/>
<path d="M463.926 351.046C463.47 350.582 463.022 350.113 462.587 349.632C460.878 347.732 455.319 342.011 450.088 341.723C450.088 341.723 440.363 334.25 434.019 338.93C434.019 338.93 422.947 332.149 404.737 350.512C404.737 350.512 390.694 364.384 393.048 384.971C412.946 375.488 428.686 384.819 428.686 384.819C446.707 393.077 451.604 407.546 452.438 418.633C457.574 416.392 471.815 408.426 475.771 387.661C475.928 386.843 476.112 386.028 476.281 385.214C477.14 381.155 478.915 366.333 463.926 351.046Z" fill="#E4007F"/>
<path d="M369.136 422.923C369.198 422.277 369.243 421.627 369.28 420.978C370.459 399.592 382.596 390.914 386.162 388.817C386.774 388.459 387.387 388.101 387.995 387.735C385.332 378.757 379.182 369.327 365.927 363.253C365.927 363.253 347.631 352.395 325.552 365.983C324.841 366.419 324.118 366.835 323.403 367.254C319.836 369.356 307.704 378.033 306.52 399.415C306.483 400.065 306.442 400.715 306.377 401.36C306.126 403.902 305.653 411.868 308.961 415.931C308.961 415.931 310 428.158 317.729 429.696C317.729 429.696 320.186 442.454 346.008 443.544C346.008 443.544 358.815 444.218 370.907 436.293C368.499 432.028 368.91 425.234 369.136 422.923Z" fill="#E4007F"/>
<path d="M346.197 326.593C346.197 326.593 347.237 338.82 354.965 340.358C354.965 340.358 357.422 353.115 383.245 354.205C383.245 354.205 415.046 355.883 425.745 322.949C425.745 322.949 435.215 288.596 403.155 273.91C403.155 273.91 384.86 263.052 362.78 276.641C362.069 277.077 361.346 277.492 360.631 277.911C357.065 280.013 344.932 288.691 343.749 310.072C343.712 310.722 343.671 311.372 343.605 312.017C343.362 314.563 342.886 322.529 346.197 326.593Z" fill="#E4007F"/>
<path d="M263.873 247.466L265.496 243.945L269.001 245.598L270.623 242.078L274.128 243.731L275.751 240.211L279.256 241.864L280.879 238.344L284.383 239.997L286.006 236.477L289.511 238.13L291.134 234.609L294.638 236.263L296.261 232.742L299.766 234.396L301.389 230.875L304.894 232.528L306.517 229.008L310.021 230.661L311.644 227.141L315.149 228.794L316.772 225.274L320.276 226.927L321.899 223.407L325.404 225.06L327.027 221.54L330.531 223.193L332.154 219.672L335.659 221.326L336.181 220.191C335.655 219.397 335.051 218.689 334.361 218.118C334.361 218.118 331.037 206.738 323.424 206.759C323.424 206.759 318.658 195.145 293.989 199.06C293.989 199.06 263.548 203.559 259.707 236.806C259.707 236.806 259.444 240.589 260.303 245.932L260.348 245.833L263.873 247.466Z" fill="#EB613A"/>
<path d="M420.638 155.133C420.638 155.133 430.305 147.586 427.376 140.266C427.376 140.266 436.715 131.243 423.534 108.985C423.534 108.985 407.585 81.3974 374.173 90.3958C374.173 90.3958 340.248 101.2 345.446 136.104C345.446 136.104 346.346 157.374 369.769 168.478C370.521 168.836 371.26 169.219 372.008 169.589C375.714 171.435 389.597 176.876 408.144 166.196C408.706 165.871 409.273 165.554 409.849 165.254C412.117 164.074 419.044 160.126 420.638 155.133Z" fill="#EB613A"/>
<path d="M218.399 78.1237C218.399 78.1237 226.817 87.044 233.822 83.4331C233.822 83.4331 243.679 91.8887 264.567 76.6514C264.567 76.6514 290.501 58.1527 278.397 25.7082C278.397 25.7082 264.448 -7.07776 230.223 1.39838C230.223 1.39838 209.154 4.3019 200.321 28.6898C200.037 29.4712 199.729 30.2485 199.429 31.0258C197.942 34.8917 193.841 49.2448 206.217 66.7153C206.59 67.2458 206.96 67.7804 207.314 68.3274C208.698 70.4742 213.279 77.0051 218.399 78.1237Z" fill="#EB613A"/>
<path d="M140.787 149.03C140.787 149.03 153.002 150.066 155.824 142.7C155.824 142.7 168.803 142.429 174.231 117.132C174.231 117.132 181.253 86.0405 150.627 69.9272C150.627 69.9272 118.399 54.7886 98.5252 83.939C98.5252 83.939 84.749 100.159 94.4001 124.235C94.7083 125.008 94.9959 125.793 95.2876 126.571C96.7544 130.445 103.25 143.881 124.11 148.651C124.742 148.795 125.375 148.947 126 149.12C128.465 149.799 136.226 151.612 140.787 149.03Z" fill="#EB613A"/>
<path d="M10.1526 83.9513C10.1526 83.9513 15.3007 95.0883 23.0907 93.8916C23.0907 93.8916 29.7549 105.041 54.3985 97.2351C54.3985 97.2351 84.8599 87.9406 83.6766 53.3286C83.6766 53.3286 80.854 17.8037 45.7128 14.9618C45.7128 14.9618 24.8122 11.0137 8.69817 31.3343C8.18049 31.9882 7.64226 32.6215 7.11224 33.2631C4.47861 36.4545 -3.96463 48.7595 2.22297 69.261C2.41197 69.882 2.59275 70.5071 2.75298 71.1363C3.3816 73.6122 5.65368 81.2617 10.1526 83.9513Z" fill="#EB613A"/>
<path d="M476.143 609.311L474.483 609.916L476.091 614.337L477.751 613.732L476.143 609.311Z" fill="#040000"/>
<path d="M484.245 619.44L478.469 621.544L478.967 622.913L484.743 620.808L484.245 619.44Z" fill="#040000"/>
<path d="M497.083 589.843C496.688 590.102 448.186 606.836 448.428 606.799C455.824 625.672 471.067 635.111 486.191 629.135C500.062 624.648 504.803 609.238 497.083 589.843ZM479.798 603.452L479.301 602.082L479.905 601.86L480.468 603.41C480.628 603.846 480.726 604.258 480.767 604.648C482.222 604.422 484.391 604.484 485.837 605.216L485.065 606.758C483.956 606.084 482.415 605.409 480.792 605.278C480.722 606.968 479.617 608.3 477.957 609.427L476.683 608.263C478.984 606.762 480.389 605.076 479.798 603.452ZM466.728 606.659L470.274 605.368L470.767 606.725L467.221 608.017L466.728 606.659ZM470.631 611.771C470.755 613.367 470.266 614.753 469.251 615.757L467.85 614.905C469.3 613.449 470.208 611.718 469.604 610.056L469.477 609.707L467.168 610.55L466.663 609.16L471.889 607.256L472.394 608.646L470.085 609.489L470.188 609.769C470.356 610.229 470.467 610.673 470.549 611.113C471.724 611.233 472.99 611.648 474.325 612.902L473.413 614.062C472.431 612.948 471.539 612.166 470.631 611.771ZM485.833 622L478.935 624.512L477.407 620.313L484.305 617.8L485.833 622ZM485.151 614.823L483.438 615.423L484.046 617.097L483.487 617.303L481.606 612.129L482.164 611.924L482.933 614.033L484.63 613.388L485.151 614.823ZM487.678 609.197L478.056 612.701L478.347 613.499L479.859 612.948L480.373 614.362L475.718 616.057L476.449 618.068L478.253 617.41C479.654 616.9 481.08 616.139 481.754 615.576L482.546 616.468C481.68 617.545 480.25 618.286 478.508 618.919L476.4 619.688L474.641 614.852L475.517 614.531L471.852 604.451L472.435 604.237L473.906 608.28L475.566 607.675L474.054 603.521L474.637 603.308L477.538 611.29L482.045 609.649L481.145 607.178L481.749 606.955L482.649 609.427L487.156 607.786L487.678 609.197Z" fill="#040000"/>
</g>
<defs>
<clipPath id="clip0_157_88">
<rect width="600" height="686" fill="white"/>
</clipPath>
</defs>
</svg>
