<svg width="637" height="125" viewBox="0 0 637 125" fill="none" xmlns="http://www.w3.org/2000/svg">
<path d="M74.85 13.188V5.52002H73.266V22.8H74.85V14.628H77.82V13.188H74.85ZM61.656 8.13002V9.60602H68.244V9.66002C67.452 12.81 64.5 16.338 60.63 18.39L61.602 19.722C63.528 18.606 65.346 17.166 66.804 15.42L70.728 19.416L71.718 18.174L67.722 14.232C68.964 12.45 69.846 10.398 70.152 8.13002H61.656Z" fill="black"/>
<path d="M87 13.512C90.69 13.512 92.94 12.126 92.94 9.87602C92.94 7.62602 90.69 6.24002 87 6.24002C83.31 6.24002 81.06 7.62602 81.06 9.87602C81.06 12.126 83.31 13.512 87 13.512ZM83.238 8.63402C83.904 8.04002 85.2 7.68002 87 7.68002C88.8 7.68002 90.078 8.04002 90.762 8.63402C91.122 8.95802 91.284 9.39002 91.284 9.87602C91.284 10.362 91.104 10.776 90.762 11.118C90.096 11.73 88.8 12.072 87 12.072C85.2 12.072 83.904 11.73 83.238 11.118C82.878 10.776 82.716 10.362 82.716 9.87602C82.716 9.39002 82.878 8.95802 83.238 8.63402ZM78.45 15.204V16.68H83.256V22.89H84.822V16.68H89.196V22.89H90.762V16.68H95.55V15.204H78.45Z" fill="black"/>
<path d="M105.81 12.81H111.228V11.46H101.112V10.11H110.382V6.15002H99.33V7.51802H108.816V8.77802H99.546V12.81H104.19V14.394H96.45V15.87H113.55V14.394H105.81V12.81ZM101.202 18.246V16.68H99.6V22.62H110.4V16.68H108.798V18.246H101.202ZM101.202 21.198V19.578H108.798V21.198H101.202Z" fill="black"/>
<path d="M128.616 22.782H130.2V5.52002H128.616V22.782ZM121.416 13.098C121.956 11.694 122.334 10.146 122.478 8.49002H115.44V9.94802H120.66V10.002C120.192 13.062 118.338 16.446 114.63 18.624L115.818 19.938C117.888 18.624 119.598 16.806 120.768 14.538H124.494V22.17H126.06V6.24002H124.494V13.098H121.416Z" fill="black"/>
<path d="M151.292 12.828H148.376V6.24002H146.81V22.17H148.376V14.25H151.292V22.782H152.876V5.52002H151.292V12.828ZM138.8 7.05002V8.50802H144.254V7.05002H138.8ZM137.828 10.632V12.072H143.066V12.126C142.184 14.52 140.096 16.896 137.126 18.462L138.116 19.722C139.61 18.84 140.978 17.742 142.112 16.41L144.902 19.614L145.91 18.516L142.976 15.276C143.912 13.926 144.614 12.378 144.974 10.632H137.828Z" fill="black"/>
<path d="M170.354 15.51L171.29 14.214L164.216 9.49802C164.666 8.77802 165.026 8.00402 165.314 7.17602L163.694 6.78002C162.452 10.236 159.248 12.792 155.792 14.232L156.656 15.672C159.104 14.556 161.552 12.936 163.316 10.758L170.354 15.51ZM164.486 14.34H162.866V19.254H155.126V20.748H172.226V19.254H164.486V14.34Z" fill="black"/>
<path d="M187.526 13.188V5.52002H185.942V22.8H187.526V14.628H190.496V13.188H187.526ZM179.588 15.294C181.658 14.988 183.026 13.602 183.026 11.406C183.026 8.92202 181.244 7.46402 178.67 7.46402C176.078 7.46402 174.296 8.92202 174.296 11.406C174.296 13.692 175.772 15.096 178.004 15.33V18.444C176.582 18.534 174.998 18.57 173.216 18.57L173.396 20.064C178.364 20.064 181.946 19.704 185.186 18.84L184.952 17.436C183.296 17.868 181.568 18.156 179.588 18.336V15.294ZM175.916 11.406C175.916 9.73202 177.068 8.86802 178.67 8.86802C180.254 8.86802 181.406 9.71402 181.406 11.406C181.406 13.098 180.254 13.962 178.67 13.962C177.068 13.962 175.916 13.098 175.916 11.406Z" fill="black"/>
<path d="M210.202 13.188V5.52002H208.618V22.8H210.202V14.628H213.172V13.188H210.202ZM205.144 15.924C205.63 13.494 205.846 10.848 205.846 8.04002H196.882V9.53402H204.262C204.262 11.244 204.064 13.746 203.524 15.762L205.144 15.924ZM201.544 12.72H199.96V18.3C198.718 18.372 197.386 18.39 195.892 18.39L196.072 19.884C201.04 19.884 204.622 19.524 207.862 18.66L207.628 17.256C205.774 17.742 203.83 18.048 201.544 18.21V12.72Z" fill="black"/>
<path d="M229.102 14.43V5.52002H227.482V14.43H229.102ZM219.292 14.106C221.884 14.106 223.702 12.792 223.702 10.38C223.702 7.96802 221.884 6.65402 219.292 6.65402C216.7 6.65402 214.882 7.96802 214.882 10.38C214.882 12.792 216.7 14.106 219.292 14.106ZM219.292 12.72C217.708 12.72 216.484 11.982 216.484 10.38C216.484 8.76002 217.708 8.04002 219.292 8.04002C220.876 8.04002 222.1 8.76002 222.1 10.362C222.1 11.982 220.876 12.72 219.292 12.72ZM229.822 22.8V21.432H219.796V19.686H229.102V15.33H217.726V16.698H227.482V18.336H218.176V22.8H229.822Z" fill="black"/>
<path d="M240.352 11.622C243.934 11.622 246.112 10.614 246.112 8.70602C246.112 6.79802 243.934 5.79002 240.352 5.79002C236.77 5.79002 234.592 6.79802 234.592 8.70602C234.592 10.614 236.77 11.622 240.352 11.622ZM240.352 10.182C238.624 10.182 237.346 9.94802 236.716 9.55202C236.392 9.33602 236.248 9.04802 236.248 8.70602C236.248 8.36402 236.374 8.07602 236.716 7.86002C237.346 7.48202 238.624 7.23002 240.352 7.23002C242.08 7.23002 243.34 7.48202 243.988 7.86002C244.33 8.07602 244.456 8.36402 244.456 8.70602C244.456 9.04802 244.312 9.33602 243.988 9.55202C243.358 9.94802 242.08 10.182 240.352 10.182ZM248.902 14.232V12.774H231.802V14.232H248.902ZM246.796 22.71V21.342H236.554V19.812H245.716V15.69H234.628V17.04H244.096V18.498H234.952V22.71H246.796Z" fill="black"/>
<path d="M267.959 16.77C268.409 13.836 268.661 10.938 268.733 7.51802H256.907V9.01202H267.059C266.969 11.46 266.789 14.07 266.321 16.662L267.959 16.77ZM262.847 12.72H261.227V19.254H254.477V20.748H271.577V19.254H262.847V12.72Z" fill="black"/>
<path d="M287.255 12.81V11.46H277.139V10.11H286.409V6.15002H275.357V7.51802H284.843V8.77802H275.573V12.81H287.255ZM289.577 15.744V14.268H272.477V15.744H289.577ZM286.427 22.62V16.59H284.825V18.21H277.229V16.59H275.627V22.62H286.427ZM277.229 19.542H284.825V21.198H277.229V19.542Z" fill="black"/>
<path d="M304.157 15.564C300.971 16.734 296.435 17.418 293.843 17.418V7.77002H292.187V18.93C296.453 18.93 301.079 18.192 304.157 16.968V22.8H305.777V5.52002H304.157V15.564Z" fill="black"/>
<path d="M322.877 13.188V5.52002H321.293V16.122C318.485 17.076 314.255 17.616 311.483 17.616L311.447 9.42602H318.359V7.95002H309.827V19.11C314.219 19.11 318.575 18.534 321.293 17.526V22.8H322.877V14.628H325.847V13.188H322.877Z" fill="black"/>
<path d="M329.627 21C330.401 21 331.067 20.352 331.067 19.578C331.067 18.786 330.401 18.12 329.627 18.12C328.835 18.12 328.187 18.786 328.187 19.578C328.187 20.352 328.835 21 329.627 21Z" fill="black"/>
<path d="M74.85 36.52H73.266V43.324C70.584 44.242 66.156 44.764 63.366 44.764L63.33 39.868H70.242V38.41H61.71V46.24C66.12 46.24 70.674 45.646 73.266 44.674V49.48H74.85V43.558H77.82V42.118H74.85V36.52ZM64.23 47.77V53.53H75.57V52.054H65.85V47.77H64.23Z" fill="black"/>
<path d="M80.358 56.158C82.158 54.898 83.184 52.504 83.184 50.542C83.184 49.12 82.41 48.382 81.51 48.382C80.61 48.382 80.052 49.048 79.962 49.804C80.772 49.876 81.546 50.524 81.546 51.55C81.546 52.9 80.934 54.322 79.44 55.474L80.358 56.158Z" fill="black"/>
<path d="M105.327 43.828L106.137 42.532L99.5308 38.968C99.9268 38.428 100.251 37.852 100.503 37.24L98.8468 36.79C97.7668 39.454 94.7428 41.47 91.3588 42.55L92.2048 43.972C94.4908 43.162 96.8308 41.884 98.5228 40.174L105.327 43.828ZM99.6928 42.478H98.0728V45.574H90.3328V47.05H107.433V45.574H99.6928V42.478ZM93.5728 48.31V53.53H104.913V52.054H95.1928V48.31H93.5728Z" fill="black"/>
<path d="M123.633 45.43V36.52H122.013V45.43H123.633ZM109.755 45.988C113.985 45.016 118.107 42.316 118.701 38.05H109.917V39.49H116.667V39.544C115.767 41.578 113.139 43.684 108.963 44.548L109.755 45.988ZM124.353 53.8V52.432H114.327V50.686H123.633V46.33H112.257V47.698H122.013V49.336H112.707V53.8H124.353Z" fill="black"/>
<path d="M135.693 47.14H141.435V45.718H130.887V43.306H140.373V38.14H129.123V39.562H138.771V41.866H129.285V47.14H134.073V50.254H126.333V51.748H143.433V50.254H135.693V47.14Z" fill="black"/>
<path d="M164.309 49.48V36.52H162.689V49.48H164.309ZM154.499 46.366C157.109 46.366 158.909 44.89 158.909 42.226C158.909 39.58 157.109 38.104 154.499 38.104C151.889 38.104 150.089 39.58 150.089 42.226C150.089 44.89 151.889 46.366 154.499 46.366ZM154.499 44.962C152.879 44.962 151.709 44.08 151.709 42.226C151.709 40.372 152.879 39.508 154.499 39.508C156.119 39.508 157.289 40.372 157.289 42.226C157.289 44.08 156.119 44.962 154.499 44.962ZM165.029 53.53V52.054H155.129V47.77H153.509V53.53H165.029Z" fill="black"/>
<path d="M181.175 43.828H178.259V37.24H176.693V53.17H178.259V45.25H181.175V53.782H182.759V36.52H181.175V43.828ZM168.755 38.14V39.544H174.425V38.14H168.755ZM175.739 43.018V41.578H167.189V43.018H175.739ZM171.635 44.584C169.619 44.584 168.215 45.88 168.215 47.86C168.215 49.84 169.619 51.136 171.635 51.136C173.651 51.136 175.055 49.84 175.055 47.86C175.055 45.88 173.651 44.584 171.635 44.584ZM171.635 49.75C170.483 49.75 169.727 49.102 169.727 47.86C169.727 46.618 170.483 45.988 171.635 45.988C172.787 45.988 173.543 46.618 173.543 47.86C173.543 49.102 172.787 49.75 171.635 49.75Z" fill="black"/>
<path d="M204.084 36.52H202.5V46.6H204.084V42.928H207.054V41.488H204.084V36.52ZM200.574 44.62L195.588 41.056C196.038 39.958 196.362 38.77 196.506 37.474L194.814 37.312C194.472 40.966 192.456 43.864 189.774 45.628L190.944 46.888C192.546 45.736 193.932 44.242 194.922 42.442L199.674 45.862L200.574 44.62ZM198.558 46.888C194.958 46.888 192.852 48.202 192.852 50.38C192.852 52.576 194.958 53.89 198.558 53.89C202.158 53.89 204.264 52.576 204.264 50.38C204.264 48.202 202.158 46.888 198.558 46.888ZM202.068 51.64C201.42 52.144 200.25 52.45 198.558 52.45C196.866 52.45 195.678 52.144 195.048 51.64C194.688 51.316 194.508 50.902 194.508 50.38C194.508 49.876 194.688 49.444 195.048 49.138C195.696 48.652 196.866 48.328 198.558 48.328C200.25 48.328 201.42 48.652 202.068 49.138C202.428 49.444 202.608 49.876 202.608 50.38C202.608 50.902 202.428 51.316 202.068 51.64Z" fill="black"/>
<path d="M210.024 37.24V38.68H222.444V37.24H210.024ZM222.372 43.27V41.866H219.726L220.068 39.526L218.43 39.4L218.124 41.866H214.308L214.002 39.4L212.364 39.526L212.706 41.866H210.114V43.27H222.372ZM224.784 44.674H207.684V46.15H215.496V48.13H210.834V53.62H221.634V48.13H216.99V46.15H224.784V44.674ZM212.382 52.216V49.498H220.068V52.216H212.382Z" fill="black"/>
<path d="M240.984 53.8V36.52H239.364V53.8H240.984ZM231.354 50.596C234.144 50.596 235.944 48.418 235.944 44.566C235.944 40.732 234.144 38.554 231.354 38.554C228.564 38.554 226.764 40.732 226.764 44.566C226.764 48.418 228.564 50.596 231.354 50.596ZM231.354 49.084C229.518 49.084 228.42 47.536 228.42 44.566C228.42 41.614 229.518 40.066 231.354 40.066C233.19 40.066 234.288 41.614 234.288 44.566C234.288 47.536 233.19 49.084 231.354 49.084Z" fill="black"/>
<path d="M262.76 36.52H261.176V46.6H262.76V42.928H265.73V41.488H262.76V36.52ZM259.25 44.62L254.264 41.056C254.714 39.958 255.038 38.77 255.182 37.474L253.49 37.312C253.148 40.966 251.132 43.864 248.45 45.628L249.62 46.888C251.222 45.736 252.608 44.242 253.598 42.442L258.35 45.862L259.25 44.62ZM257.234 46.888C253.634 46.888 251.528 48.202 251.528 50.38C251.528 52.576 253.634 53.89 257.234 53.89C260.834 53.89 262.94 52.576 262.94 50.38C262.94 48.202 260.834 46.888 257.234 46.888ZM260.744 51.64C260.096 52.144 258.926 52.45 257.234 52.45C255.542 52.45 254.354 52.144 253.724 51.64C253.364 51.316 253.184 50.902 253.184 50.38C253.184 49.876 253.364 49.444 253.724 49.138C254.372 48.652 255.542 48.328 257.234 48.328C258.926 48.328 260.096 48.652 260.744 49.138C261.104 49.444 261.284 49.876 261.284 50.38C261.284 50.902 261.104 51.316 260.744 51.64Z" fill="black"/>
<path d="M280.76 44.008V36.52H279.176V53.8H280.76V45.448H283.73V44.008H280.76ZM268.646 37.78V39.22H275.558V37.78H268.646ZM277.25 42.784V41.308H266.54V42.784H277.25ZM272.084 44.314C269.69 44.314 268.106 45.79 268.106 47.77C268.106 49.75 269.69 51.226 272.084 51.226C274.478 51.226 276.044 49.75 276.044 47.77C276.044 45.79 274.478 44.314 272.084 44.314ZM272.084 49.786C270.572 49.786 269.726 49.03 269.726 47.77C269.726 46.528 270.572 45.754 272.084 45.754C273.596 45.754 274.442 46.528 274.442 47.77C274.442 49.03 273.596 49.786 272.084 49.786Z" fill="black"/>
<path d="M298.04 53.8H299.66V36.52H298.04V53.8ZM285.674 39.13V40.606H292.514V40.66C291.686 43.828 288.608 47.356 284.63 49.372L285.584 50.722C287.582 49.624 289.472 48.166 290.984 46.42L295.088 50.434L296.078 49.174L291.92 45.25C293.216 43.45 294.134 41.398 294.44 39.13H285.674Z" fill="black"/>
<path d="M321.436 36.52H319.852V45.79H321.436V42.748H324.406V41.308H321.436V36.52ZM316.576 41.686C316.576 39.148 314.758 37.744 312.166 37.744C309.574 37.744 307.756 39.148 307.756 41.686C307.756 44.242 309.574 45.646 312.166 45.646C314.758 45.646 316.576 44.242 316.576 41.686ZM309.376 41.686C309.376 39.94 310.564 39.148 312.166 39.148C313.768 39.148 314.956 39.94 314.956 41.686C314.956 43.432 313.768 44.242 312.166 44.242C310.564 44.242 309.376 43.432 309.376 41.686ZM321.274 46.69H315.946V47.878H321.274V46.69ZM311.266 47.464H309.736V53.53C311.59 53.53 313.246 53.44 314.794 53.188L314.65 51.82C313.498 52.018 312.328 52.126 311.266 52.144V47.464ZM322.696 49.858V48.598H314.326V49.858H322.696ZM318.664 50.416C316.72 50.416 315.46 51.064 315.46 52.234C315.46 53.422 316.72 54.07 318.664 54.07C320.662 54.07 321.832 53.422 321.832 52.234C321.832 51.064 320.662 50.416 318.664 50.416ZM318.664 52.918C317.602 52.918 316.846 52.72 316.846 52.198C316.846 51.712 317.602 51.496 318.664 51.496C319.744 51.496 320.464 51.712 320.464 52.198C320.464 52.72 319.744 52.918 318.664 52.918Z" fill="black"/>
<path d="M334.396 46.348H339.724V44.908H329.662V39.778H339.346V38.338H328.042V46.348H332.776V50.254H325.036V51.748H342.136V50.254H334.396V46.348Z" fill="black"/>
<path d="M352.396 44.26H357.85V42.892H347.68V41.326H356.968V37.15H345.916V38.518H355.402V39.976H346.114V44.26H350.776V46.024H343.036V47.5H360.136V46.024H352.396V44.26ZM355.42 50.542V53.89H357.076V49.12H345.664V50.542H355.42Z" fill="black"/>
<path d="M374.262 44.512C377.952 44.512 380.202 43.126 380.202 40.876C380.202 38.626 377.952 37.24 374.262 37.24C370.572 37.24 368.322 38.626 368.322 40.876C368.322 43.126 370.572 44.512 374.262 44.512ZM370.5 39.634C371.166 39.04 372.462 38.68 374.262 38.68C376.062 38.68 377.34 39.04 378.024 39.634C378.384 39.958 378.546 40.39 378.546 40.876C378.546 41.362 378.366 41.776 378.024 42.118C377.358 42.73 376.062 43.072 374.262 43.072C372.462 43.072 371.166 42.73 370.5 42.118C370.14 41.776 369.978 41.362 369.978 40.876C369.978 40.39 370.14 39.958 370.5 39.634ZM365.712 46.204V47.68H370.518V53.89H372.084V47.68H376.458V53.89H378.024V47.68H382.812V46.204H365.712Z" fill="black"/>
<path d="M399.012 53.8V36.52H397.428V53.8H399.012ZM390.012 46.726C392.676 46.726 394.512 45.178 394.512 42.586C394.512 40.012 392.676 38.464 390.012 38.464C387.348 38.464 385.512 40.012 385.512 42.586C385.512 45.178 387.348 46.726 390.012 46.726ZM390.012 45.304C388.338 45.304 387.132 44.368 387.132 42.586C387.132 40.822 388.338 39.886 390.012 39.886C391.686 39.886 392.892 40.822 392.892 42.586C392.892 44.368 391.686 45.304 390.012 45.304ZM383.982 51.064C389.274 51.064 393.234 50.722 396.672 49.948L396.456 48.544C393.036 49.318 389.202 49.57 383.802 49.57L383.982 51.064Z" fill="black"/>
<path d="M416.112 42.478V36.52H414.528V46.42H416.112V43.918H419.082V42.478H416.112ZM403.962 36.88V38.194H410.838V36.88H403.962ZM401.892 39.526V40.894H412.512V39.526H401.892ZM411.342 44.35C411.342 42.856 409.812 41.884 407.382 41.884C404.97 41.884 403.44 42.856 403.44 44.35C403.44 45.844 404.97 46.816 407.382 46.816C409.812 46.816 411.342 45.844 411.342 44.35ZM404.952 44.35C404.952 43.594 405.852 43.108 407.382 43.108C408.93 43.108 409.83 43.594 409.83 44.35C409.83 45.106 408.93 45.592 407.382 45.592C405.852 45.592 404.952 45.106 404.952 44.35ZM406.914 49.156V47.59H405.312V53.71H416.112V47.41H414.51V49.156H406.914ZM406.914 52.288V50.488H414.51V52.288H406.914Z" fill="black"/>
<path d="M433.392 46.564C430.206 47.734 425.67 48.418 423.078 48.418V38.77H421.422V49.93C425.688 49.93 430.314 49.192 433.392 47.968V53.8H435.012V36.52H433.392V46.564Z" fill="black"/>
<path d="M452.112 44.188V36.52H450.528V47.122C447.72 48.076 443.49 48.616 440.718 48.616L440.682 40.426H447.594V38.95H439.062V50.11C443.454 50.11 447.81 49.534 450.528 48.526V53.8H452.112V45.628H455.082V44.188H452.112Z" fill="black"/>
<path d="M458.862 52C459.636 52 460.302 51.352 460.302 50.578C460.302 49.786 459.636 49.12 458.862 49.12C458.07 49.12 457.422 49.786 457.422 50.578C457.422 51.352 458.07 52 458.862 52Z" fill="black"/>
<path d="M67.632 89.1799C69.414 89.1799 70.872 88.7299 71.484 88.3159V86.6959C70.35 87.3799 69.27 87.6319 67.848 87.6319C64.914 87.6319 63.06 85.8319 63.06 82.1779C63.06 79.0279 64.842 77.2099 67.47 77.2099C68.928 77.2099 70.098 77.4259 71.484 78.2359V76.4179C70.782 76.1479 69.864 75.6799 67.578 75.6799C63.312 75.6799 61.098 78.8119 61.098 82.5199C61.098 86.6599 63.33 89.1799 67.632 89.1799Z" fill="#505050"/>
<path d="M79.5005 78.6679C78.0605 78.6679 76.7105 79.3879 75.7745 80.0179V74.3119H74.0825V88.9999H75.7745V81.3679C76.7285 80.7919 77.9525 80.1799 78.8705 80.1799C80.4185 80.1799 80.7785 80.9179 80.7785 82.5019V88.9999H82.4705V82.3219C82.4705 79.7119 81.5345 78.6679 79.5005 78.6679Z" fill="#505050"/>
<path d="M89.5742 89.1799C92.3642 89.1799 94.1822 86.6959 94.1822 83.9419C94.1822 80.3419 92.6522 78.6679 89.6642 78.6679C86.9462 78.6679 84.9842 81.1699 84.9842 83.9779C84.9842 87.5959 86.8022 89.1799 89.5742 89.1799ZM89.6462 87.6679C87.4142 87.6679 86.7842 86.0479 86.7842 83.9059C86.7842 81.9799 87.3422 80.1799 89.5742 80.1799C92.0222 80.1799 92.3822 82.0699 92.3822 83.9779C92.3822 85.9759 91.8422 87.6679 89.6462 87.6679Z" fill="#505050"/>
<path d="M100.789 89.1799C103.579 89.1799 105.397 86.6959 105.397 83.9419C105.397 80.3419 103.867 78.6679 100.879 78.6679C98.161 78.6679 96.199 81.1699 96.199 83.9779C96.199 87.5959 98.017 89.1799 100.789 89.1799ZM100.861 87.6679C98.629 87.6679 97.999 86.0479 97.999 83.9059C97.999 81.9799 98.557 80.1799 100.789 80.1799C103.237 80.1799 103.597 82.0699 103.597 83.9779C103.597 85.9759 103.057 87.6679 100.861 87.6679Z" fill="#505050"/>
<path d="M110.852 89.1799C112.814 89.1799 114.776 88.2979 114.776 86.0119C114.776 83.7979 112.886 83.3479 111.284 82.9879C110.096 82.7359 109.052 82.4659 109.052 81.4579C109.052 80.7019 109.934 80.1799 111.014 80.1799C112.112 80.1799 112.868 80.3419 114.416 80.9719V79.3159C113.534 78.8659 112.238 78.6679 111.248 78.6679C109.232 78.6679 107.468 79.7479 107.468 81.7099C107.468 83.6179 109.178 84.1399 110.726 84.5359C112.058 84.8779 113.264 85.1479 113.264 86.1379C113.264 87.1279 112.292 87.6679 111.176 87.6679C109.952 87.6679 108.962 87.3979 107.576 86.8579V88.4959C108.422 88.8559 109.502 89.1799 110.852 89.1799Z" fill="#505050"/>
<path d="M125.497 83.5099C125.497 80.7919 124.165 78.6679 121.285 78.6679C118.405 78.6679 116.713 81.0259 116.713 84.1219C116.713 87.2719 118.369 89.1799 121.483 89.1799C123.139 89.1799 124.345 88.8919 125.245 88.3519V86.9119C124.309 87.3799 122.887 87.6679 121.735 87.6679C119.773 87.6679 118.621 86.6059 118.513 84.3019H125.497V83.5099ZM121.213 80.1799C122.815 80.1799 123.517 81.3679 123.607 82.9519H118.567C118.819 80.7919 119.935 80.1799 121.213 80.1799Z" fill="#505050"/>
<path d="M136.818 84.7519L136.008 87.0379H135.882L135.18 84.8419L133.29 78.8659H131.31L134.91 88.9999H135.18L133.254 93.5899L133.308 93.6619H135.108L136.89 88.7299L140.742 78.8659H138.87L136.818 84.7519Z" fill="#505050"/>
<path d="M146.439 89.1799C149.229 89.1799 151.047 86.6959 151.047 83.9419C151.047 80.3419 149.517 78.6679 146.529 78.6679C143.811 78.6679 141.849 81.1699 141.849 83.9779C141.849 87.5959 143.667 89.1799 146.439 89.1799ZM146.511 87.6679C144.279 87.6679 143.649 86.0479 143.649 83.9059C143.649 81.9799 144.207 80.1799 146.439 80.1799C148.887 80.1799 149.247 82.0699 149.247 83.9779C149.247 85.9759 148.707 87.6679 146.511 87.6679Z" fill="#505050"/>
<path d="M161.776 86.5519V78.8659H160.084V86.4799C159.148 87.0559 158.122 87.6679 157.204 87.6679C155.656 87.6679 155.296 86.9299 155.296 85.3459V78.8659H153.604V85.5259C153.604 88.1359 154.558 89.1799 156.574 89.1799C158.086 89.1799 159.364 88.3879 160.246 87.7219L160.498 88.9999H162.208L161.776 86.5519Z" fill="#505050"/>
<path d="M169.55 78.6679C168.56 78.6679 167.444 79.3519 166.598 80.1439L166.364 78.8659H164.654L165.068 81.2779V88.9999H166.76V81.5659C167.516 80.9719 168.452 80.2879 169.694 80.2879C169.982 80.2879 170.27 80.3059 170.594 80.3959V78.7759C170.234 78.6859 169.91 78.6679 169.55 78.6679Z" fill="#505050"/>
<path d="M180.929 75.6259C181.541 75.6259 181.955 75.6799 182.567 75.8059V74.2579C182.207 74.1679 181.775 74.1319 181.217 74.1319C179.039 74.1319 177.419 75.4099 177.419 77.9479V78.8659H175.889V80.3779H177.419V88.9999H179.111V80.3779H181.307V78.8659H179.111V78.0559C179.111 76.3459 179.759 75.6259 180.929 75.6259Z" fill="#505050"/>
<path d="M187.901 78.6679C186.911 78.6679 185.795 79.3519 184.949 80.1439L184.715 78.8659H183.005L183.419 81.2779V88.9999H185.111V81.5659C185.867 80.9719 186.803 80.2879 188.045 80.2879C188.333 80.2879 188.621 80.3059 188.945 80.3959V78.7759C188.585 78.6859 188.261 78.6679 187.901 78.6679Z" fill="#505050"/>
<path d="M199.007 86.5519V78.8659H197.315V86.4799C196.379 87.0559 195.353 87.6679 194.435 87.6679C192.887 87.6679 192.527 86.9299 192.527 85.3459V78.8659H190.835V85.5259C190.835 88.1359 191.789 89.1799 193.805 89.1799C195.317 89.1799 196.595 88.3879 197.477 87.7219L197.729 88.9999H199.439L199.007 86.5519Z" fill="#505050"/>
<path d="M203.63 73.8259C202.91 73.8259 202.37 74.3479 202.37 75.0499C202.37 75.7519 202.91 76.2919 203.63 76.2919C204.332 76.2919 204.89 75.7519 204.89 75.0499C204.89 74.3479 204.332 73.8259 203.63 73.8259ZM201.11 78.8659V80.3779H202.748V88.9999H204.44V78.8659H201.11Z" fill="#505050"/>
<path d="M211.799 87.6679C210.719 87.6679 209.981 87.3799 209.963 86.0119V80.3779H213.329V78.8659H209.963V76.2199H208.271V78.8659H206.579V80.3779H208.271V86.2099C208.271 88.3699 209.621 89.1799 211.169 89.1799C212.123 89.1799 212.987 89.0179 213.527 88.7119V87.3259C213.059 87.4879 212.393 87.6679 211.799 87.6679Z" fill="#505050"/>
<path d="M218.483 89.1799C220.445 89.1799 222.407 88.2979 222.407 86.0119C222.407 83.7979 220.517 83.3479 218.915 82.9879C217.727 82.7359 216.683 82.4659 216.683 81.4579C216.683 80.7019 217.565 80.1799 218.645 80.1799C219.743 80.1799 220.499 80.3419 222.047 80.9719V79.3159C221.165 78.8659 219.869 78.6679 218.879 78.6679C216.863 78.6679 215.099 79.7479 215.099 81.7099C215.099 83.6179 216.809 84.1399 218.357 84.5359C219.689 84.8779 220.895 85.1479 220.895 86.1379C220.895 87.1279 219.923 87.6679 218.807 87.6679C217.583 87.6679 216.593 87.3979 215.207 86.8579V88.4959C216.053 88.8559 217.133 89.1799 218.483 89.1799Z" fill="#505050"/>
<path d="M236.634 86.7319V81.6559C236.634 79.4419 235.086 78.6679 233.232 78.6679C231.99 78.6679 230.28 78.9559 229.47 79.3159V80.8279C230.334 80.5219 231.864 80.1799 232.944 80.1799C234.06 80.1799 234.942 80.5219 234.942 82.0519V83.2759H233.61C230.694 83.2759 228.912 84.3019 228.912 86.3359C228.912 88.0099 229.866 89.1799 231.792 89.1799C233.214 89.1799 234.384 88.4599 235.104 87.9019L235.302 88.9999H237.012L236.634 86.7319ZM230.622 86.2099C230.622 85.0579 231.504 84.6079 233.286 84.6079H234.942V86.6419C234.06 87.2359 233.016 87.7399 232.062 87.7399C231.072 87.7399 230.622 87.1819 230.622 86.2099Z" fill="#505050"/>
<path d="M245.281 78.6679C243.751 78.6679 242.311 79.4779 241.375 80.1439L241.141 78.8659H239.431L239.845 81.2779V88.9999H241.537V81.3679C242.491 80.7919 243.715 80.1799 244.651 80.1799C246.199 80.1799 246.559 80.9179 246.559 82.5019V88.9999H248.251V82.3219C248.251 79.7119 247.297 78.6679 245.281 78.6679Z" fill="#505050"/>
<path d="M259.385 86.7319V74.3119H257.693V78.8659C257.135 78.7759 256.289 78.6679 255.713 78.6679C253.013 78.6679 250.781 80.8099 250.781 84.4099C250.781 87.9019 252.851 89.1799 254.687 89.1799C256.001 89.1799 257.027 88.6039 257.855 87.8839L258.053 88.9999H259.763L259.385 86.7319ZM252.581 84.0679C252.581 81.1699 253.787 80.1799 255.677 80.1799C256.325 80.1799 257.099 80.3059 257.693 80.4859V86.5879C256.631 87.2719 255.947 87.6679 255.011 87.6679C253.445 87.6679 252.581 86.5159 252.581 84.0679Z" fill="#505050"/>
<path d="M271.307 88.9999L275.267 78.8659H273.395L271.397 84.5899L270.533 87.0379H270.407L269.633 84.6259L267.815 78.8659H265.835L269.435 88.9999H271.307Z" fill="#505050"/>
<path d="M285.194 83.5099C285.194 80.7919 283.862 78.6679 280.982 78.6679C278.102 78.6679 276.41 81.0259 276.41 84.1219C276.41 87.2719 278.066 89.1799 281.18 89.1799C282.836 89.1799 284.042 88.8919 284.942 88.3519V86.9119C284.006 87.3799 282.584 87.6679 281.432 87.6679C279.47 87.6679 278.318 86.6059 278.21 84.3019H285.194V83.5099ZM280.91 80.1799C282.512 80.1799 283.214 81.3679 283.304 82.9519H278.264C278.516 80.7919 279.632 80.1799 280.91 80.1799Z" fill="#505050"/>
<path d="M293.539 79.1899C292.927 78.8479 292.153 78.6679 291.253 78.6679C288.877 78.6679 287.383 80.5399 287.383 82.0879C287.383 83.5099 288.085 84.4459 289.273 84.9139L287.599 86.5879V87.9019L288.895 88.0459C287.779 88.6939 286.789 89.5939 286.789 90.7819C286.789 92.5999 288.409 93.8059 291.037 93.8059C294.169 93.8059 296.095 91.7899 296.095 89.7379C296.095 88.2259 295.267 87.1279 292.549 86.8219L289.327 86.4619L290.479 85.2199C290.731 85.2379 290.983 85.2559 291.253 85.2559C293.323 85.2559 294.997 83.5099 294.997 81.9619C294.997 81.2599 294.853 80.6839 294.565 80.1979H296.509V78.8119L293.539 79.1899ZM291.253 83.9599C290.047 83.9599 289.129 83.2759 289.129 81.9259C289.129 80.7559 289.867 80.0359 291.127 80.0359C292.459 80.0359 293.269 80.7919 293.269 81.9979C293.269 83.1499 292.423 83.9599 291.253 83.9599ZM294.439 90.0799C294.439 91.2319 293.215 92.4019 291.289 92.4019C289.255 92.4019 288.445 91.4659 288.445 90.5299C288.445 89.7019 289.273 88.8559 290.461 88.2259L291.847 88.3879C294.025 88.6579 294.439 89.1259 294.439 90.0799Z" fill="#505050"/>
<path d="M306.429 83.5099C306.429 80.7919 305.097 78.6679 302.217 78.6679C299.337 78.6679 297.645 81.0259 297.645 84.1219C297.645 87.2719 299.301 89.1799 302.415 89.1799C304.071 89.1799 305.277 88.8919 306.177 88.3519V86.9119C305.241 87.3799 303.819 87.6679 302.667 87.6679C300.705 87.6679 299.553 86.6059 299.445 84.3019H306.429V83.5099ZM302.145 80.1799C303.747 80.1799 304.449 81.3679 304.539 82.9519H299.499C299.751 80.7919 300.867 80.1799 302.145 80.1799Z" fill="#505050"/>
<path d="M313.19 87.6679C312.11 87.6679 311.372 87.3799 311.354 86.0119V80.3779H314.72V78.8659H311.354V76.2199H309.662V78.8659H307.97V80.3779H309.662V86.2099C309.662 88.3699 311.012 89.1799 312.56 89.1799C313.514 89.1799 314.378 89.0179 314.918 88.7119V87.3259C314.45 87.4879 313.784 87.6679 313.19 87.6679Z" fill="#505050"/>
<path d="M324.067 86.7319V81.6559C324.067 79.4419 322.519 78.6679 320.665 78.6679C319.423 78.6679 317.713 78.9559 316.903 79.3159V80.8279C317.767 80.5219 319.297 80.1799 320.377 80.1799C321.493 80.1799 322.375 80.5219 322.375 82.0519V83.2759H321.043C318.127 83.2759 316.345 84.3019 316.345 86.3359C316.345 88.0099 317.299 89.1799 319.225 89.1799C320.647 89.1799 321.817 88.4599 322.537 87.9019L322.735 88.9999H324.445L324.067 86.7319ZM318.055 86.2099C318.055 85.0579 318.937 84.6079 320.719 84.6079H322.375V86.6419C321.493 87.2359 320.449 87.7399 319.495 87.7399C318.505 87.7399 318.055 87.1819 318.055 86.2099Z" fill="#505050"/>
<path d="M331.941 78.6679C330.807 78.6679 329.781 79.0819 328.863 79.6219V74.3119H327.171V88.6399C328.611 89.0179 329.601 89.1799 330.699 89.1799C333.561 89.1799 335.631 87.2899 335.631 83.4559C335.631 80.5399 334.353 78.6679 331.941 78.6679ZM330.915 87.6679C330.285 87.6679 329.511 87.5779 328.863 87.4699V80.9359C329.619 80.5759 330.519 80.1799 331.383 80.1799C333.093 80.1799 333.831 81.3679 333.831 83.7799C333.831 85.8319 333.291 87.6679 330.915 87.6679Z" fill="#505050"/>
<path d="M340.082 88.9999V74.3119H338.39V88.9999H340.082Z" fill="#505050"/>
<path d="M351.587 83.5099C351.587 80.7919 350.255 78.6679 347.375 78.6679C344.495 78.6679 342.803 81.0259 342.803 84.1219C342.803 87.2719 344.459 89.1799 347.573 89.1799C349.229 89.1799 350.435 88.8919 351.335 88.3519V86.9119C350.399 87.3799 348.977 87.6679 347.825 87.6679C345.863 87.6679 344.711 86.6059 344.603 84.3019H351.587V83.5099ZM347.303 80.1799C348.905 80.1799 349.607 81.3679 349.697 82.9519H344.657C344.909 80.7919 346.025 80.1799 347.303 80.1799Z" fill="#505050"/>
<path d="M357.016 89.1799C358.978 89.1799 360.94 88.2979 360.94 86.0119C360.94 83.7979 359.05 83.3479 357.448 82.9879C356.26 82.7359 355.216 82.4659 355.216 81.4579C355.216 80.7019 356.098 80.1799 357.178 80.1799C358.276 80.1799 359.032 80.3419 360.58 80.9719V79.3159C359.698 78.8659 358.402 78.6679 357.412 78.6679C355.396 78.6679 353.632 79.7479 353.632 81.7099C353.632 83.6179 355.342 84.1399 356.89 84.5359C358.222 84.8779 359.428 85.1479 359.428 86.1379C359.428 87.1279 358.456 87.6679 357.34 87.6679C356.116 87.6679 355.126 87.3979 353.74 86.8579V88.4959C354.586 88.8559 355.666 89.1799 357.016 89.1799Z" fill="#505050"/>
<path d="M365.469 88.9999C366.243 88.9999 366.909 88.3519 366.909 87.5779C366.909 86.7859 366.243 86.1199 365.469 86.1199C364.677 86.1199 364.029 86.7859 364.029 87.5779C364.029 88.3519 364.677 88.9999 365.469 88.9999Z" fill="#505050"/>
<path d="M71.124 112.512H63.708V106.878H61.872V120H63.708V114.042H71.124V120H72.96V106.878H71.124V112.512Z" fill="#505050"/>
<path d="M80.3281 120.18C83.1181 120.18 84.9361 117.696 84.9361 114.942C84.9361 111.342 83.4061 109.668 80.4181 109.668C77.7001 109.668 75.7381 112.17 75.7381 114.978C75.7381 118.596 77.5561 120.18 80.3281 120.18ZM80.4001 118.668C78.1681 118.668 77.5381 117.048 77.5381 114.906C77.5381 112.98 78.0961 111.18 80.3281 111.18C82.7761 111.18 83.1361 113.07 83.1361 114.978C83.1361 116.976 82.5961 118.668 80.4001 118.668Z" fill="#505050"/>
<path d="M99.8987 109.866L97.4327 118.11H97.3427L96.5147 115.068L95.0747 109.866H93.2927L91.5647 115.248L90.6467 118.092H90.5387L89.7827 115.23L88.4147 109.866H86.3987L89.5487 120H91.4567L93.2567 114.492L93.9587 112.332H94.0847L94.7687 114.582L96.3527 120H98.3867L101.753 109.866H99.8987Z" fill="#505050"/>
<path d="M111.839 114.51C111.839 111.792 110.507 109.668 107.627 109.668C104.747 109.668 103.055 112.026 103.055 115.122C103.055 118.272 104.711 120.18 107.825 120.18C109.481 120.18 110.687 119.892 111.587 119.352V117.912C110.651 118.38 109.229 118.668 108.077 118.668C106.115 118.668 104.963 117.606 104.855 115.302H111.839V114.51ZM107.555 111.18C109.157 111.18 109.859 112.368 109.949 113.952H104.909C105.161 111.792 106.277 111.18 107.555 111.18Z" fill="#505050"/>
<path d="M118.641 120L122.601 109.866H120.729L118.731 115.59L117.867 118.038H117.741L116.967 115.626L115.149 109.866H113.169L116.769 120H118.641Z" fill="#505050"/>
<path d="M132.528 114.51C132.528 111.792 131.196 109.668 128.316 109.668C125.436 109.668 123.744 112.026 123.744 115.122C123.744 118.272 125.4 120.18 128.514 120.18C130.17 120.18 131.376 119.892 132.276 119.352V117.912C131.34 118.38 129.918 118.668 128.766 118.668C126.804 118.668 125.652 117.606 125.544 115.302H132.528V114.51ZM128.244 111.18C129.846 111.18 130.548 112.368 130.638 113.952H125.598C125.85 111.792 126.966 111.18 128.244 111.18Z" fill="#505050"/>
<path d="M139.649 109.668C138.659 109.668 137.543 110.352 136.697 111.144L136.463 109.866H134.753L135.167 112.278V120H136.859V112.566C137.615 111.972 138.551 111.288 139.793 111.288C140.081 111.288 140.369 111.306 140.693 111.396V109.776C140.333 109.686 140.009 109.668 139.649 109.668Z" fill="#505050"/>
<path d="M142.532 124.158C144.332 122.898 145.358 120.504 145.358 118.542C145.358 117.12 144.584 116.382 143.684 116.382C142.784 116.382 142.226 117.048 142.136 117.804C142.946 117.876 143.72 118.524 143.72 119.55C143.72 120.9 143.108 122.322 141.614 123.474L142.532 124.158Z" fill="#505050"/>
<path d="M158.357 109.668C157.223 109.668 156.197 110.082 155.279 110.622V105.312H153.587V119.64C155.027 120.018 156.017 120.18 157.115 120.18C159.977 120.18 162.047 118.29 162.047 114.456C162.047 111.54 160.769 109.668 158.357 109.668ZM157.331 118.668C156.701 118.668 155.927 118.578 155.279 118.47V111.936C156.035 111.576 156.935 111.18 157.799 111.18C159.509 111.18 160.247 112.368 160.247 114.78C160.247 116.832 159.707 118.668 157.331 118.668Z" fill="#505050"/>
<path d="M172.888 114.51C172.888 111.792 171.556 109.668 168.676 109.668C165.796 109.668 164.104 112.026 164.104 115.122C164.104 118.272 165.76 120.18 168.874 120.18C170.53 120.18 171.736 119.892 172.636 119.352V117.912C171.7 118.38 170.278 118.668 169.126 118.668C167.164 118.668 166.012 117.606 165.904 115.302H172.888V114.51ZM168.604 111.18C170.206 111.18 170.908 112.368 170.998 113.952H165.958C166.21 111.792 167.326 111.18 168.604 111.18Z" fill="#505050"/>
<path d="M184.252 120.18C185.422 120.18 186.448 119.946 187.222 119.478V118.038C186.376 118.47 185.458 118.668 184.666 118.668C182.614 118.668 181.372 117.498 181.372 114.96C181.372 111.972 182.812 111.18 184.414 111.18C185.332 111.18 186.268 111.36 187.222 111.99V110.19C186.466 109.776 185.458 109.668 184.486 109.668C181.336 109.668 179.572 112.008 179.572 115.086C179.572 118.236 181.138 120.18 184.252 120.18Z" fill="#505050"/>
<path d="M196.837 117.732V112.656C196.837 110.442 195.289 109.668 193.435 109.668C192.193 109.668 190.483 109.956 189.673 110.316V111.828C190.537 111.522 192.067 111.18 193.147 111.18C194.263 111.18 195.145 111.522 195.145 113.052V114.276H193.813C190.897 114.276 189.115 115.302 189.115 117.336C189.115 119.01 190.069 120.18 191.995 120.18C193.417 120.18 194.587 119.46 195.307 118.902L195.505 120H197.215L196.837 117.732ZM190.825 117.21C190.825 116.058 191.707 115.608 193.489 115.608H195.145V117.642C194.263 118.236 193.219 118.74 192.265 118.74C191.275 118.74 190.825 118.182 190.825 117.21Z" fill="#505050"/>
<path d="M204.53 109.668C203.54 109.668 202.424 110.352 201.578 111.144L201.344 109.866H199.634L200.048 112.278V120H201.74V112.566C202.496 111.972 203.432 111.288 204.674 111.288C204.962 111.288 205.25 111.306 205.574 111.396V109.776C205.214 109.686 204.89 109.668 204.53 109.668Z" fill="#505050"/>
<path d="M215.497 114.51C215.497 111.792 214.165 109.668 211.285 109.668C208.405 109.668 206.713 112.026 206.713 115.122C206.713 118.272 208.369 120.18 211.483 120.18C213.139 120.18 214.345 119.892 215.245 119.352V117.912C214.309 118.38 212.887 118.668 211.735 118.668C209.773 118.668 208.621 117.606 208.513 115.302H215.497V114.51ZM211.213 111.18C212.815 111.18 213.517 112.368 213.607 113.952H208.567C208.819 111.792 209.935 111.18 211.213 111.18Z" fill="#505050"/>
<path d="M222.15 106.626C222.762 106.626 223.176 106.68 223.788 106.806V105.258C223.428 105.168 222.996 105.132 222.438 105.132C220.26 105.132 218.64 106.41 218.64 108.948V109.866H217.11V111.378H218.64V120H220.332V111.378H222.528V109.866H220.332V109.056C220.332 107.346 220.98 106.626 222.15 106.626Z" fill="#505050"/>
<path d="M232.704 117.552V109.866H231.012V117.48C230.076 118.056 229.05 118.668 228.132 118.668C226.584 118.668 226.224 117.93 226.224 116.346V109.866H224.532V116.526C224.532 119.136 225.486 120.18 227.502 120.18C229.014 120.18 230.292 119.388 231.174 118.722L231.426 120H233.136L232.704 117.552Z" fill="#505050"/>
<path d="M237.759 120V105.312H236.067V120H237.759Z" fill="#505050"/>
<path d="M251.222 109.668C249.692 109.668 248.252 110.478 247.316 111.144L247.082 109.866H245.372L245.786 112.278V120H247.478V112.368C248.432 111.792 249.656 111.18 250.592 111.18C252.14 111.18 252.5 111.918 252.5 113.502V120H254.192V113.322C254.192 110.712 253.238 109.668 251.222 109.668Z" fill="#505050"/>
<path d="M261.295 120.18C264.085 120.18 265.903 117.696 265.903 114.942C265.903 111.342 264.373 109.668 261.385 109.668C258.667 109.668 256.705 112.17 256.705 114.978C256.705 118.596 258.523 120.18 261.295 120.18ZM261.367 118.668C259.135 118.668 258.505 117.048 258.505 114.906C258.505 112.98 259.063 111.18 261.295 111.18C263.743 111.18 264.103 113.07 264.103 114.978C264.103 116.976 263.563 118.668 261.367 118.668Z" fill="#505050"/>
<path d="M272.619 118.668C271.539 118.668 270.801 118.38 270.783 117.012V111.378H274.149V109.866H270.783V107.22H269.091V109.866H267.399V111.378H269.091V117.21C269.091 119.37 270.441 120.18 271.989 120.18C272.943 120.18 273.807 120.018 274.347 119.712V118.326C273.879 118.488 273.213 118.668 272.619 118.668Z" fill="#505050"/>
<path d="M285.311 118.668C284.231 118.668 283.493 118.38 283.475 117.012V111.378H286.841V109.866H283.475V107.22H281.783V109.866H280.091V111.378H281.783V117.21C281.783 119.37 283.133 120.18 284.681 120.18C285.635 120.18 286.499 120.018 287.039 119.712V118.326C286.571 118.488 285.905 118.668 285.311 118.668Z" fill="#505050"/>
<path d="M293.146 120.18C295.936 120.18 297.754 117.696 297.754 114.942C297.754 111.342 296.224 109.668 293.236 109.668C290.518 109.668 288.556 112.17 288.556 114.978C288.556 118.596 290.374 120.18 293.146 120.18ZM293.218 118.668C290.986 118.668 290.356 117.048 290.356 114.906C290.356 112.98 290.914 111.18 293.146 111.18C295.594 111.18 295.954 113.07 295.954 114.978C295.954 116.976 295.414 118.668 293.218 118.668Z" fill="#505050"/>
<path d="M313.069 117.732V105.312H311.377V109.866C310.819 109.776 309.973 109.668 309.397 109.668C306.697 109.668 304.465 111.81 304.465 115.41C304.465 118.902 306.535 120.18 308.371 120.18C309.685 120.18 310.711 119.604 311.539 118.884L311.737 120H313.447L313.069 117.732ZM306.265 115.068C306.265 112.17 307.471 111.18 309.361 111.18C310.009 111.18 310.783 111.306 311.377 111.486V117.588C310.315 118.272 309.631 118.668 308.695 118.668C307.129 118.668 306.265 117.516 306.265 115.068Z" fill="#505050"/>
<path d="M323.329 117.732V112.656C323.329 110.442 321.781 109.668 319.927 109.668C318.685 109.668 316.975 109.956 316.165 110.316V111.828C317.029 111.522 318.559 111.18 319.639 111.18C320.755 111.18 321.637 111.522 321.637 113.052V114.276H320.305C317.389 114.276 315.607 115.302 315.607 117.336C315.607 119.01 316.561 120.18 318.487 120.18C319.909 120.18 321.079 119.46 321.799 118.902L321.997 120H323.707L323.329 117.732ZM317.317 117.21C317.317 116.058 318.199 115.608 319.981 115.608H321.637V117.642C320.755 118.236 319.711 118.74 318.757 118.74C317.767 118.74 317.317 118.182 317.317 117.21Z" fill="#505050"/>
<path d="M337.79 109.668C336.296 109.668 335.018 110.46 334.136 111.126C333.686 110.1 332.822 109.668 331.526 109.668C330.122 109.668 328.916 110.352 328.052 110.982L327.836 109.866H326.126L326.54 112.278V120H328.232V112.242C329.096 111.702 330.032 111.18 330.896 111.18C332.444 111.18 332.804 111.918 332.804 113.502V120H334.496V113.322C334.496 112.944 334.478 112.602 334.442 112.278C335.324 111.72 336.278 111.18 337.16 111.18C338.726 111.18 339.086 111.918 339.086 113.502V120H340.778V113.322C340.778 110.712 339.824 109.668 337.79 109.668Z" fill="#505050"/>
<path d="M350.909 117.732V112.656C350.909 110.442 349.361 109.668 347.507 109.668C346.265 109.668 344.555 109.956 343.745 110.316V111.828C344.609 111.522 346.139 111.18 347.219 111.18C348.335 111.18 349.217 111.522 349.217 113.052V114.276H347.885C344.969 114.276 343.187 115.302 343.187 117.336C343.187 119.01 344.141 120.18 346.067 120.18C347.489 120.18 348.659 119.46 349.379 118.902L349.577 120H351.287L350.909 117.732ZM344.897 117.21C344.897 116.058 345.779 115.608 347.561 115.608H349.217V117.642C348.335 118.236 347.291 118.74 346.337 118.74C345.347 118.74 344.897 118.182 344.897 117.21Z" fill="#505050"/>
<path d="M359.826 110.19C359.214 109.848 358.44 109.668 357.54 109.668C355.164 109.668 353.67 111.54 353.67 113.088C353.67 114.51 354.372 115.446 355.56 115.914L353.886 117.588V118.902L355.182 119.046C354.066 119.694 353.076 120.594 353.076 121.782C353.076 123.6 354.696 124.806 357.324 124.806C360.456 124.806 362.382 122.79 362.382 120.738C362.382 119.226 361.554 118.128 358.836 117.822L355.614 117.462L356.766 116.22C357.018 116.238 357.27 116.256 357.54 116.256C359.61 116.256 361.284 114.51 361.284 112.962C361.284 112.26 361.14 111.684 360.852 111.198H362.796V109.812L359.826 110.19ZM357.54 114.96C356.334 114.96 355.416 114.276 355.416 112.926C355.416 111.756 356.154 111.036 357.414 111.036C358.746 111.036 359.556 111.792 359.556 112.998C359.556 114.15 358.71 114.96 357.54 114.96ZM360.726 121.08C360.726 122.232 359.502 123.402 357.576 123.402C355.542 123.402 354.732 122.466 354.732 121.53C354.732 120.702 355.56 119.856 356.748 119.226L358.134 119.388C360.312 119.658 360.726 120.126 360.726 121.08Z" fill="#505050"/>
<path d="M372.716 114.51C372.716 111.792 371.384 109.668 368.504 109.668C365.624 109.668 363.932 112.026 363.932 115.122C363.932 118.272 365.588 120.18 368.702 120.18C370.358 120.18 371.564 119.892 372.464 119.352V117.912C371.528 118.38 370.106 118.668 368.954 118.668C366.992 118.668 365.84 117.606 365.732 115.302H372.716V114.51ZM368.432 111.18C370.034 111.18 370.736 112.368 370.826 113.952H365.786C366.038 111.792 367.154 111.18 368.432 111.18Z" fill="#505050"/>
<path d="M384.153 118.668C383.073 118.668 382.335 118.38 382.317 117.012V111.378H385.683V109.866H382.317V107.22H380.625V109.866H378.933V111.378H380.625V117.21C380.625 119.37 381.975 120.18 383.523 120.18C384.477 120.18 385.341 120.018 385.881 119.712V118.326C385.413 118.488 384.747 118.668 384.153 118.668Z" fill="#505050"/>
<path d="M393.428 109.668C391.988 109.668 390.638 110.388 389.702 111.018V105.312H388.01V120H389.702V112.368C390.656 111.792 391.88 111.18 392.798 111.18C394.346 111.18 394.706 111.918 394.706 113.502V120H396.398V113.322C396.398 110.712 395.462 109.668 393.428 109.668Z" fill="#505050"/>
<path d="M407.714 114.51C407.714 111.792 406.382 109.668 403.502 109.668C400.622 109.668 398.93 112.026 398.93 115.122C398.93 118.272 400.586 120.18 403.7 120.18C405.356 120.18 406.562 119.892 407.462 119.352V117.912C406.526 118.38 405.104 118.668 403.952 118.668C401.99 118.668 400.838 117.606 400.73 115.302H407.714V114.51ZM403.43 111.18C405.032 111.18 405.734 112.368 405.824 113.952H400.784C401.036 111.792 402.152 111.18 403.43 111.18Z" fill="#505050"/>
<path d="M419.799 109.668C418.575 109.668 417.459 110.154 416.487 110.766L416.325 109.866H414.615L415.029 112.278V124.662H416.721V119.982C417.243 120.09 417.909 120.18 418.575 120.18C421.419 120.18 423.489 118.29 423.489 114.456C423.489 111.54 422.211 109.668 419.799 109.668ZM418.773 118.668C418.179 118.668 417.333 118.578 416.721 118.434V111.936C417.459 111.576 418.377 111.18 419.241 111.18C420.951 111.18 421.689 112.368 421.689 114.78C421.689 116.832 421.149 118.668 418.773 118.668Z" fill="#505050"/>
<path d="M430.655 109.668C429.665 109.668 428.549 110.352 427.703 111.144L427.469 109.866H425.759L426.173 112.278V120H427.865V112.566C428.621 111.972 429.557 111.288 430.799 111.288C431.087 111.288 431.375 111.306 431.699 111.396V109.776C431.339 109.686 431.015 109.668 430.655 109.668Z" fill="#505050"/>
<path d="M437.357 120.18C440.147 120.18 441.965 117.696 441.965 114.942C441.965 111.342 440.435 109.668 437.447 109.668C434.729 109.668 432.767 112.17 432.767 114.978C432.767 118.596 434.585 120.18 437.357 120.18ZM437.429 118.668C435.197 118.668 434.567 117.048 434.567 114.906C434.567 112.98 435.125 111.18 437.357 111.18C439.805 111.18 440.165 113.07 440.165 114.978C440.165 116.976 439.625 118.668 437.429 118.668Z" fill="#505050"/>
<path d="M452.604 117.732V105.312H450.912V109.866C450.354 109.776 449.508 109.668 448.932 109.668C446.232 109.668 444 111.81 444 115.41C444 118.902 446.07 120.18 447.906 120.18C449.22 120.18 450.246 119.604 451.074 118.884L451.272 120H452.982L452.604 117.732ZM445.8 115.068C445.8 112.17 447.006 111.18 448.896 111.18C449.544 111.18 450.318 111.306 450.912 111.486V117.588C449.85 118.272 449.166 118.668 448.23 118.668C446.664 118.668 445.8 117.516 445.8 115.068Z" fill="#505050"/>
<path d="M463.944 117.552V109.866H462.252V117.48C461.316 118.056 460.29 118.668 459.372 118.668C457.824 118.668 457.464 117.93 457.464 116.346V109.866H455.772V116.526C455.772 119.136 456.726 120.18 458.742 120.18C460.254 120.18 461.532 119.388 462.414 118.722L462.666 120H464.376L463.944 117.552Z" fill="#505050"/>
<path d="M471.286 120.18C472.456 120.18 473.482 119.946 474.256 119.478V118.038C473.41 118.47 472.492 118.668 471.7 118.668C469.648 118.668 468.406 117.498 468.406 114.96C468.406 111.972 469.846 111.18 471.448 111.18C472.366 111.18 473.302 111.36 474.256 111.99V110.19C473.5 109.776 472.492 109.668 471.52 109.668C468.37 109.668 466.606 112.008 466.606 115.086C466.606 118.236 468.172 120.18 471.286 120.18Z" fill="#505050"/>
<path d="M481.008 118.668C479.928 118.668 479.19 118.38 479.172 117.012V111.378H482.538V109.866H479.172V107.22H477.48V109.866H475.788V111.378H477.48V117.21C477.48 119.37 478.83 120.18 480.378 120.18C481.332 120.18 482.196 120.018 482.736 119.712V118.326C482.268 118.488 481.602 118.668 481.008 118.668Z" fill="#505050"/>
<path d="M487.692 120.18C489.654 120.18 491.616 119.298 491.616 117.012C491.616 114.798 489.726 114.348 488.124 113.988C486.936 113.736 485.892 113.466 485.892 112.458C485.892 111.702 486.774 111.18 487.854 111.18C488.952 111.18 489.708 111.342 491.256 111.972V110.316C490.374 109.866 489.078 109.668 488.088 109.668C486.072 109.668 484.308 110.748 484.308 112.71C484.308 114.618 486.018 115.14 487.566 115.536C488.898 115.878 490.104 116.148 490.104 117.138C490.104 118.128 489.132 118.668 488.016 118.668C486.792 118.668 485.802 118.398 484.416 117.858V119.496C485.262 119.856 486.342 120.18 487.692 120.18Z" fill="#505050"/>
<path d="M510.928 109.866L508.462 118.11H508.372L507.544 115.068L506.104 109.866H504.322L502.594 115.248L501.676 118.092H501.568L500.812 115.23L499.444 109.866H497.428L500.578 120H502.486L504.286 114.492L504.988 112.332H505.114L505.798 114.582L507.382 120H509.416L512.782 109.866H510.928Z" fill="#505050"/>
<path d="M520.29 109.668C518.85 109.668 517.5 110.388 516.564 111.018V105.312H514.872V120H516.564V112.368C517.518 111.792 518.742 111.18 519.66 111.18C521.208 111.18 521.568 111.918 521.568 113.502V120H523.26V113.322C523.26 110.712 522.324 109.668 520.29 109.668Z" fill="#505050"/>
<path d="M534.575 114.51C534.575 111.792 533.243 109.668 530.363 109.668C527.483 109.668 525.791 112.026 525.791 115.122C525.791 118.272 527.447 120.18 530.561 120.18C532.217 120.18 533.423 119.892 534.323 119.352V117.912C533.387 118.38 531.965 118.668 530.813 118.668C528.851 118.668 527.699 117.606 527.591 115.302H534.575V114.51ZM530.291 111.18C531.893 111.18 532.595 112.368 532.685 113.952H527.645C527.897 111.792 529.013 111.18 530.291 111.18Z" fill="#505050"/>
<path d="M542.65 109.668C541.12 109.668 539.68 110.478 538.744 111.144L538.51 109.866H536.8L537.214 112.278V120H538.906V112.368C539.86 111.792 541.084 111.18 542.02 111.18C543.568 111.18 543.928 111.918 543.928 113.502V120H545.62V113.322C545.62 110.712 544.666 109.668 542.65 109.668Z" fill="#505050"/>
<path d="M557.578 118.668C556.498 118.668 555.76 118.38 555.742 117.012V111.378H559.108V109.866H555.742V107.22H554.05V109.866H552.358V111.378H554.05V117.21C554.05 119.37 555.4 120.18 556.948 120.18C557.902 120.18 558.766 120.018 559.306 119.712V118.326C558.838 118.488 558.172 118.668 557.578 118.668Z" fill="#505050"/>
<path d="M565.414 120.18C568.204 120.18 570.022 117.696 570.022 114.942C570.022 111.342 568.492 109.668 565.504 109.668C562.786 109.668 560.824 112.17 560.824 114.978C560.824 118.596 562.642 120.18 565.414 120.18ZM565.486 118.668C563.254 118.668 562.624 117.048 562.624 114.906C562.624 112.98 563.182 111.18 565.414 111.18C567.862 111.18 568.222 113.07 568.222 114.978C568.222 116.976 567.682 118.668 565.486 118.668Z" fill="#505050"/>
<path d="M580.751 117.552V109.866H579.059V117.48C578.123 118.056 577.097 118.668 576.179 118.668C574.631 118.668 574.271 117.93 574.271 116.346V109.866H572.579V116.526C572.579 119.136 573.533 120.18 575.549 120.18C577.061 120.18 578.339 119.388 579.221 118.722L579.473 120H581.183L580.751 117.552Z" fill="#505050"/>
<path d="M588.092 120.18C589.262 120.18 590.288 119.946 591.062 119.478V118.038C590.216 118.47 589.298 118.668 588.506 118.668C586.454 118.668 585.212 117.498 585.212 114.96C585.212 111.972 586.652 111.18 588.254 111.18C589.172 111.18 590.108 111.36 591.062 111.99V110.19C590.306 109.776 589.298 109.668 588.326 109.668C585.176 109.668 583.412 112.008 583.412 115.086C583.412 118.236 584.978 120.18 588.092 120.18Z" fill="#505050"/>
<path d="M599.075 109.668C597.635 109.668 596.285 110.388 595.349 111.018V105.312H593.657V120H595.349V112.368C596.303 111.792 597.527 111.18 598.445 111.18C599.993 111.18 600.353 111.918 600.353 113.502V120H602.045V113.322C602.045 110.712 601.109 109.668 599.075 109.668Z" fill="#505050"/>
<path d="M606.538 104.826C605.818 104.826 605.278 105.348 605.278 106.05C605.278 106.752 605.818 107.292 606.538 107.292C607.24 107.292 607.798 106.752 607.798 106.05C607.798 105.348 607.24 104.826 606.538 104.826ZM604.018 109.866V111.378H605.656V120H607.348V109.866H604.018Z" fill="#505050"/>
<path d="M616.021 109.668C614.491 109.668 613.051 110.478 612.115 111.144L611.881 109.866H610.171L610.585 112.278V120H612.277V112.368C613.231 111.792 614.455 111.18 615.391 111.18C616.939 111.18 617.299 111.918 617.299 113.502V120H618.991V113.322C618.991 110.712 618.037 109.668 616.021 109.668Z" fill="#505050"/>
<path d="M627.858 110.19C627.246 109.848 626.472 109.668 625.572 109.668C623.196 109.668 621.702 111.54 621.702 113.088C621.702 114.51 622.404 115.446 623.592 115.914L621.918 117.588V118.902L623.214 119.046C622.098 119.694 621.108 120.594 621.108 121.782C621.108 123.6 622.728 124.806 625.356 124.806C628.488 124.806 630.414 122.79 630.414 120.738C630.414 119.226 629.586 118.128 626.868 117.822L623.646 117.462L624.798 116.22C625.05 116.238 625.302 116.256 625.572 116.256C627.642 116.256 629.316 114.51 629.316 112.962C629.316 112.26 629.172 111.684 628.884 111.198H630.828V109.812L627.858 110.19ZM625.572 114.96C624.366 114.96 623.448 114.276 623.448 112.926C623.448 111.756 624.186 111.036 625.446 111.036C626.778 111.036 627.588 111.792 627.588 112.998C627.588 114.15 626.742 114.96 625.572 114.96ZM628.758 121.08C628.758 122.232 627.534 123.402 625.608 123.402C623.574 123.402 622.764 122.466 622.764 121.53C622.764 120.702 623.592 119.856 624.78 119.226L626.166 119.388C628.344 119.658 628.758 120.126 628.758 121.08Z" fill="#505050"/>
<path d="M634.713 120C635.487 120 636.153 119.352 636.153 118.578C636.153 117.786 635.487 117.12 634.713 117.12C633.921 117.12 633.273 117.786 633.273 118.578C633.273 119.352 633.921 120 634.713 120Z" fill="#505050"/>
<path d="M0 20.043C0 8.77419 8.77419 0 20 0C31.2258 0 40 8.77419 40 20.043C40 31.3118 31.2258 40.086 20 40.086C8.77419 40.086 0 31.3118 0 20.043ZM28.086 33.2903V27.7419H22.3226V5.03226H20.4731C20.5591 6.06452 19.828 7.05376 18.0645 8.43011C17.1183 9.16129 15.0968 9.89247 12.8172 10.3656V16.3011C15.3118 16 17.3333 15.0107 19.2258 13.1613C19.5699 12.8172 19.914 12.3871 20.2151 11.914V27.7419H12.8172V33.2903H28.086Z" fill="#235B4E"/>
</svg>
