<svg width="431" height="63" viewBox="0 0 431 63" fill="none" xmlns="http://www.w3.org/2000/svg">
<path d="M75.75 16.14V5.52002H74.13V10.758H70.17V12.198H74.13V16.14H75.75ZM62.808 6.06002V7.46402H69.216V6.06002H62.808ZM71.304 14.556L67.74 12.774C68.838 11.73 69.648 10.47 70.026 9.01202H61.692V10.416H67.956V10.47C66.678 12.36 64.32 13.908 60.9 14.916L61.674 16.194C63.42 15.636 65.148 14.826 66.606 13.746L70.548 15.69L71.304 14.556ZM70.134 16.428C66.534 16.428 64.428 17.598 64.428 19.65C64.428 21.72 66.534 22.89 70.134 22.89C73.734 22.89 75.84 21.72 75.84 19.65C75.84 17.598 73.734 16.428 70.134 16.428ZM73.644 20.766C73.014 21.18 71.844 21.45 70.134 21.45C68.424 21.45 67.236 21.18 66.624 20.766C66.264 20.478 66.084 20.1 66.084 19.65C66.084 19.218 66.246 18.822 66.624 18.552C67.254 18.138 68.424 17.868 70.134 17.868C71.844 17.868 73.014 18.138 73.644 18.552C74.022 18.822 74.184 19.218 74.184 19.65C74.184 20.1 74.022 20.478 73.644 20.766Z" fill="black"/>
<path d="M92.85 13.188V5.52002H91.266V22.8H92.85V14.628H95.82V13.188H92.85ZM87.792 15.924C88.278 13.494 88.494 10.848 88.494 8.04002H79.53V9.53402H86.91C86.91 11.244 86.712 13.746 86.172 15.762L87.792 15.924ZM84.192 12.72H82.608V18.3C81.366 18.372 80.034 18.39 78.54 18.39L78.72 19.884C83.688 19.884 87.27 19.524 90.51 18.66L90.276 17.256C88.422 17.742 86.478 18.048 84.192 18.21V12.72Z" fill="black"/>
<path d="M111.192 12.36V11.028H101.112V9.82202H110.364V6.06002H99.33V7.41002H108.816V8.50802H99.546V12.36H111.192ZM113.55 15.006V13.584H96.45V15.006H113.55ZM111.444 22.71V21.36H101.22V20.064H110.364V16.23H99.258V17.562H108.744V18.786H99.618V22.71H111.444Z" fill="black"/>
<path d="M133.526 10.308V5.52002H131.942V11.622C129.278 12.522 124.832 13.044 122.042 13.044L122.006 8.50802H128.918V7.05002H120.386V14.52C124.796 14.52 129.368 13.926 131.942 12.972V15.15H133.526V11.748H136.496V10.308H133.526ZM133.526 22.62V16.05H122.726V22.62H133.526ZM131.942 17.454V21.198H124.292V17.454H131.942Z" fill="black"/>
<path d="M145.676 12.972C149.258 12.972 151.436 11.676 151.436 9.51602C151.436 7.35602 149.258 6.06002 145.676 6.06002C142.094 6.06002 139.916 7.35602 139.916 9.51602C139.916 11.676 142.094 12.972 145.676 12.972ZM145.676 11.532C143.966 11.532 142.688 11.208 142.058 10.65C141.734 10.362 141.572 9.96602 141.572 9.51602C141.572 9.04802 141.716 8.67002 142.058 8.38202C142.706 7.82402 143.966 7.50002 145.676 7.50002C147.386 7.50002 148.628 7.82402 149.294 8.38202C149.636 8.67002 149.78 9.04802 149.78 9.51602C149.78 9.96602 149.618 10.362 149.294 10.65C148.646 11.208 147.386 11.532 145.676 11.532ZM154.226 15.888V14.394H137.126V15.888H154.226ZM151.706 22.53V21.054H141.986V17.13H140.366V22.53H151.706Z" fill="black"/>
<path d="M169.162 12.36H173.752V5.97002H172.132V7.87802H164.572V5.97002H162.952V12.36H167.542V14.124H159.802V15.6H176.902V14.124H169.162V12.36ZM172.132 9.28202V10.956H164.572V9.28202H172.132ZM168.352 16.788C164.752 16.788 162.646 17.868 162.646 19.848C162.646 21.81 164.752 22.89 168.352 22.89C171.952 22.89 174.058 21.81 174.058 19.848C174.058 17.868 171.952 16.788 168.352 16.788ZM171.88 20.838C171.25 21.198 170.062 21.45 168.352 21.45C166.642 21.45 165.454 21.216 164.824 20.838C164.464 20.586 164.302 20.244 164.302 19.848C164.302 19.434 164.464 19.074 164.824 18.84C165.454 18.462 166.642 18.228 168.352 18.228C170.062 18.228 171.25 18.48 171.88 18.84C172.24 19.074 172.402 19.434 172.402 19.848C172.402 20.244 172.24 20.586 171.88 20.838Z" fill="black"/>
<path d="M182.41 12.594V10.848H191.644V9.49802H182.41V7.80602H192.022V6.42002H180.826V13.98H192.544V12.594H182.41ZM177.802 15.834V17.31H185.542V22.89H187.162V17.31H194.902V15.834H177.802Z" fill="black"/>
<path d="M210.544 12.36V11.028H200.464V9.82202H209.716V6.06002H198.682V7.41002H208.168V8.50802H198.898V12.36H210.544ZM212.902 15.006V13.584H195.802V15.006H212.902ZM210.796 22.71V21.36H200.572V20.064H209.716V16.23H198.61V17.562H208.096V18.786H198.97V22.71H210.796Z" fill="black"/>
<path d="M232.877 5.52002H231.293V15.6H232.877V11.928H235.847V10.488H232.877V5.52002ZM229.367 13.62L224.381 10.056C224.831 8.95802 225.155 7.77002 225.299 6.47402L223.607 6.31202C223.265 9.96602 221.249 12.864 218.567 14.628L219.737 15.888C221.339 14.736 222.725 13.242 223.715 11.442L228.467 14.862L229.367 13.62ZM227.351 15.888C223.751 15.888 221.645 17.202 221.645 19.38C221.645 21.576 223.751 22.89 227.351 22.89C230.951 22.89 233.057 21.576 233.057 19.38C233.057 17.202 230.951 15.888 227.351 15.888ZM230.861 20.64C230.213 21.144 229.043 21.45 227.351 21.45C225.659 21.45 224.471 21.144 223.841 20.64C223.481 20.316 223.301 19.902 223.301 19.38C223.301 18.876 223.481 18.444 223.841 18.138C224.489 17.652 225.659 17.328 227.351 17.328C229.043 17.328 230.213 17.652 230.861 18.138C231.221 18.444 231.401 18.876 231.401 19.38C231.401 19.902 231.221 20.316 230.861 20.64Z" fill="black"/>
<path d="M238.817 6.24002V7.68002H251.237V6.24002H238.817ZM251.165 12.27V10.866H248.519L248.861 8.52602L247.223 8.40002L246.917 10.866H243.101L242.795 8.40002L241.157 8.52602L241.499 10.866H238.907V12.27H251.165ZM253.577 13.674H236.477V15.15H244.289V17.13H239.627V22.62H250.427V17.13H245.783V15.15H253.577V13.674ZM241.175 21.216V18.498H248.861V21.216H241.175Z" fill="black"/>
<path d="M268.157 12.72V14.61H269.777V5.52002H268.157V8.07602H264.197V6.69002H262.667V9.24602H257.555V6.69002H256.007V14.25H264.197V12.72H268.157ZM268.157 11.316H264.197V9.48002H268.157V11.316ZM257.555 12.918V10.578H262.667V12.918H257.555ZM260.453 19.758H269.777V15.51H258.401V16.878H268.157V18.444H258.851V22.8H270.497V21.432H260.453V19.758Z" fill="black"/>
<path d="M281.837 16.14H287.579V14.718H277.031V12.306H286.517V7.14002H275.267V8.56202H284.915V10.866H275.429V16.14H280.217V19.254H272.477V20.748H289.577V19.254H281.837V16.14Z" fill="black"/>
<path d="M308.833 12.468H304.963V13.908H308.833V22.8H310.453V5.52002H308.833V12.468ZM296.431 8.13002V9.60602H302.983V9.66002C302.191 12.81 299.275 16.338 295.423 18.39L296.395 19.722C298.303 18.606 300.103 17.166 301.561 15.42L305.431 19.416L306.421 18.174L302.461 14.214C303.703 12.432 304.567 10.398 304.891 8.13002H296.431Z" fill="black"/>
<path d="M321.703 11.622C325.285 11.622 327.463 10.614 327.463 8.70602C327.463 6.79802 325.285 5.79002 321.703 5.79002C318.121 5.79002 315.943 6.79802 315.943 8.70602C315.943 10.614 318.121 11.622 321.703 11.622ZM318.067 7.86002C318.697 7.48202 319.975 7.23002 321.703 7.23002C323.431 7.23002 324.691 7.48202 325.339 7.86002C325.681 8.07602 325.807 8.36402 325.807 8.70602C325.807 9.04802 325.663 9.33602 325.339 9.55202C324.709 9.94802 323.431 10.182 321.703 10.182C319.975 10.182 318.697 9.94802 318.067 9.55202C317.743 9.33602 317.599 9.04802 317.599 8.70602C317.599 8.36402 317.725 8.07602 318.067 7.86002ZM330.253 12.594H313.153V14.052H320.965V15.69H315.979V17.04H325.447V18.498H316.303V22.71H328.147V21.342H317.905V19.812H327.067V15.69H322.441V14.052H330.253V12.594Z" fill="black"/>
<path d="M345.319 22.782H346.903V5.52002H345.319V22.782ZM339.127 12.828C338.929 9.58802 337.525 7.91402 335.437 7.91402C333.151 7.91402 331.693 9.89402 331.693 13.71C331.693 17.526 333.151 19.506 335.437 19.506C337.597 19.506 339.019 17.724 339.145 14.268H341.197V22.17H342.763V6.24002H341.197V12.828H339.127ZM335.437 17.994C334.123 17.994 333.313 16.662 333.313 13.71C333.313 10.758 334.123 9.42602 335.437 9.42602C336.733 9.42602 337.543 10.758 337.543 13.71C337.543 16.662 336.733 17.994 335.437 17.994Z" fill="black"/>
<path d="M363.189 11.604C366.285 11.46 368.139 10.47 368.139 8.70602C368.139 6.79802 365.961 5.79002 362.379 5.79002C358.797 5.79002 356.619 6.79802 356.619 8.70602C356.619 10.47 358.473 11.46 361.569 11.604V12.954H353.829V14.412H370.929V12.954H363.189V11.604ZM358.275 8.70602C358.275 8.36402 358.401 8.07602 358.743 7.86002C359.373 7.48202 360.651 7.23002 362.379 7.23002C364.107 7.23002 365.367 7.48202 366.015 7.86002C366.357 8.07602 366.483 8.36402 366.483 8.70602C366.483 9.04802 366.339 9.33602 366.015 9.55202C365.385 9.94802 364.107 10.182 362.379 10.182C360.651 10.182 359.373 9.94802 358.743 9.55202C358.419 9.33602 358.275 9.04802 358.275 8.70602ZM367.743 19.812V15.69H356.655V17.04H366.123V18.498H356.979V22.71H368.823V21.342H358.581V19.812H367.743Z" fill="black"/>
<path d="M385.509 12.324C382.449 13.242 378.687 13.746 374.961 13.746V11.478H381.711V6.87002H373.089V8.27402H380.127V10.11H373.341V15.132C378.561 15.132 382.503 14.574 385.509 13.638V15.06H387.129V5.52002H385.509V12.324ZM377.841 18.012V16.32H376.239V22.71H387.129V16.14H385.527V18.012H377.841ZM377.841 21.288V19.362H385.527V21.288H377.841Z" fill="black"/>
<path d="M403.509 15.564C400.323 16.734 395.787 17.418 393.195 17.418V7.77002H391.539V18.93C395.805 18.93 400.431 18.192 403.509 16.968V22.8H405.129V5.52002H403.509V15.564Z" fill="black"/>
<path d="M422.229 13.188V5.52002H420.645V16.122C417.837 17.076 413.607 17.616 410.835 17.616L410.799 9.42602H417.711V7.95002H409.179V19.11C413.571 19.11 417.927 18.534 420.645 17.526V22.8H422.229V14.628H425.199V13.188H422.229Z" fill="black"/>
<path d="M428.979 21C429.753 21 430.419 20.352 430.419 19.578C430.419 18.786 429.753 18.12 428.979 18.12C428.187 18.12 427.539 18.786 427.539 19.578C427.539 20.352 428.187 21 428.979 21Z" fill="black"/>
<path d="M77.442 44.8779L75.174 52.1319L74.058 55.6059H73.95L72.978 52.0419L71.034 44.8779H68.91L66.678 52.1319L65.598 55.6599H65.49L64.59 52.0599L62.772 44.8779H60.738L64.428 57.9999H66.48L68.694 51.0519L69.792 47.5779H69.918L70.89 51.0699L72.798 57.9999H74.814L79.314 44.8779H77.442Z" fill="#505050"/>
<path d="M88.8291 52.5099C88.8291 49.7919 87.4971 47.6679 84.6171 47.6679C81.7371 47.6679 80.0451 50.0259 80.0451 53.1219C80.0451 56.2719 81.7011 58.1799 84.8151 58.1799C86.4711 58.1799 87.6771 57.8919 88.5771 57.3519V55.9119C87.6411 56.3799 86.2191 56.6679 85.0671 56.6679C83.1051 56.6679 81.9531 55.6059 81.8451 53.3019H88.8291V52.5099ZM84.5451 49.1799C86.1471 49.1799 86.8491 50.3679 86.9391 51.9519H81.8991C82.1511 49.7919 83.2671 49.1799 84.5451 49.1799Z" fill="#505050"/>
<path d="M92.8001 42.8259C92.0801 42.8259 91.5401 43.3479 91.5401 44.0499C91.5401 44.7519 92.0801 45.2919 92.8001 45.2919C93.5021 45.2919 94.0601 44.7519 94.0601 44.0499C94.0601 43.3479 93.5021 42.8259 92.8001 42.8259ZM90.2801 47.8659V49.3779H91.9181V57.9999H93.6101V47.8659H90.2801Z" fill="#505050"/>
<path d="M102.553 48.1899C101.941 47.8479 101.167 47.6679 100.267 47.6679C97.891 47.6679 96.397 49.5399 96.397 51.0879C96.397 52.5099 97.099 53.4459 98.287 53.9139L96.613 55.5879V56.9019L97.909 57.0459C96.793 57.6939 95.803 58.5939 95.803 59.7819C95.803 61.5999 97.423 62.8059 100.051 62.8059C103.183 62.8059 105.109 60.7899 105.109 58.7379C105.109 57.2259 104.281 56.1279 101.563 55.8219L98.341 55.4619L99.493 54.2199C99.745 54.2379 99.997 54.2559 100.267 54.2559C102.337 54.2559 104.011 52.5099 104.011 50.9619C104.011 50.2599 103.867 49.6839 103.579 49.1979H105.523V47.8119L102.553 48.1899ZM100.267 52.9599C99.061 52.9599 98.143 52.2759 98.143 50.9259C98.143 49.7559 98.881 49.0359 100.141 49.0359C101.473 49.0359 102.283 49.7919 102.283 50.9979C102.283 52.1499 101.437 52.9599 100.267 52.9599ZM103.453 59.0799C103.453 60.2319 102.229 61.4019 100.303 61.4019C98.269 61.4019 97.459 60.4659 97.459 59.5299C97.459 58.7019 98.287 57.8559 99.475 57.2259L100.861 57.3879C103.039 57.6579 103.453 58.1259 103.453 59.0799Z" fill="#505050"/>
<path d="M112.829 47.6679C111.389 47.6679 110.039 48.3879 109.103 49.0179V43.3119H107.411V57.9999H109.103V50.3679C110.057 49.7919 111.281 49.1799 112.199 49.1799C113.747 49.1799 114.107 49.9179 114.107 51.5019V57.9999H115.799V51.3219C115.799 48.7119 114.863 47.6679 112.829 47.6679Z" fill="#505050"/>
<path d="M127.642 53.7519L126.832 56.0379H126.706L126.004 53.8419L124.114 47.8659H122.134L125.734 57.9999H126.004L124.078 62.5899L124.132 62.6619H125.932L127.714 57.7299L131.566 47.8659H129.694L127.642 53.7519Z" fill="#505050"/>
<path d="M137.264 58.1799C140.054 58.1799 141.872 55.6959 141.872 52.9419C141.872 49.3419 140.342 47.6679 137.354 47.6679C134.636 47.6679 132.674 50.1699 132.674 52.9779C132.674 56.5959 134.492 58.1799 137.264 58.1799ZM137.336 56.6679C135.104 56.6679 134.474 55.0479 134.474 52.9059C134.474 50.9799 135.032 49.1799 137.264 49.1799C139.712 49.1799 140.072 51.0699 140.072 52.9779C140.072 54.9759 139.532 56.6679 137.336 56.6679Z" fill="#505050"/>
<path d="M152.6 55.5519V47.8659H150.908V55.4799C149.972 56.0559 148.946 56.6679 148.028 56.6679C146.48 56.6679 146.12 55.9299 146.12 54.3459V47.8659H144.428V54.5259C144.428 57.1359 145.382 58.1799 147.398 58.1799C148.91 58.1799 150.188 57.3879 151.07 56.7219L151.322 57.9999H153.032L152.6 55.5519Z" fill="#505050"/>
<path d="M160.374 47.6679C159.384 47.6679 158.268 48.3519 157.422 49.1439L157.188 47.8659H155.478L155.892 50.2779V57.9999H157.584V50.5659C158.34 49.9719 159.276 49.2879 160.518 49.2879C160.806 49.2879 161.094 49.3059 161.418 49.3959V47.7759C161.058 47.6859 160.734 47.6679 160.374 47.6679Z" fill="#505050"/>
<path d="M169.072 42.8259C168.352 42.8259 167.812 43.3479 167.812 44.0499C167.812 44.7519 168.352 45.2919 169.072 45.2919C169.774 45.2919 170.332 44.7519 170.332 44.0499C170.332 43.3479 169.774 42.8259 169.072 42.8259ZM166.552 47.8659V49.3779H168.19V57.9999H169.882V47.8659H166.552Z" fill="#505050"/>
<path d="M177.241 56.6679C176.161 56.6679 175.423 56.3799 175.405 55.0119V49.3779H178.771V47.8659H175.405V45.2199H173.713V47.8659H172.021V49.3779H173.713V55.2099C173.713 57.3699 175.063 58.1799 176.611 58.1799C177.565 58.1799 178.429 58.0179 178.969 57.7119V56.3259C178.501 56.4879 177.835 56.6679 177.241 56.6679Z" fill="#505050"/>
<path d="M189.288 52.5099C189.288 49.7919 187.956 47.6679 185.076 47.6679C182.196 47.6679 180.504 50.0259 180.504 53.1219C180.504 56.2719 182.16 58.1799 185.274 58.1799C186.93 58.1799 188.136 57.8919 189.036 57.3519V55.9119C188.1 56.3799 186.678 56.6679 185.526 56.6679C183.564 56.6679 182.412 55.6059 182.304 53.3019H189.288V52.5099ZM185.004 49.1799C186.606 49.1799 187.308 50.3679 187.398 51.9519H182.358C182.61 49.7919 183.726 49.1799 185.004 49.1799Z" fill="#505050"/>
<path d="M203.177 47.6679C201.683 47.6679 200.405 48.4599 199.523 49.1259C199.073 48.0999 198.209 47.6679 196.913 47.6679C195.509 47.6679 194.303 48.3519 193.439 48.9819L193.223 47.8659H191.513L191.927 50.2779V57.9999H193.619V50.2419C194.483 49.7019 195.419 49.1799 196.283 49.1799C197.831 49.1799 198.191 49.9179 198.191 51.5019V57.9999H199.883V51.3219C199.883 50.9439 199.865 50.6019 199.829 50.2779C200.711 49.7199 201.665 49.1799 202.547 49.1799C204.113 49.1799 204.473 49.9179 204.473 51.5019V57.9999H206.165V51.3219C206.165 48.7119 205.211 47.6679 203.177 47.6679Z" fill="#505050"/>
<path d="M212.102 58.1799C214.064 58.1799 216.026 57.2979 216.026 55.0119C216.026 52.7979 214.136 52.3479 212.534 51.9879C211.346 51.7359 210.302 51.4659 210.302 50.4579C210.302 49.7019 211.184 49.1799 212.264 49.1799C213.362 49.1799 214.118 49.3419 215.666 49.9719V48.3159C214.784 47.8659 213.488 47.6679 212.498 47.6679C210.482 47.6679 208.718 48.7479 208.718 50.7099C208.718 52.6179 210.428 53.1399 211.976 53.5359C213.308 53.8779 214.514 54.1479 214.514 55.1379C214.514 56.1279 213.542 56.6679 212.426 56.6679C211.202 56.6679 210.212 56.3979 208.826 55.8579V57.4959C209.672 57.8559 210.752 58.1799 212.102 58.1799Z" fill="#505050"/>
<path d="M227.931 47.6679C226.797 47.6679 225.771 48.0819 224.853 48.6219V43.3119H223.161V57.6399C224.601 58.0179 225.591 58.1799 226.689 58.1799C229.551 58.1799 231.621 56.2899 231.621 52.4559C231.621 49.5399 230.343 47.6679 227.931 47.6679ZM226.905 56.6679C226.275 56.6679 225.501 56.5779 224.853 56.4699V49.9359C225.609 49.5759 226.509 49.1799 227.373 49.1799C229.083 49.1799 229.821 50.3679 229.821 52.7799C229.821 54.8319 229.281 56.6679 226.905 56.6679Z" fill="#505050"/>
<path d="M238.525 53.7519L237.715 56.0379H237.589L236.887 53.8419L234.997 47.8659H233.017L236.617 57.9999H236.887L234.961 62.5899L235.015 62.6619H236.815L238.597 57.7299L242.449 47.8659H240.577L238.525 53.7519Z" fill="#505050"/>
<path d="M253.457 47.6679C252.233 47.6679 251.117 48.1539 250.145 48.7659L249.983 47.8659H248.273L248.687 50.2779V62.6619H250.379V57.9819C250.901 58.0899 251.567 58.1799 252.233 58.1799C255.077 58.1799 257.147 56.2899 257.147 52.4559C257.147 49.5399 255.869 47.6679 253.457 47.6679ZM252.431 56.6679C251.837 56.6679 250.991 56.5779 250.379 56.4339V49.9359C251.117 49.5759 252.035 49.1799 252.899 49.1799C254.609 49.1799 255.347 50.3679 255.347 52.7799C255.347 54.8319 254.807 56.6679 252.431 56.6679Z" fill="#505050"/>
<path d="M264.313 47.6679C263.323 47.6679 262.207 48.3519 261.361 49.1439L261.127 47.8659H259.417L259.831 50.2779V57.9999H261.523V50.5659C262.279 49.9719 263.215 49.2879 264.457 49.2879C264.745 49.2879 265.033 49.3059 265.357 49.3959V47.7759C264.997 47.6859 264.673 47.6679 264.313 47.6679Z" fill="#505050"/>
<path d="M271.016 58.1799C273.806 58.1799 275.624 55.6959 275.624 52.9419C275.624 49.3419 274.094 47.6679 271.106 47.6679C268.388 47.6679 266.426 50.1699 266.426 52.9779C266.426 56.5959 268.244 58.1799 271.016 58.1799ZM271.088 56.6679C268.856 56.6679 268.226 55.0479 268.226 52.9059C268.226 50.9799 268.784 49.1799 271.016 49.1799C273.464 49.1799 273.824 51.0699 273.824 52.9779C273.824 54.9759 273.284 56.6679 271.088 56.6679Z" fill="#505050"/>
<path d="M286.262 55.7319V43.3119H284.57V47.8659C284.012 47.7759 283.166 47.6679 282.59 47.6679C279.89 47.6679 277.658 49.8099 277.658 53.4099C277.658 56.9019 279.728 58.1799 281.564 58.1799C282.878 58.1799 283.904 57.6039 284.732 56.8839L284.93 57.9999H286.64L286.262 55.7319ZM279.458 53.0679C279.458 50.1699 280.664 49.1799 282.554 49.1799C283.202 49.1799 283.976 49.3059 284.57 49.4859V55.5879C283.508 56.2719 282.824 56.6679 281.888 56.6679C280.322 56.6679 279.458 55.5159 279.458 53.0679Z" fill="#505050"/>
<path d="M297.602 55.5519V47.8659H295.91V55.4799C294.974 56.0559 293.948 56.6679 293.03 56.6679C291.482 56.6679 291.122 55.9299 291.122 54.3459V47.8659H289.43V54.5259C289.43 57.1359 290.384 58.1799 292.4 58.1799C293.912 58.1799 295.19 57.3879 296.072 56.7219L296.324 57.9999H298.034L297.602 55.5519Z" fill="#505050"/>
<path d="M304.944 58.1799C306.114 58.1799 307.14 57.9459 307.914 57.4779V56.0379C307.068 56.4699 306.15 56.6679 305.358 56.6679C303.306 56.6679 302.064 55.4979 302.064 52.9599C302.064 49.9719 303.504 49.1799 305.106 49.1799C306.024 49.1799 306.96 49.3599 307.914 49.9899V48.1899C307.158 47.7759 306.15 47.6679 305.178 47.6679C302.028 47.6679 300.264 50.0079 300.264 53.0859C300.264 56.2359 301.83 58.1799 304.944 58.1799Z" fill="#505050"/>
<path d="M314.666 56.6679C313.586 56.6679 312.848 56.3799 312.83 55.0119V49.3779H316.196V47.8659H312.83V45.2199H311.138V47.8659H309.446V49.3779H311.138V55.2099C311.138 57.3699 312.488 58.1799 314.036 58.1799C314.99 58.1799 315.854 58.0179 316.394 57.7119V56.3259C315.926 56.4879 315.26 56.6679 314.666 56.6679Z" fill="#505050"/>
<path d="M321.35 58.1799C323.312 58.1799 325.274 57.2979 325.274 55.0119C325.274 52.7979 323.384 52.3479 321.782 51.9879C320.594 51.7359 319.55 51.4659 319.55 50.4579C319.55 49.7019 320.432 49.1799 321.512 49.1799C322.61 49.1799 323.366 49.3419 324.914 49.9719V48.3159C324.032 47.8659 322.736 47.6679 321.746 47.6679C319.73 47.6679 317.966 48.7479 317.966 50.7099C317.966 52.6179 319.676 53.1399 321.224 53.5359C322.556 53.8779 323.762 54.1479 323.762 55.1379C323.762 56.1279 322.79 56.6679 321.674 56.6679C320.45 56.6679 319.46 56.3979 318.074 55.8579V57.4959C318.92 57.8559 320 58.1799 321.35 58.1799Z" fill="#505050"/>
<path d="M329.803 57.9999C330.577 57.9999 331.243 57.3519 331.243 56.5779C331.243 55.7859 330.577 55.1199 329.803 55.1199C329.011 55.1199 328.363 55.7859 328.363 56.5779C328.363 57.3519 329.011 57.9999 329.803 57.9999Z" fill="#505050"/>
<path d="M0 20.043C0 8.77419 8.77419 0 20 0C31.2258 0 40 8.77419 40 20.043C40 31.3118 31.2258 40.086 20 40.086C8.77419 40.086 0 31.3118 0 20.043ZM19.7419 34.5376C25.2473 34.5376 29.1183 30.5376 29.1183 24.9892C29.1183 22.0215 27.3118 19.6129 24.7312 18.5376C26.4086 17.4624 27.5699 15.5269 27.5699 13.2473C27.5699 8.98925 24.4731 5.54839 20.6021 5.54839C16.7742 5.54839 14.1075 7.01075 11.2688 10.5806L14.7527 13.5054C16.4301 11.7849 18.1935 10.9677 20.3011 10.9677C23.4839 10.9677 25.4624 12.086 25.4624 13.7204C25.4624 15.5269 22.4516 17.4194 19.4839 17.4194H15.3979V20.3011H20.3441C23.871 20.3011 27.0107 22.4086 27.0107 24.7742C27.0107 27.0538 24.043 29.0323 20.5591 29.0323C16.9032 29.0323 14.0215 27.2688 13.4624 26.5376L10.5376 30.1505C12.7312 33.0323 16 34.5376 19.7419 34.5376Z" fill="#235B4E"/>
</svg>
