<svg width="490" height="125" viewBox="0 0 490 125" fill="none" xmlns="http://www.w3.org/2000/svg">
<path d="M69.81 12.36H74.4V5.97002H72.78V7.87802H65.22V5.97002H63.6V12.36H68.19V14.124H60.45V15.6H77.55V14.124H69.81V12.36ZM72.78 9.28202V10.956H65.22V9.28202H72.78ZM69 16.788C65.4 16.788 63.294 17.868 63.294 19.848C63.294 21.81 65.4 22.89 69 22.89C72.6 22.89 74.706 21.81 74.706 19.848C74.706 17.868 72.6 16.788 69 16.788ZM72.528 20.838C71.898 21.198 70.71 21.45 69 21.45C67.29 21.45 66.102 21.216 65.472 20.838C65.112 20.586 64.95 20.244 64.95 19.848C64.95 19.434 65.112 19.074 65.472 18.84C66.102 18.462 67.29 18.228 69 18.228C70.71 18.228 71.898 18.48 72.528 18.84C72.888 19.074 73.05 19.434 73.05 19.848C73.05 20.244 72.888 20.586 72.528 20.838Z" fill="black"/>
<path d="M83.058 12.594V10.848H92.292V9.49802H83.058V7.80602H92.67V6.42002H81.474V13.98H93.192V12.594H83.058ZM78.45 15.834V17.31H86.19V22.89H87.8099V17.31H95.5499V15.834H78.45Z" fill="black"/>
<path d="M110.616 22.782H112.2V5.52002H110.616V22.782ZM104.424 12.828C104.226 9.58802 102.822 7.91402 100.734 7.91402C98.448 7.91402 96.99 9.89402 96.99 13.71C96.99 17.526 98.448 19.506 100.734 19.506C102.894 19.506 104.316 17.724 104.442 14.268H106.494V22.17H108.06V6.24002H106.494V12.828H104.424ZM100.734 17.994C99.42 17.994 98.61 16.662 98.61 13.71C98.61 10.758 99.42 9.42602 100.734 9.42602C102.03 9.42602 102.84 10.758 102.84 13.71C102.84 16.662 102.03 17.994 100.734 17.994Z" fill="black"/>
<path d="M134.426 16.14V5.52002H132.806V10.758H128.846V12.198H132.806V16.14H134.426ZM121.484 6.06002V7.46402H127.892V6.06002H121.484ZM129.98 14.556L126.416 12.774C127.514 11.73 128.324 10.47 128.702 9.01202H120.368V10.416H126.632V10.47C125.354 12.36 122.996 13.908 119.576 14.916L120.35 16.194C122.096 15.636 123.824 14.826 125.282 13.746L129.224 15.69L129.98 14.556ZM128.81 16.428C125.21 16.428 123.104 17.598 123.104 19.65C123.104 21.72 125.21 22.89 128.81 22.89C132.41 22.89 134.516 21.72 134.516 19.65C134.516 17.598 132.41 16.428 128.81 16.428ZM132.32 20.766C131.69 21.18 130.52 21.45 128.81 21.45C127.1 21.45 125.912 21.18 125.3 20.766C124.94 20.478 124.76 20.1 124.76 19.65C124.76 19.218 124.922 18.822 125.3 18.552C125.93 18.138 127.1 17.868 128.81 17.868C130.52 17.868 131.69 18.138 132.32 18.552C132.698 18.822 132.86 19.218 132.86 19.65C132.86 20.1 132.698 20.478 132.32 20.766Z" fill="black"/>
<path d="M151.526 13.188V5.52002H149.942V22.8H151.526V14.628H154.496V13.188H151.526ZM146.468 15.924C146.954 13.494 147.17 10.848 147.17 8.04002H138.206V9.53402H145.586C145.586 11.244 145.388 13.746 144.848 15.762L146.468 15.924ZM142.868 12.72H141.284V18.3C140.042 18.372 138.71 18.39 137.216 18.39L137.396 19.884C142.364 19.884 145.946 19.524 149.186 18.66L148.952 17.256C147.098 17.742 145.154 18.048 142.868 18.21V12.72Z" fill="black"/>
<path d="M169.868 12.36V11.028H159.788V9.82202H169.04V6.06002H158.006V7.41002H167.492V8.50802H158.222V12.36H169.868ZM172.226 15.006V13.584H155.126V15.006H172.226ZM170.12 22.71V21.36H159.896V20.064H169.04V16.23H157.934V17.562H167.42V18.786H158.294V22.71H170.12Z" fill="black"/>
<path d="M187.252 17.076H191.518V19.2H193.102V5.52002H191.518V15.78H187.252V17.076ZM184.066 12.396C186.586 12.396 188.422 11.262 188.422 9.33602C188.422 7.42802 186.586 6.29402 184.066 6.29402C181.528 6.29402 179.692 7.42802 179.692 9.33602C179.692 11.262 181.528 12.396 184.066 12.396ZM184.066 7.66202C185.596 7.66202 186.82 8.18402 186.82 9.33602C186.82 10.47 185.596 11.028 184.066 11.028C182.518 11.028 181.294 10.47 181.294 9.33602C181.294 8.20202 182.518 7.66202 184.066 7.66202ZM184.732 17.76V14.808C186.712 14.628 188.476 14.34 190.132 13.926L189.916 12.558C186.64 13.35 183.094 13.62 177.892 13.62L178.072 15.078C179.908 15.078 181.582 15.024 183.112 14.934V17.76H184.732ZM183.724 18.21H182.122V22.62H193.462V21.162H183.724V18.21Z" fill="black"/>
<path d="M210.202 13.008V5.52002H208.618V22.8H210.202V14.448H213.172V13.008H210.202ZM198.088 6.78002V8.22002H205V6.78002H198.088ZM206.692 11.784V10.308H195.982V11.784H206.692ZM201.526 13.314C199.132 13.314 197.548 14.79 197.548 16.77C197.548 18.75 199.132 20.226 201.526 20.226C203.92 20.226 205.486 18.75 205.486 16.77C205.486 14.79 203.92 13.314 201.526 13.314ZM201.526 18.786C200.014 18.786 199.168 18.03 199.168 16.77C199.168 15.528 200.014 14.754 201.526 14.754C203.038 14.754 203.884 15.528 203.884 16.77C203.884 18.03 203.038 18.786 201.526 18.786Z" fill="black"/>
<path d="M228.148 12.378V10.902H218.608V6.15002H216.988V12.378H228.148ZM230.902 15.906V14.412H213.802V15.906H230.902ZM228.31 22.53V21.054H218.752V17.31H217.132V22.53H228.31Z" fill="black"/>
<path d="M250.877 5.52002H249.293V18.48H250.877V12.558H253.847V11.118H250.877V5.52002ZM237.647 7.41002V15.15H245.747V7.41002H237.647ZM239.231 13.818V8.76002H244.163V13.818H239.231ZM240.257 16.77V22.53H251.597V21.054H241.877V16.77H240.257Z" fill="black"/>
<path d="M267.689 13.44C268.301 11.352 268.625 8.32802 268.697 6.24002H257.339V7.64402H267.059C267.059 8.11202 267.005 8.81402 266.933 9.60602L256.853 9.89402L256.925 11.352L266.789 10.938C266.681 11.82 266.537 12.702 266.357 13.44H254.477V14.916H271.577V13.44H267.689ZM268.427 22.62V16.68H257.627V22.62H268.427ZM266.843 18.066V21.216H259.193V18.066H266.843Z" fill="black"/>
<path d="M291.553 10.308V5.52002H289.969V11.622C287.305 12.522 282.859 13.044 280.069 13.044L280.033 8.50802H286.945V7.05002H278.413V14.52C282.823 14.52 287.395 13.926 289.969 12.972V15.15H291.553V11.748H294.523V10.308H291.553ZM291.553 22.62V16.05H280.753V22.62H291.553ZM289.969 17.454V21.198H282.319V17.454H289.969Z" fill="black"/>
<path d="M310.165 12.288L310.957 11.01L304.315 7.66202C304.711 7.14002 305.053 6.56402 305.305 5.97002L303.667 5.52002C302.605 8.05802 299.581 10.002 296.179 11.01L297.025 12.414C299.275 11.658 301.579 10.47 303.271 8.83202L310.165 12.288ZM295.153 14.97H312.253V13.494H295.153V14.97ZM299.905 17.958V16.14H298.303V22.62H309.103V16.14H307.501V17.958H299.905ZM299.905 21.198V19.308H307.501V21.198H299.905Z" fill="black"/>
<path d="M326.833 15.564C323.647 16.734 319.111 17.418 316.519 17.418V7.77002H314.863V18.93C319.129 18.93 323.755 18.192 326.833 16.968V22.8H328.453V5.52002H326.833V15.564Z" fill="black"/>
<path d="M345.553 13.188V5.52002H343.969V16.122C341.161 17.076 336.931 17.616 334.159 17.616L334.123 9.42602H341.035V7.95002H332.503V19.11C336.895 19.11 341.251 18.534 343.969 17.526V22.8H345.553V14.628H348.523V13.188H345.553Z" fill="black"/>
<path d="M352.303 21C353.077 21 353.743 20.352 353.743 19.578C353.743 18.786 353.077 18.12 352.303 18.12C351.511 18.12 350.863 18.786 350.863 19.578C350.863 20.352 351.511 21 352.303 21Z" fill="black"/>
<path d="M74.85 36.52H73.266V46.6H74.85V42.928H77.82V41.488H74.85V36.52ZM71.34 44.62L66.354 41.056C66.804 39.958 67.128 38.77 67.272 37.474L65.58 37.312C65.238 40.966 63.222 43.864 60.54 45.628L61.71 46.888C63.312 45.736 64.698 44.242 65.688 42.442L70.44 45.862L71.34 44.62ZM69.324 46.888C65.724 46.888 63.618 48.202 63.618 50.38C63.618 52.576 65.724 53.89 69.324 53.89C72.924 53.89 75.03 52.576 75.03 50.38C75.03 48.202 72.924 46.888 69.324 46.888ZM72.834 51.64C72.186 52.144 71.016 52.45 69.324 52.45C67.632 52.45 66.444 52.144 65.814 51.64C65.454 51.316 65.274 50.902 65.274 50.38C65.274 49.876 65.454 49.444 65.814 49.138C66.462 48.652 67.632 48.328 69.324 48.328C71.016 48.328 72.186 48.652 72.834 49.138C73.194 49.444 73.374 49.876 73.374 50.38C73.374 50.902 73.194 51.316 72.834 51.64Z" fill="black"/>
<path d="M80.79 37.24V38.68H93.2099V37.24H80.79ZM93.138 43.27V41.866H90.492L90.834 39.526L89.196 39.4L88.8899 41.866H85.0739L84.768 39.4L83.13 39.526L83.472 41.866H80.88V43.27H93.138ZM95.5499 44.674H78.45V46.15H86.262V48.13H81.6V53.62H92.4V48.13H87.756V46.15H95.5499V44.674ZM83.148 52.216V49.498H90.834V52.216H83.148Z" fill="black"/>
<path d="M110.13 43.72V45.61H111.75V36.52H110.13V39.076H106.17V37.69H104.64V40.246H99.528V37.69H97.9799V45.25H106.17V43.72H110.13ZM110.13 42.316H106.17V40.48H110.13V42.316ZM99.528 43.918V41.578H104.64V43.918H99.528ZM102.426 50.758H111.75V46.51H100.374V47.878H110.13V49.444H100.824V53.8H112.47V52.432H102.426V50.758Z" fill="black"/>
<path d="M123.81 47.14H129.552V45.718H119.004V43.306H128.49V38.14H117.24V39.562H126.888V41.866H117.402V47.14H122.19V50.254H114.45V51.748H131.55V50.254H123.81V47.14Z" fill="black"/>
<path d="M151.526 44.188V36.52H149.942V46.834C146.81 47.878 142.616 48.418 140.132 48.418V38.77H138.476V49.93C142.598 49.93 146.936 49.336 149.942 48.274V53.8H151.526V45.628H154.496V44.188H151.526Z" fill="black"/>
<path d="M168.842 49.174H164.666V50.542H168.842V53.8H170.426V36.52H168.842V49.174ZM159.176 42.91V37.96H157.556V44.35H166.448V42.91H159.176ZM167.87 45.574C164.45 46.348 160.616 46.6 155.216 46.6L155.396 48.076C157.304 48.076 159.014 48.04 160.616 47.932V53.71H162.236V47.824C164.396 47.644 166.304 47.356 168.086 46.96L167.87 45.574Z" fill="black"/>
<path d="M192.202 41.308V36.52H190.618V42.622C187.954 43.522 183.508 44.044 180.718 44.044L180.682 39.508H187.594V38.05H179.062V45.52C183.472 45.52 188.044 44.926 190.618 43.972V46.15H192.202V42.748H195.172V41.308H192.202ZM192.202 53.62V47.05H181.402V53.62H192.202ZM190.618 48.454V52.198H182.968V48.454H190.618Z" fill="black"/>
<path d="M210.202 44.008V36.52H208.618V53.8H210.202V45.448H213.172V44.008H210.202ZM201.166 38.554C198.448 38.554 196.702 40.714 196.702 44.566C196.702 48.436 198.448 50.596 201.166 50.596C203.866 50.596 205.612 48.436 205.612 44.566C205.612 40.714 203.866 38.554 201.166 38.554ZM201.166 49.084C199.402 49.084 198.34 47.554 198.34 44.566C198.34 41.596 199.402 40.066 201.166 40.066C202.912 40.066 203.974 41.596 203.974 44.566C203.974 47.554 202.912 49.084 201.166 49.084Z" fill="black"/>
<path d="M231.172 40.966H228.202V36.52H226.618V53.8H228.202V48.13H231.172V46.726H228.202V42.37H231.172V40.966ZM219.166 38.554C216.448 38.554 214.702 40.714 214.702 44.566C214.702 48.436 216.448 50.596 219.166 50.596C221.866 50.596 223.612 48.436 223.612 44.566C223.612 40.714 221.866 38.554 219.166 38.554ZM219.166 49.084C217.402 49.084 216.34 47.554 216.34 44.566C216.34 41.596 217.402 40.066 219.166 40.066C220.912 40.066 221.974 41.596 221.974 44.566C221.974 47.554 220.912 49.084 219.166 49.084Z" fill="black"/>
<path d="M251.777 46.6V36.52H250.157V40.768H246.197V42.208H250.157V46.6H251.777ZM247.655 44.836L243.803 42.64C244.973 41.344 245.819 39.814 246.125 38.05H237.791V39.49H244.181V39.544C243.299 41.686 240.743 43.972 236.747 45.214L237.557 46.528C239.483 45.862 241.265 44.908 242.723 43.684L246.809 46.024L247.655 44.836ZM246.161 46.888C242.561 46.888 240.455 48.202 240.455 50.38C240.455 52.576 242.561 53.89 246.161 53.89C249.761 53.89 251.867 52.576 251.867 50.38C251.867 48.202 249.761 46.888 246.161 46.888ZM249.671 51.64C249.023 52.144 247.853 52.45 246.161 52.45C244.469 52.45 243.281 52.144 242.651 51.64C242.291 51.316 242.111 50.902 242.111 50.38C242.111 49.876 242.291 49.444 242.651 49.138C243.299 48.652 244.469 48.328 246.161 48.328C247.853 48.328 249.023 48.652 249.671 49.138C250.031 49.444 250.211 49.876 250.211 50.38C250.211 50.902 250.031 51.316 249.671 51.64Z" fill="black"/>
<path d="M268.877 42.928V36.52H267.293V48.31H268.877V44.368H271.937V42.928H268.877ZM257.051 37.006V38.32H263.459V37.006H257.051ZM254.909 39.202V40.498H265.205V39.202H254.909ZM266.177 45.844C264.575 46.132 262.901 46.33 260.939 46.456V45.412C262.865 45.25 264.017 44.512 264.017 43.324C264.017 41.992 262.577 41.218 260.201 41.218C257.843 41.218 256.403 41.992 256.403 43.324C256.403 44.494 257.501 45.232 259.355 45.394V46.528C257.915 46.582 256.349 46.6 254.567 46.6L254.729 48.022C259.679 48.022 263.279 47.752 266.357 47.176L266.177 45.844ZM257.897 43.306C257.897 42.694 258.797 42.406 260.201 42.406C261.623 42.406 262.523 42.694 262.523 43.306C262.523 43.918 261.623 44.206 260.201 44.206C258.797 44.206 257.897 43.918 257.897 43.306ZM267.221 50.578V53.836H268.877V49.12H257.537V50.578H267.221Z" fill="black"/>
<path d="M286.877 36.52H285.293V49.48H286.877V44.818H289.847V43.378H286.877V36.52ZM274.727 37.24V38.59H281.603V37.24H274.727ZM272.657 40.192V41.596H283.277V40.192H272.657ZM282.107 45.556C282.107 43.9 280.559 42.766 278.147 42.766C275.753 42.766 274.205 43.9 274.205 45.556C274.205 47.212 275.753 48.346 278.147 48.346C280.559 48.346 282.107 47.212 282.107 45.556ZM275.753 45.556C275.753 44.638 276.635 44.062 278.147 44.062C279.677 44.062 280.559 44.638 280.559 45.556C280.559 46.474 279.677 47.05 278.147 47.05C276.635 47.05 275.753 46.474 275.753 45.556ZM276.257 49.03V53.53H287.597V52.072H277.859V49.03H276.257Z" fill="black"/>
<path d="M309.553 44.188V36.52H307.969V53.8H309.553V45.628H312.523V44.188H309.553ZM303.199 40.714V40.768C302.479 44.098 299.905 47.644 295.513 49.678L296.611 51.046C301.003 48.922 304.477 44.764 305.089 39.22H296.449V40.714H303.199Z" fill="black"/>
<path d="M326.833 40.156H322.711C322.927 39.544 323.089 38.914 323.179 38.23H314.701V39.67H321.199V39.724C320.389 42.046 317.905 44.494 313.783 45.664L314.665 47.086C317.707 46.132 320.533 44.26 322.063 41.56H326.833V43.486H322.243V44.89H326.833V46.87H328.453V36.52H326.833V40.156ZM326.797 49.246V53.836H328.453V47.77H317.113V49.246H326.797Z" fill="black"/>
<path d="M349.995 41.848H347.079V36.97H345.513V47.59H347.079V43.27H349.995V47.59H351.579V36.52H349.995V41.848ZM337.575 37.33V38.734H342.993V37.33H337.575ZM344.667 46.24L341.787 44.188C342.723 43.072 343.407 41.812 343.731 40.372H336.585V41.776H341.769V41.83C340.797 43.558 339.069 45.286 335.919 46.582L336.801 47.824C338.313 47.122 339.699 46.24 340.833 45.178L343.839 47.302L344.667 46.24ZM349.923 49.966V53.836H351.579V48.49H340.059V49.966H349.923Z" fill="black"/>
<path d="M369.129 46.6V36.52H367.509V40.768H363.549V42.208H367.509V46.6H369.129ZM365.007 44.836L361.155 42.64C362.325 41.344 363.171 39.814 363.477 38.05H355.143V39.49H361.533V39.544C360.651 41.686 358.095 43.972 354.099 45.214L354.909 46.528C356.835 45.862 358.617 44.908 360.075 43.684L364.161 46.024L365.007 44.836ZM363.513 46.888C359.913 46.888 357.807 48.202 357.807 50.38C357.807 52.576 359.913 53.89 363.513 53.89C367.113 53.89 369.219 52.576 369.219 50.38C369.219 48.202 367.113 46.888 363.513 46.888ZM367.023 51.64C366.375 52.144 365.205 52.45 363.513 52.45C361.821 52.45 360.633 52.144 360.003 51.64C359.643 51.316 359.463 50.902 359.463 50.38C359.463 49.876 359.643 49.444 360.003 49.138C360.651 48.652 361.821 48.328 363.513 48.328C365.205 48.328 366.375 48.652 367.023 49.138C367.383 49.444 367.563 49.876 367.563 50.38C367.563 50.902 367.383 51.316 367.023 51.64Z" fill="black"/>
<path d="M387.129 53.8V36.52H385.509V53.8H387.129ZM377.499 50.596C380.289 50.596 382.089 48.418 382.089 44.566C382.089 40.732 380.289 38.554 377.499 38.554C374.709 38.554 372.909 40.732 372.909 44.566C372.909 48.418 374.709 50.596 377.499 50.596ZM377.499 49.084C375.663 49.084 374.565 47.536 374.565 44.566C374.565 41.614 375.663 40.066 377.499 40.066C379.335 40.066 380.433 41.614 380.433 44.566C380.433 47.536 379.335 49.084 377.499 49.084Z" fill="black"/>
<path d="M408.905 44.188V36.52H407.321V53.8H408.905V45.628H411.875V44.188H408.905ZM402.551 40.714V40.768C401.831 44.098 399.257 47.644 394.865 49.678L395.963 51.046C400.355 48.922 403.829 44.764 404.441 39.22H395.801V40.714H402.551Z" fill="black"/>
<path d="M426.815 42.55V41.092H417.275V36.97H415.655V42.55H426.815ZM429.605 45.916V44.44H412.505V45.916H429.605ZM421.055 53.89C424.655 53.89 426.761 52.684 426.761 50.614C426.761 48.544 424.655 47.338 421.055 47.338C417.455 47.338 415.349 48.544 415.349 50.614C415.349 52.684 417.455 53.89 421.055 53.89ZM421.055 52.45C419.345 52.45 418.157 52.18 417.545 51.748C417.185 51.46 417.005 51.064 417.005 50.614C417.005 50.164 417.167 49.768 417.545 49.48C418.175 49.048 419.345 48.778 421.055 48.778C422.765 48.778 423.935 49.066 424.565 49.48C424.943 49.768 425.105 50.164 425.105 50.614C425.105 51.064 424.943 51.46 424.565 51.748C423.935 52.162 422.765 52.45 421.055 52.45Z" fill="black"/>
<path d="M444.905 42.478V36.52H443.321V46.42H444.905V43.918H447.875V42.478H444.905ZM432.755 36.88V38.194H439.631V36.88H432.755ZM430.685 39.526V40.894H441.305V39.526H430.685ZM440.135 44.35C440.135 42.856 438.605 41.884 436.175 41.884C433.763 41.884 432.233 42.856 432.233 44.35C432.233 45.844 433.763 46.816 436.175 46.816C438.605 46.816 440.135 45.844 440.135 44.35ZM433.745 44.35C433.745 43.594 434.645 43.108 436.175 43.108C437.723 43.108 438.623 43.594 438.623 44.35C438.623 45.106 437.723 45.592 436.175 45.592C434.645 45.592 433.745 45.106 433.745 44.35ZM435.707 49.156V47.59H434.105V53.71H444.905V47.41H443.303V49.156H435.707ZM435.707 52.288V50.488H443.303V52.288H435.707Z" fill="black"/>
<path d="M462.185 46.564C458.999 47.734 454.463 48.418 451.871 48.418V38.77H450.215V49.93C454.481 49.93 459.107 49.192 462.185 47.968V53.8H463.805V36.52H462.185V46.564Z" fill="black"/>
<path d="M480.905 44.188V36.52H479.321V47.122C476.513 48.076 472.283 48.616 469.511 48.616L469.475 40.426H476.387V38.95H467.855V50.11C472.247 50.11 476.603 49.534 479.321 48.526V53.8H480.905V45.628H483.875V44.188H480.905Z" fill="black"/>
<path d="M487.655 52C488.429 52 489.095 51.352 489.095 50.578C489.095 49.786 488.429 49.12 487.655 49.12C486.863 49.12 486.215 49.786 486.215 50.578C486.215 51.352 486.863 52 487.655 52Z" fill="black"/>
<path d="M65.9399 75.8779H61.8719V88.9999H63.7079V84.0499H65.0579C68.6579 84.0499 70.4039 82.2319 70.4039 79.8919C70.4039 77.1199 68.5679 75.8779 65.9399 75.8779ZM63.7079 82.5199V77.4079H65.2919C67.3439 77.4259 68.5139 78.2359 68.5139 79.9459C68.5139 82.0699 66.9839 82.4479 64.9499 82.5199H63.7079Z" fill="#505050"/>
<path d="M80.8641 86.5519V78.8659H79.1721V86.4799C78.2361 87.0559 77.2101 87.6679 76.2921 87.6679C74.7441 87.6679 74.3841 86.9299 74.3841 85.3459V78.8659H72.6921V85.5259C72.6921 88.1359 73.6461 89.1799 75.6621 89.1799C77.1741 89.1799 78.4521 88.3879 79.3341 87.7219L79.5861 88.9999H81.2961L80.8641 86.5519Z" fill="#505050"/>
<path d="M88.2775 87.6679C87.1975 87.6679 86.4595 87.3799 86.4415 86.0119V80.3779H89.8075V78.8659H86.4415V76.2199H84.7495V78.8659H83.0575V80.3779H84.7495V86.2099C84.7495 88.3699 86.0995 89.1799 87.6475 89.1799C88.6015 89.1799 89.4655 89.0179 90.0055 88.7119V87.3259C89.5375 87.4879 88.8715 87.6679 88.2775 87.6679Z" fill="#505050"/>
<path d="M100.861 75.6259C101.473 75.6259 101.887 75.6799 102.499 75.8059V74.2579C102.139 74.1679 101.707 74.1319 101.149 74.1319C98.9709 74.1319 97.3509 75.4099 97.3509 77.9479V78.8659H95.8209V80.3779H97.3509V88.9999H99.0429V80.3779H101.239V78.8659H99.0429V78.0559C99.0429 76.3459 99.6909 75.6259 100.861 75.6259Z" fill="#505050"/>
<path d="M107.833 78.6679C106.843 78.6679 105.727 79.3519 104.881 80.1439L104.647 78.8659H102.937L103.351 81.2779V88.9999H105.043V81.5659C105.799 80.9719 106.735 80.2879 107.977 80.2879C108.265 80.2879 108.553 80.3059 108.877 80.3959V78.7759C108.517 78.6859 108.193 78.6679 107.833 78.6679Z" fill="#505050"/>
<path d="M118.938 86.5519V78.8659H117.246V86.4799C116.31 87.0559 115.284 87.6679 114.366 87.6679C112.818 87.6679 112.458 86.9299 112.458 85.3459V78.8659H110.766V85.5259C110.766 88.1359 111.72 89.1799 113.736 89.1799C115.248 89.1799 116.526 88.3879 117.408 87.7219L117.66 88.9999H119.37L118.938 86.5519Z" fill="#505050"/>
<path d="M123.562 73.8259C122.842 73.8259 122.302 74.3479 122.302 75.0499C122.302 75.7519 122.842 76.2919 123.562 76.2919C124.264 76.2919 124.822 75.7519 124.822 75.0499C124.822 74.3479 124.264 73.8259 123.562 73.8259ZM121.042 78.8659V80.3779H122.68V88.9999H124.372V78.8659H121.042Z" fill="#505050"/>
<path d="M131.731 87.6679C130.651 87.6679 129.913 87.3799 129.895 86.0119V80.3779H133.261V78.8659H129.895V76.2199H128.203V78.8659H126.511V80.3779H128.203V86.2099C128.203 88.3699 129.553 89.1799 131.101 89.1799C132.055 89.1799 132.919 89.0179 133.459 88.7119V87.3259C132.991 87.4879 132.325 87.6679 131.731 87.6679Z" fill="#505050"/>
<path d="M138.414 89.1799C140.376 89.1799 142.338 88.2979 142.338 86.0119C142.338 83.7979 140.448 83.3479 138.846 82.9879C137.658 82.7359 136.614 82.4659 136.614 81.4579C136.614 80.7019 137.496 80.1799 138.576 80.1799C139.674 80.1799 140.43 80.3419 141.978 80.9719V79.3159C141.096 78.8659 139.8 78.6679 138.81 78.6679C136.794 78.6679 135.03 79.7479 135.03 81.7099C135.03 83.6179 136.74 84.1399 138.288 84.5359C139.62 84.8779 140.826 85.1479 140.826 86.1379C140.826 87.1279 139.854 87.6679 138.738 87.6679C137.514 87.6679 136.524 87.3979 135.138 86.8579V88.4959C135.984 88.8559 137.064 89.1799 138.414 89.1799Z" fill="#505050"/>
<path d="M156.565 86.7319V81.6559C156.565 79.4419 155.017 78.6679 153.163 78.6679C151.921 78.6679 150.211 78.9559 149.401 79.3159V80.8279C150.265 80.5219 151.795 80.1799 152.875 80.1799C153.991 80.1799 154.873 80.5219 154.873 82.0519V83.2759H153.541C150.625 83.2759 148.843 84.3019 148.843 86.3359C148.843 88.0099 149.797 89.1799 151.723 89.1799C153.145 89.1799 154.315 88.4599 155.035 87.9019L155.233 88.9999H156.943L156.565 86.7319ZM150.553 86.2099C150.553 85.0579 151.435 84.6079 153.217 84.6079H154.873V86.6419C153.991 87.2359 152.947 87.7399 151.993 87.7399C151.003 87.7399 150.553 87.1819 150.553 86.2099Z" fill="#505050"/>
<path d="M165.213 78.6679C163.683 78.6679 162.243 79.4779 161.307 80.1439L161.073 78.8659H159.363L159.777 81.2779V88.9999H161.469V81.3679C162.423 80.7919 163.647 80.1799 164.583 80.1799C166.131 80.1799 166.491 80.9179 166.491 82.5019V88.9999H168.183V82.3219C168.183 79.7119 167.229 78.6679 165.213 78.6679Z" fill="#505050"/>
<path d="M179.317 86.7319V74.3119H177.625V78.8659C177.067 78.7759 176.221 78.6679 175.645 78.6679C172.945 78.6679 170.713 80.8099 170.713 84.4099C170.713 87.9019 172.783 89.1799 174.619 89.1799C175.933 89.1799 176.959 88.6039 177.787 87.8839L177.985 88.9999H179.695L179.317 86.7319ZM172.513 84.0679C172.513 81.1699 173.719 80.1799 175.609 80.1799C176.257 80.1799 177.031 80.3059 177.625 80.4859V86.5879C176.563 87.2719 175.879 87.6679 174.943 87.6679C173.377 87.6679 172.513 86.5159 172.513 84.0679Z" fill="#505050"/>
<path d="M191.239 88.9999L195.199 78.8659H193.327L191.329 84.5899L190.465 87.0379H190.339L189.565 84.6259L187.747 78.8659H185.767L189.367 88.9999H191.239Z" fill="#505050"/>
<path d="M205.126 83.5099C205.126 80.7919 203.794 78.6679 200.914 78.6679C198.034 78.6679 196.342 81.0259 196.342 84.1219C196.342 87.2719 197.998 89.1799 201.112 89.1799C202.768 89.1799 203.974 88.8919 204.874 88.3519V86.9119C203.938 87.3799 202.516 87.6679 201.364 87.6679C199.402 87.6679 198.25 86.6059 198.142 84.3019H205.126V83.5099ZM200.842 80.1799C202.444 80.1799 203.146 81.3679 203.236 82.9519H198.196C198.448 80.7919 199.564 80.1799 200.842 80.1799Z" fill="#505050"/>
<path d="M213.471 79.1899C212.859 78.8479 212.085 78.6679 211.185 78.6679C208.809 78.6679 207.315 80.5399 207.315 82.0879C207.315 83.5099 208.017 84.4459 209.205 84.9139L207.531 86.5879V87.9019L208.827 88.0459C207.711 88.6939 206.721 89.5939 206.721 90.7819C206.721 92.5999 208.341 93.8059 210.969 93.8059C214.101 93.8059 216.027 91.7899 216.027 89.7379C216.027 88.2259 215.199 87.1279 212.481 86.8219L209.259 86.4619L210.411 85.2199C210.663 85.2379 210.915 85.2559 211.185 85.2559C213.255 85.2559 214.929 83.5099 214.929 81.9619C214.929 81.2599 214.785 80.6839 214.497 80.1979H216.441V78.8119L213.471 79.1899ZM211.185 83.9599C209.979 83.9599 209.061 83.2759 209.061 81.9259C209.061 80.7559 209.799 80.0359 211.059 80.0359C212.391 80.0359 213.201 80.7919 213.201 81.9979C213.201 83.1499 212.355 83.9599 211.185 83.9599ZM214.371 90.0799C214.371 91.2319 213.147 92.4019 211.221 92.4019C209.187 92.4019 208.377 91.4659 208.377 90.5299C208.377 89.7019 209.205 88.8559 210.393 88.2259L211.779 88.3879C213.957 88.6579 214.371 89.1259 214.371 90.0799Z" fill="#505050"/>
<path d="M226.36 83.5099C226.36 80.7919 225.028 78.6679 222.148 78.6679C219.268 78.6679 217.576 81.0259 217.576 84.1219C217.576 87.2719 219.232 89.1799 222.346 89.1799C224.002 89.1799 225.208 88.8919 226.108 88.3519V86.9119C225.172 87.3799 223.75 87.6679 222.598 87.6679C220.636 87.6679 219.484 86.6059 219.376 84.3019H226.36V83.5099ZM222.076 80.1799C223.678 80.1799 224.38 81.3679 224.47 82.9519H219.43C219.682 80.7919 220.798 80.1799 222.076 80.1799Z" fill="#505050"/>
<path d="M233.121 87.6679C232.041 87.6679 231.303 87.3799 231.285 86.0119V80.3779H234.651V78.8659H231.285V76.2199H229.593V78.8659H227.901V80.3779H229.593V86.2099C229.593 88.3699 230.943 89.1799 232.491 89.1799C233.445 89.1799 234.309 89.0179 234.849 88.7119V87.3259C234.381 87.4879 233.715 87.6679 233.121 87.6679Z" fill="#505050"/>
<path d="M243.999 86.7319V81.6559C243.999 79.4419 242.451 78.6679 240.597 78.6679C239.355 78.6679 237.645 78.9559 236.835 79.3159V80.8279C237.699 80.5219 239.229 80.1799 240.309 80.1799C241.425 80.1799 242.307 80.5219 242.307 82.0519V83.2759H240.975C238.059 83.2759 236.277 84.3019 236.277 86.3359C236.277 88.0099 237.231 89.1799 239.157 89.1799C240.579 89.1799 241.749 88.4599 242.469 87.9019L242.667 88.9999H244.377L243.999 86.7319ZM237.987 86.2099C237.987 85.0579 238.869 84.6079 240.651 84.6079H242.307V86.6419C241.425 87.2359 240.381 87.7399 239.427 87.7399C238.437 87.7399 237.987 87.1819 237.987 86.2099Z" fill="#505050"/>
<path d="M251.872 78.6679C250.738 78.6679 249.712 79.0819 248.794 79.6219V74.3119H247.102V88.6399C248.542 89.0179 249.532 89.1799 250.63 89.1799C253.492 89.1799 255.562 87.2899 255.562 83.4559C255.562 80.5399 254.284 78.6679 251.872 78.6679ZM250.846 87.6679C250.216 87.6679 249.442 87.5779 248.794 87.4699V80.9359C249.55 80.5759 250.45 80.1799 251.314 80.1799C253.024 80.1799 253.762 81.3679 253.762 83.7799C253.762 85.8319 253.222 87.6679 250.846 87.6679Z" fill="#505050"/>
<path d="M260.013 88.9999V74.3119H258.321V88.9999H260.013Z" fill="#505050"/>
<path d="M271.519 83.5099C271.519 80.7919 270.187 78.6679 267.307 78.6679C264.427 78.6679 262.735 81.0259 262.735 84.1219C262.735 87.2719 264.391 89.1799 267.505 89.1799C269.161 89.1799 270.367 88.8919 271.267 88.3519V86.9119C270.331 87.3799 268.909 87.6679 267.757 87.6679C265.795 87.6679 264.643 86.6059 264.535 84.3019H271.519V83.5099ZM267.235 80.1799C268.837 80.1799 269.539 81.3679 269.629 82.9519H264.589C264.841 80.7919 265.957 80.1799 267.235 80.1799Z" fill="#505050"/>
<path d="M276.947 89.1799C278.909 89.1799 280.871 88.2979 280.871 86.0119C280.871 83.7979 278.981 83.3479 277.379 82.9879C276.191 82.7359 275.147 82.4659 275.147 81.4579C275.147 80.7019 276.029 80.1799 277.109 80.1799C278.207 80.1799 278.963 80.3419 280.511 80.9719V79.3159C279.629 78.8659 278.333 78.6679 277.343 78.6679C275.327 78.6679 273.563 79.7479 273.563 81.7099C273.563 83.6179 275.273 84.1399 276.821 84.5359C278.153 84.8779 279.359 85.1479 279.359 86.1379C279.359 87.1279 278.387 87.6679 277.271 87.6679C276.047 87.6679 275.057 87.3979 273.671 86.8579V88.4959C274.517 88.8559 275.597 89.1799 276.947 89.1799Z" fill="#505050"/>
<path d="M289.447 73.8259C288.727 73.8259 288.187 74.3479 288.187 75.0499C288.187 75.7519 288.727 76.2919 289.447 76.2919C290.149 76.2919 290.707 75.7519 290.707 75.0499C290.707 74.3479 290.149 73.8259 289.447 73.8259ZM286.927 78.8659V80.3779H288.565V88.9999H290.257V78.8659H286.927Z" fill="#505050"/>
<path d="M298.929 78.6679C297.399 78.6679 295.959 79.4779 295.023 80.1439L294.789 78.8659H293.079L293.493 81.2779V88.9999H295.185V81.3679C296.139 80.7919 297.363 80.1799 298.299 80.1799C299.847 80.1799 300.207 80.9179 300.207 82.5019V88.9999H301.899V82.3219C301.899 79.7119 300.945 78.6679 298.929 78.6679Z" fill="#505050"/>
<path d="M313.858 87.6679C312.778 87.6679 312.04 87.3799 312.022 86.0119V80.3779H315.388V78.8659H312.022V76.2199H310.33V78.8659H308.638V80.3779H310.33V86.2099C310.33 88.3699 311.68 89.1799 313.228 89.1799C314.182 89.1799 315.046 89.0179 315.586 88.7119V87.3259C315.118 87.4879 314.452 87.6679 313.858 87.6679Z" fill="#505050"/>
<path d="M323.133 78.6679C321.693 78.6679 320.343 79.3879 319.407 80.0179V74.3119H317.715V88.9999H319.407V81.3679C320.361 80.7919 321.585 80.1799 322.503 80.1799C324.051 80.1799 324.411 80.9179 324.411 82.5019V88.9999H326.103V82.3219C326.103 79.7119 325.167 78.6679 323.133 78.6679Z" fill="#505050"/>
<path d="M337.419 83.5099C337.419 80.7919 336.087 78.6679 333.207 78.6679C330.327 78.6679 328.635 81.0259 328.635 84.1219C328.635 87.2719 330.291 89.1799 333.405 89.1799C335.061 89.1799 336.267 88.8919 337.167 88.3519V86.9119C336.231 87.3799 334.809 87.6679 333.657 87.6679C331.695 87.6679 330.543 86.6059 330.435 84.3019H337.419V83.5099ZM333.135 80.1799C334.737 80.1799 335.439 81.3679 335.529 82.9519H330.489C330.741 80.7919 331.857 80.1799 333.135 80.1799Z" fill="#505050"/>
<path d="M349.504 78.6679C348.28 78.6679 347.164 79.1539 346.192 79.7659L346.03 78.8659H344.32L344.734 81.2779V93.6619H346.426V88.9819C346.948 89.0899 347.614 89.1799 348.28 89.1799C351.124 89.1799 353.194 87.2899 353.194 83.4559C353.194 80.5399 351.916 78.6679 349.504 78.6679ZM348.478 87.6679C347.884 87.6679 347.038 87.5779 346.426 87.4339V80.9359C347.164 80.5759 348.082 80.1799 348.946 80.1799C350.656 80.1799 351.394 81.3679 351.394 83.7799C351.394 85.8319 350.854 87.6679 348.478 87.6679Z" fill="#505050"/>
<path d="M362.862 86.7319V81.6559C362.862 79.4419 361.314 78.6679 359.46 78.6679C358.218 78.6679 356.508 78.9559 355.698 79.3159V80.8279C356.562 80.5219 358.092 80.1799 359.172 80.1799C360.288 80.1799 361.17 80.5219 361.17 82.0519V83.2759H359.838C356.922 83.2759 355.14 84.3019 355.14 86.3359C355.14 88.0099 356.094 89.1799 358.02 89.1799C359.442 89.1799 360.612 88.4599 361.332 87.9019L361.53 88.9999H363.24L362.862 86.7319ZM356.85 86.2099C356.85 85.0579 357.732 84.6079 359.514 84.6079H361.17V86.6419C360.288 87.2359 359.244 87.7399 358.29 87.7399C357.3 87.7399 356.85 87.1819 356.85 86.2099Z" fill="#505050"/>
<path d="M370.843 78.6679C369.619 78.6679 368.503 79.1539 367.531 79.7659L367.369 78.8659H365.659L366.073 81.2779V93.6619H367.765V88.9819C368.287 89.0899 368.953 89.1799 369.619 89.1799C372.463 89.1799 374.533 87.2899 374.533 83.4559C374.533 80.5399 373.255 78.6679 370.843 78.6679ZM369.817 87.6679C369.223 87.6679 368.377 87.5779 367.765 87.4339V80.9359C368.503 80.5759 369.421 80.1799 370.285 80.1799C371.995 80.1799 372.733 81.3679 372.733 83.7799C372.733 85.8319 372.193 87.6679 369.817 87.6679Z" fill="#505050"/>
<path d="M385.372 83.5099C385.372 80.7919 384.04 78.6679 381.16 78.6679C378.28 78.6679 376.588 81.0259 376.588 84.1219C376.588 87.2719 378.244 89.1799 381.358 89.1799C383.014 89.1799 384.22 88.8919 385.12 88.3519V86.9119C384.184 87.3799 382.762 87.6679 381.61 87.6679C379.648 87.6679 378.496 86.6059 378.388 84.3019H385.372V83.5099ZM381.088 80.1799C382.69 80.1799 383.392 81.3679 383.482 82.9519H378.442C378.694 80.7919 379.81 80.1799 381.088 80.1799Z" fill="#505050"/>
<path d="M392.493 78.6679C391.503 78.6679 390.387 79.3519 389.541 80.1439L389.307 78.8659H387.597L388.011 81.2779V88.9999H389.703V81.5659C390.459 80.9719 391.395 80.2879 392.637 80.2879C392.925 80.2879 393.213 80.3059 393.537 80.3959V78.7759C393.177 78.6859 392.853 78.6679 392.493 78.6679Z" fill="#505050"/>
<path d="M404.521 78.6679C403.387 78.6679 402.361 79.0819 401.443 79.6219V74.3119H399.751V88.6399C401.191 89.0179 402.181 89.1799 403.279 89.1799C406.141 89.1799 408.211 87.2899 408.211 83.4559C408.211 80.5399 406.933 78.6679 404.521 78.6679ZM403.495 87.6679C402.865 87.6679 402.091 87.5779 401.443 87.4699V80.9359C402.199 80.5759 403.099 80.1799 403.963 80.1799C405.673 80.1799 406.411 81.3679 406.411 83.7799C406.411 85.8319 405.871 87.6679 403.495 87.6679Z" fill="#505050"/>
<path d="M417.882 86.7319V81.6559C417.882 79.4419 416.334 78.6679 414.48 78.6679C413.238 78.6679 411.528 78.9559 410.718 79.3159V80.8279C411.582 80.5219 413.112 80.1799 414.192 80.1799C415.308 80.1799 416.19 80.5219 416.19 82.0519V83.2759H414.858C411.942 83.2759 410.16 84.3019 410.16 86.3359C410.16 88.0099 411.114 89.1799 413.04 89.1799C414.462 89.1799 415.632 88.4599 416.352 87.9019L416.55 88.9999H418.26L417.882 86.7319ZM411.87 86.2099C411.87 85.0579 412.752 84.6079 414.534 84.6079H416.19V86.6419C415.308 87.2359 414.264 87.7399 413.31 87.7399C412.32 87.7399 411.87 87.1819 411.87 86.2099Z" fill="#505050"/>
<path d="M426.799 79.1899C426.187 78.8479 425.413 78.6679 424.513 78.6679C422.137 78.6679 420.643 80.5399 420.643 82.0879C420.643 83.5099 421.345 84.4459 422.533 84.9139L420.859 86.5879V87.9019L422.155 88.0459C421.039 88.6939 420.049 89.5939 420.049 90.7819C420.049 92.5999 421.669 93.8059 424.297 93.8059C427.429 93.8059 429.355 91.7899 429.355 89.7379C429.355 88.2259 428.527 87.1279 425.809 86.8219L422.587 86.4619L423.739 85.2199C423.991 85.2379 424.243 85.2559 424.513 85.2559C426.583 85.2559 428.257 83.5099 428.257 81.9619C428.257 81.2599 428.113 80.6839 427.825 80.1979H429.769V78.8119L426.799 79.1899ZM424.513 83.9599C423.307 83.9599 422.389 83.2759 422.389 81.9259C422.389 80.7559 423.127 80.0359 424.387 80.0359C425.719 80.0359 426.529 80.7919 426.529 81.9979C426.529 83.1499 425.683 83.9599 424.513 83.9599ZM427.699 90.0799C427.699 91.2319 426.475 92.4019 424.549 92.4019C422.515 92.4019 421.705 91.4659 421.705 90.5299C421.705 89.7019 422.533 88.8559 423.721 88.2259L425.107 88.3879C427.285 88.6579 427.699 89.1259 427.699 90.0799Z" fill="#505050"/>
<path d="M433.655 88.9999C434.429 88.9999 435.095 88.3519 435.095 87.5779C435.095 86.7859 434.429 86.1199 433.655 86.1199C432.863 86.1199 432.215 86.7859 432.215 87.5779C432.215 88.3519 432.863 88.9999 433.655 88.9999Z" fill="#505050"/>
<path d="M69.7739 106.878H61.8719V120H63.7079V114.6H68.7299V113.07H63.7079V108.408H69.7739V106.878Z" fill="#505050"/>
<path d="M75.7753 120.18C78.5653 120.18 80.3833 117.696 80.3833 114.942C80.3833 111.342 78.8533 109.668 75.8653 109.668C73.1473 109.668 71.1853 112.17 71.1853 114.978C71.1853 118.596 73.0033 120.18 75.7753 120.18ZM75.8473 118.668C73.6153 118.668 72.9853 117.048 72.9853 114.906C72.9853 112.98 73.5433 111.18 75.7753 111.18C78.2233 111.18 78.5833 113.07 78.5833 114.978C78.5833 116.976 78.0433 118.668 75.8473 118.668Z" fill="#505050"/>
<path d="M87.5301 109.668C86.5401 109.668 85.4241 110.352 84.5781 111.144L84.3441 109.866H82.6341L83.0481 112.278V120H84.7401V112.566C85.4961 111.972 86.4321 111.288 87.6741 111.288C87.9621 111.288 88.2501 111.306 88.5741 111.396V109.776C88.2141 109.686 87.8901 109.668 87.5301 109.668Z" fill="#505050"/>
<path d="M101.88 117.732V112.656C101.88 110.442 100.332 109.668 98.4778 109.668C97.2358 109.668 95.5258 109.956 94.7158 110.316V111.828C95.5798 111.522 97.1098 111.18 98.1898 111.18C99.3058 111.18 100.188 111.522 100.188 113.052V114.276H98.8558C95.9398 114.276 94.1578 115.302 94.1578 117.336C94.1578 119.01 95.1118 120.18 97.0378 120.18C98.4598 120.18 99.6298 119.46 100.35 118.902L100.548 120H102.258L101.88 117.732ZM95.8678 117.21C95.8678 116.058 96.7498 115.608 98.5318 115.608H100.188V117.642C99.3058 118.236 98.2618 118.74 97.3078 118.74C96.3178 118.74 95.8678 118.182 95.8678 117.21Z" fill="#505050"/>
<path d="M109.141 120.18C110.311 120.18 111.337 119.946 112.111 119.478V118.038C111.265 118.47 110.347 118.668 109.555 118.668C107.503 118.668 106.261 117.498 106.261 114.96C106.261 111.972 107.701 111.18 109.303 111.18C110.221 111.18 111.157 111.36 112.111 111.99V110.19C111.355 109.776 110.347 109.668 109.375 109.668C106.225 109.668 104.461 112.008 104.461 115.086C104.461 118.236 106.027 120.18 109.141 120.18Z" fill="#505050"/>
<path d="M118.721 120.18C119.891 120.18 120.917 119.946 121.691 119.478V118.038C120.845 118.47 119.927 118.668 119.135 118.668C117.083 118.668 115.841 117.498 115.841 114.96C115.841 111.972 117.281 111.18 118.883 111.18C119.801 111.18 120.737 111.36 121.691 111.99V110.19C120.935 109.776 119.927 109.668 118.955 109.668C115.805 109.668 114.041 112.008 114.041 115.086C114.041 118.236 115.607 120.18 118.721 120.18Z" fill="#505050"/>
<path d="M132.386 117.552V109.866H130.694V117.48C129.758 118.056 128.732 118.668 127.814 118.668C126.266 118.668 125.906 117.93 125.906 116.346V109.866H124.214V116.526C124.214 119.136 125.168 120.18 127.184 120.18C128.696 120.18 129.974 119.388 130.856 118.722L131.108 120H132.818L132.386 117.552Z" fill="#505050"/>
<path d="M140.159 109.668C139.169 109.668 138.053 110.352 137.207 111.144L136.973 109.866H135.263L135.677 112.278V120H137.369V112.566C138.125 111.972 139.061 111.288 140.303 111.288C140.591 111.288 140.879 111.306 141.203 111.396V109.776C140.843 109.686 140.519 109.668 140.159 109.668Z" fill="#505050"/>
<path d="M150.184 117.732V112.656C150.184 110.442 148.636 109.668 146.782 109.668C145.54 109.668 143.83 109.956 143.02 110.316V111.828C143.884 111.522 145.414 111.18 146.494 111.18C147.61 111.18 148.492 111.522 148.492 113.052V114.276H147.16C144.244 114.276 142.462 115.302 142.462 117.336C142.462 119.01 143.416 120.18 145.342 120.18C146.764 120.18 147.934 119.46 148.654 118.902L148.852 120H150.562L150.184 117.732ZM144.172 117.21C144.172 116.058 145.054 115.608 146.836 115.608H148.492V117.642C147.61 118.236 146.566 118.74 145.612 118.74C144.622 118.74 144.172 118.182 144.172 117.21Z" fill="#505050"/>
<path d="M157.518 118.668C156.438 118.668 155.7 118.38 155.682 117.012V111.378H159.048V109.866H155.682V107.22H153.99V109.866H152.298V111.378H153.99V117.21C153.99 119.37 155.34 120.18 156.888 120.18C157.842 120.18 158.706 120.018 159.246 119.712V118.326C158.778 118.488 158.112 118.668 157.518 118.668Z" fill="#505050"/>
<path d="M169.565 114.51C169.565 111.792 168.233 109.668 165.353 109.668C162.473 109.668 160.781 112.026 160.781 115.122C160.781 118.272 162.437 120.18 165.551 120.18C167.207 120.18 168.413 119.892 169.313 119.352V117.912C168.377 118.38 166.955 118.668 165.803 118.668C163.841 118.668 162.689 117.606 162.581 115.302H169.565V114.51ZM165.281 111.18C166.883 111.18 167.585 112.368 167.675 113.952H162.635C162.887 111.792 164.003 111.18 165.281 111.18Z" fill="#505050"/>
<path d="M181.65 109.668C180.426 109.668 179.31 110.154 178.338 110.766L178.176 109.866H176.466L176.88 112.278V124.662H178.572V119.982C179.094 120.09 179.76 120.18 180.426 120.18C183.27 120.18 185.34 118.29 185.34 114.456C185.34 111.54 184.062 109.668 181.65 109.668ZM180.624 118.668C180.03 118.668 179.184 118.578 178.572 118.434V111.936C179.31 111.576 180.228 111.18 181.092 111.18C182.802 111.18 183.54 112.368 183.54 114.78C183.54 116.832 183 118.668 180.624 118.668Z" fill="#505050"/>
<path d="M192.507 109.668C191.517 109.668 190.401 110.352 189.555 111.144L189.321 109.866H187.611L188.025 112.278V120H189.717V112.566C190.473 111.972 191.409 111.288 192.651 111.288C192.939 111.288 193.227 111.306 193.551 111.396V109.776C193.191 109.686 192.867 109.668 192.507 109.668Z" fill="#505050"/>
<path d="M196.88 104.826C196.16 104.826 195.62 105.348 195.62 106.05C195.62 106.752 196.16 107.292 196.88 107.292C197.582 107.292 198.14 106.752 198.14 106.05C198.14 105.348 197.582 104.826 196.88 104.826ZM194.36 109.866V111.378H195.998V120H197.69V109.866H194.36Z" fill="#505050"/>
<path d="M204.977 120.18C206.147 120.18 207.173 119.946 207.947 119.478V118.038C207.101 118.47 206.183 118.668 205.391 118.668C203.339 118.668 202.097 117.498 202.097 114.96C202.097 111.972 203.537 111.18 205.139 111.18C206.057 111.18 206.993 111.36 207.947 111.99V110.19C207.191 109.776 206.183 109.668 205.211 109.668C202.061 109.668 200.297 112.008 200.297 115.086C200.297 118.236 201.863 120.18 204.977 120.18Z" fill="#505050"/>
<path d="M211.909 104.826C211.189 104.826 210.649 105.348 210.649 106.05C210.649 106.752 211.189 107.292 211.909 107.292C212.611 107.292 213.169 106.752 213.169 106.05C213.169 105.348 212.611 104.826 211.909 104.826ZM209.389 109.866V111.378H211.027V120H212.719V109.866H209.389Z" fill="#505050"/>
<path d="M221.392 109.668C219.862 109.668 218.422 110.478 217.486 111.144L217.252 109.866H215.542L215.956 112.278V120H217.648V112.368C218.602 111.792 219.826 111.18 220.762 111.18C222.31 111.18 222.67 111.918 222.67 113.502V120H224.362V113.322C224.362 110.712 223.408 109.668 221.392 109.668Z" fill="#505050"/>
<path d="M233.229 110.19C232.617 109.848 231.843 109.668 230.943 109.668C228.567 109.668 227.073 111.54 227.073 113.088C227.073 114.51 227.775 115.446 228.963 115.914L227.289 117.588V118.902L228.585 119.046C227.469 119.694 226.479 120.594 226.479 121.782C226.479 123.6 228.099 124.806 230.727 124.806C233.859 124.806 235.785 122.79 235.785 120.738C235.785 119.226 234.957 118.128 232.239 117.822L229.017 117.462L230.169 116.22C230.421 116.238 230.673 116.256 230.943 116.256C233.013 116.256 234.687 114.51 234.687 112.962C234.687 112.26 234.543 111.684 234.255 111.198H236.199V109.812L233.229 110.19ZM230.943 114.96C229.737 114.96 228.819 114.276 228.819 112.926C228.819 111.756 229.557 111.036 230.817 111.036C232.149 111.036 232.959 111.792 232.959 112.998C232.959 114.15 232.113 114.96 230.943 114.96ZM234.129 121.08C234.129 122.232 232.905 123.402 230.979 123.402C228.945 123.402 228.135 122.466 228.135 121.53C228.135 120.702 228.963 119.856 230.151 119.226L231.537 119.388C233.715 119.658 234.129 120.126 234.129 121.08Z" fill="#505050"/>
<path d="M238.842 124.158C240.642 122.898 241.668 120.504 241.668 118.542C241.668 117.12 240.894 116.382 239.994 116.382C239.094 116.382 238.536 117.048 238.446 117.804C239.256 117.876 240.03 118.524 240.03 119.55C240.03 120.9 239.418 122.322 237.924 123.474L238.842 124.158Z" fill="#505050"/>
<path d="M257.979 117.732V105.312H256.287V109.866C255.729 109.776 254.883 109.668 254.307 109.668C251.607 109.668 249.375 111.81 249.375 115.41C249.375 118.902 251.445 120.18 253.281 120.18C254.595 120.18 255.621 119.604 256.449 118.884L256.647 120H258.357L257.979 117.732ZM251.175 115.068C251.175 112.17 252.381 111.18 254.271 111.18C254.919 111.18 255.693 111.306 256.287 111.486V117.588C255.225 118.272 254.541 118.668 253.605 118.668C252.039 118.668 251.175 117.516 251.175 115.068Z" fill="#505050"/>
<path d="M262.587 104.826C261.867 104.826 261.327 105.348 261.327 106.05C261.327 106.752 261.867 107.292 262.587 107.292C263.289 107.292 263.847 106.752 263.847 106.05C263.847 105.348 263.289 104.826 262.587 104.826ZM260.067 109.866V111.378H261.705V120H263.397V109.866H260.067Z" fill="#505050"/>
<path d="M271.008 120L274.968 109.866H273.096L271.098 115.59L270.234 118.038H270.108L269.334 115.626L267.516 109.866H265.536L269.136 120H271.008Z" fill="#505050"/>
<path d="M278.302 104.826C277.582 104.826 277.042 105.348 277.042 106.05C277.042 106.752 277.582 107.292 278.302 107.292C279.004 107.292 279.562 106.752 279.562 106.05C279.562 105.348 279.004 104.826 278.302 104.826ZM275.782 109.866V111.378H277.42V120H279.112V109.866H275.782Z" fill="#505050"/>
<path d="M290.323 117.732V105.312H288.631V109.866C288.073 109.776 287.227 109.668 286.651 109.668C283.951 109.668 281.719 111.81 281.719 115.41C281.719 118.902 283.789 120.18 285.625 120.18C286.939 120.18 287.965 119.604 288.793 118.884L288.991 120H290.701L290.323 117.732ZM283.519 115.068C283.519 112.17 284.725 111.18 286.615 111.18C287.263 111.18 288.037 111.306 288.631 111.486V117.588C287.569 118.272 286.885 118.668 285.949 118.668C284.383 118.668 283.519 117.516 283.519 115.068Z" fill="#505050"/>
<path d="M301.753 114.51C301.753 111.792 300.421 109.668 297.541 109.668C294.661 109.668 292.969 112.026 292.969 115.122C292.969 118.272 294.625 120.18 297.739 120.18C299.395 120.18 300.601 119.892 301.501 119.352V117.912C300.565 118.38 299.143 118.668 297.991 118.668C296.029 118.668 294.877 117.606 294.769 115.302H301.753V114.51ZM297.469 111.18C299.071 111.18 299.773 112.368 299.863 113.952H294.823C295.075 111.792 296.191 111.18 297.469 111.18Z" fill="#505050"/>
<path d="M313.19 118.668C312.11 118.668 311.372 118.38 311.354 117.012V111.378H314.72V109.866H311.354V107.22H309.662V109.866H307.97V111.378H309.662V117.21C309.662 119.37 311.012 120.18 312.56 120.18C313.514 120.18 314.378 120.018 314.918 119.712V118.326C314.45 118.488 313.784 118.668 313.19 118.668Z" fill="#505050"/>
<path d="M322.465 109.668C321.025 109.668 319.675 110.388 318.739 111.018V105.312H317.047V120H318.739V112.368C319.693 111.792 320.917 111.18 321.835 111.18C323.383 111.18 323.743 111.918 323.743 113.502V120H325.435V113.322C325.435 110.712 324.499 109.668 322.465 109.668Z" fill="#505050"/>
<path d="M336.751 114.51C336.751 111.792 335.419 109.668 332.539 109.668C329.659 109.668 327.967 112.026 327.967 115.122C327.967 118.272 329.623 120.18 332.737 120.18C334.393 120.18 335.599 119.892 336.499 119.352V117.912C335.563 118.38 334.141 118.668 332.989 118.668C331.027 118.668 329.875 117.606 329.767 115.302H336.751V114.51ZM332.467 111.18C334.069 111.18 334.771 112.368 334.861 113.952H329.821C330.073 111.792 331.189 111.18 332.467 111.18Z" fill="#505050"/>
<path d="M348.728 109.668C347.594 109.668 346.568 110.082 345.65 110.622V105.312H343.958V119.64C345.398 120.018 346.388 120.18 347.486 120.18C350.348 120.18 352.418 118.29 352.418 114.456C352.418 111.54 351.14 109.668 348.728 109.668ZM347.702 118.668C347.072 118.668 346.298 118.578 345.65 118.47V111.936C346.406 111.576 347.306 111.18 348.17 111.18C349.88 111.18 350.618 112.368 350.618 114.78C350.618 116.832 350.078 118.668 347.702 118.668Z" fill="#505050"/>
<path d="M362.089 117.732V112.656C362.089 110.442 360.541 109.668 358.687 109.668C357.445 109.668 355.735 109.956 354.925 110.316V111.828C355.789 111.522 357.319 111.18 358.399 111.18C359.515 111.18 360.397 111.522 360.397 113.052V114.276H359.065C356.149 114.276 354.367 115.302 354.367 117.336C354.367 119.01 355.321 120.18 357.247 120.18C358.669 120.18 359.839 119.46 360.559 118.902L360.757 120H362.467L362.089 117.732ZM356.077 117.21C356.077 116.058 356.959 115.608 358.741 115.608H360.397V117.642C359.515 118.236 358.471 118.74 357.517 118.74C356.527 118.74 356.077 118.182 356.077 117.21Z" fill="#505050"/>
<path d="M371.006 110.19C370.394 109.848 369.62 109.668 368.72 109.668C366.344 109.668 364.85 111.54 364.85 113.088C364.85 114.51 365.552 115.446 366.74 115.914L365.066 117.588V118.902L366.362 119.046C365.246 119.694 364.256 120.594 364.256 121.782C364.256 123.6 365.876 124.806 368.504 124.806C371.636 124.806 373.562 122.79 373.562 120.738C373.562 119.226 372.734 118.128 370.016 117.822L366.794 117.462L367.946 116.22C368.198 116.238 368.45 116.256 368.72 116.256C370.79 116.256 372.464 114.51 372.464 112.962C372.464 112.26 372.32 111.684 372.032 111.198H373.976V109.812L371.006 110.19ZM368.72 114.96C367.514 114.96 366.596 114.276 366.596 112.926C366.596 111.756 367.334 111.036 368.594 111.036C369.926 111.036 370.736 111.792 370.736 112.998C370.736 114.15 369.89 114.96 368.72 114.96ZM371.906 121.08C371.906 122.232 370.682 123.402 368.756 123.402C366.722 123.402 365.912 122.466 365.912 121.53C365.912 120.702 366.74 119.856 367.928 119.226L369.314 119.388C371.492 119.658 371.906 120.126 371.906 121.08Z" fill="#505050"/>
<path d="M385.237 109.668C384.103 109.668 383.077 110.082 382.159 110.622V105.312H380.467V119.64C381.907 120.018 382.897 120.18 383.995 120.18C386.857 120.18 388.927 118.29 388.927 114.456C388.927 111.54 387.649 109.668 385.237 109.668ZM384.211 118.668C383.581 118.668 382.807 118.578 382.159 118.47V111.936C382.915 111.576 383.815 111.18 384.679 111.18C386.389 111.18 387.127 112.368 387.127 114.78C387.127 116.832 386.587 118.668 384.211 118.668Z" fill="#505050"/>
<path d="M395.831 115.752L395.021 118.038H394.895L394.193 115.842L392.303 109.866H390.323L393.923 120H394.193L392.267 124.59L392.321 124.662H394.121L395.903 119.73L399.755 109.866H397.883L395.831 115.752Z" fill="#505050"/>
<path d="M410.763 109.668C409.539 109.668 408.423 110.154 407.451 110.766L407.289 109.866H405.579L405.993 112.278V124.662H407.685V119.982C408.207 120.09 408.873 120.18 409.539 120.18C412.383 120.18 414.453 118.29 414.453 114.456C414.453 111.54 413.175 109.668 410.763 109.668ZM409.737 118.668C409.143 118.668 408.297 118.578 407.685 118.434V111.936C408.423 111.576 409.341 111.18 410.205 111.18C411.915 111.18 412.653 112.368 412.653 114.78C412.653 116.832 412.113 118.668 409.737 118.668Z" fill="#505050"/>
<path d="M421.62 109.668C420.63 109.668 419.514 110.352 418.668 111.144L418.434 109.866H416.724L417.138 112.278V120H418.83V112.566C419.586 111.972 420.522 111.288 421.764 111.288C422.052 111.288 422.34 111.306 422.664 111.396V109.776C422.304 109.686 421.98 109.668 421.62 109.668Z" fill="#505050"/>
<path d="M428.322 120.18C431.112 120.18 432.93 117.696 432.93 114.942C432.93 111.342 431.4 109.668 428.412 109.668C425.694 109.668 423.732 112.17 423.732 114.978C423.732 118.596 425.55 120.18 428.322 120.18ZM428.394 118.668C426.162 118.668 425.532 117.048 425.532 114.906C425.532 112.98 426.09 111.18 428.322 111.18C430.77 111.18 431.13 113.07 431.13 114.978C431.13 116.976 430.59 118.668 428.394 118.668Z" fill="#505050"/>
<path d="M443.569 117.732V105.312H441.877V109.866C441.319 109.776 440.473 109.668 439.897 109.668C437.197 109.668 434.965 111.81 434.965 115.41C434.965 118.902 437.035 120.18 438.871 120.18C440.185 120.18 441.211 119.604 442.039 118.884L442.237 120H443.947L443.569 117.732ZM436.765 115.068C436.765 112.17 437.971 111.18 439.861 111.18C440.509 111.18 441.283 111.306 441.877 111.486V117.588C440.815 118.272 440.131 118.668 439.195 118.668C437.629 118.668 436.765 117.516 436.765 115.068Z" fill="#505050"/>
<path d="M454.909 117.552V109.866H453.217V117.48C452.281 118.056 451.255 118.668 450.337 118.668C448.789 118.668 448.429 117.93 448.429 116.346V109.866H446.737V116.526C446.737 119.136 447.691 120.18 449.707 120.18C451.219 120.18 452.497 119.388 453.379 118.722L453.631 120H455.341L454.909 117.552Z" fill="#505050"/>
<path d="M462.25 120.18C463.42 120.18 464.446 119.946 465.22 119.478V118.038C464.374 118.47 463.456 118.668 462.664 118.668C460.612 118.668 459.37 117.498 459.37 114.96C459.37 111.972 460.81 111.18 462.412 111.18C463.33 111.18 464.266 111.36 465.22 111.99V110.19C464.464 109.776 463.456 109.668 462.484 109.668C459.334 109.668 457.57 112.008 457.57 115.086C457.57 118.236 459.136 120.18 462.25 120.18Z" fill="#505050"/>
<path d="M471.973 118.668C470.893 118.668 470.155 118.38 470.137 117.012V111.378H473.503V109.866H470.137V107.22H468.445V109.866H466.753V111.378H468.445V117.21C468.445 119.37 469.795 120.18 471.343 120.18C472.297 120.18 473.161 120.018 473.701 119.712V118.326C473.233 118.488 472.567 118.668 471.973 118.668Z" fill="#505050"/>
<path d="M478.656 120.18C480.618 120.18 482.58 119.298 482.58 117.012C482.58 114.798 480.69 114.348 479.088 113.988C477.9 113.736 476.856 113.466 476.856 112.458C476.856 111.702 477.738 111.18 478.818 111.18C479.916 111.18 480.672 111.342 482.22 111.972V110.316C481.338 109.866 480.042 109.668 479.052 109.668C477.036 109.668 475.272 110.748 475.272 112.71C475.272 114.618 476.982 115.14 478.53 115.536C479.862 115.878 481.068 116.148 481.068 117.138C481.068 118.128 480.096 118.668 478.98 118.668C477.756 118.668 476.766 118.398 475.38 117.858V119.496C476.226 119.856 477.306 120.18 478.656 120.18Z" fill="#505050"/>
<path d="M487.11 120C487.884 120 488.55 119.352 488.55 118.578C488.55 117.786 487.884 117.12 487.11 117.12C486.318 117.12 485.67 117.786 485.67 118.578C485.67 119.352 486.318 120 487.11 120Z" fill="#505050"/>
<path d="M0 20.043C0 8.77419 8.77419 0 20 0C31.2258 0 40 8.77419 40 20.043C40 31.3118 31.2258 40.086 20 40.086C8.77419 40.086 0 31.3118 0 20.043ZM28.2581 33.6774V28.129H17.1183L23.6989 21.8495C26.3226 19.3118 27.785 16.8602 27.785 13.2903C27.785 8.3871 24.7312 5.07527 20.2151 5.07527C16.5591 5.07527 13.3333 7.31183 11.3979 11.2258L14.8387 13.7634C16.172 11.6989 18.3226 10.4946 20.6021 10.4946C23.5269 10.4946 25.6344 11.828 25.6344 13.6344C25.6344 16.043 24.8602 17.6344 22.4086 19.957L12.129 29.7634V33.6774H28.2581Z" fill="#235B4E"/>
</svg>
