<svg width="747" height="113" viewBox="0 0 747 113" fill="none" xmlns="http://www.w3.org/2000/svg">
<path d="M25.92 0H22.048V17.952H25.92V12.096H30.72V8.544H25.92V0ZM19.584 14.528L13.056 10.816C15.04 8.48 16.416 5.696 16.896 2.496H1.856V5.824H12.256V5.952C10.592 9.472 6.528 13.024 0 15.104L1.888 18.176C5.152 16.992 8.16 15.36 10.624 13.28L17.664 17.28L19.584 14.528ZM15.68 18.368C9.024 18.368 5.088 20.768 5.088 24.672C5.088 28.672 9.024 30.976 15.68 30.976C22.336 30.976 26.272 28.672 26.272 24.672C26.272 20.768 22.336 18.368 15.68 18.368ZM21.312 26.496C20.192 27.264 18.336 27.712 15.68 27.712C13.024 27.712 11.136 27.264 10.048 26.496C9.504 26.016 9.216 25.408 9.216 24.64C9.216 23.904 9.504 23.232 10.048 22.784C11.168 22.048 13.024 21.6 15.68 21.6C18.336 21.6 20.192 22.048 21.312 22.784C21.888 23.232 22.144 23.904 22.144 24.64C22.144 25.408 21.888 26.016 21.312 26.496Z" fill="black"/>
<path d="M57.92 12.736V0H54.048V30.72H57.92V16.512H62.72V12.736H57.92ZM37.536 10.88V3.616H33.824V24.8H49.024V3.616H45.312V10.88H37.536ZM37.536 21.248V14.336H45.312V21.248H37.536Z" fill="black"/>
<path d="M87.168 14.848C88.064 11.232 88.704 7.008 88.896 1.888H68.064V5.376H84.8C84.608 8.768 84.192 11.872 83.552 14.848H63.84V18.4H77.024V30.784H81.056V18.4H94.24V14.848H87.168Z" fill="black"/>
<path d="M119.456 17.632C114.144 19.424 106.496 20.48 102.464 20.48V3.776H98.496V24.128C106.368 24.128 114.24 22.976 119.456 21.024V30.72H123.424V0H119.456V17.632Z" fill="black"/>
<path d="M148.336 24.76C147.64 24.928 146.896 25.024 146.08 25.024C142.408 25.024 140.272 22.744 140.272 18.52C140.272 14.584 142.865 12.52 145.984 12.52C147.856 12.52 149.992 12.928 151.768 14.008V10.816C150.712 10.408 148.792 9.736 146.008 9.736C140.152 9.736 136.6 13.648 136.6 19C136.6 24.736 140.008 27.808 145.6 27.808C147.952 27.808 149.921 27.208 151.84 26.176V18.496H148.336V24.76Z" fill="black"/>
<path d="M162.302 13.696C161.006 13.696 159.542 14.584 158.414 15.616L158.102 13.936H154.886L155.438 17.224V27.52H158.654V18.112C159.638 17.368 160.886 16.648 162.494 16.648C162.878 16.648 163.262 16.672 163.694 16.792V13.84C163.214 13.72 162.782 13.696 162.302 13.696Z" fill="black"/>
<path d="M171.318 27.76C175.446 27.76 178.014 24.568 178.014 20.632C178.014 15.832 175.806 13.648 171.582 13.648C167.598 13.648 164.934 16.888 164.934 20.872C164.934 25.552 167.286 27.76 171.318 27.76ZM171.51 25.192C169.038 25.192 168.27 23.248 168.27 20.68C168.27 18.352 168.966 16.264 171.462 16.264C174.198 16.264 174.678 18.424 174.678 20.752C174.678 23.152 174.03 25.192 171.51 25.192Z" fill="black"/>
<path d="M186.789 27.76C188.541 27.76 190.029 27.472 190.989 26.896V24.352C189.933 24.808 188.853 25.024 187.869 25.024C185.301 25.024 183.669 23.704 183.669 20.68C183.669 17.344 185.469 16.408 187.557 16.408C188.685 16.408 189.837 16.6 191.013 17.272V14.272C190.005 13.792 188.733 13.648 187.197 13.648C182.781 13.648 180.333 16.864 180.333 20.992C180.333 25.192 182.493 27.76 186.789 27.76Z" fill="black"/>
<path d="M205.654 20.296C205.654 16.36 203.71 13.648 199.606 13.648C195.694 13.648 193.27 16.672 193.27 21.016C193.27 25.432 195.646 27.76 199.966 27.76C202.15 27.76 203.998 27.448 205.294 26.728V24.352C203.95 24.88 202.126 25.192 200.638 25.192C198.238 25.192 196.774 24.064 196.534 21.472H205.654V20.296ZM199.558 16.24C201.382 16.24 202.174 17.584 202.294 19.552H196.582C196.846 17.08 198.022 16.24 199.558 16.24Z" fill="black"/>
<path d="M215.645 13.696C214.349 13.696 212.885 14.584 211.757 15.616L211.445 13.936H208.229L208.781 17.224V27.52H211.997V18.112C212.981 17.368 214.229 16.648 215.837 16.648C216.221 16.648 216.605 16.672 217.037 16.792V13.84C216.557 13.72 216.125 13.696 215.645 13.696Z" fill="black"/>
<path d="M225.877 21.04L224.845 24.088H224.677L223.813 21.136L221.629 13.936H218.029L222.781 27.52H223.429L220.813 33.64L220.885 33.736H224.221L226.645 26.968L231.686 13.936H228.253L225.877 21.04Z" fill="black"/>
<path d="M249.082 18.184C250.81 17.608 251.962 16.288 251.962 14.344C251.962 11.488 249.586 10.024 245.626 10.024H239.866V27.52H246.25C250.882 27.52 253.042 25.456 253.042 22.528C253.042 19.336 250.594 18.448 249.082 18.256V18.184ZM244.81 12.664C246.802 12.664 248.314 13.312 248.314 15.112C248.314 16.624 247.162 17.368 244.642 17.368H243.346V12.664H244.81ZM243.346 24.88V19.84H244.546C247.546 19.84 249.418 20.2 249.418 22.216C249.418 24.136 247.882 24.88 245.506 24.88H243.346Z" fill="black"/>
<path d="M266.397 24.352V18.016C266.397 14.68 264.189 13.648 261.165 13.648C259.437 13.648 257.133 14.056 255.957 14.536V17.248C257.229 16.84 259.149 16.456 260.589 16.456C262.077 16.456 263.181 16.888 263.181 18.688V19.912H261.549C257.661 19.912 255.141 21.28 255.141 24.016C255.141 26.272 256.629 27.76 259.053 27.76C260.901 27.76 262.485 26.896 263.445 26.176L263.685 27.52H266.901L266.397 24.352ZM258.357 23.608C258.357 22.24 259.437 21.76 261.453 21.76H263.181V24.472C262.269 25.024 261.213 25.456 260.253 25.456C259.029 25.456 258.357 24.808 258.357 23.608Z" fill="black"/>
<path d="M278.947 14.44C277.987 13.912 276.763 13.648 275.395 13.648C272.179 13.648 269.611 15.76 269.611 18.232C269.611 20.224 270.763 21.424 272.419 22.024L269.995 24.328V26.224L271.723 26.416C270.235 27.28 268.915 28.48 268.915 29.968C268.915 32.368 271.195 33.928 274.987 33.928C279.355 33.928 282.499 31.336 282.499 28.36C282.499 26.032 281.035 24.664 277.315 24.328L273.043 23.944L274.363 22.456C274.699 22.48 275.083 22.504 275.443 22.504C278.371 22.504 281.107 20.488 281.107 18.112C281.107 17.32 280.939 16.624 280.603 16.048H283.075V13.792L278.947 14.44ZM275.419 20.44C273.931 20.44 272.851 19.624 272.851 18.04C272.851 16.648 273.739 15.784 275.251 15.784C276.811 15.784 277.819 16.624 277.819 18.136C277.819 19.504 276.811 20.44 275.419 20.44ZM279.283 28.96C279.283 30.28 277.795 31.624 275.491 31.624C273.091 31.624 272.131 30.568 272.131 29.44C272.131 28.48 272.995 27.496 274.267 26.68L276.139 26.896C278.755 27.208 279.283 27.808 279.283 28.96Z" fill="black"/>
<path d="M14.04 69.008V61.52H12.456V78.8H14.04V70.448H17.01V69.008H14.04ZM9.09 75.29V63.95H0.9V75.29H9.09ZM7.488 65.426V73.814H2.502V65.426H7.488Z" fill="black"/>
<path d="M26.19 68.162C29.772 68.162 31.95 67.082 31.95 65.102C31.95 63.14 29.772 62.06 26.19 62.06C22.608 62.06 20.43 63.14 20.43 65.102C20.43 67.082 22.608 68.162 26.19 68.162ZM26.19 66.722C24.462 66.722 23.184 66.47 22.554 66.02C22.23 65.786 22.086 65.48 22.086 65.102C22.086 64.742 22.23 64.418 22.554 64.202C23.184 63.77 24.462 63.5 26.19 63.5C27.918 63.5 29.178 63.77 29.826 64.202C30.15 64.418 30.294 64.742 30.294 65.102C30.294 65.48 30.15 65.786 29.826 66.02C29.196 66.47 27.918 66.722 26.19 66.722ZM34.74 71.006V69.53H17.64V71.006H34.74ZM31.59 78.62V72.77H20.79V78.62H31.59ZM22.356 74.138H30.006V77.216H22.356V74.138Z" fill="black"/>
<path d="M41.634 72.77C43.182 71.546 44.406 70.106 45.252 68.378H49.32V73.13H50.94V61.52H49.32V66.938H45.846C46.224 65.822 46.476 64.598 46.566 63.248H42.12V64.706H44.82V64.76C44.46 67.28 43.038 69.764 40.41 71.708L41.634 72.77ZM36.378 63.248V64.706H39.726V64.76C39.456 66.74 38.052 68.918 35.64 70.448L36.792 71.546C39.528 69.638 41.13 66.902 41.4 63.248H36.378ZM45.81 74.048C46.206 73.526 46.548 72.968 46.836 72.374L45.306 71.87C44.136 74.48 41.31 76.316 38.07 77.27L38.916 78.746C41.112 77.99 43.182 76.802 44.766 75.236L51.156 78.566L51.93 77.234L45.81 74.048Z" fill="black"/>
<path d="M71.9958 69.098H67.5138C68.1978 67.64 68.6478 66.002 68.8458 64.13H60.0438V65.606H67.0278V65.66C66.8298 66.614 66.5238 67.532 66.1278 68.396L59.2878 68.666L59.3598 70.178L65.2998 69.836C63.9498 71.87 61.8618 73.526 58.9458 74.678L59.9358 76.1C62.8518 74.768 65.1558 72.986 66.7218 70.538H71.9958V78.8H73.6158V61.52H71.9958V69.098Z" fill="black"/>
<path d="M91.5258 72.05L92.4798 70.754L85.3338 65.84C85.8018 65.066 86.1978 64.238 86.4858 63.338L84.8838 62.96C83.6238 66.578 80.4018 69.26 76.9818 70.772L77.8638 72.194C80.2758 71.024 82.7058 69.332 84.4518 67.118L91.5258 72.05ZM76.3158 76.748H93.4158V75.254H76.3158V76.748Z" fill="black"/>
<path d="M107.996 65.858H104.036V67.298H107.996V71.69H109.616V61.52H107.996V65.858ZM105.386 69.296C102.812 69.89 99.5898 70.016 97.4478 70.016V67.64H103.262V66.308H97.4478V64.364H103.73V62.96H95.8458V71.42C99.6078 71.42 102.902 71.276 105.566 70.628L105.386 69.296ZM109.616 78.62V72.59H98.7258V78.62H109.616ZM108.032 73.994V77.216H100.292V73.994H108.032Z" fill="black"/>
<path d="M131.392 61.52H129.808V71.33H131.392V68.558H134.362V67.118H131.392V61.52ZM119.242 61.88V63.176H126.118V61.88H119.242ZM117.172 64.418V65.768H127.792V64.418H117.172ZM126.622 69.026C126.622 67.586 125.092 66.686 122.662 66.686C120.25 66.686 118.72 67.586 118.72 69.026C118.72 70.466 120.25 71.366 122.662 71.366C125.092 71.366 126.622 70.466 126.622 69.026ZM120.214 69.026C120.214 68.324 121.132 67.892 122.662 67.892C124.21 67.892 125.128 68.324 125.128 69.026C125.128 69.728 124.21 70.16 122.662 70.16C121.132 70.16 120.214 69.728 120.214 69.026ZM131.392 76.1V72.23H120.088V73.562H129.79V74.822H120.52V78.8H132.112V77.45H122.104V76.1H131.392Z" fill="black"/>
<path d="M154.787 69.71L155.651 68.432L148.739 64.364C149.171 63.716 149.549 63.032 149.819 62.294L148.217 61.88C147.047 64.922 143.933 67.19 140.513 68.45L141.377 69.854C143.717 68.9 146.057 67.496 147.767 65.588L154.787 69.71ZM139.667 70.934V72.41H147.407V78.89H149.027V72.41H156.767V70.934H139.667Z" fill="black"/>
<path d="M176.023 61.52V71.15H177.643V61.52H176.023ZM167.833 70.646C170.425 70.646 172.243 69.242 172.243 66.686C172.243 64.148 170.425 62.744 167.833 62.744C165.241 62.744 163.423 64.148 163.423 66.686C163.423 69.242 165.241 70.646 167.833 70.646ZM167.833 64.148C169.435 64.148 170.623 64.94 170.623 66.686C170.623 68.432 169.435 69.242 167.833 69.242C166.231 69.242 165.043 68.432 165.043 66.686C165.043 64.94 166.231 64.148 167.833 64.148ZM175.627 74.084C175.897 73.4 176.113 72.68 176.257 71.888L174.619 71.69C174.169 74.498 172.729 76.442 170.641 77.918L171.775 79.106C173.071 78.098 174.169 76.91 174.979 75.47L178.219 78.638L179.155 77.558L175.627 74.084ZM169.255 73.724C169.471 73.166 169.651 72.59 169.777 71.996L168.139 71.78C167.671 74.156 166.195 76.154 164.161 77.54L165.367 78.692C166.645 77.756 167.761 76.514 168.589 75.092L170.569 77.018L171.523 75.848L169.255 73.724Z" fill="black"/>
<path d="M194.689 68.378V66.902H185.149V62.15H183.529V68.378H194.689ZM197.443 71.906V70.412H180.343V71.906H197.443ZM194.851 78.53V77.054H185.293V73.31H183.673V78.53H194.851Z" fill="black"/>
<path d="M217.185 68.828H214.269V62.24H212.703V78.17H214.269V70.25H217.185V78.782H218.769V61.52H217.185V68.828ZM204.693 63.05V64.508H210.147V63.05H204.693ZM203.721 66.632V68.072H208.959V68.126C208.077 70.52 205.989 72.896 203.019 74.462L204.009 75.722C205.503 74.84 206.871 73.742 208.005 72.41L210.795 75.614L211.803 74.516L208.869 71.276C209.805 69.926 210.507 68.378 210.867 66.632H203.721Z" fill="black"/>
<path d="M236.247 71.51L237.183 70.214L230.109 65.498C230.559 64.778 230.919 64.004 231.207 63.176L229.587 62.78C228.345 66.236 225.141 68.792 221.685 70.232L222.549 71.672C224.997 70.556 227.445 68.936 229.209 66.758L236.247 71.51ZM230.379 70.34H228.759V75.254H221.019V76.748H238.119V75.254H230.379V70.34Z" fill="black"/>
<path d="M253.419 66.308V61.52H251.835V67.622C249.171 68.522 244.725 69.044 241.935 69.044L241.899 64.508H248.811V63.05H240.279V70.52C244.689 70.52 249.261 69.926 251.835 68.972V71.15H253.419V67.748H256.389V66.308H253.419ZM253.419 78.62V72.05H242.619V78.62H253.419ZM251.835 73.454V77.198H244.185V73.454H251.835Z" fill="black"/>
<path d="M272.319 78.8V61.52H270.735V78.8H272.319ZM263.319 71.726C265.983 71.726 267.819 70.178 267.819 67.586C267.819 65.012 265.983 63.464 263.319 63.464C260.655 63.464 258.819 65.012 258.819 67.586C258.819 70.178 260.655 71.726 263.319 71.726ZM263.319 70.304C261.645 70.304 260.439 69.368 260.439 67.586C260.439 65.822 261.645 64.886 263.319 64.886C264.993 64.886 266.199 65.822 266.199 67.586C266.199 69.368 264.993 70.304 263.319 70.304ZM257.289 76.064C262.581 76.064 266.541 75.722 269.979 74.948L269.763 73.544C266.343 74.318 262.509 74.57 257.109 74.57L257.289 76.064Z" fill="black"/>
<path d="M296.795 68.774H292.817C293.267 66.92 293.573 64.94 293.699 62.438H282.431V63.914H292.007C291.917 65.696 291.683 67.244 291.323 68.774H279.695V70.268H287.489V73.112H287.777C286.697 75.128 284.231 76.676 281.117 77.432L281.873 78.872C284.159 78.26 286.211 77.216 287.723 75.794L294.329 78.764L295.103 77.468L288.767 74.606C289.199 74.03 289.541 73.418 289.793 72.752L289.019 72.608V70.268H296.795V68.774Z" fill="black"/>
<path d="M299.729 72.554C301.727 72.068 304.103 71.168 306.227 69.872L312.761 72.464L313.607 71.204L307.595 68.954C309.557 67.514 311.141 65.678 311.681 63.5H300.593V64.994H307.595L309.395 65.012V65.066C308.045 67.73 303.491 70.106 298.883 71.078L299.729 72.554ZM297.695 76.748H314.795V75.254H297.695V76.748Z" fill="black"/>
<path d="M317.603 81.158C319.403 79.898 320.429 77.504 320.429 75.542C320.429 74.12 319.655 73.382 318.755 73.382C317.855 73.382 317.297 74.048 317.207 74.804C318.017 74.876 318.791 75.524 318.791 76.55C318.791 77.9 318.179 79.322 316.685 80.474L317.603 81.158Z" fill="black"/>
<path d="M341.978 61.52H340.393V71.6H341.978V68.108H344.948V66.668H341.978V61.52ZM338.665 69.836L334.814 67.64C335.984 66.344 336.829 64.814 337.135 63.05H328.802V64.49H335.191V64.544C334.31 66.686 331.754 68.972 327.758 70.214L328.568 71.528C330.493 70.862 332.275 69.908 333.733 68.684L337.819 71.024L338.665 69.836ZM336.452 71.888C332.852 71.888 330.746 73.202 330.746 75.38C330.746 77.576 332.852 78.89 336.452 78.89C340.052 78.89 342.158 77.576 342.158 75.38C342.158 73.202 340.052 71.888 336.452 71.888ZM339.962 76.64C339.314 77.144 338.143 77.45 336.452 77.45C334.76 77.45 333.572 77.144 332.941 76.64C332.582 76.316 332.401 75.902 332.401 75.38C332.401 74.876 332.582 74.444 332.941 74.138C333.59 73.652 334.76 73.328 336.452 73.328C338.143 73.328 339.314 73.652 339.962 74.138C340.322 74.444 340.501 74.876 340.501 75.38C340.501 75.902 340.322 76.316 339.962 76.64Z" fill="black"/>
<path d="M359.978 69.008V61.52H358.393V78.8H359.978V70.448H362.948V69.008H359.978ZM348.422 68.018V63.68H346.837V75.2H355.117V63.68H353.534V68.018H348.422ZM348.422 73.742V69.458H353.534V73.742H348.422Z" fill="black"/>
<path d="M376.43 70.034C376.934 67.874 377.275 65.552 377.401 62.708H366.134V64.202H375.71C375.602 66.308 375.35 68.18 374.936 70.034H363.578V71.528H371.318V78.89H372.938V71.528H380.677V70.034H376.43Z" fill="black"/>
<path d="M395.258 71.564C392.072 72.734 387.536 73.418 384.944 73.418V63.77H383.288V74.93C387.553 74.93 392.18 74.192 395.258 72.968V78.8H396.878V61.52H395.258V71.564Z" fill="black"/>
<path d="M414.878 70.52V61.52H413.258V70.52H414.878ZM405.068 70.466C407.66 70.466 409.478 69.08 409.478 66.56C409.478 64.04 407.66 62.654 405.068 62.654C402.475 62.654 400.658 64.04 400.658 66.56C400.658 69.08 402.475 70.466 405.068 70.466ZM405.068 69.062C403.466 69.062 402.277 68.27 402.277 66.56C402.277 64.832 403.466 64.058 405.068 64.058C406.669 64.058 407.875 64.832 407.875 66.542C407.875 68.27 406.669 69.062 405.068 69.062ZM414.878 78.71V71.51H413.276V73.67H405.59V71.51H403.987V78.71H414.878ZM405.59 75.038H413.276V77.27H405.59V75.038Z" fill="black"/>
<path d="M431.258 71.564C428.072 72.734 423.536 73.418 420.944 73.418V63.77H419.288V74.93C423.553 74.93 428.18 74.192 431.258 72.968V78.8H432.878V61.52H431.258V71.564Z" fill="black"/>
<path d="M449.978 69.188V61.52H448.393V72.122C445.585 73.076 441.355 73.616 438.583 73.616L438.548 65.426H445.46V63.95H436.927V75.11C441.319 75.11 445.676 74.534 448.393 73.526V78.8H449.978V70.628H452.948V69.188H449.978Z" fill="black"/>
<path d="M456.728 77C457.501 77 458.168 76.352 458.168 75.578C458.168 74.786 457.501 74.12 456.728 74.12C455.936 74.12 455.288 74.786 455.288 75.578C455.288 76.352 455.936 77 456.728 77Z" fill="black"/>
<path d="M14.04 100.188V92.52H12.456V109.8H14.04V101.628H17.01V100.188H14.04ZM7.686 96.714V96.768C6.966 100.098 4.392 103.644 0 105.678L1.098 107.046C5.49 104.922 8.964 100.764 9.576 95.22H0.936V96.714H7.686Z" fill="black"/>
<path d="M31.806 109.782H33.39V92.52H31.806V109.782ZM24.606 100.098C25.146 98.694 25.524 97.146 25.668 95.49H18.63V96.948H23.85V97.002C23.382 100.062 21.528 103.446 17.82 105.624L19.008 106.938C21.078 105.624 22.788 103.806 23.958 101.538H27.684V109.17H29.25V93.24H27.684V100.098H24.606Z" fill="black"/>
<path d="M49.806 109.782H51.39V92.52H49.806V109.782ZM43.614 99.828C43.416 96.588 42.012 94.914 39.924 94.914C37.638 94.914 36.18 96.894 36.18 100.71C36.18 104.526 37.638 106.506 39.924 106.506C42.084 106.506 43.506 104.724 43.632 101.268H45.684V109.17H47.25V93.24H45.684V99.828H43.614ZM39.924 104.994C38.61 104.994 37.8 103.662 37.8 100.71C37.8 97.758 38.61 96.426 39.924 96.426C41.22 96.426 42.03 97.758 42.03 100.71C42.03 103.662 41.22 104.994 39.924 104.994Z" fill="black"/>
<path d="M67.32 98.658H62.37V100.098H67.32V109.8H68.94V92.52H67.32V98.658ZM58.806 94.518C58.554 99.324 56.646 103.122 54 105.57L55.278 106.722C56.772 105.264 58.032 103.464 58.95 101.304L63.954 106.2L64.944 105.012L59.508 99.828C60.03 98.244 60.354 96.48 60.48 94.572L58.806 94.518Z" fill="black"/>
<path d="M90.4818 99.828H87.5658V93.24H85.9998V109.17H87.5658V101.25H90.4818V109.782H92.0658V92.52H90.4818V99.828ZM77.9898 94.05V95.508H83.4438V94.05H77.9898ZM77.0178 97.632V99.072H82.2558V99.126C81.3738 101.52 79.2858 103.896 76.3158 105.462L77.3058 106.722C78.7998 105.84 80.1678 104.742 81.3018 103.41L84.0918 106.614L85.0998 105.516L82.1658 102.276C83.1018 100.926 83.8038 99.378 84.1638 97.632H77.0178Z" fill="black"/>
<path d="M109.544 102.51L110.48 101.214L103.406 96.498C103.856 95.778 104.216 95.004 104.504 94.176L102.884 93.78C101.642 97.236 98.4378 99.792 94.9818 101.232L95.8458 102.672C98.2938 101.556 100.742 99.936 102.506 97.758L109.544 102.51ZM103.676 101.34H102.056V106.254H94.3158V107.748H111.416V106.254H103.676V101.34Z" fill="black"/>
<path d="M126.716 100.188V92.52H125.132V109.8H126.716V101.628H129.686V100.188H126.716ZM118.778 102.294C120.848 101.988 122.216 100.602 122.216 98.406C122.216 95.922 120.434 94.464 117.86 94.464C115.268 94.464 113.486 95.922 113.486 98.406C113.486 100.692 114.962 102.096 117.194 102.33V105.444C115.772 105.534 114.188 105.57 112.406 105.57L112.586 107.064C117.554 107.064 121.136 106.704 124.376 105.84L124.142 104.436C122.486 104.868 120.758 105.156 118.778 105.336V102.294ZM115.106 98.406C115.106 96.732 116.258 95.868 117.86 95.868C119.444 95.868 120.596 96.714 120.596 98.406C120.596 100.098 119.444 100.962 117.86 100.962C116.258 100.962 115.106 100.098 115.106 98.406Z" fill="black"/>
<path d="M149.392 100.188V92.52H147.808V109.8H149.392V101.628H152.362V100.188H149.392ZM144.334 102.924C144.82 100.494 145.036 97.848 145.036 95.04H136.072V96.534H143.452C143.452 98.244 143.254 100.746 142.714 102.762L144.334 102.924ZM140.734 99.72H139.15V105.3C137.908 105.372 136.576 105.39 135.082 105.39L135.262 106.884C140.23 106.884 143.812 106.524 147.052 105.66L146.818 104.256C144.964 104.742 143.02 105.048 140.734 105.21V99.72Z" fill="black"/>
<path d="M168.292 101.43V92.52H166.672V101.43H168.292ZM158.482 101.106C161.074 101.106 162.892 99.792 162.892 97.38C162.892 94.968 161.074 93.654 158.482 93.654C155.89 93.654 154.072 94.968 154.072 97.38C154.072 99.792 155.89 101.106 158.482 101.106ZM158.482 99.72C156.898 99.72 155.674 98.982 155.674 97.38C155.674 95.76 156.898 95.04 158.482 95.04C160.066 95.04 161.29 95.76 161.29 97.362C161.29 98.982 160.066 99.72 158.482 99.72ZM169.012 109.8V108.432H158.986V106.686H168.292V102.33H156.916V103.698H166.672V105.336H157.366V109.8H169.012Z" fill="black"/>
<path d="M185.027 102.33H189.887V94.32H178.547V102.33H183.407V106.254H175.667V107.748H192.767V106.254H185.027V102.33ZM188.267 95.76V100.89H180.167V95.76H188.267Z" fill="black"/>
<path d="M211.037 95.346H208.067V92.52H206.483V102.6H208.067V100.44H211.037V99.036H208.067V96.75H211.037V95.346ZM203.207 97.686C203.207 95.148 201.389 93.744 198.797 93.744C196.205 93.744 194.387 95.148 194.387 97.686C194.387 100.242 196.205 101.646 198.797 101.646C201.389 101.646 203.207 100.242 203.207 97.686ZM196.007 97.686C196.007 95.94 197.195 95.148 198.797 95.148C200.399 95.148 201.587 95.94 201.587 97.686C201.587 99.432 200.399 100.242 198.797 100.242C197.195 100.242 196.007 99.432 196.007 97.686ZM202.541 102.888C198.941 102.888 196.835 104.202 196.835 106.38C196.835 108.576 198.941 109.89 202.541 109.89C206.141 109.89 208.247 108.576 208.247 106.38C208.247 104.202 206.141 102.888 202.541 102.888ZM206.051 107.64C205.403 108.144 204.233 108.45 202.541 108.45C200.849 108.45 199.661 108.144 199.031 107.64C198.671 107.316 198.491 106.902 198.491 106.38C198.491 105.876 198.671 105.444 199.031 105.138C199.679 104.652 200.849 104.328 202.541 104.328C204.233 104.328 205.403 104.652 206.051 105.138C206.411 105.444 206.591 105.876 206.591 106.38C206.591 106.902 206.411 107.316 206.051 107.64Z" fill="black"/>
<path d="M226.967 109.8V92.52H225.383V109.8H226.967ZM217.967 102.726C220.631 102.726 222.467 101.178 222.467 98.586C222.467 96.012 220.631 94.464 217.967 94.464C215.303 94.464 213.467 96.012 213.467 98.586C213.467 101.178 215.303 102.726 217.967 102.726ZM217.967 101.304C216.293 101.304 215.087 100.368 215.087 98.586C215.087 96.822 216.293 95.886 217.967 95.886C219.641 95.886 220.847 96.822 220.847 98.586C220.847 100.368 219.641 101.304 217.967 101.304ZM211.937 107.064C217.229 107.064 221.189 106.722 224.627 105.948L224.411 104.544C220.991 105.318 217.157 105.57 211.757 105.57L211.937 107.064Z" fill="black"/>
<path d="M247.663 104.13C248.113 101.142 248.365 98.172 248.455 94.698H236.935V96.192H246.781C246.691 98.712 246.511 101.376 246.025 104.004L247.663 104.13ZM234.343 107.748H251.443V106.254H234.343V107.748Z" fill="black"/>
<path d="M266.023 99.504C262.963 100.422 259.201 100.926 255.475 100.926V98.604H262.225V93.96H253.603V95.364H260.641V97.254H253.855V102.312C259.057 102.312 263.017 101.754 266.023 100.818V102.69H267.643V92.52H266.023V99.504ZM267.643 109.62V103.59H256.753V109.62H267.643ZM266.059 104.994V108.216H258.319V104.994H266.059Z" fill="black"/>
<path d="M278.893 98.622C282.475 98.622 284.653 97.614 284.653 95.706C284.653 93.798 282.475 92.79 278.893 92.79C275.311 92.79 273.133 93.798 273.133 95.706C273.133 97.614 275.311 98.622 278.893 98.622ZM278.893 97.182C277.165 97.182 275.887 96.948 275.257 96.552C274.933 96.336 274.789 96.048 274.789 95.706C274.789 95.364 274.915 95.076 275.257 94.86C275.887 94.482 277.165 94.23 278.893 94.23C280.621 94.23 281.881 94.482 282.529 94.86C282.871 95.076 282.997 95.364 282.997 95.706C282.997 96.048 282.853 96.336 282.529 96.552C281.899 96.948 280.621 97.182 278.893 97.182ZM287.443 101.232V99.774H270.343V101.232H287.443ZM285.337 109.71V108.342H275.095V106.812H284.257V102.69H273.169V104.04H282.637V105.498H273.493V109.71H285.337Z" fill="black"/>
<path d="M295.017 102.924C297.087 102.474 299.481 101.628 301.605 100.422L308.121 102.834L308.931 101.574L303.009 99.504C304.953 98.136 306.483 96.39 306.987 94.32H295.935V95.814H304.647V95.886C303.225 98.37 298.833 100.566 294.207 101.466L295.017 102.924ZM302.379 102.24H300.759V106.254H293.019V107.748H310.119V106.254H302.379V102.24Z" fill="black"/>
<path d="M325.419 98.478V92.52H323.835V102.42H325.419V99.918H328.389V98.478H325.419ZM313.269 92.88V94.194H320.145V92.88H313.269ZM311.199 95.526V96.894H321.819V95.526H311.199ZM320.649 100.35C320.649 98.856 319.119 97.884 316.689 97.884C314.277 97.884 312.747 98.856 312.747 100.35C312.747 101.844 314.277 102.816 316.689 102.816C319.119 102.816 320.649 101.844 320.649 100.35ZM314.259 100.35C314.259 99.594 315.159 99.108 316.689 99.108C318.237 99.108 319.137 99.594 319.137 100.35C319.137 101.106 318.237 101.592 316.689 101.592C315.159 101.592 314.259 101.106 314.259 100.35ZM316.221 105.156V103.59H314.619V109.71H325.419V103.41H323.817V105.156H316.221ZM316.221 108.288V106.488H323.817V108.288H316.221Z" fill="black"/>
<path d="M343.419 100.008V92.52H341.835V109.8H343.419V101.448H346.389V100.008H343.419ZM331.305 93.78V95.22H338.217V93.78H331.305ZM339.909 98.784V97.308H329.199V98.784H339.909ZM334.743 100.314C332.349 100.314 330.765 101.79 330.765 103.77C330.765 105.75 332.349 107.226 334.743 107.226C337.137 107.226 338.703 105.75 338.703 103.77C338.703 101.79 337.137 100.314 334.743 100.314ZM334.743 105.786C333.231 105.786 332.385 105.03 332.385 103.77C332.385 102.528 333.231 101.754 334.743 101.754C336.255 101.754 337.101 102.528 337.101 103.77C337.101 105.03 336.255 105.786 334.743 105.786Z" fill="black"/>
<path d="M360.699 96.786H356.145C355.389 95.328 354.111 94.554 352.509 94.554C349.827 94.554 348.099 96.714 348.099 100.566C348.099 104.436 349.827 106.596 352.509 106.596C354.129 106.596 355.407 105.804 356.163 104.31H360.699V109.8H362.319V92.52H360.699V96.786ZM352.509 105.084C350.781 105.084 349.737 103.572 349.737 100.566C349.737 97.578 350.781 96.066 352.509 96.066C354.237 96.066 355.281 97.578 355.281 100.566C355.281 103.572 354.237 105.084 352.509 105.084ZM356.667 102.906C356.829 102.222 356.919 101.43 356.919 100.566C356.919 99.684 356.829 98.892 356.649 98.19H360.699V102.906H356.667Z" fill="black"/>
<path d="M371.585 100.782C373.853 100.44 376.283 99.774 378.371 98.784L384.923 100.692L385.607 99.396L380.027 97.866C381.845 96.714 383.177 95.256 383.573 93.51H372.647V94.968H381.143V95.04C379.505 97.002 375.599 98.676 370.883 99.306L371.585 100.782ZM369.695 102.204V103.68H377.435V109.89H379.055V103.68H386.795V102.204H369.695Z" fill="black"/>
<path d="M390.845 93.33V99.45H401.645V93.33H390.845ZM392.465 98.046V94.734H400.025V98.046H392.465ZM387.695 102.51H395.669V106.452H397.199V102.51H404.795V101.034H387.695V102.51ZM390.791 104.13V109.53H402.239V108.054H392.303V104.13H390.791Z" fill="black"/>
<path d="M420.095 100.008V92.52H418.511V109.8H420.095V101.448H423.065V100.008H420.095ZM407.981 93.78V95.22H414.893V93.78H407.981ZM416.585 98.784V97.308H405.875V98.784H416.585ZM411.419 100.314C409.025 100.314 407.441 101.79 407.441 103.77C407.441 105.75 409.025 107.226 411.419 107.226C413.813 107.226 415.379 105.75 415.379 103.77C415.379 101.79 413.813 100.314 411.419 100.314ZM411.419 105.786C409.907 105.786 409.061 105.03 409.061 103.77C409.061 102.528 409.907 101.754 411.419 101.754C412.931 101.754 413.777 102.528 413.777 103.77C413.777 105.03 412.931 105.786 411.419 105.786Z" fill="black"/>
<path d="M437.375 100.89V105.48H438.995V92.52H437.375V95.706H433.325V94.41H425.225V102.15H433.325V100.89H437.375ZM426.809 100.818V95.76H431.741V100.818H426.809ZM437.375 99.486H433.325V97.11H437.375V99.486ZM429.815 103.77H428.195V109.53H439.715V108.054H429.815V103.77Z" fill="black"/>
<path d="M443.603 112.158C445.403 110.898 446.429 108.504 446.429 106.542C446.429 105.12 445.655 104.382 444.755 104.382C443.855 104.382 443.297 105.048 443.207 105.804C444.017 105.876 444.791 106.524 444.791 107.55C444.791 108.9 444.179 110.322 442.685 111.474L443.603 112.158Z" fill="black"/>
<path d="M467.978 100.008V92.52H466.393V109.8H467.978V101.448H470.948V100.008H467.978ZM455.863 93.78V95.22H462.776V93.78H455.863ZM464.467 98.784V97.308H453.758V98.784H464.467ZM459.302 100.314C456.908 100.314 455.324 101.79 455.324 103.77C455.324 105.75 456.908 107.226 459.302 107.226C461.696 107.226 463.262 105.75 463.262 103.77C463.262 101.79 461.696 100.314 459.302 100.314ZM459.302 105.786C457.79 105.786 456.944 105.03 456.944 103.77C456.944 102.528 457.79 101.754 459.302 101.754C460.814 101.754 461.66 102.528 461.66 103.77C461.66 105.03 460.814 105.786 459.302 105.786Z" fill="black"/>
<path d="M485.978 100.188V92.52H484.393V102.834C481.262 103.878 477.068 104.418 474.583 104.418V94.77H472.927V105.93C477.049 105.93 481.387 105.336 484.393 104.274V109.8H485.978V101.628H488.948V100.188H485.978Z" fill="black"/>
<path d="M496.057 93.15V95.292H493.393V93.15H491.918V99.918H497.462V93.15H496.057ZM502.88 93.15V95.292H500.198V93.15H498.793V99.918H504.337V93.15H502.88ZM493.393 98.622V96.624H496.057V98.622H493.393ZM500.198 98.622V96.624H502.88V98.622H500.198ZM489.578 102.87H497.552V106.542H499.082V102.87H506.677V101.394H489.578V102.87ZM492.673 104.22V109.53H504.121V108.054H494.186V104.22H492.673Z" fill="black"/>
<path d="M522.878 105.48V92.52H521.258V105.48H522.878ZM513.068 102.366C515.677 102.366 517.477 100.89 517.477 98.226C517.477 95.58 515.677 94.104 513.068 94.104C510.458 94.104 508.658 95.58 508.658 98.226C508.658 100.89 510.458 102.366 513.068 102.366ZM513.068 100.962C511.448 100.962 510.277 100.08 510.277 98.226C510.277 96.372 511.448 95.508 513.068 95.508C514.688 95.508 515.857 96.372 515.857 98.226C515.857 100.08 514.688 100.962 513.068 100.962ZM523.597 109.53V108.054H513.698V103.77H512.078V109.53H523.597Z" fill="black"/>
<path d="M544.653 92.52H543.069V102.6H544.653V99.108H547.623V97.668H544.653V92.52ZM541.341 100.836L537.489 98.64C538.659 97.344 539.505 95.814 539.811 94.05H531.477V95.49H537.867V95.544C536.985 97.686 534.429 99.972 530.433 101.214L531.243 102.528C533.169 101.862 534.951 100.908 536.409 99.684L540.495 102.024L541.341 100.836ZM539.127 102.888C535.527 102.888 533.421 104.202 533.421 106.38C533.421 108.576 535.527 109.89 539.127 109.89C542.727 109.89 544.833 108.576 544.833 106.38C544.833 104.202 542.727 102.888 539.127 102.888ZM542.637 107.64C541.989 108.144 540.819 108.45 539.127 108.45C537.435 108.45 536.247 108.144 535.617 107.64C535.257 107.316 535.077 106.902 535.077 106.38C535.077 105.876 535.257 105.444 535.617 105.138C536.265 104.652 537.435 104.328 539.127 104.328C540.819 104.328 541.989 104.652 542.637 105.138C542.997 105.444 543.177 105.876 543.177 106.38C543.177 106.902 542.997 107.316 542.637 107.64Z" fill="black"/>
<path d="M562.653 100.008V92.52H561.069V109.8H562.653V101.448H565.623V100.008H562.653ZM551.097 99.018V94.68H549.513V106.2H557.793V94.68H556.209V99.018H551.097ZM551.097 104.742V100.458H556.209V104.742H551.097Z" fill="black"/>
<path d="M579.105 101.034C579.609 98.874 579.951 96.552 580.077 93.708H568.809V95.202H578.385C578.277 97.308 578.025 99.18 577.611 101.034H566.253V102.528H573.993V109.89H575.613V102.528H583.353V101.034H579.105Z" fill="black"/>
<path d="M597.933 102.564C594.747 103.734 590.211 104.418 587.619 104.418V94.77H585.963V105.93C590.229 105.93 594.855 105.192 597.933 103.968V109.8H599.553V92.52H597.933V102.564Z" fill="black"/>
<path d="M616.995 99.36V98.028H606.915V96.822H616.167V93.06H605.133V94.41H614.619V95.508H605.349V99.36H616.995ZM619.353 102.006V100.584H602.253V102.006H619.353ZM617.247 109.71V108.36H607.023V107.064H616.167V103.23H605.061V104.562H614.547V105.786H605.421V109.71H617.247Z" fill="black"/>
<path d="M639.329 100.188V92.52H637.745V109.8H639.329V101.628H642.299V100.188H639.329ZM632.975 96.714V96.768C632.255 100.098 629.681 103.644 625.289 105.678L626.387 107.046C630.779 104.922 634.253 100.764 634.865 95.22H626.225V96.714H632.975Z" fill="black"/>
<path d="M656.609 92.52V101.43H658.229V92.52H656.609ZM654.557 100.17L650.543 98.28C651.767 97.074 652.613 95.616 652.937 93.96H644.279V95.4H650.957V95.454C650.021 97.434 647.339 99.504 643.199 100.53L643.955 101.88C645.971 101.304 647.843 100.44 649.373 99.288L653.747 101.358L654.557 100.17ZM648.923 106.686H658.229V102.33H646.853V103.698H656.609V105.336H647.303V109.8H658.949V108.432H648.923V106.686Z" fill="black"/>
<path d="M680.725 100.71L681.589 99.432L674.677 95.364C675.109 94.716 675.487 94.032 675.757 93.294L674.155 92.88C672.985 95.922 669.871 98.19 666.451 99.45L667.315 100.854C669.655 99.9 671.995 98.496 673.705 96.588L680.725 100.71ZM665.605 101.934V103.41H673.345V109.89H674.965V103.41H682.705V101.934H665.605Z" fill="black"/>
<path d="M701.961 92.52V102.15H703.581V92.52H701.961ZM693.771 101.646C696.363 101.646 698.181 100.242 698.181 97.686C698.181 95.148 696.363 93.744 693.771 93.744C691.179 93.744 689.361 95.148 689.361 97.686C689.361 100.242 691.179 101.646 693.771 101.646ZM693.771 95.148C695.373 95.148 696.561 95.94 696.561 97.686C696.561 99.432 695.373 100.242 693.771 100.242C692.169 100.242 690.981 99.432 690.981 97.686C690.981 95.94 692.169 95.148 693.771 95.148ZM701.565 105.084C701.835 104.4 702.051 103.68 702.195 102.888L700.557 102.69C700.107 105.498 698.667 107.442 696.579 108.918L697.713 110.106C699.009 109.098 700.107 107.91 700.917 106.47L704.157 109.638L705.093 108.558L701.565 105.084ZM695.193 104.724C695.409 104.166 695.589 103.59 695.715 102.996L694.077 102.78C693.609 105.156 692.133 107.154 690.099 108.54L691.305 109.692C692.583 108.756 693.699 107.514 694.527 106.092L696.507 108.018L697.461 106.848L695.193 104.724Z" fill="black"/>
<path d="M719.961 99.738H716.325C716.091 96.408 714.399 94.554 711.861 94.554C709.125 94.554 707.361 96.714 707.361 100.566C707.361 104.436 709.125 106.596 711.861 106.596C714.453 106.596 716.163 104.67 716.343 101.178H719.961V109.8H721.581V92.52H719.961V99.738ZM711.861 105.084C710.079 105.084 708.999 103.554 708.999 100.566C708.999 97.596 710.079 96.066 711.861 96.066C713.643 96.066 714.723 97.596 714.723 100.566C714.723 103.554 713.643 105.084 711.861 105.084Z" fill="black"/>
<path d="M732.831 102.546C736.575 102.546 738.861 100.8 738.861 98.244C738.861 95.706 736.575 93.96 732.831 93.96C729.087 93.96 726.801 95.706 726.801 98.244C726.801 100.8 729.087 102.546 732.831 102.546ZM729.033 96.66C729.699 95.85 731.013 95.4 732.831 95.4C734.649 95.4 735.927 95.868 736.629 96.66C737.025 97.092 737.205 97.65 737.205 98.262C737.205 98.892 737.007 99.432 736.629 99.882C735.963 100.692 734.649 101.142 732.831 101.142C731.013 101.142 729.699 100.692 729.033 99.882C728.655 99.432 728.457 98.892 728.457 98.262C728.457 97.65 728.637 97.092 729.033 96.66ZM736.845 102.69H735.315V106.254H730.365V102.69H728.835V106.254H724.281V107.748H741.381V106.254H736.845V102.69Z" fill="black"/>
<path d="M745.431 108C746.205 108 746.871 107.352 746.871 106.578C746.871 105.786 746.205 105.12 745.431 105.12C744.639 105.12 743.991 105.786 743.991 106.578C743.991 107.352 744.639 108 745.431 108Z" fill="black"/>
</svg>
