<svg width="605" height="110" viewBox="0 0 605 110" fill="none" xmlns="http://www.w3.org/2000/svg">
<path d="M16.896 28.832V25.248H5.824L5.888 25.184C11.232 20.992 16.128 15.008 16.128 10.528C16.128 5.66398 12.352 3.45598 8 3.45598C5.408 3.45598 2.56 4.12798 0.544 5.69598V9.47198C3.136 7.51998 5.216 7.16798 7.104 7.16798C9.568 7.16798 11.616 8.63998 11.616 11.136C11.616 15.52 5.952 21.088 0 25.92V28.832H16.896Z" fill="black"/>
<path d="M28.631 29.152C34.519 29.152 37.847 24 37.847 16C37.847 8.92798 35.639 3.45598 28.951 3.45598C22.999 3.45598 19.831 8.57598 19.831 16.704C19.831 24.416 22.455 29.152 28.631 29.152ZM28.887 25.696C25.687 25.696 24.055 22.208 24.055 16.448C24.055 11.104 25.495 6.94398 28.695 6.94398C31.927 6.94398 33.591 11.104 33.591 16.128C33.591 21.76 32.119 25.696 28.887 25.696Z" fill="black"/>
<path d="M57.646 28.832V25.248H46.574L46.638 25.184C51.982 20.992 56.878 15.008 56.878 10.528C56.878 5.66398 53.102 3.45598 48.75 3.45598C46.158 3.45598 43.31 4.12798 41.294 5.69598V9.47198C43.886 7.51998 45.966 7.16798 47.854 7.16798C50.318 7.16798 52.366 8.63998 52.366 11.136C52.366 15.52 46.702 21.088 40.75 25.92V28.832H57.646Z" fill="black"/>
<path d="M72.613 3.83998H69.989L62.309 6.14398V9.37598L68.069 8.41598V25.248H61.861V28.832H78.181V25.248H72.613V3.83998Z" fill="black"/>
<path d="M109.373 24.616V7.35998H106.396V10.792H99.0045V13.12H106.396V15.16H99.0045V17.464H106.396V24.616H109.373ZM102.821 17.968C99.5805 18.592 95.7405 18.832 93.6285 18.832V9.68798H90.6765V21.472C95.3085 21.472 99.7005 21.184 103.085 20.512L102.821 17.968ZM97.2045 22.768H94.2285V30.136H110.237V27.52H97.2045V22.768Z" fill="black"/>
<path d="M133.613 3.83998H130.989L123.309 6.14398V9.37598L129.069 8.41598V25.248H122.861V28.832H139.181V25.248H133.613V3.83998Z" fill="black"/>
<path d="M159.396 28.832V25.248H148.324L148.388 25.184C153.732 20.992 158.628 15.008 158.628 10.528C158.628 5.66398 154.852 3.45598 150.5 3.45598C147.908 3.45598 145.06 4.12798 143.044 5.69598V9.47198C145.636 7.51998 147.716 7.16798 149.604 7.16798C152.068 7.16798 154.116 8.63998 154.116 11.136C154.116 15.52 148.452 21.088 142.5 25.92V28.832H159.396Z" fill="black"/>
<path d="M182.852 20.176H187.892V20.776H190.747V7.35998H187.892V18.136H182.852V20.176ZM178.292 15.28C181.747 15.28 184.292 13.96 184.292 11.632C184.292 9.35198 181.747 8.00798 178.292 8.00798C174.788 8.00798 172.268 9.35198 172.268 11.632C172.268 13.96 174.788 15.28 178.292 15.28ZM178.292 10.144C180.163 10.144 181.532 10.6 181.532 11.632C181.532 12.664 180.163 13.144 178.292 13.144C176.396 13.144 175.027 12.664 175.027 11.632C175.027 10.624 176.396 10.144 178.292 10.144ZM179.516 20.776V18.28C181.892 18.064 184.051 17.728 186.068 17.296L185.78 15.04C181.532 15.952 176.779 16.264 170.156 16.264L170.42 18.64C172.652 18.64 174.691 18.592 176.611 18.496V20.776H179.516ZM178.411 26.896H190.747V21.64H174.956V23.656H187.771V25H175.436V30.424H191.635V28.36H178.411V26.896Z" fill="black"/>
<path d="M227.18 0.47998V21.088H230.86V0.47998H227.18ZM223.5 18.016V1.18398H219.884V7.10398H214.54V10.528H219.884V18.016H223.5ZM218.06 16.32L211.404 9.98398C212.044 7.80798 212.46 5.37598 212.652 2.65598L208.908 2.43198C208.46 9.34398 206.572 13.568 202.508 17.376L205.228 20.064C207.244 18.112 208.876 15.936 210.092 13.408L216.044 19.008L218.06 16.32ZM221.516 22.752C222.188 21.856 222.764 20.864 223.212 19.84L219.276 18.88C217.452 23.264 212.78 26.24 206.732 27.872L208.684 31.264C212.684 30.016 216.3 28.096 219.084 25.504L230.348 30.944L232.14 27.808L221.516 22.752Z" fill="black"/>
<path d="M259.34 12.8H255.82V1.72798H252.396V30.08H255.82V16.448H259.34V31.168H262.86V0.47998H259.34V12.8ZM243.212 18.304L241.26 13.856C241.868 11.168 242.284 8.15998 242.476 4.70398H235.212V8.09598H239.052V8.19198C238.636 13.472 236.844 18.464 233.836 22.368L236.556 24.736C237.996 22.688 239.18 20.448 240.108 17.888L241.452 21.056L243.212 18.304ZM243.468 4.70398V8.09598H246.412V8.19198C245.996 14.24 244.236 19.712 240.716 24.448L243.404 26.912C245.036 24.64 246.316 22.208 247.308 19.52L249.612 25.056L251.724 22.4L248.588 15.168C249.324 12.064 249.772 8.63998 249.964 4.70398H243.468Z" fill="black"/>
<path d="M277.229 18.616C280.397 18.184 283.637 17.344 286.372 16.072L294.893 18.496L296.092 16.192L289.301 14.392C291.509 12.856 293.045 10.888 293.453 8.51198H278.309V11.08H286.757L289.204 11.032V11.128C287.141 13.36 282.1 15.304 276.029 16.048L277.229 18.616ZM274.685 20.176V22.792H284.573V30.448H287.596V22.792H297.484V20.176H274.685Z" fill="black"/>
<path d="M14.166 68.828H11.25V62.24H9.684V78.17H11.25V70.25H14.166V78.782H15.75V61.52H14.166V68.828ZM1.674 63.05V64.508H7.128V63.05H1.674ZM0.702 66.632V68.072H5.94V68.126C5.058 70.52 2.97 72.896 0 74.462L0.99 75.722C2.484 74.84 3.852 73.742 4.986 72.41L7.776 75.614L8.784 74.516L5.85 71.276C6.786 69.926 7.488 68.378 7.848 66.632H0.702Z" fill="black"/>
<path d="M33.228 71.51L34.164 70.214L27.09 65.498C27.54 64.778 27.9 64.004 28.188 63.176L26.568 62.78C25.326 66.236 22.122 68.792 18.666 70.232L19.53 71.672C21.978 70.556 24.426 68.936 26.19 66.758L33.228 71.51ZM27.36 70.34H25.74V75.254H18V76.748H35.1V75.254H27.36V70.34Z" fill="black"/>
<path d="M50.4 66.308V61.52H48.816V67.622C46.152 68.522 41.706 69.044 38.916 69.044L38.88 64.508H45.792V63.05H37.26V70.52C41.67 70.52 46.242 69.926 48.816 68.972V71.15H50.4V67.748H53.37V66.308H50.4ZM50.4 78.62V72.05H39.6V78.62H50.4ZM48.816 73.454V77.198H41.166V73.454H48.816Z" fill="black"/>
<path d="M62.55 68.972C66.132 68.972 68.31 67.676 68.31 65.516C68.31 63.356 66.132 62.06 62.55 62.06C58.968 62.06 56.79 63.356 56.79 65.516C56.79 67.676 58.968 68.972 62.55 68.972ZM62.55 67.532C60.84 67.532 59.562 67.208 58.932 66.65C58.608 66.362 58.446 65.966 58.446 65.516C58.446 65.048 58.59 64.67 58.932 64.382C59.58 63.824 60.84 63.5 62.55 63.5C64.26 63.5 65.502 63.824 66.168 64.382C66.51 64.67 66.654 65.048 66.654 65.516C66.654 65.966 66.492 66.362 66.168 66.65C65.52 67.208 64.26 67.532 62.55 67.532ZM71.1 71.888V70.394H54V71.888H71.1ZM68.58 78.53V77.054H58.86V73.13H57.24V78.53H68.58Z" fill="black"/>
<path d="M91.0758 69.188V61.52H89.4918V78.8H91.0758V70.628H94.0458V69.188H91.0758ZM84.7218 65.714V65.768C84.0018 69.098 81.4278 72.644 77.0358 74.678L78.1338 76.046C82.5258 73.922 85.9998 69.764 86.6118 64.22H77.9718V65.714H84.7218Z" fill="black"/>
<path d="M109.076 61.52H107.492V71.6H109.076V68.108H112.046V66.668H109.076V61.52ZM105.764 69.836L101.912 67.64C103.082 66.344 103.928 64.814 104.234 63.05H95.8998V64.49H102.29V64.544C101.408 66.686 98.8518 68.972 94.8558 70.214L95.6658 71.528C97.5918 70.862 99.3738 69.908 100.832 68.684L104.918 71.024L105.764 69.836ZM103.55 71.888C99.9498 71.888 97.8438 73.202 97.8438 75.38C97.8438 77.576 99.9498 78.89 103.55 78.89C107.15 78.89 109.256 77.576 109.256 75.38C109.256 73.202 107.15 71.888 103.55 71.888ZM107.06 76.64C106.412 77.144 105.242 77.45 103.55 77.45C101.858 77.45 100.67 77.144 100.04 76.64C99.6798 76.316 99.4998 75.902 99.4998 75.38C99.4998 74.876 99.6798 74.444 100.04 74.138C100.688 73.652 101.858 73.328 103.55 73.328C105.242 73.328 106.412 73.652 107.06 74.138C107.42 74.444 107.6 74.876 107.6 75.38C107.6 75.902 107.42 76.316 107.06 76.64Z" fill="black"/>
<path d="M131.032 61.52V74.48H132.652V61.52H131.032ZM128.962 70.484L123.796 66.596C124.264 65.408 124.588 64.13 124.75 62.744L123.04 62.618C122.716 66.47 120.592 69.62 117.892 71.438L119.08 72.698C120.718 71.492 122.122 69.908 123.148 68L128.044 71.744L128.962 70.484ZM123.472 72.77H121.852V78.53H133.372V77.054H123.472V72.77Z" fill="black"/>
<path d="M150.652 74.48V61.52H149.032V65.678H144.082V67.118H149.032V74.48H150.652ZM146.512 70.844L141.256 66.956C141.742 65.678 142.084 64.274 142.228 62.744L140.572 62.618C140.212 66.578 138.43 69.584 135.712 71.672L136.9 72.878C138.43 71.636 139.708 70.142 140.644 68.324L145.666 72.05L146.512 70.844ZM141.472 72.77H139.852V78.53H151.372V77.054H141.472V72.77Z" fill="black"/>
<path d="M167.752 69.008V61.52H166.168V78.8H167.752V70.448H170.722V69.008H167.752ZM155.638 62.78V64.22H162.55V62.78H155.638ZM164.242 67.784V66.308H153.532V67.784H164.242ZM159.076 69.314C156.682 69.314 155.098 70.79 155.098 72.77C155.098 74.75 156.682 76.226 159.076 76.226C161.47 76.226 163.036 74.75 163.036 72.77C163.036 70.79 161.47 69.314 159.076 69.314ZM159.076 74.786C157.564 74.786 156.718 74.03 156.718 72.77C156.718 71.528 157.564 70.754 159.076 70.754C160.588 70.754 161.434 71.528 161.434 72.77C161.434 74.03 160.588 74.786 159.076 74.786Z" fill="black"/>
<path d="M184.834 72.77C185.284 69.836 185.536 66.938 185.608 63.518H173.782V65.012H183.934C183.844 67.46 183.664 70.07 183.196 72.662L184.834 72.77ZM179.722 68.72H178.102V75.254H171.352V76.748H188.452V75.254H179.722V68.72Z" fill="black"/>
<path d="M208.427 61.52H206.843V73.13H208.427V68.288H211.397V66.848H208.427V61.52ZM195.197 63.23V70.88H203.297V63.23H195.197ZM196.781 69.548V64.58H201.713V69.548H196.781ZM203.207 71.87C202.073 74.462 199.283 76.316 196.097 77.27L196.961 78.746C199.121 77.99 201.137 76.802 202.685 75.236L208.985 78.566L209.777 77.234L203.711 74.048C204.107 73.508 204.449 72.95 204.737 72.356L203.207 71.87Z" fill="black"/>
<path d="M225.707 61.52V71.15H227.327V61.52H225.707ZM217.517 70.646C220.109 70.646 221.927 69.242 221.927 66.686C221.927 64.148 220.109 62.744 217.517 62.744C214.925 62.744 213.107 64.148 213.107 66.686C213.107 69.242 214.925 70.646 217.517 70.646ZM217.517 64.148C219.119 64.148 220.307 64.94 220.307 66.686C220.307 68.432 219.119 69.242 217.517 69.242C215.915 69.242 214.727 68.432 214.727 66.686C214.727 64.94 215.915 64.148 217.517 64.148ZM225.311 74.084C225.581 73.4 225.797 72.68 225.941 71.888L224.303 71.69C223.853 74.498 222.413 76.442 220.325 77.918L221.459 79.106C222.755 78.098 223.853 76.91 224.663 75.47L227.903 78.638L228.839 77.558L225.311 74.084ZM218.939 73.724C219.155 73.166 219.335 72.59 219.461 71.996L217.823 71.78C217.355 74.156 215.879 76.154 213.845 77.54L215.051 78.692C216.329 77.756 217.445 76.514 218.273 75.092L220.253 77.018L221.207 75.848L218.939 73.724Z" fill="black"/>
<path d="M244.373 68.378V66.902H234.833V62.15H233.213V68.378H244.373ZM247.127 71.906V70.412H230.027V71.906H247.127ZM244.535 78.53V77.054H234.977V73.31H233.357V78.53H244.535Z" fill="black"/>
<path d="M262.063 67.46H266.995V66.002H257.455V61.97H255.835V67.46H260.443V69.674H252.703V71.15H269.803V69.674H262.063V67.46ZM261.253 72.518C257.653 72.518 255.547 73.67 255.547 75.704C255.547 77.738 257.653 78.89 261.253 78.89C264.853 78.89 266.959 77.738 266.959 75.704C266.959 73.67 264.853 72.518 261.253 72.518ZM264.781 76.784C264.133 77.18 262.963 77.45 261.253 77.45C259.543 77.45 258.355 77.198 257.725 76.784C257.383 76.514 257.203 76.136 257.203 75.704C257.203 75.272 257.365 74.894 257.725 74.624C258.355 74.21 259.543 73.958 261.253 73.958C262.963 73.958 264.133 74.228 264.781 74.624C265.141 74.894 265.303 75.272 265.303 75.704C265.303 76.136 265.141 76.514 264.781 76.784Z" fill="black"/>
<path d="M285.103 61.52H283.519V74.48H285.103V68.738H288.073V67.298H285.103V61.52ZM281.593 70.538L276.589 66.614C277.039 65.426 277.363 64.13 277.507 62.744L275.815 62.618C275.491 66.488 273.457 69.602 270.793 71.456L271.981 72.716C273.583 71.492 274.951 69.926 275.941 68.036L280.675 71.762L281.593 70.538ZM274.483 72.77V78.53H285.823V77.054H276.103V72.77H274.483Z" fill="black"/>
<path d="M291.853 62.06V67.46H302.653V62.06H291.853ZM293.473 66.056V63.446H301.033V66.056H293.473ZM305.803 68.594H288.703V70.052H296.515V71.69H291.529V73.04H300.997V74.498H291.853V78.71H303.697V77.342H293.455V75.812H302.617V71.69H297.991V70.052H305.803V68.594Z" fill="black"/>
<path d="M315.253 67.622C318.835 67.622 321.013 66.614 321.013 64.706C321.013 62.798 318.835 61.79 315.253 61.79C311.671 61.79 309.493 62.798 309.493 64.706C309.493 66.614 311.671 67.622 315.253 67.622ZM315.253 66.182C313.525 66.182 312.247 65.948 311.617 65.552C311.293 65.336 311.149 65.048 311.149 64.706C311.149 64.364 311.275 64.076 311.617 63.86C312.247 63.482 313.525 63.23 315.253 63.23C316.981 63.23 318.241 63.482 318.889 63.86C319.231 64.076 319.357 64.364 319.357 64.706C319.357 65.048 319.213 65.336 318.889 65.552C318.259 65.948 316.981 66.182 315.253 66.182ZM323.803 70.232V68.774H306.703V70.232H323.803ZM321.697 78.71V77.342H311.455V75.812H320.617V71.69H309.529V73.04H318.997V74.498H309.853V78.71H321.697Z" fill="black"/>
<path d="M343.779 69.188V61.52H342.195V78.8H343.779V70.628H346.749V69.188H343.779ZM337.425 65.714V65.768C336.705 69.098 334.131 72.644 329.739 74.678L330.837 76.046C335.229 73.922 338.703 69.764 339.315 64.22H330.675V65.714H337.425Z" fill="black"/>
<path d="M361.545 78.782H363.129V61.52H361.545V78.782ZM354.345 69.098C354.885 67.694 355.263 66.146 355.407 64.49H348.369V65.948H353.589V66.002C353.121 69.062 351.267 72.446 347.559 74.624L348.747 75.938C350.817 74.624 352.527 72.806 353.697 70.538H357.423V78.17H358.989V62.24H357.423V69.098H354.345Z" fill="black"/>
<path d="M379.545 78.782H381.129V61.52H379.545V78.782ZM373.353 68.828C373.155 65.588 371.751 63.914 369.663 63.914C367.377 63.914 365.919 65.894 365.919 69.71C365.919 73.526 367.377 75.506 369.663 75.506C371.823 75.506 373.245 73.724 373.371 70.268H375.423V78.17H376.989V62.24H375.423V68.828H373.353ZM369.663 73.994C368.349 73.994 367.539 72.662 367.539 69.71C367.539 66.758 368.349 65.426 369.663 65.426C370.959 65.426 371.769 66.758 371.769 69.71C371.769 72.662 370.959 73.994 369.663 73.994Z" fill="black"/>
<path d="M402.545 67.37V65.966H392.879V63.59H402.185V62.15H391.259V67.37H402.545ZM405.155 70.232V68.774H388.055V70.232H405.155ZM403.049 78.71V77.342H392.807V75.812H401.969V71.69H390.881V73.04H400.349V74.498H391.205V78.71H403.049Z" fill="black"/>
<path d="M421.355 78.8V61.52H419.735V78.8H421.355ZM411.725 75.596C414.515 75.596 416.315 73.418 416.315 69.566C416.315 65.732 414.515 63.554 411.725 63.554C408.935 63.554 407.135 65.732 407.135 69.566C407.135 73.418 408.935 75.596 411.725 75.596ZM411.725 74.084C409.889 74.084 408.791 72.536 408.791 69.566C408.791 66.614 409.889 65.066 411.725 65.066C413.561 65.066 414.659 66.614 414.659 69.566C414.659 72.536 413.561 74.084 411.725 74.084Z" fill="black"/>
<path d="M439.355 78.8V61.52H437.735V78.8H439.355ZM425.765 75.938C430.283 73.904 433.991 69.782 434.621 64.22H425.639V65.714H432.695V65.768C431.939 69.098 429.221 72.608 424.685 74.552L425.765 75.938Z" fill="black"/>
<path d="M460.446 78.8H462.03V61.52H460.446V78.8ZM453.084 70.286C455.694 70.286 457.53 68.882 457.53 66.506C457.53 64.148 455.694 62.744 453.084 62.744C450.456 62.744 448.62 64.148 448.62 66.506C448.62 68.882 450.456 70.286 453.084 70.286ZM453.084 64.148C454.704 64.148 455.91 64.94 455.91 66.506C455.91 68.072 454.704 68.882 453.084 68.882C451.446 68.882 450.24 68.072 450.24 66.506C450.24 64.958 451.446 64.148 453.084 64.148ZM459.474 71.024C456.054 71.798 452.22 72.05 446.82 72.05L447 73.526C448.962 73.526 450.762 73.472 452.4 73.382V78.71H454.02V73.256C456.108 73.076 457.962 72.806 459.69 72.41L459.474 71.024Z" fill="black"/>
<path d="M478.896 68.828H475.98V62.24H474.414V78.17H475.98V70.25H478.896V78.782H480.48V61.52H478.896V68.828ZM466.476 63.14V64.544H472.146V63.14H466.476ZM473.46 68.018V66.578H464.91V68.018H473.46ZM469.356 69.584C467.34 69.584 465.936 70.88 465.936 72.86C465.936 74.84 467.34 76.136 469.356 76.136C471.372 76.136 472.776 74.84 472.776 72.86C472.776 70.88 471.372 69.584 469.356 69.584ZM469.356 74.75C468.204 74.75 467.448 74.102 467.448 72.86C467.448 71.618 468.204 70.988 469.356 70.988C470.508 70.988 471.264 71.618 471.264 72.86C471.264 74.102 470.508 74.75 469.356 74.75Z" fill="black"/>
<path d="M501.698 67.28V65.822H492.158V61.88H490.538V67.28H501.698ZM504.506 70.232V68.774H487.406V70.232H504.506ZM502.4 78.71V77.342H492.158V75.812H501.32V71.69H490.232V73.04H499.7V74.498H490.556V78.71H502.4Z" fill="black"/>
<path d="M519.442 71.24H524.77V69.764H514.744V63.14H513.124V71.24H517.822V75.254H510.082V76.748H527.182V75.254H519.442V71.24Z" fill="black"/>
<path d="M541.762 64.526H537.802V65.93H541.762V67.766H537.802V69.17H541.762V72.41H543.382V61.52H541.762V64.526ZM529.594 71.96C533.32 71.96 536.452 71.816 539.062 71.222L538.9 69.89C536.38 70.448 533.338 70.556 531.196 70.556V68H536.884V63.05H529.342V64.472H535.336V66.65H529.594V71.96ZM541.726 74.786V78.836H543.382V73.31H532.042V74.786H541.726Z" fill="black"/>
<path d="M560.482 67.478V61.52H558.898V71.42H560.482V68.918H563.452V67.478H560.482ZM548.332 61.88V63.194H555.208V61.88H548.332ZM546.262 64.526V65.894H556.882V64.526H546.262ZM555.712 69.35C555.712 67.856 554.182 66.884 551.752 66.884C549.34 66.884 547.81 67.856 547.81 69.35C547.81 70.844 549.34 71.816 551.752 71.816C554.182 71.816 555.712 70.844 555.712 69.35ZM549.322 69.35C549.322 68.594 550.222 68.108 551.752 68.108C553.3 68.108 554.2 68.594 554.2 69.35C554.2 70.106 553.3 70.592 551.752 70.592C550.222 70.592 549.322 70.106 549.322 69.35ZM551.284 74.156V72.59H549.682V78.71H560.482V72.41H558.88V74.156H551.284ZM551.284 77.288V75.488H558.88V77.288H551.284Z" fill="black"/>
<path d="M577.762 71.564C574.576 72.734 570.04 73.418 567.448 73.418V63.77H565.792V74.93C570.058 74.93 574.684 74.192 577.762 72.968V78.8H579.382V61.52H577.762V71.564Z" fill="black"/>
<path d="M596.482 69.188V61.52H594.898V72.122C592.09 73.076 587.86 73.616 585.088 73.616L585.052 65.426H591.964V63.95H583.432V75.11C587.824 75.11 592.18 74.534 594.898 73.526V78.8H596.482V70.628H599.452V69.188H596.482Z" fill="black"/>
<path d="M603.232 77C604.006 77 604.672 76.352 604.672 75.578C604.672 74.786 604.006 74.12 603.232 74.12C602.44 74.12 601.792 74.786 601.792 75.578C601.792 76.352 602.44 77 603.232 77Z" fill="black"/>
<path d="M14.166 99.738H11.34V93.24H9.774V109.17H11.34V101.16H14.166V109.782H15.75V92.52H14.166V99.738ZM7.74 106.29V95.13H0.99V106.29H7.74ZM6.192 96.588V104.832H2.538V96.588H6.192Z" fill="black"/>
<path d="M19.89 100.782C22.158 100.44 24.588 99.774 26.676 98.784L33.228 100.692L33.912 99.396L28.332 97.866C30.15 96.714 31.482 95.256 31.878 93.51H20.952V94.968H29.448V95.04C27.81 97.002 23.904 98.676 19.188 99.306L19.89 100.782ZM18 102.204V103.68H25.74V109.89H27.36V103.68H35.1V102.204H18Z" fill="black"/>
<path d="M54.3558 96.768H50.4138C50.0718 94.752 48.3978 93.654 46.1298 93.654C43.5558 93.654 41.7558 95.04 41.7558 97.56C41.7558 100.08 43.5558 101.466 46.1298 101.466C48.4518 101.466 50.1618 100.314 50.4498 98.208H54.3558V101.52H55.9758V92.52H54.3558V96.768ZM46.1298 100.062C44.5458 100.062 43.3578 99.288 43.3578 97.56C43.3578 95.832 44.5458 95.058 46.1298 95.058C47.6958 95.058 48.8838 95.814 48.8838 97.542C48.8838 99.288 47.6958 100.062 46.1298 100.062ZM46.6878 104.67V102.51H45.0858V109.71H55.9758V102.51H54.3738V104.67H46.6878ZM46.6878 108.27V106.038H54.3738V108.27H46.6878Z" fill="black"/>
<path d="M72.8418 109.782H74.4258V92.52H72.8418V109.782ZM64.6158 99.558V100.998H68.7198V109.17H70.2858V93.24H68.7198V99.558H64.6158ZM61.2678 96.606H66.3438V95.13H59.6658V106.2C62.2758 106.2 65.2998 106.074 67.5498 105.624L67.3878 104.22C65.0658 104.652 62.2218 104.76 61.2678 104.76V96.606Z" fill="black"/>
<path d="M91.9758 109.8V92.52H90.3558V109.8H91.9758ZM82.3458 106.596C85.1358 106.596 86.9358 104.418 86.9358 100.566C86.9358 96.732 85.1358 94.554 82.3458 94.554C79.5558 94.554 77.7558 96.732 77.7558 100.566C77.7558 104.418 79.5558 106.596 82.3458 106.596ZM82.3458 105.084C80.5098 105.084 79.4118 103.536 79.4118 100.566C79.4118 97.614 80.5098 96.066 82.3458 96.066C84.1818 96.066 85.2798 97.614 85.2798 100.566C85.2798 103.536 84.1818 105.084 82.3458 105.084Z" fill="black"/>
<path d="M109.58 103.41V101.988H99.2298V99.468H108.662V98.082H99.2298V95.652H109.04V94.23H97.6458V103.41H109.58ZM111.776 107.748V106.254H94.6758V107.748H111.776Z" fill="black"/>
<path d="M126.392 109.8H127.976V92.52H126.392V109.8ZM119.858 101.79H123.62V100.422H116.276V96.3H123.296V94.86H114.746V101.79H118.274V105.444C116.618 105.534 114.8 105.57 112.766 105.57L112.946 107.064C118.238 107.064 122.198 106.722 125.636 105.948L125.42 104.544C123.71 104.922 121.91 105.192 119.858 105.354V101.79Z" fill="black"/>
<path d="M145.022 99.378V97.902H135.482V93.15H133.862V99.378H145.022ZM147.776 102.906V101.412H130.676V102.906H147.776ZM145.184 109.53V108.054H135.626V104.31H134.006V109.53H145.184Z" fill="black"/>
<path d="M168.652 103.14V92.52H167.032V97.758H163.072V99.198H167.032V103.14H168.652ZM155.71 93.06V94.464H162.118V93.06H155.71ZM164.206 101.556L160.642 99.774C161.74 98.73 162.55 97.47 162.928 96.012H154.594V97.416H160.858V97.47C159.58 99.36 157.222 100.908 153.802 101.916L154.576 103.194C156.322 102.636 158.05 101.826 159.508 100.746L163.45 102.69L164.206 101.556ZM163.036 103.428C159.436 103.428 157.33 104.598 157.33 106.65C157.33 108.72 159.436 109.89 163.036 109.89C166.636 109.89 168.742 108.72 168.742 106.65C168.742 104.598 166.636 103.428 163.036 103.428ZM166.546 107.766C165.916 108.18 164.746 108.45 163.036 108.45C161.326 108.45 160.138 108.18 159.526 107.766C159.166 107.478 158.986 107.1 158.986 106.65C158.986 106.218 159.148 105.822 159.526 105.552C160.156 105.138 161.326 104.868 163.036 104.868C164.746 104.868 165.916 105.138 166.546 105.552C166.924 105.822 167.086 106.218 167.086 106.65C167.086 107.1 166.924 107.478 166.546 107.766Z" fill="black"/>
<path d="M185.752 100.188V92.52H184.168V109.8H185.752V101.628H188.722V100.188H185.752ZM180.694 102.924C181.18 100.494 181.396 97.848 181.396 95.04H172.432V96.534H179.812C179.812 98.244 179.614 100.746 179.074 102.762L180.694 102.924ZM177.094 99.72H175.51V105.3C174.268 105.372 172.936 105.39 171.442 105.39L171.622 106.884C176.59 106.884 180.172 106.524 183.412 105.66L183.178 104.256C181.324 104.742 179.38 105.048 177.094 105.21V99.72Z" fill="black"/>
<path d="M203.387 99.09H207.977V93.24H197.177V99.09H201.767V101.124H194.027V102.618H211.127V101.124H203.387V99.09ZM206.357 94.644V97.686H198.797V94.644H206.357ZM206.411 105.93V109.89H208.067V104.49H196.655V105.93H206.411Z" fill="black"/>
<path d="M221.387 100.26H226.841V98.892H216.671V97.326H225.959V93.15H214.907V94.518H224.393V95.976H215.105V100.26H219.767V102.024H212.027V103.5H229.127V102.024H221.387V100.26ZM224.411 106.542V109.89H226.067V105.12H214.655V106.542H224.411Z" fill="black"/>
<path d="M238.577 98.622C242.159 98.622 244.337 97.614 244.337 95.706C244.337 93.798 242.159 92.79 238.577 92.79C234.995 92.79 232.817 93.798 232.817 95.706C232.817 97.614 234.995 98.622 238.577 98.622ZM238.577 97.182C236.849 97.182 235.571 96.948 234.941 96.552C234.617 96.336 234.473 96.048 234.473 95.706C234.473 95.364 234.599 95.076 234.941 94.86C235.571 94.482 236.849 94.23 238.577 94.23C240.305 94.23 241.565 94.482 242.213 94.86C242.555 95.076 242.681 95.364 242.681 95.706C242.681 96.048 242.537 96.336 242.213 96.552C241.583 96.948 240.305 97.182 238.577 97.182ZM247.127 101.232V99.774H230.027V101.232H247.127ZM245.021 109.71V108.342H234.779V106.812H243.941V102.69H232.853V104.04H242.321V105.498H233.177V109.71H245.021Z" fill="black"/>
<path d="M267.103 98.928V92.52H265.519V104.31H267.103V100.368H270.163V98.928H267.103ZM255.277 93.006V94.32H261.685V93.006H255.277ZM253.135 95.202V96.498H263.431V95.202H253.135ZM264.403 101.844C262.801 102.132 261.127 102.33 259.165 102.456V101.412C261.091 101.25 262.243 100.512 262.243 99.324C262.243 97.992 260.803 97.218 258.427 97.218C256.069 97.218 254.629 97.992 254.629 99.324C254.629 100.494 255.727 101.232 257.581 101.394V102.528C256.141 102.582 254.575 102.6 252.793 102.6L252.955 104.022C257.905 104.022 261.505 103.752 264.583 103.176L264.403 101.844ZM256.123 99.306C256.123 98.694 257.023 98.406 258.427 98.406C259.849 98.406 260.749 98.694 260.749 99.306C260.749 99.918 259.849 100.206 258.427 100.206C257.023 100.206 256.123 99.918 256.123 99.306ZM265.447 106.578V109.836H267.103V105.12H255.763V106.578H265.447Z" fill="black"/>
<path d="M286.003 105.48V92.52H284.383V105.48H286.003ZM276.193 102.366C278.803 102.366 280.603 100.89 280.603 98.226C280.603 95.58 278.803 94.104 276.193 94.104C273.583 94.104 271.783 95.58 271.783 98.226C271.783 100.89 273.583 102.366 276.193 102.366ZM276.193 100.962C274.573 100.962 273.403 100.08 273.403 98.226C273.403 96.372 274.573 95.508 276.193 95.508C277.813 95.508 278.983 96.372 278.983 98.226C278.983 100.08 277.813 100.962 276.193 100.962ZM286.723 109.53V108.054H276.823V103.77H275.203V109.53H286.723Z" fill="black"/>
<path d="M303.103 100.008V92.52H301.519V109.8H303.103V101.448H306.073V100.008H303.103ZM290.989 93.78V95.22H297.901V93.78H290.989ZM299.593 98.784V97.308H288.883V98.784H299.593ZM294.427 100.314C292.033 100.314 290.449 101.79 290.449 103.77C290.449 105.75 292.033 107.226 294.427 107.226C296.821 107.226 298.387 105.75 298.387 103.77C298.387 101.79 296.821 100.314 294.427 100.314ZM294.427 105.786C292.915 105.786 292.069 105.03 292.069 103.77C292.069 102.528 292.915 101.754 294.427 101.754C295.939 101.754 296.785 102.528 296.785 103.77C296.785 105.03 295.939 105.786 294.427 105.786Z" fill="black"/>
<path d="M320.185 103.77C320.635 100.836 320.887 97.938 320.959 94.518H309.133V96.012H319.285C319.195 98.46 319.015 101.07 318.547 103.662L320.185 103.77ZM315.073 99.72H313.453V106.254H306.703V107.748H323.803V106.254H315.073V99.72Z" fill="black"/>
<path d="M343.779 92.52H342.195V102.6H343.779V99.108H346.749V97.668H343.779V92.52ZM340.467 100.836L336.615 98.64C337.785 97.344 338.631 95.814 338.937 94.05H330.603V95.49H336.993V95.544C336.111 97.686 333.555 99.972 329.559 101.214L330.369 102.528C332.295 101.862 334.077 100.908 335.535 99.684L339.621 102.024L340.467 100.836ZM338.253 102.888C334.653 102.888 332.547 104.202 332.547 106.38C332.547 108.576 334.653 109.89 338.253 109.89C341.853 109.89 343.959 108.576 343.959 106.38C343.959 104.202 341.853 102.888 338.253 102.888ZM341.763 107.64C341.115 108.144 339.945 108.45 338.253 108.45C336.561 108.45 335.373 108.144 334.743 107.64C334.383 107.316 334.203 106.902 334.203 106.38C334.203 105.876 334.383 105.444 334.743 105.138C335.391 104.652 336.561 104.328 338.253 104.328C339.945 104.328 341.115 104.652 341.763 105.138C342.123 105.444 342.303 105.876 342.303 106.38C342.303 106.902 342.123 107.316 341.763 107.64Z" fill="black"/>
<path d="M361.415 102.6H366.275V94.05H364.655V96.948H356.555V94.05H354.935V102.6H359.795V106.254H352.055V107.748H369.155V106.254H361.415V102.6ZM364.655 98.388V101.16H356.555V98.388H364.655Z" fill="black"/>
<path d="M383.735 99.198H380.135V100.638H383.735V109.8H385.355V92.52H383.735V99.198ZM373.169 101.178H379.091V94.95H371.315V96.426H377.543V99.774H371.567V106.47C375.185 106.47 378.713 106.326 381.449 105.696L381.269 104.292C378.623 104.886 375.203 105.012 373.169 105.012V101.178Z" fill="black"/>
<path d="M402.09 102.546C405.366 102.312 407.31 100.638 407.31 98.262C407.31 95.706 405.042 93.96 401.28 93.96C397.536 93.96 395.25 95.706 395.25 98.262C395.25 100.638 397.212 102.312 400.47 102.546V106.254H392.73V107.748H409.83V106.254H402.09V102.546ZM397.482 99.9C397.104 99.432 396.906 98.892 396.906 98.262C396.906 97.65 397.086 97.092 397.482 96.642C398.148 95.85 399.462 95.4 401.28 95.4C403.098 95.4 404.376 95.868 405.078 96.642C405.474 97.092 405.654 97.65 405.654 98.262C405.654 98.892 405.456 99.432 405.078 99.9C404.412 100.692 403.098 101.142 401.28 101.142C399.462 101.142 398.148 100.692 397.482 99.9Z" fill="black"/>
<path d="M424.896 109.782H426.48V92.52H424.896V109.782ZM417.21 98.748V100.188H420.774V109.17H422.34V93.24H420.774V98.748H417.21ZM414.438 94.536C414.276 99.414 413.016 102.888 410.73 105.552L412.044 106.596C413.232 105.174 414.186 103.518 414.852 101.574L418.47 106.2L419.514 105.174L415.356 99.9C415.752 98.298 415.986 96.534 416.04 94.59L414.438 94.536Z" fill="black"/>
<path d="M437.28 102.546C441.024 102.546 443.31 100.8 443.31 98.244C443.31 95.706 441.024 93.96 437.28 93.96C433.536 93.96 431.25 95.706 431.25 98.244C431.25 100.8 433.536 102.546 437.28 102.546ZM433.482 96.66C434.148 95.85 435.462 95.4 437.28 95.4C439.098 95.4 440.376 95.868 441.078 96.66C441.474 97.092 441.654 97.65 441.654 98.262C441.654 98.892 441.456 99.432 441.078 99.882C440.412 100.692 439.098 101.142 437.28 101.142C435.462 101.142 434.148 100.692 433.482 99.882C433.104 99.432 432.906 98.892 432.906 98.262C432.906 97.65 433.086 97.092 433.482 96.66ZM441.294 102.69H439.764V106.254H434.814V102.69H433.284V106.254H428.73V107.748H445.83V106.254H441.294V102.69Z" fill="black"/>
<path d="M449.88 108C450.654 108 451.32 107.352 451.32 106.578C451.32 105.786 450.654 105.12 449.88 105.12C449.088 105.12 448.44 105.786 448.44 106.578C448.44 107.352 449.088 108 449.88 108Z" fill="black"/>
</svg>
