<svg width="360" height="236" viewBox="0 0 360 236" fill="none" xmlns="http://www.w3.org/2000/svg">
<path d="M359.611 5.04362C363.992 150.165 296.324 239.583 194.921 235.881C81.7527 238.943 4.49997 140.961 0.998487 0.0214929C-0.702234 -0.318651 356.409 5.80394 359.611 5.04362Z" fill="#235B4E"/>
<path d="M135.417 80.8944C135.917 77.8131 136.257 74.6718 136.257 71.2503V69.1695H153.365V58.8651H114.648V69.1695H131.755V71.7506C131.755 84.0558 121.711 93.1796 108.746 99.2622L115.889 108.146C124.952 103.984 131.415 96.1009 134.417 85.3763C139.399 90.1183 143.38 97.3414 147.122 106.986L155.846 101.583C150.123 90.1984 142.8 84.456 135.417 80.8944Z" fill="#FFFAEA"/>
<path d="M147.282 42.6783H121.031V52.7225H147.282V42.6783Z" fill="#FFFAEA"/>
<path d="M218.672 80.3942H214.19V98.682H180.776V39.5969H176.454V70.3299H164.149V40.4373H159.827V115.049H153.345V150.864H168.971C181.857 150.864 192.981 149.443 201.205 144.461L198.124 136.738C192.381 138.819 181.256 140.4 170.872 140.4H157.486V125.533H191.961V115.069H180.736V109.166H252.026V98.702H218.672V80.3942ZM164.169 115.029V82.295H176.474V115.029H164.169Z" fill="#FFFAEA"/>
<path d="M216.331 67.1086C226.636 71.8506 235.099 79.914 240.762 86.957L249.485 78.7335C241.762 70.51 227.716 64.9477 217.672 62.9468C218.332 60.2857 218.672 57.3845 218.672 54.1431V42.6783H214.19V52.8226C214.19 64.8677 200.985 72.5109 182.377 76.8327L187.939 87.4772C201.465 84.0558 211.849 77.9932 216.331 67.1086Z" fill="#FFFAEA"/>
<path d="M158.427 188.4H209.528V157.327H158.427V188.4ZM162.588 167.791H205.387V177.936H162.588V167.791Z" fill="#FFFAEA"/>
<path d="M209.528 113.788H205.367V152.085H209.528V139.719L222.154 139.879V129.235L209.528 129.415V113.788Z" fill="#FFFAEA"/>
</svg>
