<svg width="756" height="27" viewBox="0 0 756 27" fill="none" xmlns="http://www.w3.org/2000/svg">
<path d="M19.5383 10.3679V0.359863H17.0663V23.3999H19.5383V12.6959H23.3303V10.3679H19.5383ZM1.7303 3.71986V5.99986H10.1543V6.07186C9.0983 10.2239 5.33031 14.7119 0.362305 17.3999L1.8983 19.4639C4.3703 17.9999 6.69831 16.1039 8.59431 13.8479L13.6583 19.0559L15.1943 17.1599L9.98631 11.9759C11.5943 9.55186 12.7223 6.79186 13.1303 3.71986H1.7303Z" fill="black"/>
<path d="M44.6903 23.3999V0.359863H42.1703V23.3999H44.6903ZM26.5703 19.7279C32.6183 16.9439 37.4423 11.4239 38.2343 3.83986H26.1863V6.16786H35.2823V6.23986C34.2743 10.5359 30.8183 15.0239 24.8903 17.5919L26.5703 19.7279Z" fill="black"/>
<path d="M50.6903 11.4959C53.7863 11.0399 57.0023 10.1759 59.7623 8.87986L68.4263 11.3759L69.4823 9.38386L62.3303 7.43986C64.6343 5.90386 66.3143 3.95986 66.7943 1.60786H51.9623V3.81586L63.0983 3.79186V3.91186C60.9623 6.33586 55.8503 8.44786 49.6583 9.26386L50.6903 11.4959ZM48.1703 13.2239V15.4799H58.2983V23.4959H60.8423V15.4799H70.9703V13.2239H48.1703Z" fill="black"/>
<path d="M84.8423 13.5119H91.8263V11.2799H78.6023V4.94386H91.3463V2.68786H76.0583V13.5119H82.3223V18.4559H72.1703V20.7839H94.9703V18.4559H84.8423V13.5119Z" fill="black"/>
<path d="M114.17 6.23986H109.13V8.42386H114.17V14.3999H116.69V0.359863H114.17V6.23986ZM111.074 12.2399L106.01 8.99986C107.57 7.12786 108.65 4.94386 109.034 2.44786H97.8503V4.65586H106.058V4.72786C104.882 7.70386 101.57 10.8719 96.4823 12.6719L97.7543 14.6639C100.25 13.6799 102.578 12.3359 104.474 10.6079L109.754 14.0399L111.074 12.2399ZM114.122 17.7839V23.4719H116.69V15.5519H101.282V17.7839H114.122Z" fill="black"/>
<path d="M140.69 17.6159V0.359863H138.17V17.6159H140.69ZM127.49 13.5839C131.018 13.5839 133.49 11.6159 133.49 7.96786C133.49 4.36786 131.018 2.39986 127.49 2.39986C123.986 2.39986 121.514 4.36786 121.514 7.96786C121.514 11.6159 123.986 13.5839 127.49 13.5839ZM127.49 11.4719C125.426 11.4719 123.986 10.3439 123.986 7.96786C123.986 5.61586 125.426 4.51186 127.49 4.51186C129.578 4.51186 131.018 5.61586 131.018 7.96786C131.018 10.3439 129.578 11.4719 127.49 11.4719ZM141.626 23.0879V20.8079H128.498V15.3599H125.978V23.0879H141.626Z" fill="black"/>
<path d="M169.773 0.359863H167.301V13.8239H169.773V9.28786H173.565V7.03186H169.773V0.359863ZM165.189 11.3519L160.173 8.49586C161.709 6.74386 162.789 4.67986 163.173 2.32786H151.989V4.51186H160.173V4.58386C158.973 7.34386 155.733 10.2239 150.597 11.8319L151.821 13.8239C154.341 12.9359 156.669 11.6879 158.541 10.1039L163.917 13.1759L165.189 11.3519ZM162.261 14.1599C157.365 14.1599 154.509 15.9359 154.509 18.8399C154.509 21.8159 157.365 23.5439 162.261 23.5439C167.133 23.5439 170.013 21.8159 170.013 18.8399C170.013 15.9359 167.133 14.1599 162.261 14.1599ZM166.725 20.3999C165.885 21.0239 164.397 21.3839 162.261 21.3839C160.125 21.3839 158.613 21.0239 157.773 20.3999C157.341 19.9919 157.101 19.4879 157.101 18.8399C157.101 18.2159 157.341 17.6879 157.773 17.3039C158.637 16.7039 160.125 16.2959 162.261 16.2959C164.397 16.2959 165.885 16.7039 166.725 17.3039C167.181 17.6879 167.421 18.2159 167.421 18.8399C167.421 19.4879 167.181 19.9919 166.725 20.3999Z" fill="black"/>
<path d="M193.311 13.8959H199.719V2.32786H197.199V6.02386H186.879V2.32786H184.359V13.8959H190.791V18.4559H180.639V20.7839H203.439V18.4559H193.311V13.8959ZM197.223 8.20786L197.199 11.6879H186.855L186.879 8.20786H197.223Z" fill="black"/>
<path d="M225.159 23.3999V0.359863H222.639V23.3999H225.159ZM207.039 19.7279C213.087 16.9439 217.911 11.4239 218.703 3.83986H206.655V6.16786H215.751V6.23986C214.743 10.5359 211.287 15.0239 205.359 17.5919L207.039 19.7279Z" fill="black"/>
<path d="M247.983 10.3919V0.359863H245.535V23.3999H247.983V12.7199H251.799V10.3919H247.983ZM237.399 13.4639C240.135 13.0319 241.935 11.1599 241.935 8.20786C241.935 4.79986 239.511 2.85586 236.031 2.85586C232.527 2.85586 230.103 4.79986 230.103 8.20786C230.103 11.2799 232.047 13.1519 234.975 13.5119V17.4719C233.103 17.5679 231.039 17.6159 228.735 17.6159L229.023 19.9199C235.527 19.9199 240.303 19.4639 244.575 18.3839L244.263 16.1999C242.127 16.7279 239.919 17.0639 237.399 17.3039V13.4639ZM232.575 8.20786C232.575 6.09586 233.991 4.96786 236.031 4.96786C238.047 4.96786 239.463 6.07186 239.463 8.20786C239.463 10.3679 238.047 11.4719 236.031 11.4719C233.991 11.4719 232.575 10.3679 232.575 8.20786Z" fill="black"/>
<path d="M276.873 14.3999H279.393V0.359863H276.873V14.3999ZM274.329 11.6399L267.609 6.74386C268.233 5.20786 268.665 3.50386 268.857 1.70386L266.241 1.51186C265.809 6.52786 263.145 10.5359 259.473 12.9359L261.249 14.8799C263.409 13.3199 265.257 11.3039 266.601 8.87986L272.961 13.5839L274.329 11.6399ZM276.825 17.7839V23.4719H279.393V15.5519H263.985V17.7839H276.825Z" fill="black"/>
<path d="M301.569 6.04786H298.017V0.935863H295.641V13.2239H298.017V8.23186H301.569V14.3759H303.969V0.359863H301.569V6.04786ZM294.633 11.5919L289.689 6.67186C290.169 5.18386 290.481 3.52786 290.625 1.72786L288.129 1.55986C287.793 6.59986 285.993 10.0319 282.921 12.6479L284.721 14.4239C286.401 12.9119 287.793 11.1119 288.801 8.97586L293.217 13.2959L294.633 11.5919ZM296.073 14.1599C291.177 14.1599 288.297 15.9359 288.297 18.8399C288.297 21.8159 291.177 23.5439 296.073 23.5439C300.969 23.5439 303.849 21.8159 303.849 18.8399C303.849 15.9359 300.969 14.1599 296.073 14.1599ZM300.561 20.3999C299.697 21.0239 298.209 21.4079 296.073 21.4079C293.913 21.4079 292.425 21.0239 291.585 20.3999C291.129 19.9919 290.913 19.4879 290.913 18.8399C290.913 18.2159 291.129 17.6879 291.585 17.3039C292.425 16.7039 293.913 16.2959 296.073 16.2959C298.209 16.2959 299.697 16.7039 300.561 17.3039C301.017 17.6879 301.233 18.2159 301.233 18.8399C301.233 19.4879 301.017 19.9919 300.561 20.3999Z" fill="black"/>
<path d="M326.241 0.359863H323.793V14.0639H326.241V9.52786H330.129V7.31986H326.241V0.359863ZM310.233 0.695863V2.51986H318.921V0.695863H310.233ZM307.425 3.45586V5.32786H321.177V3.45586H307.425ZM322.305 11.3039C320.265 11.7119 318.129 11.9999 315.657 12.1919V11.1839C318.201 10.9919 319.689 10.1039 319.689 8.66386C319.689 7.00786 317.745 6.09586 314.505 6.09586C311.265 6.09586 309.345 7.00786 309.345 8.66386C309.345 10.0799 310.761 10.9679 313.209 11.1839V12.3359C311.337 12.4079 309.273 12.4559 306.969 12.4559L307.209 14.4719C313.617 14.4719 318.441 14.0639 322.569 13.1999L322.305 11.3039ZM311.577 8.61586C311.577 7.94386 312.705 7.65586 314.505 7.65586C316.305 7.65586 317.457 7.94386 317.457 8.61586C317.457 9.26386 316.305 9.57586 314.505 9.57586C312.705 9.57586 311.577 9.26386 311.577 8.61586ZM326.241 20.0399V15.0959H310.857V16.9439H323.721V18.2879H311.385V23.4239H327.153V21.5279H313.881V20.0399H326.241Z" fill="black"/>
<path d="M342.273 8.49586C347.169 8.49586 350.121 7.15186 350.121 4.58386C350.121 2.03986 347.169 0.695863 342.273 0.695863C337.377 0.695863 334.425 2.03986 334.425 4.58386C334.425 7.15186 337.377 8.49586 342.273 8.49586ZM342.273 6.40786C340.089 6.40786 338.481 6.11986 337.641 5.63986C337.233 5.37586 337.041 5.01586 337.041 4.58386C337.041 4.17586 337.209 3.81586 337.641 3.55186C338.481 3.07186 340.089 2.78386 342.273 2.78386C344.457 2.78386 346.041 3.07186 346.905 3.55186C347.337 3.81586 347.505 4.17586 347.505 4.58386C347.505 5.01586 347.313 5.37586 346.905 5.63986C346.065 6.11986 344.457 6.40786 342.273 6.40786ZM353.673 12.0479V9.88786H330.873V12.0479H353.673ZM350.985 23.3039V21.3119H337.425V19.4399H349.593V13.8479H334.497V15.7919H347.073V17.5919H334.905V23.3039H350.985Z" fill="black"/>
<path d="M379.108 23.3999H381.628V0.359863H379.108V23.3999ZM362.812 3.71986V5.99986H371.572V6.07186C370.444 10.2479 366.532 14.7359 361.42 17.3759L362.932 19.4639C365.5 18.0239 367.9 16.1279 369.868 13.8479L375.196 19.0559L376.732 17.1359L371.308 11.9999C372.988 9.57586 374.188 6.79186 374.572 3.71986H362.812Z" fill="black"/>
<path d="M408.268 5.42386H404.476V0.359863H402.004V15.0239H404.476V12.4559H408.268V10.3679H404.476V7.51186H408.268V5.42386ZM388.06 0.911863V2.85586H397.252V0.911863H388.06ZM385.324 4.58386V6.62386H399.484V4.58386H385.324ZM397.996 11.3039C397.996 9.23986 395.884 7.87186 392.644 7.87186C389.38 7.87186 387.268 9.23986 387.268 11.3039C387.268 13.3919 389.38 14.7599 392.644 14.7599C395.884 14.7599 397.996 13.3919 397.996 11.3039ZM389.572 11.3039C389.572 10.3199 390.7 9.64786 392.644 9.64786C394.588 9.64786 395.692 10.3199 395.692 11.3039C395.692 12.2879 394.588 12.9599 392.644 12.9599C390.7 12.9599 389.572 12.2879 389.572 11.3039ZM396.964 15.3599C392.068 15.3599 389.212 16.8239 389.212 19.4399C389.212 22.1279 392.068 23.5439 396.964 23.5439C401.86 23.5439 404.716 22.1279 404.716 19.4399C404.716 16.8239 401.86 15.3599 396.964 15.3599ZM401.452 20.6879C400.636 21.1199 399.124 21.4319 396.964 21.4319C394.804 21.4319 393.292 21.1439 392.476 20.6879C392.02 20.3759 391.804 19.9439 391.804 19.4399C391.804 18.9359 392.02 18.5039 392.476 18.2159C393.292 17.7599 394.804 17.4719 396.964 17.4719C399.124 17.4719 400.636 17.7599 401.452 18.2159C401.908 18.5039 402.124 18.9359 402.124 19.4399C402.124 19.9439 401.908 20.3759 401.452 20.6879Z" fill="black"/>
<path d="M428.476 10.1519V0.359863H426.004V23.3999H428.476V12.4799H432.268V10.1519H428.476ZM412.084 1.99186V4.12786H421.348V1.99186H412.084ZM423.604 8.92786V6.69586H409.324V8.92786H423.604ZM416.692 10.7759C413.452 10.7759 411.292 12.7439 411.292 15.4319C411.292 18.1439 413.452 20.0879 416.692 20.0879C419.932 20.0879 422.068 18.1439 422.068 15.4319C422.068 12.7439 419.932 10.7759 416.692 10.7759ZM416.692 17.9519C414.796 17.9519 413.716 16.9919 413.716 15.4319C413.716 13.8719 414.796 12.8879 416.692 12.8879C418.612 12.8879 419.668 13.8719 419.668 15.4319C419.668 16.9919 418.612 17.9519 416.692 17.9519Z" fill="black"/>
<path d="M452.356 9.55186V7.31986H439.732V1.15186H437.212V9.55186H452.356ZM455.908 14.3279V12.0719H433.108V14.3279H455.908ZM452.548 23.0879V20.8319H439.9V16.1039H437.38V23.0879H452.548Z" fill="black"/>
<path d="M483.862 14.5199V0.359863H481.342V7.19986H476.326V9.40786H481.342V14.5199H483.862ZM466.438 1.03186V3.07186H475.006V1.03186H466.438ZM477.814 12.2879L473.254 10.0319C474.646 8.61586 475.678 6.93586 476.134 4.99186H464.926V7.05586H472.99V7.12786C471.358 9.50386 468.286 11.4719 463.846 12.7439L464.998 14.6879C467.326 13.9679 469.63 12.9119 471.526 11.4959L476.686 14.0159L477.814 12.2879ZM476.23 14.8799C471.334 14.8799 468.454 16.4639 468.454 19.1999C468.454 22.0079 471.334 23.5439 476.23 23.5439C481.102 23.5439 483.982 22.0079 483.982 19.1999C483.982 16.4639 481.102 14.8799 476.23 14.8799ZM480.694 20.5679C479.854 21.0959 478.39 21.4079 476.23 21.4079C474.07 21.4079 472.558 21.0959 471.742 20.5679C471.286 20.2319 471.07 19.7519 471.07 19.1999C471.07 18.6719 471.262 18.1679 471.742 17.8319C472.582 17.3279 474.07 16.9919 476.23 16.9919C478.39 16.9919 479.854 17.3279 480.694 17.8319C481.174 18.1679 481.366 18.6719 481.366 19.1999C481.366 19.7519 481.174 20.2319 480.694 20.5679Z" fill="black"/>
<path d="M506.686 10.3919V0.359863H504.238V23.3999H506.686V12.7199H510.502V10.3919H506.686ZM499.894 14.2319C500.518 11.0159 500.782 7.31986 500.782 3.59986H488.758V5.87986H498.382C498.382 8.11186 498.142 11.3999 497.47 14.0159L499.894 14.2319ZM495.022 9.93586H492.622V17.2799C491.038 17.3519 489.31 17.3759 487.438 17.3759L487.726 19.6799C494.206 19.6799 498.982 19.2239 503.278 18.1199L502.942 15.9359C500.518 16.5359 497.998 16.9199 495.022 17.1359V9.93586Z" fill="black"/>
<path d="M515.374 1.03186V8.25586H530.11V1.03186H515.374ZM517.894 6.23986V3.04786H527.59V6.23986H517.894ZM534.142 9.67186H511.342V11.8319H521.59V13.8479H514.966V15.7919H527.542V17.5919H515.374V23.3039H531.478V21.3119H517.87V19.4399H530.086V13.8479H523.894V11.8319H534.142V9.67186Z" fill="black"/>
<path d="M560.945 10.3679V0.359863H558.473V23.3999H560.945V12.6959H564.737V10.3679H560.945ZM551.945 6.16786V6.23986C550.985 10.5359 547.697 15.0719 541.961 17.7359L543.665 19.8719C549.545 16.9679 554.081 11.3999 554.849 3.83986H543.233V6.16786H551.945Z" fill="black"/>
<path d="M584.273 23.3759H586.673V0.359863H584.273V23.3759ZM574.961 10.2719C575.633 8.42386 576.065 6.38386 576.257 4.19986H566.849V6.45586H573.497V6.55186C572.897 10.4879 570.521 14.8559 565.745 17.7119L567.569 19.7279C570.257 17.9519 572.441 15.5519 573.953 12.5759H578.777V22.5599H581.153V1.29586H578.777V10.2719H574.961Z" fill="black"/>
<path d="M592.361 26.5199C594.593 24.8639 595.985 21.6959 595.985 19.0559C595.985 17.1599 594.953 16.1519 593.657 16.1519C592.385 16.1519 591.617 17.1119 591.497 18.1679C592.553 18.2879 593.513 19.1759 593.513 20.5199C593.513 22.3199 592.745 24.1679 590.921 25.7039L592.361 26.5199Z" fill="black"/>
<path d="M624.116 9.91186H620.564V1.29586H618.188V22.5599H620.564V12.1919H624.116V23.3759H626.516V0.359863H624.116V9.91186ZM607.604 2.35186V4.51186H614.924V2.35186H607.604ZM606.332 7.12786V9.28786H613.028V9.38386C611.9 12.4559 609.212 15.5279 605.372 17.5439L606.836 19.4879C608.756 18.3599 610.532 16.8959 612.02 15.1679L615.62 19.3199L617.132 17.6399L613.34 13.4159C614.54 11.5679 615.428 9.47986 615.884 7.12786H606.332Z" fill="black"/>
<path d="M649.628 13.8239L651.068 11.8319L641.732 5.63986C642.332 4.67986 642.812 3.64786 643.196 2.54386L640.676 1.94386C639.068 6.50386 634.916 9.86386 630.236 11.8559L631.628 14.0399C634.844 12.5519 638.012 10.4159 640.364 7.58386L649.628 13.8239ZM642.092 12.1439H639.572V18.4559H629.42V20.7839H652.22V18.4559H642.092V12.1439Z" fill="black"/>
<path d="M672.788 6.59986V0.359863H670.316V8.42386C666.716 9.59986 661.1 10.2239 657.572 10.2239L657.548 4.51186H666.404V2.32786H655.004V12.4319C661.004 12.4319 666.86 11.6879 670.316 10.4399V13.1999H672.788V8.85586H676.58V6.59986H672.788ZM672.788 23.1839V14.3519H658.052V23.1839H672.788ZM670.292 16.4639V21.0479H660.524V16.4639H670.292Z" fill="black"/>
<path d="M697.94 12.3839V0.359863H695.42V12.3839H697.94ZM684.74 12.3599C688.244 12.3599 690.74 10.5119 690.74 7.07986C690.74 3.64786 688.244 1.79986 684.74 1.79986C681.236 1.79986 678.764 3.64786 678.764 7.07986C678.764 10.5119 681.236 12.3599 684.74 12.3599ZM684.74 10.2719C682.7 10.2719 681.236 9.26386 681.236 7.07986C681.236 4.89586 682.7 3.88786 684.74 3.88786C686.804 3.88786 688.292 4.89586 688.292 7.05586C688.292 9.26386 686.804 10.2719 684.74 10.2719ZM697.94 23.3039V13.6559H695.444V16.3439H685.604V13.6559H683.108V23.3039H697.94ZM685.58 18.3839H695.468V21.1199H685.58V18.3839Z" fill="black"/>
<path d="M719.42 13.6799C715.292 15.1439 709.388 16.0079 706.124 16.0079V3.28786H703.58V18.3359C709.364 18.3359 715.412 17.4239 719.42 15.8399V23.3999H721.94V0.359863H719.42V13.6799Z" fill="black"/>
<path d="M744.788 10.3679V0.359863H742.316V14.3759C738.548 15.6239 733.196 16.2719 729.692 16.2719L729.644 5.78386H738.548V3.50386H727.124V18.5759C733.028 18.5759 738.668 17.8559 742.316 16.5599V23.3999H744.788V12.6959H748.58V10.3679H744.788Z" fill="black"/>
<path d="M753.62 21.1199C754.772 21.1199 755.684 20.1839 755.684 19.1039C755.684 17.9759 754.772 17.0399 753.62 17.0399C752.468 17.0399 751.556 17.9999 751.556 19.1039C751.556 20.1839 752.468 21.1199 753.62 21.1199Z" fill="black"/>
</svg>
